<svg fill="none" height="45" viewBox="0 0 45 45" width="45" xmlns="http://www.w3.org/2000/svg"><circle cx="22.5" cy="22.5" fill="#ab390a" r="22.5"/><path d="m26.28 28.12c0 1.1467.2133 1.9467.64 2.4.4267.4267 1.1733.64 2.24.64v.84c-2.88-.1067-4.72-.16-5.52-.16-.88 0-2.8.04-5.76.12l-1.12.04v-.84c1.2533 0 2.1867-.24 2.8-.72.64-.48.96-1.3333.96-2.56v-9.76c0-1.28-.12-2.2133-.36-2.8-.2133-.6133-.5867-1.0133-1.12-1.2-.5333-.2133-1.3467-.32-2.44-.32v-.88c2.32-.0533 4.2267-.2267 5.72-.52 1.4933-.32 2.8133-.8267 3.96-1.52z" fill="#fff"/></svg>