<svg fill="none" height="45" viewBox="0 0 45 45" width="45" xmlns="http://www.w3.org/2000/svg"><circle cx="22.5" cy="22.5" fill="#ab390a" r="22.5"/><path d="m23 10.76c2.0533 0 3.68.4533 4.88 1.36 1.2.88 1.8 2.12 1.8 3.72 0 1.0933-.32 2.1067-.96 3.04-.6133.9333-1.3467 1.76-2.2 2.48s-2.0267 1.6133-3.52 2.68c-1.92 1.3333-3.2667 2.4-4.04 3.2h8.64c.72 0 1.2533-.0533 1.6-.16.3733-.1067.6267-.28.76-.52s.24-.6133.32-1.12h.84c0 3.1467.0533 5.4.16 6.76-.5867-.1333-2.5733-.2-5.96-.2h-11.64v-.76c.3467-.3733 1.0267-1.0133 2.04-1.92 1.5467-1.4133 2.8267-2.6667 3.84-3.76 1.04-1.12 1.9333-2.4 2.68-3.84.7733-1.4667 1.16-2.9867 1.16-4.56 0-1.4133-.32-2.44-.96-3.08-.6133-.6667-1.5333-1-2.76-1-1.12 0-2.12.2667-3 .8-.8533.5067-1.64 1.2667-2.36 2.28l-.68-.4c1.9733-3.3333 5.0933-5 9.36-5z" fill="#fff"/></svg>