<svg fill="none" height="45" viewBox="0 0 45 45" width="45" xmlns="http://www.w3.org/2000/svg"><circle cx="22.5" cy="22.5" fill="#ab390a" r="22.5"/><path d="m22.84 8.76c2 0 3.64.41333 4.92 1.24 1.28.8267 1.92 1.9467 1.92 3.36 0 1.52-.7333 2.88-2.2 4.08s-3.44 2.04-5.92 2.52c2.8-.1067 5.0933.3867 6.88 1.48 1.7867 1.0667 2.68 2.6 2.68 4.6 0 1.9467-.84 3.68-2.52 5.2-1.68 1.5467-3.84 2.7333-6.48 3.56-2.6133.8267-5.2667 1.24-7.96 1.24v-.8c1.76-.0533 3.48-.4533 5.16-1.2 1.7067-.72 3.1067-1.76 4.2-3.12s1.64-2.9733 1.64-4.84c0-1.5733-.3867-2.8667-1.16-3.88-.7467-1.0133-1.76-1.5733-3.04-1.68-.3733.1867-.7467.3467-1.12.48-.3467.1067-.6533.16-.92.16-.5067 0-.76-.1867-.76-.56 0-.2933.12-.5067.36-.64.24-.16.5467-.24.92-.24.16 0 .3733.0267.64.08.2933.0267.5467.0533.76.08 2.0533-1.44 3.08-3.2267 3.08-5.36 0-1.2-.3067-2.08-.92-2.64-.6133-.5867-1.4933-.88-2.64-.88-1.0667 0-2.0533.2667-2.96.8-.88.5333-1.6267 1.3067-2.24 2.32l-.72-.36c.8267-1.52 1.8933-2.7333 3.2-3.64 1.3333-.90667 3.0667-1.36 5.2-1.36z" fill="#fff"/></svg>