<svg fill="none" height="82" viewBox="0 0 610 82" width="610" xmlns="http://www.w3.org/2000/svg"><path d="m87.22 12.3652c-.1467 0-.2667-.0467-.36-.14s-.1533-.2267-.18-.4l-.36-4.08001-.02-.2c0-.29333.0867-.52.26-.67999.1733-.16001.3933-.24001.66-.24001.3067 0 .54.1.7.3.1733.2.2333.47334.18.82l-.34 4.08001c-.04.36-.22.54-.54.54zm4 0c-.1467 0-.2667-.0467-.36-.14s-.1533-.2267-.18-.4l-.36-4.08001-.02-.2c0-.29333.0867-.52.26-.67999.1733-.16001.3933-.24001.66-.24001.3067 0 .54.1.7.3.1733.2.2333.47334.18.82l-.34 4.08001c-.04.36-.22.54-.54.54zm4.758 8.56c-.2534 0-.4534-.0733-.6-.22-.1467-.16-.22-.3667-.22-.62v-12.62001c0-.25333.0733-.45333.22-.59999.1466-.16001.3466-.24001.6-.24001.2533 0 .4533.08.6.24001.1466.14666.22.34666.22.59999v12.62001c0 .2533-.0734.46-.22.62-.1467.1467-.3467.22-.6.22zm8.557-1.28c.467.04.7.2533.7.64 0 .2267-.087.4-.26.52-.16.1067-.407.1467-.74.12l-.54-.04c-1.067-.08-1.853-.4-2.36-.96s-.76-1.4067-.76-2.54v-5.02h-1.3398c-.2267 0-.4067-.0533-.54-.16-.12-.12-.18-.2733-.18-.46 0-.2.06-.36.18-.48.1333-.12.3133-.18.54-.18h1.3398v-2.26001c0-.25333.073-.44666.22-.57999.147-.14667.347-.22001.6-.22001.24 0 .433.07334.58.22001.147.13333.22.32666.22.57999v2.26001h2.22c.213 0 .38.06.5.18.133.12.2.28.2.48 0 .1867-.067.34-.2.46-.12.1067-.287.16-.5.16h-2.22v5.1c0 .7333.147 1.2667.44 1.6.307.32.76.5 1.36.54zm3.017-7.28c-.147 0-.267-.0467-.36-.14s-.153-.2267-.18-.4l-.36-4.08001-.02-.2c0-.29333.087-.52.26-.67999.173-.16001.393-.24001.66-.24001.307 0 .54.1.7.3.173.2.233.47334.18.82l-.34 4.08001c-.04.36-.22.54-.54.54zm6.974 8.6c-.613 0-1.2-.0733-1.76-.22-.547-.1467-1.033-.3533-1.46-.62-.24-.16-.413-.3067-.52-.44-.093-.1467-.14-.32-.14-.52 0-.1733.047-.3133.14-.42.107-.12.24-.18.4-.18s.393.1.7.3c.4.24.793.4333 1.18.58.4.1333.893.2 1.48.2.72 0 1.28-.1267 1.68-.38s.6-.62.6-1.1c0-.2933-.073-.5267-.22-.7-.147-.1867-.4-.3467-.76-.48-.36-.1467-.887-.2933-1.58-.44-1.173-.2533-2.013-.5933-2.52-1.02s-.76-1.0067-.76-1.74c0-.5733.16-1.08.48-1.52s.76-.7867 1.32-1.04c.573-.2533 1.22-.38 1.94-.38.52 0 1.02.0733 1.5.22.493.1333.927.3267 1.3.58.453.32.68.6533.68 1 0 .1733-.053.32-.16.44s-.233.18-.38.18c-.16 0-.4-.1133-.72-.34-.373-.24-.727-.4267-1.06-.56s-.747-.2-1.24-.2c-.627 0-1.133.14-1.52.42-.373.28-.56.6533-.56 1.12 0 .2933.067.5333.2.72.147.1733.38.3333.7.48.333.1333.807.2667 1.42.4.907.2 1.607.42 2.1.66.507.24.867.5333 1.08.88s.32.7867.32 1.32c0 .84-.353 1.52-1.06 2.04-.707.5067-1.64.76-2.8.76zm94.668-9.88c.227 0 .4.06.52.18s.18.28.18.48v8.38c0 .2533-.08.4533-.24.6-.146.1333-.333.2-.56.2-.24 0-.44-.0667-.6-.2-.146-.1467-.22-.3467-.22-.6v-7.76h-4.38v7.76c0 .2533-.08.4533-.24.6-.146.1333-.333.2-.56.2-.24 0-.44-.0667-.6-.2-.146-.1467-.22-.3467-.22-.6v-7.76h-1.34c-.226 0-.406-.0533-.54-.16-.12-.12-.18-.2733-.18-.46 0-.2.06-.36.18-.48.134-.12.314-.18.54-.18h1.34v-.34c0-1.20001.3-2.14001.9-2.82001.6-.69333 1.46-1.08666 2.58-1.18l.48-.04c.64-.05333.96.14667.96.6 0 .38667-.226.60667-.68.66001l-.48.03999c-.706.05334-1.24.28-1.6.68-.36.38667-.54.97334-.54 1.76001v.64zm-.1-4.32c.307 0 .56.09333.76.28.214.18666.32.42666.32.71999 0 .30667-.1.55334-.3.74-.2.18667-.46.28-.78.28s-.58-.09333-.78-.28c-.2-.18666-.3-.43333-.3-.74 0-.29333.1-.53333.3-.71999.2-.18667.46-.28.78-.28zm8.712 4.08c2.334 0 3.5 1.2867 3.5 3.86v5.42c0 .2533-.073.4533-.22.6-.133.1333-.326.2-.58.2-.253 0-.453-.0667-.6-.2-.146-.1467-.22-.3467-.22-.6v-5.32c0-.9067-.18-1.5667-.54-1.98-.346-.4133-.906-.62-1.68-.62-.893 0-1.606.2733-2.14.82-.533.5467-.8 1.2867-.8 2.22v4.88c0 .2533-.073.4533-.22.6-.133.1333-.326.2-.58.2-.253 0-.453-.0667-.6-.2-.146-.1467-.22-.3467-.22-.6v-8.44c0-.24.074-.4333.22-.58.147-.1467.347-.22.6-.22.24 0 .427.0733.56.22.147.1467.22.3333.22.56v1.02c.32-.6.767-1.0533 1.34-1.36.574-.32 1.227-.48 1.96-.48zm14.287-4.22001c.254 0 .454.07334.6.22.147.14667.22.33334.22.56001v12.72c0 .24-.073.4333-.22.58-.146.1467-.346.22-.6.22-.253 0-.453-.0733-.6-.22-.133-.1467-.2-.34-.2-.58v-1.08c-.293.6133-.726 1.0867-1.3 1.42-.56.3333-1.22.5-1.98.5-.853 0-1.606-.2133-2.26-.64-.653-.4267-1.16-1.02-1.52-1.78-.36-.7733-.54-1.6667-.54-2.68 0-1 .18-1.88.54-2.64s.867-1.3467 1.52-1.76c.654-.4133 1.407-.62 2.26-.62.76 0 1.42.1667 1.98.5.574.3333 1.007.8067 1.3 1.42v-5.36c0-.24.067-.42667.2-.56001.147-.14666.347-.22.6-.22zm-3.76 13.00001c.947 0 1.674-.32 2.18-.96.52-.6533.78-1.5733.78-2.76s-.26-2.1-.78-2.74c-.506-.64-1.233-.96-2.18-.96-.946 0-1.686.32-2.22.96-.52.64-.78 1.54-.78 2.7 0 1.1867.26 2.1133.78 2.78.534.6533 1.274.98 2.22.98zm8.401 1.3c-.24 0-.44-.0667-.6-.2-.147-.1467-.22-.3467-.22-.6v-8.44c0-.2533.073-.4467.22-.58.16-.1467.36-.22.6-.22s.433.0733.58.22c.147.1333.22.3267.22.58v8.44c0 .2667-.073.4667-.22.6s-.34.2-.58.2zm0-12.14001c-.32 0-.58-.09333-.78-.28-.2-.18666-.3-.43333-.3-.74 0-.29333.1-.53333.3-.71999.2-.18667.46-.28.78-.28s.58.09333.78.28c.2.18666.3.42666.3.71999 0 .30667-.1.55334-.3.74-.2.18667-.46.28-.78.28zm8.729 2.06001c2.333 0 3.5 1.2867 3.5 3.86v5.42c0 .2533-.074.4533-.22.6-.134.1333-.327.2-.58.2-.254 0-.454-.0667-.6-.2-.147-.1467-.22-.3467-.22-.6v-5.32c0-.9067-.18-1.5667-.54-1.98-.347-.4133-.907-.62-1.68-.62-.894 0-1.607.2733-2.14.82-.534.5467-.8 1.2867-.8 2.22v4.88c0 .2533-.074.4533-.22.6-.134.1333-.327.2-.58.2-.254 0-.454-.0667-.6-.2-.147-.1467-.22-.3467-.22-.6v-8.44c0-.24.073-.4333.22-.58.146-.1467.346-.22.6-.22.24 0 .426.0733.56.22.146.1467.22.3333.22.56v1.02c.32-.6.766-1.0533 1.34-1.36.573-.32 1.226-.48 1.96-.48zm14.367.04c.253 0 .453.0733.6.22.146.1467.22.34.22.58v8.48c0 1.4533-.374 2.5467-1.12 3.28-.747.7467-1.854 1.12-3.32 1.12-1.427 0-2.614-.28-3.56-.84-.48-.2667-.72-.5733-.72-.92 0-.1867.046-.34.14-.46.106-.12.24-.18.4-.18.133 0 .373.0933.72.28.466.24.926.4333 1.38.58.453.1467.993.22 1.62.22.946 0 1.66-.2533 2.14-.76.48-.4933.72-1.22.72-2.18v-1.72c-.28.6267-.714 1.1067-1.3 1.44-.574.3333-1.254.5-2.04.5-.854 0-1.614-.2-2.28-.6-.654-.4-1.167-.9667-1.54-1.7-.36-.7333-.54-1.58-.54-2.54s.18-1.8067.54-2.54c.373-.7333.886-1.3 1.54-1.7.666-.4 1.426-.6 2.28-.6.773 0 1.446.1667 2.02.5.573.3333 1.006.8067 1.3 1.42v-1.08c0-.24.066-.4333.2-.58.146-.1467.346-.22.6-.22zm-3.8 8.3c.933 0 1.666-.3067 2.2-.92.533-.6267.8-1.4867.8-2.58 0-1.08-.267-1.9267-.8-2.54-.52-.6267-1.254-.94-2.2-.94-.947 0-1.694.3133-2.24.94-.534.6133-.8 1.46-.8 2.54 0 1.0933.266 1.9533.8 2.58.546.6133 1.293.92 2.24.92zm13.815 1.64c-.227 0-.42-.0667-.58-.2-.147-.1467-.22-.3333-.22-.56v-12.60001c0-.25333.073-.45333.22-.59999.146-.16001.346-.24001.6-.24001.253 0 .453.08.6.24001.146.14666.22.34666.22.59999v11.96001h6.46c.24 0 .426.06.56.18.133.12.2.2933.2.52s-.067.4-.2.52c-.134.12-.32.18-.56.18zm19.758-7.34c.2 0 .36.06.48.18.133.12.2.2867.2.5v4.98c0 .32-.054.56-.16.72-.094.16-.274.2867-.54.38-.534.2267-1.18.4067-1.94.54s-1.52.2-2.28.2c-1.4 0-2.607-.2867-3.62-.86-1.014-.5733-1.794-1.4-2.34-2.48-.534-1.08-.8-2.3733-.8-3.88 0-1.48.266-2.76.8-3.84001.533-1.08 1.3-1.90666 2.3-2.48 1-.58666 2.173-.88 3.52-.88.933 0 1.8.14667 2.6.44.8.28 1.473.68667 2.02 1.22.226.22667.34.46.34.7 0 .18667-.054.35334-.16.5-.107.13334-.24.20001-.4.20001s-.347-.08-.56-.24001c-.694-.53333-1.32-.9-1.88-1.1-.56-.21333-1.207-.31999-1.94-.31999-1.587 0-2.807.5-3.66 1.49999-.84 1.00001-1.26 2.43331-1.26 4.30001 0 1.9067.426 3.36 1.28 4.36.866.9867 2.133 1.48 3.8 1.48 1.24 0 2.366-.1867 3.38-.56v-4.28h-2.92c-.227 0-.407-.06-.54-.18-.134-.12-.2-.2733-.2-.46 0-.2.066-.3533.2-.46.133-.12.313-.18.54-.18zm11.992.1c.814.2133 1.44.6133 1.88 1.2.454.5867.68 1.32.68 2.2 0 1.24-.406 2.1933-1.22 2.86-.813.6533-1.966.98-3.46.98h-5.04c-.253 0-.46-.0733-.62-.22-.146-.1467-.22-.34-.22-.58v-12.50001c0-.24.074-.43333.22-.57999.16-.14667.367-.22001.62-.22001h4.82c1.454 0 2.58.32 3.38.96001.8.63999 1.2 1.54666 1.2 2.72 0 .76-.2 1.4133-.6 1.96-.386.5467-.933.9533-1.64 1.22zm-6.38-.6h3.8c1.054 0 1.847-.2133 2.38-.64.547-.4267.82-1.0467.82-1.86 0-1.60001-1.066-2.40001-3.2-2.40001h-3.8zm4.1 6.48c1.107 0 1.92-.2 2.44-.6.534-.4133.8-1.0533.8-1.92 0-1.7333-1.08-2.6-3.24-2.6h-4.1v5.12zm11.802 1.46c-.254 0-.46-.0733-.62-.22-.147-.16-.22-.3667-.22-.62v-11.96001h-4.3c-.24 0-.427-.06-.56-.18-.134-.12-.2-.29333-.2-.52 0-.22666.066-.4.2-.52.133-.12.32-.18.56-.18h10.26c.24 0 .426.06.56.18.133.12.2.29334.2.52 0 .22667-.067.4-.2.52-.134.12-.32.18-.56.18h-4.3v11.96001c0 .2533-.074.46-.22.62-.147.1467-.347.22-.6.22zm17.574 2.5c.093.1467.14.3.14.46 0 .1867-.073.34-.22.46s-.32.18-.52.18c-.347 0-.627-.1733-.84-.52l-1.16-1.9c-.48-.7467-1.227-1.12-2.24-1.12-1.307 0-2.447-.2933-3.42-.88-.96-.5867-1.7-1.42-2.22-2.5s-.78-2.3533-.78-3.82c0-1.48.253-2.76.76-3.84001.52-1.09333 1.26-1.92666 2.22-2.5.973-.58666 2.12-.88 3.44-.88 1.307 0 2.44.29334 3.4.88.973.57334 1.72 1.40667 2.24 2.5.52 1.08001.78 2.35331.78 3.82001 0 1.7067-.347 3.1533-1.04 4.34-.68 1.1733-1.653 1.9933-2.92 2.46.293.0933.553.2467.78.46.227.2267.46.5333.7.92zm-9.58-9.66c0 1.8533.413 3.2867 1.24 4.3.84 1.0133 2.007 1.52 3.5 1.52s2.653-.5 3.48-1.5c.84-1.0133 1.26-2.4533 1.26-4.32s-.413-3.3-1.24-4.30001c-.827-.99999-1.993-1.49999-3.5-1.49999-1.493 0-2.66.50666-3.5 1.51999-.827 1.00001-1.24 2.42671-1.24 4.28001zm23.53 5.88c.466.04.7.2533.7.64 0 .2267-.087.4-.26.52-.16.1067-.407.1467-.74.12l-.54-.04c-1.067-.08-1.854-.4-2.36-.96-.507-.56-.76-1.4067-.76-2.54v-5.02h-1.34c-.227 0-.407-.0533-.54-.16-.12-.12-.18-.2733-.18-.46 0-.2.06-.36.18-.48.133-.12.313-.18.54-.18h1.34v-2.26001c0-.25333.073-.44666.22-.57999.146-.14667.346-.22001.6-.22001.24 0 .433.07334.58.22001.146.13333.22.32666.22.57999v2.26001h2.22c.213 0 .38.06.5.18.133.12.2.28.2.48 0 .1867-.067.34-.2.46-.12.1067-.287.16-.5.16h-2.22v5.1c0 .7333.146 1.2667.44 1.6.306.32.76.5 1.36.54zm7.217-8.8c1.146 0 2.013.3267 2.6.98.586.64.88 1.6.88 2.88v5.42c0 .2533-.074.4533-.22.6-.147.1333-.34.2-.58.2-.254 0-.454-.0667-.6-.2-.147-.1467-.22-.3467-.22-.6v-5.38c0-.8667-.18-1.5067-.54-1.92-.347-.4133-.907-.62-1.68-.62-.894 0-1.607.2733-2.14.82-.534.5467-.8 1.2867-.8 2.22v4.88c0 .2533-.074.4533-.22.6-.134.1333-.327.2-.58.2-.254 0-.454-.0667-.6-.2-.147-.1467-.22-.3467-.22-.6v-12.72c0-.22667.073-.41334.22-.56001.16-.14666.36-.22.6-.22.253 0 .446.07334.58.22.146.13334.22.32001.22.56001v5.24c.32-.5867.766-1.0333 1.34-1.34.573-.3067 1.226-.46 1.96-.46zm13.987 7.72c.146 0 .273.06.38.18.106.12.16.2733.16.46 0 .3333-.234.64-.7.92-.48.28-.987.4933-1.52.64-.534.1333-1.054.2-1.56.2-1.507 0-2.7-.4467-3.58-1.34-.867-.8933-1.3-2.1267-1.3-3.7 0-1 .193-1.88.58-2.64.386-.7733.926-1.3733 1.62-1.8.706-.4267 1.506-.64 2.4-.64 1.266 0 2.273.4133 3.02 1.24.746.8267 1.12 1.9467 1.12 3.36 0 .2667-.054.46-.16.58-.107.12-.28.18-.52.18h-6.44c.12 2.2933 1.206 3.44 3.26 3.44.52 0 .966-.0667 1.34-.2.373-.1467.773-.34 1.2-.58.346-.2.58-.3.7-.3zm-3.5-6.46c-.854 0-1.54.2667-2.06.8-.507.5333-.807 1.2867-.9 2.26h5.66c-.027-.9867-.274-1.74-.74-2.26-.467-.5333-1.12-.8-1.96-.8zm11.327-1.22c.56-.04.84.1867.84.68 0 .2133-.06.3867-.18.52-.12.12-.327.1933-.62.22l-.6.06c-.894.08-1.56.4-2 .96-.427.5467-.64 1.1933-.64 1.94v4.86c0 .2667-.074.4667-.22.6-.147.1333-.34.2-.58.2s-.44-.0667-.6-.2c-.147-.1467-.22-.3467-.22-.6v-8.44c0-.2533.08-.4467.24-.58.16-.1467.353-.22.58-.22.213 0 .393.0733.54.22.146.1333.22.32.22.56v1.12c.28-.5867.673-1.0333 1.18-1.34.52-.3067 1.113-.4867 1.78-.54zm6.132-.04c2.44 0 3.66 1.28 3.66 3.84v5.44c0 .24-.073.4333-.22.58-.133.1467-.32.22-.56.22s-.433-.0733-.58-.22c-.146-.1467-.22-.34-.22-.58v-.96c-.253.5733-.64 1.02-1.16 1.34-.52.3067-1.12.46-1.8.46-.626 0-1.206-.1267-1.74-.38-.52-.2533-.933-.6067-1.24-1.06-.306-.4533-.46-.9533-.46-1.5 0-.7333.187-1.3.56-1.7.374-.4133.987-.7067 1.84-.88.854-.1867 2.04-.28 3.56-.28h.44v-.66c0-.8-.166-1.3867-.5-1.76-.32-.3733-.846-.56-1.58-.56-.906 0-1.826.2467-2.76.74-.36.2267-.613.34-.76.34-.16 0-.293-.06-.4-.18-.106-.12-.16-.2733-.16-.46s.054-.3467.16-.48c.12-.1467.307-.2933.56-.44.467-.2667.994-.4733 1.58-.62.6-.16 1.194-.24 1.78-.24zm-.66 8.84c.8 0 1.454-.2667 1.96-.8.52-.5467.78-1.2467.78-2.1v-.58h-.36c-1.173 0-2.066.0533-2.68.16-.613.0933-1.053.26-1.32.5-.253.2267-.38.5667-.38 1.02 0 .52.187.9533.56 1.3.387.3333.867.5 1.44.5zm12.186-8.84c.853 0 1.606.2133 2.26.64.653.4267 1.16 1.0267 1.52 1.8.36.76.54 1.6467.54 2.66s-.18 1.9-.54 2.66c-.36.7467-.867 1.3267-1.52 1.74-.64.4133-1.394.62-2.26.62-.76 0-1.427-.1667-2-.5-.56-.3333-.987-.8067-1.28-1.42v4.7c0 .24-.074.4267-.22.56-.134.1467-.327.22-.58.22-.254 0-.454-.0733-.6-.22-.147-.1467-.22-.3333-.22-.56v-12.06c0-.24.073-.4333.22-.58.146-.1467.346-.22.6-.22.253 0 .446.0733.58.22.146.1467.22.34.22.58v1.08c.293-.6133.72-1.0867 1.28-1.42.573-.3333 1.24-.5 2-.5zm-.32 8.78c.946 0 1.68-.32 2.2-.96s.78-1.5467.78-2.72-.26-2.0867-.78-2.74c-.52-.6667-1.254-1-2.2-1-.947 0-1.68.32-2.2.96-.507.64-.76 1.5533-.76 2.74s.253 2.1067.76 2.76c.52.64 1.253.96 2.2.96zm7.88 1.3c-.24 0-.44-.0667-.6-.2-.146-.1467-.22-.3467-.22-.6v-8.44c0-.2533.074-.4467.22-.58.16-.1467.36-.22.6-.22s.434.0733.58.22c.147.1333.22.3267.22.58v8.44c0 .2667-.073.4667-.22.6-.146.1333-.34.2-.58.2zm0-12.14001c-.32 0-.58-.09333-.78-.28-.2-.18666-.3-.43333-.3-.74 0-.29333.1-.53333.3-.71999.2-.18667.46-.28.78-.28s.58.09333.78.28c.2.18666.3.42666.3.71999 0 .30667-.1.55334-.3.74-.2.18667-.46.28-.78.28zm7.109 12.18001c-.614 0-1.2-.0733-1.76-.22-.547-.1467-1.034-.3533-1.46-.62-.24-.16-.414-.3067-.52-.44-.094-.1467-.14-.32-.14-.52 0-.1733.046-.3133.14-.42.106-.12.24-.18.4-.18s.393.1.7.3c.4.24.793.4333 1.18.58.4.1333.893.2 1.48.2.72 0 1.28-.1267 1.68-.38s.6-.62.6-1.1c0-.2933-.074-.5267-.22-.7-.147-.1867-.4-.3467-.76-.48-.36-.1467-.887-.2933-1.58-.44-1.174-.2533-2.014-.5933-2.52-1.02-.507-.4267-.76-1.0067-.76-1.74 0-.5733.16-1.08.48-1.52s.76-.7867 1.32-1.04c.573-.2533 1.22-.38 1.94-.38.52 0 1.02.0733 1.5.22.493.1333.926.3267 1.3.58.453.32.68.6533.68 1 0 .1733-.054.32-.16.44-.107.12-.234.18-.38.18-.16 0-.4-.1133-.72-.34-.374-.24-.727-.4267-1.06-.56-.334-.1333-.747-.2-1.24-.2-.627 0-1.134.14-1.52.42-.374.28-.56.6533-.56 1.12 0 .2933.066.5333.2.72.146.1733.38.3333.7.48.333.1333.806.2667 1.42.4.906.2 1.606.42 2.1.66.506.24.866.5333 1.08.88.213.3467.32.7867.32 1.32 0 .84-.354 1.52-1.06 2.04-.707.5067-1.64.76-2.8.76zm10.731-1.32c.467.04.7.2533.7.64 0 .2267-.086.4-.26.52-.16.1067-.406.1467-.74.12l-.54-.04c-1.066-.08-1.853-.4-2.36-.96-.506-.56-.76-1.4067-.76-2.54v-5.02h-1.34c-.226 0-.406-.0533-.54-.16-.12-.12-.18-.2733-.18-.46 0-.2.06-.36.18-.48.134-.12.314-.18.54-.18h1.34v-2.26001c0-.25333.074-.44666.22-.57999.147-.14667.347-.22001.6-.22001.24 0 .434.07334.58.22001.147.13333.22.32666.22.57999v2.26001h2.22c.214 0 .38.06.5.18.134.12.2.28.2.48 0 .1867-.066.34-.2.46-.12.1067-.286.16-.5.16h-2.22v5.1c0 .7333.147 1.2667.44 1.6.307.32.76.5 1.36.54zm5.577 1.32c-.613 0-1.2-.0733-1.76-.22-.546-.1467-1.033-.3533-1.46-.62-.24-.16-.413-.3067-.52-.44-.093-.1467-.14-.32-.14-.52 0-.1733.047-.3133.14-.42.107-.12.24-.18.4-.18s.394.1.7.3c.4.24.794.4333 1.18.58.4.1333.894.2 1.48.2.72 0 1.28-.1267 1.68-.38s.6-.62.6-1.1c0-.2933-.073-.5267-.22-.7-.146-.1867-.4-.3467-.76-.48-.36-.1467-.886-.2933-1.58-.44-1.173-.2533-2.013-.5933-2.52-1.02-.506-.4267-.76-1.0067-.76-1.74 0-.5733.16-1.08.48-1.52s.76-.7867 1.32-1.04c.574-.2533 1.22-.38 1.94-.38.52 0 1.02.0733 1.5.22.494.1333.927.3267 1.3.58.454.32.68.6533.68 1 0 .1733-.053.32-.16.44-.106.12-.233.18-.38.18-.16 0-.4-.1133-.72-.34-.373-.24-.726-.4267-1.06-.56-.333-.1333-.746-.2-1.24-.2-.626 0-1.133.14-1.52.42-.373.28-.56.6533-.56 1.12 0 .2933.067.5333.2.72.147.1733.38.3333.7.48.334.1333.807.2667 1.42.4.907.2 1.607.42 2.1.66.507.24.867.5333 1.08.88.214.3467.32.7867.32 1.32 0 .84-.353 1.52-1.06 2.04-.706.5067-1.64.76-2.8.76zm15.986-1.32c.467.04.7.2533.7.64 0 .2267-.087.4-.26.52-.16.1067-.407.1467-.74.12l-.54-.04c-1.067-.08-1.853-.4-2.36-.96s-.76-1.4067-.76-2.54v-5.02h-1.34c-.227 0-.407-.0533-.54-.16-.12-.12-.18-.2733-.18-.46 0-.2.06-.36.18-.48.133-.12.313-.18.54-.18h1.34v-2.26001c0-.25333.073-.44666.22-.57999.147-.14667.347-.22001.6-.22001.24 0 .433.07334.58.22001.147.13333.22.32666.22.57999v2.26001h2.22c.213 0 .38.06.5.18.133.12.2.28.2.48 0 .1867-.067.34-.2.46-.12.1067-.287.16-.5.16h-2.22v5.1c0 .7333.147 1.2667.44 1.6.307.32.76.5 1.36.54zm7.217-8.8c1.147 0 2.013.3267 2.6.98.587.64.88 1.6.88 2.88v5.42c0 .2533-.073.4533-.22.6-.147.1333-.34.2-.58.2-.253 0-.453-.0667-.6-.2-.147-.1467-.22-.3467-.22-.6v-5.38c0-.8667-.18-1.5067-.54-1.92-.347-.4133-.907-.62-1.68-.62-.893 0-1.607.2733-2.14.82s-.8 1.2867-.8 2.22v4.88c0 .2533-.073.4533-.22.6-.133.1333-.327.2-.58.2s-.453-.0667-.6-.2c-.147-.1467-.22-.3467-.22-.6v-12.72c0-.22667.073-.41334.22-.56001.16-.14666.36-.22.6-.22.253 0 .447.07334.58.22.147.13334.22.32001.22.56001v5.24c.32-.5867.767-1.0333 1.34-1.34s1.227-.46 1.96-.46zm10.427 0c2.44 0 3.66 1.28 3.66 3.84v5.44c0 .24-.073.4333-.22.58-.133.1467-.32.22-.56.22s-.433-.0733-.58-.22-.22-.34-.22-.58v-.96c-.253.5733-.64 1.02-1.16 1.34-.52.3067-1.12.46-1.8.46-.627 0-1.207-.1267-1.74-.38-.52-.2533-.933-.6067-1.24-1.06s-.46-.9533-.46-1.5c0-.7333.187-1.3.56-1.7.373-.4133.987-.7067 1.84-.88.853-.1867 2.04-.28 3.56-.28h.44v-.66c0-.8-.167-1.3867-.5-1.76-.32-.3733-.847-.56-1.58-.56-.907 0-1.827.2467-2.76.74-.36.2267-.613.34-.76.34-.16 0-.293-.06-.4-.18s-.16-.2733-.16-.46.053-.3467.16-.48c.12-.1467.307-.2933.56-.44.467-.2667.993-.4733 1.58-.62.6-.16 1.193-.24 1.78-.24zm-.66 8.84c.8 0 1.453-.2667 1.96-.8.52-.5467.78-1.2467.78-2.1v-.58h-.36c-1.173 0-2.067.0533-2.68.16-.613.0933-1.053.26-1.32.5-.253.2267-.38.5667-.38 1.02 0 .52.187.9533.56 1.3.387.3333.867.5 1.44.5zm11.786-.04c.466.04.7.2533.7.64 0 .2267-.087.4-.26.52-.16.1067-.407.1467-.74.12l-.54-.04c-1.067-.08-1.854-.4-2.36-.96-.507-.56-.76-1.4067-.76-2.54v-5.02h-1.34c-.227 0-.407-.0533-.54-.16-.12-.12-.181-.2733-.181-.46 0-.2.061-.36.181-.48.133-.12.313-.18.54-.18h1.34v-2.26001c0-.25333.073-.44666.22-.57999.146-.14667.346-.22001.6-.22001.24 0 .433.07334.58.22001.146.13333.22.32666.22.57999v2.26001h2.219c.214 0 .381.06.501.18.133.12.2.28.2.48 0 .1867-.067.34-.2.46-.12.1067-.287.16-.501.16h-2.219v5.1c0 .7333.146 1.2667.44 1.6.306.32.76.5 1.36.54zm18.293-8.8c2.16 0 3.24 1.2867 3.24 3.86v5.42c0 .2533-.074.4533-.22.6-.147.1333-.34.2-.58.2s-.44-.0667-.6-.2c-.147-.1467-.22-.3467-.22-.6v-5.38c0-.8933-.16-1.54-.48-1.94s-.82-.6-1.5-.6c-.814 0-1.454.2733-1.92.82-.467.5467-.7 1.2867-.7 2.22v4.88c0 .2533-.08.4533-.24.6-.147.1333-.34.2-.58.2s-.434-.0667-.58-.2c-.147-.1467-.22-.3467-.22-.6v-5.38c0-.8933-.16-1.54-.48-1.94s-.827-.6-1.52-.6c-.8 0-1.44.2733-1.92.82-.467.5467-.7 1.2867-.7 2.22v4.88c0 .2533-.074.4533-.22.6-.147.1333-.34.2-.58.2s-.44-.0667-.6-.2c-.147-.1467-.22-.3467-.22-.6v-8.44c0-.24.073-.4333.22-.58.16-.1467.36-.22.6-.22.226 0 .413.0733.56.22.146.1333.22.32.22.56v.96c.293-.5733.7-1.0133 1.22-1.32s1.12-.46 1.8-.46c1.52 0 2.513.64 2.98 1.92.28-.5867.706-1.0533 1.28-1.4.573-.3467 1.226-.52 1.96-.52zm13.731 7.72c.147 0 .273.06.38.18s.16.2733.16.46c0 .3333-.233.64-.7.92-.48.28-.987.4933-1.52.64-.533.1333-1.053.2-1.56.2-1.507 0-2.7-.4467-3.58-1.34-.867-.8933-1.3-2.1267-1.3-3.7 0-1 .193-1.88.58-2.64.387-.7733.927-1.3733 1.62-1.8.707-.4267 1.507-.64 2.4-.64 1.267 0 2.273.4133 3.02 1.24s1.12 1.9467 1.12 3.36c0 .2667-.053.46-.16.58s-.28.18-.52.18h-6.44c.12 2.2933 1.207 3.44 3.26 3.44.52 0 .967-.0667 1.34-.2.373-.1467.773-.34 1.2-.58.347-.2.58-.3.7-.3zm-3.5-6.46c-.853 0-1.54.2667-2.06.8-.507.5333-.807 1.2867-.9 2.26h5.66c-.027-.9867-.273-1.74-.74-2.26-.467-.5333-1.12-.8-1.96-.8zm14.047 6.46c.146 0 .273.06.38.18.106.12.16.2733.16.46 0 .3333-.234.64-.7.92-.48.28-.987.4933-1.52.64-.534.1333-1.054.2-1.56.2-1.507 0-2.7-.4467-3.58-1.34-.867-.8933-1.3-2.1267-1.3-3.7 0-1 .193-1.88.58-2.64.386-.7733.926-1.3733 1.62-1.8.706-.4267 1.506-.64 2.4-.64 1.266 0 2.273.4133 3.02 1.24.746.8267 1.12 1.9467 1.12 3.36 0 .2667-.054.46-.16.58-.107.12-.28.18-.52.18h-6.44c.12 2.2933 1.206 3.44 3.26 3.44.52 0 .966-.0667 1.34-.2.373-.1467.773-.34 1.2-.58.346-.2.58-.3.7-.3zm-3.5-6.46c-.854 0-1.54.2667-2.06.8-.507.5333-.807 1.2867-.9 2.26h5.66c-.027-.9867-.274-1.74-.74-2.26-.467-.5333-1.12-.8-1.96-.8zm10.948 7.54c.467.04.7.2533.7.64 0 .2267-.087.4-.26.52-.16.1067-.407.1467-.74.12l-.54-.04c-1.067-.08-1.853-.4-2.36-.96s-.76-1.4067-.76-2.54v-5.02h-1.34c-.227 0-.407-.0533-.54-.16-.12-.12-.18-.2733-.18-.46 0-.2.06-.36.18-.48.133-.12.313-.18.54-.18h1.34v-2.26001c0-.25333.073-.44666.22-.57999.147-.14667.347-.22001.6-.22001.24 0 .433.07334.58.22001.147.13333.22.32666.22.57999v2.26001h2.22c.213 0 .38.06.5.18.133.12.2.28.2.48 0 .1867-.067.34-.2.46-.12.1067-.287.16-.5.16h-2.22v5.1c0 .7333.147 1.2667.44 1.6.307.32.76.5 1.36.54zm-298.485 28.28c-.32 0-.587-.1-.8-.3-.213-.2133-.32-.4867-.32-.82s.107-.6067.32-.82.48-.32.8-.32c.307 0 .56.1067.76.32.213.2133.32.4867.32.82s-.107.6067-.32.82c-.2.2-.453.3-.76.3zm9.986 0c-.253 0-.453-.0733-.6-.22-.146-.16-.22-.3667-.22-.62v-12.62c0-.2533.074-.4533.22-.6.147-.16.347-.24.6-.24.254 0 .454.08.6.24.147.1467.22.3467.22.6v12.62c0 .2533-.073.46-.22.62-.146.1467-.346.22-.6.22zm13.254.04c-.92 0-1.733-.2067-2.44-.62-.693-.4133-1.233-1-1.62-1.76-.373-.7733-.56-1.6667-.56-2.68s.187-1.9.56-2.66c.387-.7733.927-1.3667 1.62-1.78.707-.4133 1.52-.62 2.44-.62s1.733.2067 2.44.62 1.247 1.0067 1.62 1.78c.387.76.58 1.6467.58 2.66s-.193 1.9067-.58 2.68c-.373.76-.913 1.3467-1.62 1.76s-1.52.62-2.44.62zm0-1.34c.96 0 1.693-.3133 2.2-.94.52-.64.78-1.5667.78-2.78 0-1.1867-.26-2.1-.78-2.74-.52-.6533-1.253-.98-2.2-.98s-1.68.3267-2.2.98c-.52.64-.78 1.5533-.78 2.74 0 1.2.253 2.12.76 2.76.52.64 1.26.96 2.22.96zm11.954-8.78c2.333 0 3.5 1.2867 3.5 3.86v5.42c0 .2533-.074.4533-.22.6-.134.1333-.327.2-.58.2-.254 0-.454-.0667-.6-.2-.147-.1467-.22-.3467-.22-.6v-5.32c0-.9067-.18-1.5667-.54-1.98-.347-.4133-.907-.62-1.68-.62-.894 0-1.607.2733-2.14.82-.534.5467-.8 1.2867-.8 2.22v4.88c0 .2533-.074.4533-.22.6-.134.1333-.327.2-.58.2-.254 0-.454-.0667-.6-.2-.147-.1467-.22-.3467-.22-.6v-8.44c0-.24.073-.4333.22-.58.146-.1467.346-.22.6-.22.24 0 .426.0733.56.22.146.1467.22.3333.22.56v1.02c.32-.6.766-1.0533 1.34-1.36.573-.32 1.226-.48 1.96-.48zm7.287 10.08c-.24 0-.44-.0667-.6-.2-.147-.1467-.22-.3467-.22-.6v-12.7c0-.2533.073-.4467.22-.58.16-.1467.36-.22.6-.22.226 0 .413.0733.56.22.16.1333.24.3267.24.58v12.7c0 .2533-.08.4533-.24.6-.147.1333-.334.2-.56.2zm10.848-9.54c.147-.32.38-.48.7-.48.2 0 .38.0667.54.2s.24.3.24.5c0 .12-.026.2267-.08.32l-5.62 12.12c-.066.1467-.166.26-.3.34-.12.08-.246.12-.38.12-.2 0-.38-.0667-.54-.2-.146-.12-.22-.28-.22-.48 0-.1067.027-.2133.08-.32l1.4-3.02-3.96-8.56c-.053-.0933-.08-.1933-.08-.3 0-.2.087-.3733.26-.52.187-.1467.387-.22.6-.22.134 0 .26.04.38.12.134.08.234.1933.3.34l3.34 7.5zm13.23-.5c.56-.04.84.1867.84.68 0 .2133-.06.3867-.18.52-.12.12-.327.1933-.62.22l-.6.06c-.893.08-1.56.4-2 .96-.427.5467-.64 1.1933-.64 1.94v4.86c0 .2667-.073.4667-.22.6s-.34.2-.58.2-.44-.0667-.6-.2c-.147-.1467-.22-.3467-.22-.6v-8.44c0-.2533.08-.4467.24-.58.16-.1467.353-.22.58-.22.213 0 .393.0733.54.22.147.1333.22.32.22.56v1.12c.28-.5867.673-1.0333 1.18-1.34.52-.3067 1.113-.4867 1.78-.54zm9.575 7.68c.147 0 .274.06.38.18.107.12.16.2733.16.46 0 .3333-.233.64-.7.92-.48.28-.986.4933-1.52.64-.533.1333-1.053.2-1.56.2-1.506 0-2.7-.4467-3.58-1.34-.866-.8933-1.3-2.1267-1.3-3.7 0-1 .194-1.88.58-2.64.387-.7733.927-1.3733 1.62-1.8.707-.4267 1.507-.64 2.4-.64 1.267 0 2.274.4133 3.02 1.24.747.8267 1.12 1.9467 1.12 3.36 0 .2667-.053.46-.16.58-.106.12-.28.18-.52.18h-6.44c.12 2.2933 1.207 3.44 3.26 3.44.52 0 .967-.0667 1.34-.2.374-.1467.774-.34 1.2-.58.347-.2.58-.3.7-.3zm-3.5-6.46c-.853 0-1.54.2667-2.06.8-.506.5333-.806 1.2867-.9 2.26h5.66c-.026-.9867-.273-1.74-.74-2.26-.466-.5333-1.12-.8-1.96-.8zm7.327 8.82c-.24 0-.44-.0667-.6-.2-.146-.1467-.22-.3467-.22-.6v-12.7c0-.2533.074-.4467.22-.58.16-.1467.36-.22.6-.22.227 0 .414.0733.56.22.16.1333.24.3267.24.58v12.7c0 .2533-.08.4533-.24.6-.146.1333-.333.2-.56.2zm10.849-9.54c.146-.32.38-.48.7-.48.2 0 .38.0667.54.2s.24.3.24.5c0 .12-.027.2267-.08.32l-5.62 12.12c-.067.1467-.167.26-.3.34-.12.08-.247.12-.38.12-.2 0-.38-.0667-.54-.2-.147-.12-.22-.28-.22-.48 0-.1067.026-.2133.08-.32l1.4-3.02-3.96-8.56c-.054-.0933-.08-.1933-.08-.3 0-.2.086-.3733.26-.52.186-.1467.386-.22.6-.22.133 0 .26.04.38.12.133.08.233.1933.3.34l3.34 7.5zm12.449 9.58c-.92 0-1.733-.2067-2.44-.62-.693-.4133-1.233-1-1.62-1.76-.373-.7733-.56-1.6667-.56-2.68s.187-1.9.56-2.66c.387-.7733.927-1.3667 1.62-1.78.707-.4133 1.52-.62 2.44-.62s1.734.2067 2.44.62c.707.4133 1.247 1.0067 1.62 1.78.387.76.58 1.6467.58 2.66s-.193 1.9067-.58 2.68c-.373.76-.913 1.3467-1.62 1.76-.706.4133-1.52.62-2.44.62zm0-1.34c.96 0 1.694-.3133 2.2-.94.52-.64.78-1.5667.78-2.78 0-1.1867-.26-2.1-.78-2.74-.52-.6533-1.253-.98-2.2-.98-.946 0-1.68.3267-2.2.98-.52.64-.78 1.5533-.78 2.74 0 1.2.254 2.12.76 2.76.52.64 1.26.96 2.22.96zm11.954-8.78c2.333 0 3.5 1.2867 3.5 3.86v5.42c0 .2533-.073.4533-.22.6-.133.1333-.327.2-.58.2s-.453-.0667-.6-.2c-.147-.1467-.22-.3467-.22-.6v-5.32c0-.9067-.18-1.5667-.54-1.98-.347-.4133-.907-.62-1.68-.62-.893 0-1.607.2733-2.14.82s-.8 1.2867-.8 2.22v4.88c0 .2533-.073.4533-.22.6-.133.1333-.327.2-.58.2s-.453-.0667-.6-.2c-.147-.1467-.22-.3467-.22-.6v-8.44c0-.24.073-.4333.22-.58s.347-.22.6-.22c.24 0 .427.0733.56.22.147.1467.22.3333.22.56v1.02c.32-.6.767-1.0533 1.34-1.36.573-.32 1.227-.48 1.96-.48zm22.464 0c2.16 0 3.24 1.2867 3.24 3.86v5.42c0 .2533-.074.4533-.22.6-.147.1333-.34.2-.58.2s-.44-.0667-.6-.2c-.147-.1467-.22-.3467-.22-.6v-5.38c0-.8933-.16-1.54-.48-1.94s-.82-.6-1.5-.6c-.814 0-1.454.2733-1.92.82-.467.5467-.7 1.2867-.7 2.22v4.88c0 .2533-.08.4533-.24.6-.147.1333-.34.2-.58.2s-.434-.0667-.58-.2c-.147-.1467-.22-.3467-.22-.6v-5.38c0-.8933-.16-1.54-.48-1.94s-.827-.6-1.52-.6c-.8 0-1.44.2733-1.92.82-.467.5467-.7 1.2867-.7 2.22v4.88c0 .2533-.074.4533-.22.6-.147.1333-.34.2-.58.2s-.44-.0667-.6-.2c-.147-.1467-.22-.3467-.22-.6v-8.44c0-.24.073-.4333.22-.58.16-.1467.36-.22.6-.22.226 0 .413.0733.56.22.146.1333.22.32.22.56v.96c.293-.5733.7-1.0133 1.22-1.32s1.12-.46 1.8-.46c1.52 0 2.513.64 2.98 1.92.28-.5867.706-1.0533 1.28-1.4.573-.3467 1.226-.52 1.96-.52zm13.211.54c.147-.32.38-.48.7-.48.2 0 .38.0667.54.2s.24.3.24.5c0 .12-.027.2267-.08.32l-5.62 12.12c-.067.1467-.167.26-.3.34-.12.08-.247.12-.38.12-.2 0-.38-.0667-.54-.2-.147-.12-.22-.28-.22-.48 0-.1067.027-.2133.08-.32l1.4-3.02-3.96-8.56c-.053-.0933-.08-.1933-.08-.3 0-.2.087-.3733.26-.52.187-.1467.387-.22.6-.22.133 0 .26.04.38.12.133.08.233.1933.3.34l3.34 7.5zm12.71-3.38c-.707.0533-1.24.28-1.6.68-.36.3867-.54.9733-.54 1.76v.64h2.22c.226 0 .4.06.52.18s.18.28.18.48-.06.3533-.18.46-.294.16-.52.16h-2.22v7.76c0 .2533-.08.4533-.24.6-.147.1333-.334.2-.56.2-.24 0-.44-.0667-.6-.2-.147-.1467-.22-.3467-.22-.6v-7.76h-1.34c-.227 0-.407-.0533-.54-.16-.12-.12-.18-.2733-.18-.46 0-.2.06-.36.18-.48.133-.12.313-.18.54-.18h1.34v-.36c0-1.2.3-2.14.9-2.82.6-.6933 1.46-1.08 2.58-1.16l.52-.04c.346-.0267.593.0067.74.1.16.0933.24.26.24.5 0 .3867-.234.6067-.7.66zm7.082 2.88c.56-.04.84.1867.84.68 0 .2133-.06.3867-.18.52-.12.12-.327.1933-.62.22l-.6.06c-.893.08-1.56.4-2 .96-.427.5467-.64 1.1933-.64 1.94v4.86c0 .2667-.073.4667-.22.6s-.34.2-.58.2-.44-.0667-.6-.2c-.147-.1467-.22-.3467-.22-.6v-8.44c0-.2533.08-.4467.24-.58.16-.1467.353-.22.58-.22.213 0 .393.0733.54.22.147.1333.22.32.22.56v1.12c.28-.5867.673-1.0333 1.18-1.34.52-.3067 1.113-.4867 1.78-.54zm3.051 10.04c-.24 0-.44-.0667-.6-.2-.147-.1467-.22-.3467-.22-.6v-8.44c0-.2533.073-.4467.22-.58.16-.1467.36-.22.6-.22s.433.0733.58.22c.146.1333.22.3267.22.58v8.44c0 .2667-.074.4667-.22.6-.147.1333-.34.2-.58.2zm0-12.14c-.32 0-.58-.0933-.78-.28s-.3-.4333-.3-.74c0-.2933.1-.5333.3-.72s.46-.28.78-.28.58.0933.78.28.3.4267.3.72c0 .3067-.1.5533-.3.74s-.46.28-.78.28zm11.368 9.78c.147 0 .274.06.38.18.107.12.16.2733.16.46 0 .3333-.233.64-.7.92-.48.28-.986.4933-1.52.64-.533.1333-1.053.2-1.56.2-1.506 0-2.7-.4467-3.58-1.34-.866-.8933-1.3-2.1267-1.3-3.7 0-1 .194-1.88.58-2.64.387-.7733.927-1.3733 1.62-1.8.707-.4267 1.507-.64 2.4-.64 1.267 0 2.274.4133 3.02 1.24.747.8267 1.12 1.9467 1.12 3.36 0 .2667-.053.46-.16.58-.106.12-.28.18-.52.18h-6.44c.12 2.2933 1.207 3.44 3.26 3.44.52 0 .967-.0667 1.34-.2.374-.1467.774-.34 1.2-.58.347-.2.58-.3.7-.3zm-3.5-6.46c-.853 0-1.54.2667-2.06.8-.506.5333-.806 1.2867-.9 2.26h5.66c-.026-.9867-.273-1.74-.74-2.26-.466-.5333-1.12-.8-1.96-.8zm11.407-1.26c2.333 0 3.5 1.2867 3.5 3.86v5.42c0 .2533-.073.4533-.22.6-.133.1333-.327.2-.58.2s-.453-.0667-.6-.2c-.147-.1467-.22-.3467-.22-.6v-5.32c0-.9067-.18-1.5667-.54-1.98-.347-.4133-.907-.62-1.68-.62-.893 0-1.607.2733-2.14.82s-.8 1.2867-.8 2.22v4.88c0 .2533-.073.4533-.22.6-.133.1333-.327.2-.58.2s-.453-.0667-.6-.2c-.147-.1467-.22-.3467-.22-.6v-8.44c0-.24.073-.4333.22-.58s.347-.22.6-.22c.24 0 .427.0733.56.22.147.1467.22.3333.22.56v1.02c.32-.6.767-1.0533 1.34-1.36.573-.32 1.227-.48 1.96-.48zm14.287-4.22c.254 0 .454.0733.6.22.147.1467.22.3333.22.56v12.72c0 .24-.073.4333-.22.58-.146.1467-.346.22-.6.22-.253 0-.453-.0733-.6-.22-.133-.1467-.2-.34-.2-.58v-1.08c-.293.6133-.726 1.0867-1.3 1.42-.56.3333-1.22.5-1.98.5-.853 0-1.606-.2133-2.26-.64-.653-.4267-1.16-1.02-1.52-1.78-.36-.7733-.54-1.6667-.54-2.68 0-1 .18-1.88.54-2.64s.867-1.3467 1.52-1.76c.654-.4133 1.407-.62 2.26-.62.76 0 1.42.1667 1.98.5.574.3333 1.007.8067 1.3 1.42v-5.36c0-.24.067-.4267.2-.56.147-.1467.347-.22.6-.22zm-3.76 13c.947 0 1.674-.32 2.18-.96.52-.6533.78-1.5733.78-2.76s-.26-2.1-.78-2.74c-.506-.64-1.233-.96-2.18-.96-.946 0-1.686.32-2.22.96-.52.64-.78 1.54-.78 2.7 0 1.1867.26 2.1133.78 2.78.534.6533 1.274.98 2.22.98zm10.861 1.34c-.613 0-1.2-.0733-1.76-.22-.547-.1467-1.033-.3533-1.46-.62-.24-.16-.413-.3067-.52-.44-.093-.1467-.14-.32-.14-.52 0-.1733.047-.3133.14-.42.107-.12.24-.18.4-.18s.393.1.7.3c.4.24.793.4333 1.18.58.4.1333.893.2 1.48.2.72 0 1.28-.1267 1.68-.38s.6-.62.6-1.1c0-.2933-.073-.5267-.22-.7-.147-.1867-.4-.3467-.76-.48-.36-.1467-.887-.2933-1.58-.44-1.173-.2533-2.013-.5933-2.52-1.02s-.76-1.0067-.76-1.74c0-.5733.16-1.08.48-1.52s.76-.7867 1.32-1.04c.573-.2533 1.22-.38 1.94-.38.52 0 1.02.0733 1.5.22.493.1333.927.3267 1.3.58.453.32.68.6533.68 1 0 .1733-.053.32-.16.44s-.233.18-.38.18c-.16 0-.4-.1133-.72-.34-.373-.24-.727-.4267-1.06-.56s-.747-.2-1.24-.2c-.627 0-1.133.14-1.52.42-.373.28-.56.6533-.56 1.12 0 .2933.067.5333.2.72.147.1733.38.3333.7.48.333.1333.807.2667 1.42.4.907.2 1.607.42 2.1.66.507.24.867.5333 1.08.88s.32.7867.32 1.32c0 .84-.353 1.52-1.06 2.04-.707.5067-1.64.76-2.8.76zm15.986-1.32c.466.04.7.2533.7.64 0 .2267-.087.4-.26.52-.16.1067-.407.1467-.74.12l-.54-.04c-1.067-.08-1.854-.4-2.36-.96-.507-.56-.76-1.4067-.76-2.54v-5.02h-1.34c-.227 0-.407-.0533-.54-.16-.12-.12-.18-.2733-.18-.46 0-.2.06-.36.18-.48.133-.12.313-.18.54-.18h1.34v-2.26c0-.2533.073-.4467.22-.58.146-.1467.346-.22.6-.22.24 0 .433.0733.58.22.146.1333.22.3267.22.58v2.26h2.22c.213 0 .38.06.5.18.133.12.2.28.2.48 0 .1867-.067.34-.2.46-.12.1067-.287.16-.5.16h-2.22v5.1c0 .7333.146 1.2667.44 1.6.306.32.76.5 1.36.54zm6.336 1.32c-.92 0-1.733-.2067-2.44-.62-.693-.4133-1.233-1-1.62-1.76-.373-.7733-.56-1.6667-.56-2.68s.187-1.9.56-2.66c.387-.7733.927-1.3667 1.62-1.78.707-.4133 1.52-.62 2.44-.62s1.734.2067 2.44.62c.707.4133 1.247 1.0067 1.62 1.78.387.76.58 1.6467.58 2.66s-.193 1.9067-.58 2.68c-.373.76-.913 1.3467-1.62 1.76-.706.4133-1.52.62-2.44.62zm0-1.34c.96 0 1.694-.3133 2.2-.94.52-.64.78-1.5667.78-2.78 0-1.1867-.26-2.1-.78-2.74-.52-.6533-1.253-.98-2.2-.98-.946 0-1.68.3267-2.2.98-.52.64-.78 1.5533-.78 2.74 0 1.2.254 2.12.76 2.76.52.64 1.26.96 2.22.96zm19.67-8.54c.227 0 .4.06.52.18s.18.28.18.48v8.38c0 .2533-.08.4533-.24.6-.146.1333-.333.2-.56.2-.24 0-.44-.0667-.6-.2-.146-.1467-.22-.3467-.22-.6v-7.76h-4.38v7.76c0 .2533-.08.4533-.24.6-.146.1333-.333.2-.56.2-.24 0-.44-.0667-.6-.2-.146-.1467-.22-.3467-.22-.6v-7.76h-1.34c-.226 0-.406-.0533-.54-.16-.12-.12-.18-.2733-.18-.46 0-.2.06-.36.18-.48.134-.12.314-.18.54-.18h1.34v-.34c0-1.2.3-2.14.9-2.82.6-.6933 1.46-1.0867 2.58-1.18l.48-.04c.64-.0533.96.1467.96.6 0 .3867-.226.6067-.68.66l-.48.04c-.706.0533-1.24.28-1.6.68-.36.3867-.54.9733-.54 1.76v.64zm-.1-4.32c.307 0 .56.0933.76.28.214.1867.32.4267.32.72 0 .3067-.1.5533-.3.74s-.46.28-.78.28-.58-.0933-.78-.28-.3-.4333-.3-.74c0-.2933.1-.5333.3-.72s.46-.28.78-.28zm8.712 4.08c2.334 0 3.5 1.2867 3.5 3.86v5.42c0 .2533-.073.4533-.22.6-.133.1333-.326.2-.58.2-.253 0-.453-.0667-.6-.2-.146-.1467-.22-.3467-.22-.6v-5.32c0-.9067-.18-1.5667-.54-1.98-.346-.4133-.906-.62-1.68-.62-.893 0-1.606.2733-2.14.82-.533.5467-.8 1.2867-.8 2.22v4.88c0 .2533-.073.4533-.22.6-.133.1333-.326.2-.58.2-.253 0-.453-.0667-.6-.2-.146-.1467-.22-.3467-.22-.6v-8.44c0-.24.074-.4333.22-.58.147-.1467.347-.22.6-.22.24 0 .427.0733.56.22.147.1467.22.3333.22.56v1.02c.32-.6.767-1.0533 1.34-1.36.574-.32 1.227-.48 1.96-.48zm14.288-4.22c.253 0 .453.0733.6.22.146.1467.22.3333.22.56v12.72c0 .24-.074.4333-.22.58-.147.1467-.347.22-.6.22-.254 0-.454-.0733-.6-.22-.134-.1467-.2-.34-.2-.58v-1.08c-.294.6133-.727 1.0867-1.3 1.42-.56.3333-1.22.5-1.98.5-.854 0-1.607-.2133-2.26-.64-.654-.4267-1.16-1.02-1.52-1.78-.36-.7733-.54-1.6667-.54-2.68 0-1 .18-1.88.54-2.64s.866-1.3467 1.52-1.76c.653-.4133 1.406-.62 2.26-.62.76 0 1.42.1667 1.98.5.573.3333 1.006.8067 1.3 1.42v-5.36c0-.24.066-.4267.2-.56.146-.1467.346-.22.6-.22zm-3.76 13c.946 0 1.673-.32 2.18-.96.52-.6533.78-1.5733.78-2.76s-.26-2.1-.78-2.74c-.507-.64-1.234-.96-2.18-.96-.947 0-1.687.32-2.22.96-.52.64-.78 1.54-.78 2.7 0 1.1867.26 2.1133.78 2.78.533.6533 1.273.98 2.22.98zm-331.212 19.74c-.146 0-.266-.0467-.36-.14-.093-.0933-.153-.2267-.18-.4l-.36-4.08-.02-.2c0-.2933.087-.52.26-.68.174-.16.394-.24.66-.24.307 0 .54.1.7.3.174.2.234.4733.18.82l-.34 4.08c-.04.36-.22.54-.54.54zm4 0c-.146 0-.266-.0467-.36-.14-.093-.0933-.153-.2267-.18-.4l-.36-4.08-.02-.2c0-.2933.087-.52.26-.68.174-.16.394-.24.66-.24.307 0 .54.1.7.3.174.2.234.4733.18.82l-.34 4.08c-.04.36-.22.54-.54.54z" fill="#000"/><g fill="#ab390a"><path d="m133.972 6.62519c.373 0 .68.10667.92.32001.24.21333.36.49333.36.84v11.96c0 .36-.114.6467-.34.86-.227.2133-.527.32-.9.32-.374 0-.674-.1067-.9-.32-.227-.2133-.34-.5-.34-.86v-.5c-.294.5467-.72.9733-1.28 1.28-.547.3067-1.174.46-1.88.46-.84 0-1.594-.2133-2.26-.64-.654-.4267-1.167-1.0267-1.54-1.8-.36-.7867-.54-1.6867-.54-2.7s.18-1.9.54-2.66c.373-.76.886-1.3467 1.54-1.76.653-.4133 1.406-.62 2.26-.62.706 0 1.333.1467 1.88.44.546.2933.966.7067 1.26 1.24v-4.74001c0-.33333.106-.59999.32-.79999.226-.21334.526-.32001.9-.32001zm-3.7 12.42001c.8 0 1.413-.2733 1.84-.82.44-.5467.66-1.3267.66-2.34s-.22-1.7867-.66-2.32c-.427-.5467-1.034-.82-1.82-.82-.8 0-1.42.2667-1.86.8s-.66 1.3-.66 2.3c0 1.0133.22 1.8.66 2.36s1.053.84 1.84.84zm8.791 1.9c-.36 0-.66-.1-.9-.3-.226-.2133-.34-.5133-.34-.9v-7.72c0-.3867.114-.68.34-.88.24-.2.54-.3.9-.3s.66.1.9.3.36.4933.36.88v7.72c0 .3867-.12.6867-.36.9-.24.2-.54.3-.9.3zm0-11.88c-.453 0-.813-.12-1.08-.36-.266-.25334-.4-.58-.4-.98001 0-.4.134-.72.4-.95999.267-.24.627-.36001 1.08-.36001.44 0 .794.12001 1.06.36001.28.23999.42.55999.42.95999 0 .40001-.133.72667-.4.98001-.266.24-.626.36-1.08.36zm8.779-.48001c-.614.04-1.06.22667-1.34.56-.28.33334-.42.81334-.42 1.44001v.46h1.7c.746 0 1.12.3133 1.12.94s-.374.94-1.12.94h-1.7v6.82c0 .3867-.12.68-.36.88-.227.2-.52.3-.88.3s-.66-.1-.9-.3-.36-.4933-.36-.88v-6.82h-1c-.747 0-1.12-.3133-1.12-.94s.373-.94 1.12-.94h1v-.14c0-1.25334.326-2.23334.98-2.94.666-.72001 1.6-1.12667 2.8-1.22001l.52-.04c.533-.04.906.02 1.12.18.226.14667.34.38.34.7 0 .57334-.327.89334-.98.96zm10.452.48001c-.454 0-.814-.12-1.08-.36-.267-.25334-.4-.58-.4-.98001 0-.4.133-.72.4-.95999.266-.24.626-.36001 1.08-.36001.44 0 .793.12001 1.06.36001.28.23999.42.55999.42.95999 0 .40001-.14.72667-.42.98001-.267.24-.62.36-1.06.36zm.12 1.98c.746 0 1.12.3133 1.12.94v7.76c0 .3867-.12.6867-.36.9-.227.2-.52.3-.88.3s-.66-.1-.9-.3c-.24-.2133-.36-.5133-.36-.9v-6.82h-3.96v6.82c0 .3867-.12.68-.36.88-.227.2-.52.3-.88.3s-.66-.1-.9-.3-.36-.4933-.36-.88v-6.82h-1c-.747 0-1.12-.3133-1.12-.94s.373-.94 1.12-.94h1v-.1c0-1.24.326-2.22001.98-2.94001.666-.73333 1.6-1.15333 2.8-1.26l.46-.04c.066-.01333.166-.02.3-.02.706 0 1.06.3 1.06.9 0 .29334-.08.52-.24.68s-.38.25334-.66.28l-.44.04c-.614.05334-1.06.24667-1.34.58001-.28.32-.42.79333-.42 1.42v.46zm8.066 9.94c-.973 0-1.833-.2067-2.58-.62-.733-.4133-1.3-1-1.7-1.76s-.6-1.6467-.6-2.66.207-1.9067.62-2.68c.427-.7867 1.02-1.3933 1.78-1.82s1.633-.64 2.62-.64c.52 0 1.04.0733 1.56.22.533.1467 1 .3467 1.4.6.427.28.64.6333.64 1.06 0 .2933-.073.5333-.22.72-.133.1733-.313.26-.54.26-.147 0-.3-.0333-.46-.1s-.32-.1467-.48-.24c-.293-.1733-.573-.3067-.84-.4-.267-.1067-.573-.16-.92-.16-.827 0-1.467.2733-1.92.82-.44.5333-.66 1.3067-.66 2.32 0 1 .22 1.7733.66 2.32.453.5333 1.093.8 1.92.8.333 0 .627-.0467.88-.14.267-.1067.56-.2467.88-.42.2-.12.373-.2067.52-.26.147-.0667.293-.1.44-.1.213 0 .393.0933.54.28s.22.42.22.7c0 .2267-.053.4267-.16.6-.093.16-.253.3067-.48.44-.413.2667-.893.48-1.44.64-.547.1467-1.107.22-1.68.22zm13.145-10.14c.387 0 .694.1067.92.32.227.2133.34.5.34.86v7.76c0 .3467-.12.6267-.36.84-.226.2133-.526.32-.9.32-.36 0-.646-.1-.86-.3-.213-.2-.32-.4733-.32-.82v-.5c-.306.5333-.72.9467-1.24 1.24-.52.28-1.106.42-1.76.42-2.4 0-3.6-1.3467-3.6-4.04v-4.92c0-.36.114-.6467.34-.86.227-.2133.527-.32.9-.32.387 0 .694.1067.92.32.227.2133.34.5.34.86v4.94c0 .6933.14 1.2067.42 1.54s.72.5 1.32.5c.694 0 1.247-.2267 1.66-.68.427-.4667.64-1.08.64-1.84v-4.46c0-.36.114-.6467.34-.86.227-.2133.527-.32.9-.32zm5.103 10.1c-.36 0-.66-.1-.9-.3-.227-.2133-.34-.5133-.34-.9v-11.94001c0-.38666.113-.68.34-.88.24-.2.54-.3.9-.3s.66.1.9.3.36.49334.36.88v11.94001c0 .3867-.12.6867-.36.9-.24.2-.54.3-.9.3zm9.347-1.86c.667.04 1 .34 1 .9 0 .32-.133.5667-.4.74-.253.16-.62.2267-1.1.2l-.54-.04c-2.24-.16-3.36-1.36-3.36-3.6v-4.36h-1c-.36 0-.64-.08-.84-.24-.186-.16-.28-.3933-.28-.7s.094-.54.28-.7c.2-.16.48-.24.84-.24h1v-1.84001c0-.36.114-.64666.34-.85999.227-.21334.534-.32001.92-.32001.374 0 .674.10667.9.32001.227.21333.34.49999.34.85999v1.84001h1.7c.36 0 .634.08.82.24.2.16.3.3933.3.7s-.1.54-.3.7c-.186.16-.46.24-.82.24h-1.7v4.54c0 .9867.454 1.5133 1.36 1.58zm339.88-8.28c1.067 0 1.88.32 2.44.96.573.6267.86 1.6467.86 3.06v4.92c0 .3867-.12.6867-.36.9-.227.2-.527.3-.9.3-.36 0-.66-.1-.9-.3-.227-.2133-.34-.5133-.34-.9v-4.92c0-.7333-.133-1.2533-.4-1.56-.253-.32-.647-.48-1.18-.48-.653 0-1.173.2267-1.56.68-.387.44-.58 1.0467-.58 1.82v4.46c0 .3867-.12.6867-.36.9-.227.2-.52.3-.88.3s-.66-.1-.9-.3c-.24-.2133-.36-.5133-.36-.9v-4.92c0-.7333-.133-1.2533-.4-1.56-.253-.32-.647-.48-1.18-.48-.653 0-1.173.2267-1.56.68-.373.44-.56 1.0467-.56 1.82v4.46c0 .3867-.12.6867-.36.9-.24.2-.54.3-.9.3s-.66-.1-.9-.3c-.227-.2133-.34-.5133-.34-.9v-7.74c0-.3733.12-.66.36-.86s.54-.3.9-.3c.347 0 .627.1.84.3.227.1867.34.46.34.82v.48c.307-.5333.713-.94 1.22-1.22.52-.28 1.113-.42 1.78-.42 1.467 0 2.447.6133 2.94 1.84.293-.56.727-1.0067 1.3-1.34s1.22-.5 1.94-.5zm12.661.76c.107-.24.247-.4133.42-.52.187-.12.387-.18.6-.18.307 0 .58.1067.82.32.253.2.38.4533.38.76 0 .1467-.04.3-.12.46l-5.46 11.44c-.227.4533-.58.68-1.06.68-.307 0-.58-.1-.82-.3-.227-.1867-.34-.4267-.34-.72 0-.1467.04-.3133.12-.5l1.36-2.86-3.72-7.74c-.067-.1333-.1-.2867-.1-.46 0-.3067.127-.5667.38-.78.267-.2133.567-.32.9-.32.227 0 .433.06.62.18.187.1067.333.28.44.52l2.8 6.18zm-456.776 36.42c-1.4533 0-2.6267-.2867-3.52-.86-.4267-.2533-.64-.6133-.64-1.08 0-.2667.0733-.48.22-.64.1467-.1733.3267-.26.54-.26.2267 0 .54.1067.94.32.4267.2.8133.3533 1.16.46.36.1067.8133.16 1.36.16.56 0 .9933-.0933 1.3-.28.32-.1867.48-.4467.48-.78 0-.2267-.0667-.4067-.2-.54-.12-.1333-.3467-.2533-.68-.36-.32-.12-.8133-.2533-1.48-.4-1.1867-.24-2.04-.58-2.56-1.02-.5067-.44-.76-1.0467-.76-1.82 0-.5867.1733-1.1133.52-1.58.3467-.48.82-.8467 1.42-1.1.6133-.2667 1.3067-.4 2.08-.4.56 0 1.1.0733 1.62.22.52.1333.9867.3333 1.4.6.4267.2667.64.62.64 1.06 0 .2667-.0733.4933-.22.68-.1467.1733-.3267.26-.54.26-.1467 0-.2933-.0267-.44-.08-.1333-.0667-.3067-.16-.52-.28-.3867-.2-.72-.3467-1-.44-.28-.1067-.6267-.16-1.04-.16-.4933 0-.8867.1-1.18.3-.28.2-.42.4733-.42.82 0 .3333.1467.5867.44.76s.86.3467 1.7.52c.8933.1867 1.5933.4 2.1.64s.8667.54 1.08.9c.2267.36.34.82.34 1.38 0 .9067-.38 1.6333-1.14 2.18-.7467.5467-1.7467.82-3 .82zm11.787-10.18c.84 0 1.587.2133 2.24.64.667.4267 1.18 1.0333 1.54 1.82.373.7733.56 1.6667.56 2.68s-.187 1.9-.56 2.66c-.36.76-.867 1.3467-1.52 1.76s-1.407.62-2.26.62c-.693 0-1.313-.1467-1.86-.44-.5466-.2933-.9666-.7-1.26-1.22v4.08c0 .3467-.1133.62-.34.82-.2266.2-.5266.3-.9.3-.3733 0-.68-.1067-.92-.32-.2266-.2133-.34-.4933-.34-.84v-11.34c0-.36.1067-.6467.32-.86.2267-.2133.5267-.32.9-.32.3734 0 .6734.1067.9.32.2267.2133.34.5.34.86v.5c.2934-.5467.7134-.9667 1.26-1.26.56-.3067 1.193-.46 1.9-.46zm-.66 8.24c.787 0 1.4-.2667 1.84-.8.44-.5467.66-1.3133.66-2.3 0-1.0133-.22-1.8-.66-2.36s-1.053-.84-1.84-.84c-.8 0-1.42.2733-1.86.82-.4266.5467-.64 1.3267-.64 2.34 0 1 .2134 1.7733.64 2.32.44.5467 1.06.82 1.86.82zm14.792-.9c.226 0 .406.0867.54.26.146.1733.22.4067.22.7 0 .4133-.247.76-.74 1.04-.454.2533-.967.46-1.54.62-.574.1467-1.12.22-1.64.22-1.574 0-2.82-.4533-3.74-1.36s-1.38-2.1467-1.38-3.72c0-1 .2-1.8867.6-2.66s.96-1.3733 1.68-1.8c.733-.4267 1.56-.64 2.48-.64.88 0 1.646.1933 2.3.58.653.3867 1.16.9333 1.52 1.64s.54 1.54.54 2.5c0 .5733-.254.86-.76.86h-5.9c.08.92.34 1.6.78 2.04.44.4267 1.08.64 1.92.64.426 0 .8-.0533 1.12-.16.333-.1067.706-.2533 1.12-.44.4-.2133.693-.32.88-.32zm-3.46-5.58c-.68 0-1.227.2133-1.64.64-.4.4267-.64 1.04-.72 1.84h4.52c-.027-.8133-.227-1.4267-.6-1.84-.374-.4267-.894-.64-1.56-.64zm10.685 8.42c-.974 0-1.834-.2067-2.58-.62-.734-.4133-1.3-1-1.7-1.76s-.6-1.6467-.6-2.66.206-1.9067.62-2.68c.426-.7867 1.02-1.3933 1.78-1.82s1.633-.64 2.62-.64c.52 0 1.04.0733 1.56.22.533.1467 1 .3467 1.4.6.426.28.64.6333.64 1.06 0 .2933-.074.5333-.22.72-.134.1733-.314.26-.54.26-.147 0-.3-.0333-.46-.1s-.32-.1467-.48-.24c-.294-.1733-.574-.3067-.84-.4-.267-.1067-.574-.16-.92-.16-.827 0-1.467.2733-1.92.82-.44.5333-.66 1.3067-.66 2.32 0 1 .22 1.7733.66 2.32.453.5333 1.093.8 1.92.8.333 0 .626-.0467.88-.14.266-.1067.56-.2467.88-.42.2-.12.373-.2067.52-.26.146-.0667.293-.1.44-.1.213 0 .393.0933.54.28.146.1867.22.42.22.7 0 .2267-.054.4267-.16.6-.094.16-.254.3067-.48.44-.414.2667-.894.48-1.44.64-.547.1467-1.107.22-1.68.22zm6.665-.04c-.36 0-.66-.1-.9-.3-.226-.2133-.34-.5133-.34-.9v-7.72c0-.3867.114-.68.34-.88.24-.2.54-.3.9-.3s.66.1.9.3.36.4933.36.88v7.72c0 .3867-.12.6867-.36.9-.24.2-.54.3-.9.3zm0-11.88c-.453 0-.813-.12-1.08-.36-.266-.2533-.4-.58-.4-.98s.134-.72.4-.96c.267-.24.627-.36 1.08-.36.44 0 .794.12 1.06.36.28.24.42.56.42.96s-.133.7267-.4.98c-.266.24-.626.36-1.08.36zm12.239 0c-.454 0-.814-.12-1.08-.36-.267-.2533-.4-.58-.4-.98s.133-.72.4-.96c.266-.24.626-.36 1.08-.36.44 0 .793.12 1.06.36.28.24.42.56.42.96s-.14.7267-.42.98c-.267.24-.62.36-1.06.36zm.12 1.98c.746 0 1.12.3133 1.12.94v7.76c0 .3867-.12.6867-.36.9-.227.2-.52.3-.88.3s-.66-.1-.9-.3c-.24-.2133-.36-.5133-.36-.9v-6.82h-3.96v6.82c0 .3867-.12.68-.36.88-.227.2-.52.3-.88.3s-.66-.1-.9-.3-.36-.4933-.36-.88v-6.82h-1c-.747 0-1.121-.3133-1.121-.94s.374-.94 1.121-.94h1v-.1c0-1.24.326-2.22.98-2.94.666-.7333 1.6-1.1533 2.8-1.26l.46-.04c.066-.0133.166-.02.3-.02.706 0 1.06.3 1.06.9 0 .2933-.08.52-.24.68s-.38.2533-.66.28l-.44.04c-.614.0533-1.06.2467-1.34.58-.28.32-.42.7933-.42 1.42v.46zm8.066 9.94c-.974 0-1.834-.2067-2.58-.62-.734-.4133-1.3-1-1.7-1.76s-.6-1.6467-.6-2.66.206-1.9067.62-2.68c.426-.7867 1.02-1.3933 1.78-1.82s1.633-.64 2.62-.64c.52 0 1.04.0733 1.56.22.533.1467 1 .3467 1.4.6.426.28.64.6333.64 1.06 0 .2933-.074.5333-.22.72-.134.1733-.314.26-.54.26-.147 0-.3-.0333-.46-.1s-.32-.1467-.48-.24c-.294-.1733-.574-.3067-.84-.4-.267-.1067-.574-.16-.92-.16-.827 0-1.467.2733-1.92.82-.44.5333-.66 1.3067-.66 2.32 0 1 .22 1.7733.66 2.32.453.5333 1.093.8 1.92.8.333 0 .626-.0467.88-.14.266-.1067.56-.2467.88-.42.2-.12.373-.2067.52-.26.146-.0667.293-.1.44-.1.213 0 .393.0933.54.28.146.1867.22.42.22.7 0 .2267-.054.4267-.16.6-.094.16-.254.3067-.48.44-.414.2667-.894.48-1.44.64-.547.1467-1.107.22-1.68.22zm16.535-10.18c1.173 0 2.047.3333 2.62 1s.86 1.6733.86 3.02v4.92c0 .3733-.113.6667-.34.88-.213.2133-.513.32-.9.32s-.693-.1067-.92-.32-.34-.5067-.34-.88v-4.78c0-.76-.147-1.3133-.44-1.66-.28-.3467-.727-.52-1.34-.52-.72 0-1.3.2267-1.74.68-.427.4533-.64 1.06-.64 1.82v4.46c0 .3733-.113.6667-.34.88s-.533.32-.92.32-.693-.1067-.92-.32c-.213-.2133-.32-.5067-.32-.88v-7.74c0-.3467.113-.6267.34-.84s.533-.32.92-.32c.347 0 .627.1067.84.32.227.2.34.4667.34.8v.54c.333-.5467.78-.9667 1.34-1.26s1.193-.44 1.9-.44zm13.759 7.34c.227 0 .407.0867.54.26.147.1733.22.4067.22.7 0 .4133-.247.76-.74 1.04-.453.2533-.967.46-1.54.62-.573.1467-1.12.22-1.64.22-1.573 0-2.82-.4533-3.74-1.36s-1.38-2.1467-1.38-3.72c0-1 .2-1.8867.6-2.66s.96-1.3733 1.68-1.8c.733-.4267 1.56-.64 2.48-.64.88 0 1.647.1933 2.3.58s1.16.9333 1.52 1.64.54 1.54.54 2.5c0 .5733-.253.86-.76.86h-5.9c.08.92.34 1.6.78 2.04.44.4267 1.08.64 1.92.64.427 0 .8-.0533 1.12-.16.333-.1067.707-.2533 1.12-.44.4-.2133.693-.32.88-.32zm-3.46-5.58c-.68 0-1.227.2133-1.64.64-.4.4267-.64 1.04-.72 1.84h4.52c-.027-.8133-.227-1.4267-.6-1.84-.373-.4267-.893-.64-1.56-.64zm14.085 5.58c.227 0 .407.0867.54.26.147.1733.22.4067.22.7 0 .4133-.247.76-.74 1.04-.453.2533-.967.46-1.54.62-.573.1467-1.12.22-1.64.22-1.573 0-2.82-.4533-3.74-1.36s-1.38-2.1467-1.38-3.72c0-1 .2-1.8867.6-2.66s.96-1.3733 1.68-1.8c.733-.4267 1.56-.64 2.48-.64.88 0 1.647.1933 2.3.58s1.16.9333 1.52 1.64.54 1.54.54 2.5c0 .5733-.253.86-.76.86h-5.9c.08.92.34 1.6.78 2.04.44.4267 1.08.64 1.92.64.427 0 .8-.0533 1.12-.16.333-.1067.707-.2533 1.12-.44.4-.2133.693-.32.88-.32zm-3.46-5.58c-.68 0-1.227.2133-1.64.64-.4.4267-.64 1.04-.72 1.84h4.52c-.027-.8133-.227-1.4267-.6-1.84-.373-.4267-.893-.64-1.56-.64zm14.505-5.94c.373 0 .68.1067.92.32s.36.4933.36.84v11.96c0 .36-.113.6467-.34.86s-.527.32-.9.32-.673-.1067-.9-.32-.34-.5-.34-.86v-.5c-.293.5467-.72.9733-1.28 1.28-.547.3067-1.173.46-1.88.46-.84 0-1.593-.2133-2.26-.64-.653-.4267-1.167-1.0267-1.54-1.8-.36-.7867-.54-1.6867-.54-2.7s.18-1.9.54-2.66c.373-.76.887-1.3467 1.54-1.76s1.407-.62 2.26-.62c.707 0 1.333.1467 1.88.44s.967.7067 1.26 1.24v-4.74c0-.3333.107-.6.32-.8.227-.2133.527-.32.9-.32zm-3.7 12.42c.8 0 1.413-.2733 1.84-.82.44-.5467.66-1.3267.66-2.34s-.22-1.7867-.66-2.32c-.427-.5467-1.033-.82-1.82-.82-.8 0-1.42.2667-1.86.8s-.66 1.3-.66 2.3c0 1.0133.22 1.8.66 2.36s1.053.84 1.84.84zm11.092 1.94c-1.453 0-2.627-.2867-3.52-.86-.427-.2533-.64-.6133-.64-1.08 0-.2667.073-.48.22-.64.147-.1733.327-.26.54-.26.227 0 .54.1067.94.32.427.2.813.3533 1.16.46.36.1067.813.16 1.36.16.56 0 .993-.0933 1.3-.28.32-.1867.48-.4467.48-.78 0-.2267-.067-.4067-.2-.54-.12-.1333-.347-.2533-.68-.36-.32-.12-.813-.2533-1.48-.4-1.187-.24-2.04-.58-2.56-1.02-.507-.44-.76-1.0467-.76-1.82 0-.5867.173-1.1133.52-1.58.347-.48.82-.8467 1.42-1.1.613-.2667 1.307-.4 2.08-.4.56 0 1.1.0733 1.62.22.52.1333.987.3333 1.4.6.427.2667.64.62.64 1.06 0 .2667-.073.4933-.22.68-.147.1733-.327.26-.54.26-.147 0-.293-.0267-.44-.08-.133-.0667-.307-.16-.52-.28-.387-.2-.72-.3467-1-.44-.28-.1067-.627-.16-1.04-.16-.493 0-.887.1-1.18.3-.28.2-.42.4733-.42.82 0 .3333.147.5867.44.76s.86.3467 1.7.52c.893.1867 1.593.4 2.1.64s.867.54 1.08.9c.227.36.34.82.34 1.38 0 .9067-.38 1.6333-1.14 2.18-.747.5467-1.747.82-3 .82zm299.569 0c-.973 0-1.833-.2067-2.58-.62-.733-.4133-1.3-1-1.7-1.76s-.6-1.6467-.6-2.66.207-1.9067.62-2.68c.427-.7867 1.02-1.3933 1.78-1.82s1.634-.64 2.62-.64c.52 0 1.04.0733 1.56.22.534.1467 1 .3467 1.4.6.427.28.64.6333.64 1.06 0 .2933-.073.5333-.22.72-.133.1733-.313.26-.54.26-.146 0-.3-.0333-.46-.1s-.32-.1467-.48-.24c-.293-.1733-.573-.3067-.84-.4-.266-.1067-.573-.16-.92-.16-.826 0-1.466.2733-1.92.82-.44.5333-.66 1.3067-.66 2.32 0 1 .22 1.7733.66 2.32.454.5333 1.094.8 1.92.8.334 0 .627-.0467.88-.14.267-.1067.56-.2467.88-.42.2-.12.374-.2067.52-.26.147-.0667.294-.1.44-.1.214 0 .394.0933.54.28.147.1867.22.42.22.7 0 .2267-.053.4267-.16.6-.093.16-.253.3067-.48.44-.413.2667-.893.48-1.44.64-.546.1467-1.106.22-1.68.22zm10.886-10.14c.347-.0267.62.0467.82.22s.3.4333.3.78c0 .36-.087.6267-.26.8s-.487.2867-.94.34l-.6.06c-.787.08-1.367.3467-1.74.8-.36.4533-.54 1.02-.54 1.7v4.2c0 .3867-.12.6867-.36.9-.24.2-.54.3-.9.3s-.66-.1-.9-.3c-.227-.2133-.34-.5133-.34-.9v-7.74c0-.3733.113-.66.34-.86.24-.2.533-.3.88-.3s.627.1.84.3c.213.1867.32.46.32.82v.8c.253-.5867.627-1.04 1.12-1.36.507-.32 1.067-.5 1.68-.54zm9.741 7.3c.227 0 .407.0867.54.26.147.1733.22.4067.22.7 0 .4133-.247.76-.74 1.04-.453.2533-.967.46-1.54.62-.573.1467-1.12.22-1.64.22-1.573 0-2.82-.4533-3.74-1.36s-1.38-2.1467-1.38-3.72c0-1 .2-1.8867.6-2.66s.96-1.3733 1.68-1.8c.733-.4267 1.56-.64 2.48-.64.88 0 1.647.1933 2.3.58s1.16.9333 1.52 1.64.54 1.54.54 2.5c0 .5733-.253.86-.76.86h-5.9c.08.92.34 1.6.78 2.04.44.4267 1.08.64 1.92.64.427 0 .8-.0533 1.12-.16.333-.1067.707-.2533 1.12-.44.4-.2133.693-.32.88-.32zm-3.46-5.58c-.68 0-1.227.2133-1.64.64-.4.4267-.64 1.04-.72 1.84h4.52c-.027-.8133-.227-1.4267-.6-1.84-.373-.4267-.893-.64-1.56-.64zm14.505-5.94c.373 0 .68.1067.92.32s.36.4933.36.84v11.96c0 .36-.113.6467-.34.86s-.527.32-.9.32-.673-.1067-.9-.32-.34-.5-.34-.86v-.5c-.293.5467-.72.9733-1.28 1.28-.547.3067-1.173.46-1.88.46-.84 0-1.593-.2133-2.26-.64-.653-.4267-1.167-1.0267-1.54-1.8-.36-.7867-.54-1.6867-.54-2.7s.18-1.9.54-2.66c.373-.76.887-1.3467 1.54-1.76s1.407-.62 2.26-.62c.707 0 1.333.1467 1.88.44s.967.7067 1.26 1.24v-4.74c0-.3333.107-.6.32-.8.227-.2133.527-.32.9-.32zm-3.7 12.42c.8 0 1.413-.2733 1.84-.82.44-.5467.66-1.3267.66-2.34s-.22-1.7867-.66-2.32c-.427-.5467-1.033-.82-1.82-.82-.8 0-1.42.2667-1.86.8s-.66 1.3-.66 2.3c0 1.0133.22 1.8.66 2.36s1.053.84 1.84.84zm8.792 1.9c-.36 0-.66-.1-.9-.3-.227-.2133-.34-.5133-.34-.9v-7.72c0-.3867.113-.68.34-.88.24-.2.54-.3.9-.3s.66.1.9.3.36.4933.36.88v7.72c0 .3867-.12.6867-.36.9-.24.2-.54.3-.9.3zm0-11.88c-.454 0-.814-.12-1.08-.36-.267-.2533-.4-.58-.4-.98s.133-.72.4-.96c.266-.24.626-.36 1.08-.36.44 0 .793.12 1.06.36.28.24.42.56.42.96s-.134.7267-.4.98c-.267.24-.627.36-1.08.36zm9.347 10.02c.667.04 1 .34 1 .9 0 .32-.133.5667-.4.74-.253.16-.62.2267-1.1.2l-.54-.04c-2.24-.16-3.36-1.36-3.36-3.6v-4.36h-1c-.36 0-.64-.08-.84-.24-.186-.16-.28-.3933-.28-.7s.094-.54.28-.7c.2-.16.48-.24.84-.24h1v-1.84c0-.36.114-.6467.34-.86.227-.2133.534-.32.92-.32.374 0 .674.1067.9.32.227.2133.34.5.34.86v1.84h1.7c.36 0 .634.08.82.24.2.16.3.3933.3.7s-.1.54-.3.7c-.186.16-.46.24-.82.24h-1.7v4.54c0 .9867.454 1.5133 1.36 1.58zm6.543-8.28c1.36 0 2.367.34 3.02 1.02.667.6667 1 1.6867 1 3.06v4.88c0 .36-.106.6467-.32.86-.213.2-.506.3-.88.3-.346 0-.633-.1067-.86-.32-.213-.2133-.32-.4933-.32-.84v-.44c-.226.52-.586.9267-1.08 1.22-.48.2933-1.04.44-1.68.44-.653 0-1.246-.1333-1.78-.4-.533-.2667-.953-.6333-1.26-1.1-.306-.4667-.46-.9867-.46-1.56 0-.72.18-1.2867.54-1.7.374-.4133.974-.7133 1.8-.9.827-.1867 1.967-.28 3.42-.28h.5v-.46c0-.6533-.14-1.1267-.42-1.42-.28-.3067-.733-.46-1.36-.46-.386 0-.78.06-1.18.18-.4.1067-.873.2667-1.42.48-.346.1733-.6.26-.76.26-.24 0-.44-.0867-.6-.26-.146-.1733-.22-.4-.22-.68 0-.2267.054-.42.16-.58.12-.1733.314-.3333.58-.48.467-.2533 1.02-.4533 1.66-.6.654-.1467 1.294-.22 1.92-.22zm-.62 8.38c.667 0 1.207-.22 1.62-.66.427-.4533.64-1.0333.64-1.74v-.42h-.36c-.893 0-1.586.04-2.08.12-.493.08-.846.22-1.06.42-.213.2-.32.4733-.32.82 0 .4267.147.78.44 1.06.307.2667.68.4 1.12.4zm12.801-8.38c.853 0 1.607.2067 2.26.62s1.16 1 1.52 1.76c.373.76.56 1.6467.56 2.66s-.187 1.9133-.56 2.7c-.36.7733-.873 1.3733-1.54 1.8-.653.4267-1.4.64-2.24.64-.707 0-1.34-.1533-1.9-.46-.547-.3067-.967-.7333-1.26-1.28v.5c0 .36-.113.6467-.34.86s-.527.32-.9.32-.673-.1067-.9-.32c-.213-.2133-.32-.5-.32-.86v-11.96c0-.3467.113-.6267.34-.84.24-.2133.547-.32.92-.32s.673.1.9.3.34.4733.34.82v4.72c.293-.5333.713-.94 1.26-1.22.547-.2933 1.167-.44 1.86-.44zm-.66 8.24c.787 0 1.4-.28 1.84-.84s.66-1.3467.66-2.36c0-1-.22-1.7667-.66-2.3-.427-.5333-1.04-.8-1.84-.8s-1.42.2733-1.86.82c-.427.5333-.64 1.3067-.64 2.32s.213 1.7933.64 2.34c.44.5467 1.06.82 1.86.82zm8.292 1.9c-.36 0-.66-.1-.9-.3-.227-.2133-.34-.5133-.34-.9v-11.94c0-.3867.113-.68.34-.88.24-.2.54-.3.9-.3s.66.1.9.3.36.4933.36.88v11.94c0 .3867-.12.6867-.36.9-.24.2-.54.3-.9.3zm11.578-2.8c.227 0 .407.0867.54.26.147.1733.22.4067.22.7 0 .4133-.247.76-.74 1.04-.453.2533-.967.46-1.54.62-.573.1467-1.12.22-1.64.22-1.573 0-2.82-.4533-3.74-1.36s-1.38-2.1467-1.38-3.72c0-1 .2-1.8867.6-2.66s.96-1.3733 1.68-1.8c.733-.4267 1.56-.64 2.48-.64.88 0 1.647.1933 2.3.58s1.16.9333 1.52 1.64.54 1.54.54 2.5c0 .5733-.253.86-.76.86h-5.9c.08.92.34 1.6.78 2.04.44.4267 1.08.64 1.92.64.427 0 .8-.0533 1.12-.16.333-.1067.707-.2533 1.12-.44.4-.2133.693-.32.88-.32zm-3.46-5.58c-.68 0-1.227.2133-1.64.64-.4.4267-.64 1.04-.72 1.84h4.52c-.027-.8133-.227-1.4267-.6-1.84-.373-.4267-.893-.64-1.56-.64zm-498.824 35.42c-1 0-1.88-.2067-2.64-.62-.7467-.4133-1.3267-1.0067-1.74-1.78s-.62-1.6733-.62-2.7.2067-1.92.62-2.68c.4133-.7733.9933-1.3667 1.74-1.78.76-.4133 1.64-.62 2.64-.62s1.8733.2067 2.62.62c.76.4133 1.34 1.0067 1.74 1.78.4133.76.62 1.6533.62 2.68s-.2067 1.9267-.62 2.7c-.4.7733-.98 1.3667-1.74 1.78-.7467.4133-1.62.62-2.62.62zm-.02-1.94c.8133 0 1.4333-.2667 1.86-.8s.64-1.32.64-2.36c0-1.0267-.2133-1.8067-.64-2.34-.4267-.5467-1.04-.82-1.84-.82s-1.42.2733-1.86.82c-.4267.5333-.64 1.3133-.64 2.34 0 1.04.2133 1.8267.64 2.36s1.04.8 1.84.8zm12.684-8.24c.84 0 1.587.2133 2.24.64.667.4267 1.18 1.0333 1.54 1.82.373.7733.56 1.6667.56 2.68s-.187 1.9-.56 2.66c-.36.76-.867 1.3467-1.52 1.76s-1.407.62-2.26.62c-.693 0-1.313-.1467-1.86-.44s-.967-.7-1.26-1.22v4.08c0 .3467-.113.62-.3401.82-.2267.2-.5267.3-.9.3s-.68-.1067-.92-.32c-.2267-.2133-.34-.4933-.34-.84v-11.34c0-.36.1067-.6467.32-.86.2267-.2133.5267-.32.9-.32s.6733.1067.9.32c.2271.2133.3401.5.3401.86v.5c.293-.5467.713-.9667 1.26-1.26.56-.3067 1.193-.46 1.9-.46zm-.66 8.24c.787 0 1.4-.2667 1.84-.8.44-.5467.66-1.3133.66-2.3 0-1.0133-.22-1.8-.66-2.36s-1.053-.84-1.84-.84c-.8 0-1.42.2733-1.86.82-.427.5467-.64 1.3267-.64 2.34 0 1 .213 1.7733.64 2.32.44.5467 1.06.82 1.86.82zm12.073.04c.667.04 1 .34 1 .9 0 .32-.133.5667-.4.74-.253.16-.62.2267-1.1.2l-.54-.04c-2.24-.16-3.36-1.36-3.36-3.6v-4.36h-1c-.36 0-.64-.08-.84-.24-.187-.16-.28-.3933-.28-.7s.093-.54.28-.7c.2-.16.48-.24.84-.24h1v-1.84c0-.36.113-.6467.34-.86s.533-.32.92-.32c.373 0 .673.1067.9.32s.34.5.34.86v1.84h1.7c.36 0 .633.08.82.24.2.16.3.3933.3.7s-.1.54-.3.7c-.187.16-.46.24-.82.24h-1.7v4.54c0 .9867.453 1.5133 1.36 1.58zm3.543 1.86c-.36 0-.66-.1-.9-.3-.227-.2133-.34-.5133-.34-.9v-7.72c0-.3867.113-.68.34-.88.24-.2.54-.3.9-.3s.66.1.9.3.36.4933.36.88v7.72c0 .3867-.12.6867-.36.9-.24.2-.54.3-.9.3zm0-11.88c-.453 0-.813-.12-1.08-.36-.267-.2533-.4-.58-.4-.98s.133-.72.4-.96.627-.36 1.08-.36c.44 0 .793.12 1.06.36.28.24.42.56.42.96s-.133.7267-.4.98c-.267.24-.627.36-1.08.36zm8.298 11.92c-1 0-1.88-.2067-2.64-.62-.747-.4133-1.327-1.0067-1.74-1.78s-.62-1.6733-.62-2.7.207-1.92.62-2.68c.413-.7733.993-1.3667 1.74-1.78.76-.4133 1.64-.62 2.64-.62s1.873.2067 2.62.62c.76.4133 1.34 1.0067 1.74 1.78.413.76.62 1.6533.62 2.68s-.207 1.9267-.62 2.7c-.4.7733-.98 1.3667-1.74 1.78-.747.4133-1.62.62-2.62.62zm-.02-1.94c.813 0 1.433-.2667 1.86-.8s.64-1.32.64-2.36c0-1.0267-.213-1.8067-.64-2.34-.427-.5467-1.04-.82-1.84-.82s-1.42.2733-1.86.82c-.427.5333-.64 1.3133-.64 2.34 0 1.04.213 1.8267.64 2.36s1.04.8 1.84.8zm12.744-8.24c1.173 0 2.047.3333 2.62 1s.86 1.6733.86 3.02v4.92c0 .3733-.113.6667-.34.88-.213.2133-.513.32-.9.32s-.693-.1067-.92-.32-.34-.5067-.34-.88v-4.78c0-.76-.147-1.3133-.44-1.66-.28-.3467-.727-.52-1.34-.52-.72 0-1.3.2267-1.74.68-.427.4533-.64 1.06-.64 1.82v4.46c0 .3733-.113.6667-.34.88s-.533.32-.92.32-.693-.1067-.92-.32c-.213-.2133-.32-.5067-.32-.88v-7.74c0-.3467.113-.6267.34-.84s.533-.32.92-.32c.347 0 .627.1067.84.32.227.2.34.4667.34.8v.54c.333-.5467.78-.9667 1.34-1.26s1.193-.44 1.9-.44zm9.559 10.18c-1.453 0-2.627-.2867-3.52-.86-.427-.2533-.64-.6133-.64-1.08 0-.2667.073-.48.22-.64.147-.1733.327-.26.54-.26.227 0 .54.1067.94.32.427.2.813.3533 1.16.46.36.1067.813.16 1.36.16.56 0 .993-.0933 1.3-.28.32-.1867.48-.4467.48-.78 0-.2267-.067-.4067-.2-.54-.12-.1333-.347-.2533-.68-.36-.32-.12-.813-.2533-1.48-.4-1.187-.24-2.04-.58-2.56-1.02-.507-.44-.76-1.0467-.76-1.82 0-.5867.173-1.1133.52-1.58.347-.48.82-.8467 1.42-1.1.613-.2667 1.307-.4 2.08-.4.56 0 1.1.0733 1.62.22.52.1333.987.3333 1.4.6.427.2667.64.62.64 1.06 0 .2667-.073.4933-.22.68-.147.1733-.327.26-.54.26-.147 0-.293-.0267-.44-.08-.133-.0667-.307-.16-.52-.28-.387-.2-.72-.3467-1-.44-.28-.1067-.627-.16-1.04-.16-.493 0-.887.1-1.18.3-.28.2-.42.4733-.42.82 0 .3333.147.5867.44.76s.86.3467 1.7.52c.893.1867 1.593.4 2.1.64s.867.54 1.08.9c.227.36.34.82.34 1.38 0 .9067-.38 1.6333-1.14 2.18-.747.5467-1.747.82-3 .82zm7.249-.04c-.426 0-.78-.14-1.06-.42-.28-.2933-.42-.6533-.42-1.08s.14-.78.42-1.06c.28-.2933.634-.44 1.06-.44.427 0 .78.1467 1.06.44.28.28.42.6333.42 1.06s-.14.7867-.42 1.08c-.28.28-.633.42-1.06.42z"/><path d="m37.5 10.0752c-16.9406 0-31.25 14.3094-31.25 31.25s14.3094 31.25 31.25 31.25 31.25-14.3094 31.25-31.25-14.3094-31.25-31.25-31.25zm0 15.625c5.3969 0 9.375 3.975 9.375 9.375s-3.9781 9.375-9.375 9.375c-5.3937 0-9.375-3.975-9.375-9.375s3.9813-9.375 9.375-9.375zm-15.9563 30.5375c2.8032-4.125 7.4782-6.875 12.8313-6.875h6.25c5.3563 0 10.0281 2.75 12.8313 6.875-3.9938 4.275-9.6594 6.9625-15.9563 6.9625s-11.9625-2.6875-15.9563-6.9625z"/></g></svg>