<svg fill="none" height="88" viewBox="0 0 588 88" width="588" xmlns="http://www.w3.org/2000/svg"><path d="m2.22 18.3652c-.14667 0-.26667-.0467-.36-.14s-.15333-.2267-.18-.4l-.36-4.08-.02-.2c0-.2933.08667-.52.26-.68s.39333-.24.66-.24c.30667 0 .54.1.7.3.17333.2.23333.4733.18.82l-.34 4.08c-.04.36-.22.54-.54.54zm4 0c-.14667 0-.26667-.0467-.36-.14s-.15333-.2267-.18-.4l-.36-4.08-.02-.2c0-.2933.08667-.52.26-.68s.39333-.24.66-.24c.30667 0 .54.1.7.3.17333.2.23333.4733.18.82l-.34 4.08c-.04.36-.22.54-.54.54zm8.178 8.56c-.2534 0-.46-.0733-.62-.22-.1467-.16-.22-.3667-.22-.62v-11.96h-4.30003c-.24 0-.42667-.06-.56-.18s-.2-.2933-.2-.52.06667-.4.2-.52.32-.18.56-.18h10.26003c.24 0 .4266.06.56.18.1333.12.2.2933.2.52s-.0667.4-.2.52c-.1334.12-.32.18-.56.18h-4.3v11.96c0 .2533-.0734.46-.22.62-.1467.1467-.3467.22-.6.22zm13.5259-10.08c1.1467 0 2.0133.3267 2.6.98.5867.64.88 1.6.88 2.88v5.42c0 .2533-.0733.4533-.22.6-.1467.1333-.34.2-.58.2-.2533 0-.4533-.0667-.6-.2-.1467-.1467-.22-.3467-.22-.6v-5.38c0-.8667-.18-1.5067-.54-1.92-.3467-.4133-.9067-.62-1.68-.62-.8933 0-1.6067.2733-2.14.82s-.8 1.2867-.8 2.22v4.88c0 .2533-.0733.4533-.22.6-.1333.1333-.3267.2-.58.2s-.4533-.0667-.6-.2c-.1467-.1467-.22-.3467-.22-.6v-12.72c0-.2267.0733-.4133.22-.56.16-.1467.36-.22.6-.22.2533 0 .4467.0733.58.22.1467.1333.22.32.22.56v5.24c.32-.5867.7667-1.0333 1.34-1.34s1.2267-.46 1.96-.46zm13.9872 7.72c.1467 0 .2733.06.38.18s.16.2733.16.46c0 .3333-.2333.64-.7.92-.48.28-.9867.4933-1.52.64-.5333.1333-1.0533.2-1.56.2-1.5067 0-2.7-.4467-3.58-1.34-.8667-.8933-1.3-2.1267-1.3-3.7 0-1 .1933-1.88.58-2.64.3867-.7733.9267-1.3733 1.62-1.8.7067-.4267 1.5067-.64 2.4-.64 1.2667 0 2.2733.4133 3.02 1.24s1.12 1.9467 1.12 3.36c0 .2667-.0533.46-.16.58s-.28.18-.52.18h-6.44c.12 2.2933 1.2067 3.44 3.26 3.44.52 0 .9667-.0667 1.34-.2.3733-.1467.7733-.34 1.2-.58.3467-.2.58-.3.7-.3zm-3.5-6.46c-.8533 0-1.54.2667-2.06.8-.5067.5333-.8067 1.2867-.9 2.26h5.66c-.0267-.9867-.2733-1.74-.74-2.26-.4667-.5333-1.12-.8-1.96-.8zm17.8831 8.88c-1.3333 0-2.4866-.2867-3.46-.86-.9733-.5867-1.7266-1.42-2.26-2.5-.52-1.0933-.78-2.38-.78-3.86 0-1.4667.26-2.74.78-3.82.5334-1.0933 1.2867-1.9267 2.26-2.5.9734-.5867 2.1267-.88 3.46-.88.8934 0 1.7334.1467 2.52.44.8.28 1.4934.6867 2.08 1.22.2134.2.32.4333.32.7 0 .1867-.0533.3533-.16.5-.1066.1333-.2333.2-.38.2-.16 0-.3533-.0733-.58-.22-.68-.5333-1.3-.9067-1.86-1.12-.5466-.2133-1.18-.32-1.9-.32-1.5466 0-2.74.5067-3.58 1.52-.8266 1-1.24 2.4267-1.24 4.28 0 1.8667.4134 3.3067 1.24 4.32.84 1 2.0334 1.5 3.58 1.5.7067 0 1.34-.1067 1.9-.32s1.18-.5867 1.86-1.12c.2267-.1467.42-.22.58-.22.1467 0 .2734.0667.38.2.1067.1333.16.3.16.5 0 .2667-.1066.5-.32.7-.5866.5333-1.28.9467-2.08 1.24-.7866.28-1.6266.42-2.52.42zm14.6599-2.42c.1466 0 .2733.06.38.18.1066.12.16.2733.16.46 0 .3333-.2334.64-.7.92-.48.28-.9867.4933-1.52.64-.5334.1333-1.0534.2-1.56.2-1.5067 0-2.7-.4467-3.58-1.34-.8667-.8933-1.3-2.1267-1.3-3.7 0-1 .1933-1.88.58-2.64.3866-.7733.9266-1.3733 1.62-1.8.7066-.4267 1.5066-.64 2.4-.64 1.2666 0 2.2733.4133 3.02 1.24.7466.8267 1.12 1.9467 1.12 3.36 0 .2667-.0534.46-.16.58-.1067.12-.28.18-.52.18h-6.44c.12 2.2933 1.2066 3.44 3.26 3.44.52 0 .9666-.0667 1.34-.2.3733-.1467.7733-.34 1.2-.58.3466-.2.58-.3.7-.3zm-3.5-6.46c-.8534 0-1.54.2667-2.06.8-.5067.5333-.8067 1.2867-.9 2.26h5.66c-.0267-.9867-.2734-1.74-.74-2.26-.4667-.5333-1.12-.8-1.96-.8zm11.4068-1.26c2.3334 0 3.5 1.2867 3.5 3.86v5.42c0 .2533-.0733.4533-.22.6-.1333.1333-.3266.2-.58.2-.2533 0-.4533-.0667-.6-.2-.1466-.1467-.22-.3467-.22-.6v-5.32c0-.9067-.18-1.5667-.54-1.98-.3466-.4133-.9066-.62-1.68-.62-.8933 0-1.6066.2733-2.14.82-.5333.5467-.8 1.2867-.8 2.22v4.88c0 .2533-.0733.4533-.22.6-.1333.1333-.3266.2-.58.2-.2533 0-.4533-.0667-.6-.2-.1466-.1467-.22-.3467-.22-.6v-8.44c0-.24.0734-.4333.22-.58.1467-.1467.3467-.22.6-.22.24 0 .4267.0733.56.22.1467.1467.22.3333.22.56v1.02c.32-.6.7667-1.0533 1.34-1.36.5734-.32 1.2267-.48 1.96-.48zm10.9672 8.8c.4667.04.7.2533.7.64 0 .2267-.0866.4-.26.52-.16.1067-.4066.1467-.74.12l-.54-.04c-1.0666-.08-1.8533-.4-2.36-.96-.5066-.56-.76-1.4067-.76-2.54v-5.02h-1.34c-.2266 0-.4066-.0533-.54-.16-.12-.12-.18-.2733-.18-.46 0-.2.06-.36.18-.48.1334-.12.3134-.18.54-.18h1.34v-2.26c0-.2533.0734-.4467.22-.58.1467-.1467.3467-.22.6-.22.24 0 .4334.0733.58.22.1467.1333.22.3267.22.58v2.26h2.22c.2134 0 .38.06.5.18.1334.12.2.28.2.48 0 .1867-.0666.34-.2.46-.12.1067-.2866.16-.5.16h-2.22v5.1c0 .7333.1467 1.2667.44 1.6.3067.32.76.5 1.36.54zm9.8369-1.08c.1467 0 .2733.06.38.18.107.12.16.2733.16.46 0 .3333-.2333.64-.7.92-.48.28-.9867.4933-1.52.64-.5333.1333-1.0533.2-1.56.2-1.5067 0-2.7-.4467-3.58-1.34-.8667-.8933-1.3-2.1267-1.3-3.7 0-1 .1933-1.88.58-2.64.3867-.7733.9267-1.3733 1.62-1.8.7067-.4267 1.5067-.64 2.4-.64 1.2667 0 2.2733.4133 3.02 1.24s1.12 1.9467 1.12 3.36c0 .2667-.053.46-.16.58s-.28.18-.52.18h-6.44c.12 2.2933 1.2067 3.44 3.26 3.44.52 0 .9667-.0667 1.34-.2.3733-.1467.7733-.34 1.2-.58.3467-.2.58-.3.7-.3zm-3.5-6.46c-.8533 0-1.54.2667-2.06.8-.5067.5333-.8067 1.2867-.9 2.26h5.66c-.0267-.9867-.2733-1.74-.74-2.26-.4667-.5333-1.12-.8-1.96-.8zm11.327-1.22c.56-.04.84.1867.84.68 0 .2133-.06.3867-.18.52-.12.12-.327.1933-.62.22l-.6.06c-.893.08-1.56.4-2 .96-.427.5467-.64 1.1933-.64 1.94v4.86c0 .2667-.073.4667-.22.6s-.34.2-.58.2-.44-.0667-.6-.2c-.147-.1467-.22-.3467-.22-.6v-8.44c0-.2533.08-.4467.24-.58.16-.1467.353-.22.58-.22.213 0 .393.0733.54.22.147.1333.22.32.22.56v1.12c.28-.5867.673-1.0333 1.18-1.34.52-.3067 1.113-.4867 1.78-.54zm13.527 10.1c-1.307 0-2.447-.2933-3.42-.88-.96-.5867-1.7-1.42-2.22-2.5s-.78-2.3533-.78-3.82c0-1.48.253-2.76.76-3.84.52-1.0933 1.26-1.9267 2.22-2.5.973-.5867 2.12-.88 3.44-.88s2.46.2933 3.42.88c.973.5733 1.713 1.4067 2.22 2.5.52 1.08.78 2.3533.78 3.82s-.26 2.7467-.78 3.84c-.52 1.08-1.267 1.9133-2.24 2.5-.96.5867-2.093.88-3.4.88zm0-1.4c1.493 0 2.653-.5 3.48-1.5.84-1.0133 1.26-2.4533 1.26-4.32s-.413-3.3-1.24-4.3-1.993-1.5-3.5-1.5c-1.493 0-2.66.5067-3.5 1.52-.827 1-1.24 2.4267-1.24 4.28s.413 3.2867 1.24 4.3c.84 1.0133 2.007 1.52 3.5 1.52zm14.033-8.74c2.334 0 3.5 1.2867 3.5 3.86v5.42c0 .2533-.073.4533-.22.6-.133.1333-.326.2-.58.2-.253 0-.453-.0667-.6-.2-.146-.1467-.22-.3467-.22-.6v-5.32c0-.9067-.18-1.5667-.54-1.98-.346-.4133-.906-.62-1.68-.62-.893 0-1.606.2733-2.14.82-.533.5467-.8 1.2867-.8 2.22v4.88c0 .2533-.073.4533-.22.6-.133.1333-.326.2-.58.2-.253 0-.453-.0667-.6-.2-.146-.1467-.22-.3467-.22-.6v-8.44c0-.24.074-.4333.22-.58.147-.1467.347-.22.6-.22.24 0 .427.0733.56.22.147.1467.22.3333.22.56v1.02c.32-.6.767-1.0533 1.34-1.36.574-.32 1.227-.48 1.96-.48zm22.744-4.22c.253 0 .446.08.58.24.146.1467.22.3467.22.6v12.62c0 .2533-.074.46-.22.62-.134.1467-.327.22-.58.22-.254 0-.454-.0733-.6-.22-.147-.16-.22-.3667-.22-.62v-5.72h-8.44v5.72c0 .2533-.074.46-.22.62-.147.1467-.347.22-.6.22-.254 0-.454-.0733-.6-.22-.134-.16-.2-.3667-.2-.62v-12.62c0-.2533.066-.4533.2-.6.146-.16.346-.24.6-.24.253 0 .453.08.6.24.146.1467.22.3467.22.6v5.5h8.44v-5.5c0-.2533.073-.4533.22-.6.146-.16.346-.24.6-.24zm8.016 4.22c2.44 0 3.66 1.28 3.66 3.84v5.44c0 .24-.073.4333-.22.58-.133.1467-.32.22-.56.22s-.433-.0733-.58-.22-.22-.34-.22-.58v-.96c-.253.5733-.64 1.02-1.16 1.34-.52.3067-1.12.46-1.8.46-.627 0-1.207-.1267-1.74-.38-.52-.2533-.933-.6067-1.24-1.06s-.46-.9533-.46-1.5c0-.7333.187-1.3.56-1.7.373-.4133.987-.7067 1.84-.88.853-.1867 2.04-.28 3.56-.28h.44v-.66c0-.8-.167-1.3867-.5-1.76-.32-.3733-.847-.56-1.58-.56-.907 0-1.827.2467-2.76.74-.36.2267-.613.34-.76.34-.16 0-.293-.06-.4-.18s-.16-.2733-.16-.46.053-.3467.16-.48c.12-.1467.307-.2933.56-.44.467-.2667.993-.4733 1.58-.62.6-.16 1.193-.24 1.78-.24zm-.66 8.84c.8 0 1.453-.2667 1.96-.8.52-.5467.78-1.2467.78-2.1v-.58h-.36c-1.173 0-2.067.0533-2.68.16-.613.0933-1.053.26-1.32.5-.253.2267-.38.5667-.38 1.02 0 .52.187.9533.56 1.3.387.3333.867.5 1.44.5zm8.106 1.24c-.24 0-.44-.0667-.6-.2-.147-.1467-.22-.3467-.22-.6v-12.7c0-.2533.073-.4467.22-.58.16-.1467.36-.22.6-.22.226 0 .413.0733.56.22.16.1333.24.3267.24.58v12.7c0 .2533-.08.4533-.24.6-.147.1333-.334.2-.56.2zm7.108.04c-.613 0-1.2-.0733-1.76-.22-.547-.1467-1.033-.3533-1.46-.62-.24-.16-.413-.3067-.52-.44-.093-.1467-.14-.32-.14-.52 0-.1733.047-.3133.14-.42.107-.12.24-.18.4-.18s.393.1.7.3c.4.24.793.4333 1.18.58.4.1333.893.2 1.48.2.72 0 1.28-.1267 1.68-.38s.6-.62.6-1.1c0-.2933-.073-.5267-.22-.7-.147-.1867-.4-.3467-.76-.48-.36-.1467-.887-.2933-1.58-.44-1.173-.2533-2.013-.5933-2.52-1.02s-.76-1.0067-.76-1.74c0-.5733.16-1.08.48-1.52s.76-.7867 1.32-1.04c.573-.2533 1.22-.38 1.94-.38.52 0 1.02.0733 1.5.22.493.1333.927.3267 1.3.58.453.32.68.6533.68 1 0 .1733-.053.32-.16.44s-.233.18-.38.18c-.16 0-.4-.1133-.72-.34-.373-.24-.727-.4267-1.06-.56s-.747-.2-1.24-.2c-.627 0-1.133.14-1.52.42-.373.28-.56.6533-.56 1.12 0 .2933.067.5333.2.72.147.1733.38.3333.7.48.333.1333.807.2667 1.42.4.907.2 1.607.42 2.1.66.507.24.867.5333 1.08.88s.32.7867.32 1.32c0 .84-.353 1.52-1.06 2.04-.707.5067-1.64.76-2.8.76zm10.732-1.32c.466.04.7.2533.7.64 0 .2267-.087.4-.26.52-.16.1067-.407.1467-.74.12l-.54-.04c-1.067-.08-1.854-.4-2.36-.96-.507-.56-.76-1.4067-.76-2.54v-5.02h-1.34c-.227 0-.407-.0533-.54-.16-.12-.12-.18-.2733-.18-.46 0-.2.06-.36.18-.48.133-.12.313-.18.54-.18h1.34v-2.26c0-.2533.073-.4467.22-.58.146-.1467.346-.22.6-.22.24 0 .433.0733.58.22.146.1333.22.3267.22.58v2.26h2.22c.213 0 .38.06.5.18.133.12.2.28.2.48 0 .1867-.067.34-.2.46-.12.1067-.287.16-.5.16h-2.22v5.1c0 .7333.146 1.2667.44 1.6.306.32.76.5 1.36.54zm9.837-1.08c.146 0 .273.06.38.18.106.12.16.2733.16.46 0 .3333-.234.64-.7.92-.48.28-.987.4933-1.52.64-.534.1333-1.054.2-1.56.2-1.507 0-2.7-.4467-3.58-1.34-.867-.8933-1.3-2.1267-1.3-3.7 0-1 .193-1.88.58-2.64.386-.7733.926-1.3733 1.62-1.8.706-.4267 1.506-.64 2.4-.64 1.266 0 2.273.4133 3.02 1.24.746.8267 1.12 1.9467 1.12 3.36 0 .2667-.054.46-.16.58-.107.12-.28.18-.52.18h-6.44c.12 2.2933 1.206 3.44 3.26 3.44.52 0 .966-.0667 1.34-.2.373-.1467.773-.34 1.2-.58.346-.2.58-.3.7-.3zm-3.5-6.46c-.854 0-1.54.2667-2.06.8-.507.5333-.807 1.2867-.9 2.26h5.66c-.027-.9867-.274-1.74-.74-2.26-.467-.5333-1.12-.8-1.96-.8zm14.326-5.48c.254 0 .454.0733.6.22.147.1467.22.3333.22.56v12.72c0 .24-.073.4333-.22.58-.146.1467-.346.22-.6.22-.253 0-.453-.0733-.6-.22-.133-.1467-.2-.34-.2-.58v-1.08c-.293.6133-.726 1.0867-1.3 1.42-.56.3333-1.22.5-1.98.5-.853 0-1.606-.2133-2.26-.64-.653-.4267-1.16-1.02-1.52-1.78-.36-.7733-.54-1.6667-.54-2.68 0-1 .18-1.88.54-2.64s.867-1.3467 1.52-1.76c.654-.4133 1.407-.62 2.26-.62.76 0 1.42.1667 1.98.5.574.3333 1.007.8067 1.3 1.42v-5.36c0-.24.067-.4267.2-.56.147-.1467.347-.22.6-.22zm-3.76 13c.947 0 1.674-.32 2.18-.96.52-.6533.78-1.5733.78-2.76s-.26-2.1-.78-2.74c-.506-.64-1.233-.96-2.18-.96-.946 0-1.686.32-2.22.96-.52.64-.78 1.54-.78 2.7 0 1.1867.26 2.1133.78 2.78.534.6533 1.274.98 2.22.98zm8.301-7.26c-.147 0-.267-.0467-.36-.14s-.153-.2267-.18-.4l-.36-4.08-.02-.2c0-.2933.087-.52.26-.68s.393-.24.66-.24c.307 0 .54.1.7.3.173.2.233.4733.18.82l-.34 4.08c-.04.36-.22.54-.54.54zm6.974 8.6c-.613 0-1.2-.0733-1.76-.22-.547-.1467-1.033-.3533-1.46-.62-.24-.16-.413-.3067-.52-.44-.093-.1467-.14-.32-.14-.52 0-.1733.047-.3133.14-.42.107-.12.24-.18.4-.18s.393.1.7.3c.4.24.793.4333 1.18.58.4.1333.893.2 1.48.2.72 0 1.28-.1267 1.68-.38s.6-.62.6-1.1c0-.2933-.073-.5267-.22-.7-.147-.1867-.4-.3467-.76-.48-.36-.1467-.887-.2933-1.58-.44-1.173-.2533-2.013-.5933-2.52-1.02s-.76-1.0067-.76-1.74c0-.5733.16-1.08.48-1.52s.76-.7867 1.32-1.04c.573-.2533 1.22-.38 1.94-.38.52 0 1.02.0733 1.5.22.493.1333.927.3267 1.3.58.453.32.68.6533.68 1 0 .1733-.053.32-.16.44s-.233.18-.38.18c-.16 0-.4-.1133-.72-.34-.373-.24-.727-.4267-1.06-.56s-.747-.2-1.24-.2c-.627 0-1.133.14-1.52.42-.373.28-.56.6533-.56 1.12 0 .2933.067.5333.2.72.147.1733.38.3333.7.48.333.1333.807.2667 1.42.4.907.2 1.607.42 2.1.66.507.24.867.5333 1.08.88s.32.7867.32 1.32c0 .84-.353 1.52-1.06 2.04-.707.5067-1.64.76-2.8.76zm24.806-9.56c.133-.32.353-.48.66-.48.2 0 .38.0667.54.2s.24.3.24.5c0 .0933-.02.1933-.06.3l-3.32 8.4c-.08.1733-.2.3133-.36.42-.147.0933-.314.14-.5.14-.174 0-.34-.0467-.5-.14-.147-.1067-.26-.2467-.34-.42l-2.76-7.02-2.74 7.02c-.067.1733-.18.3133-.34.42-.16.0933-.334.14-.52.14-.174 0-.34-.0467-.5-.14-.16-.1067-.28-.2467-.36-.42l-3.32-8.38c-.04-.1067-.06-.2-.06-.28 0-.2133.086-.3933.26-.54.186-.1467.386-.22.6-.22.32 0 .546.16.68.48l2.74 7.38 2.82-7.32c.08-.1733.186-.3067.32-.4.146-.0933.3-.14.46-.14.173 0 .326.0467.46.14.146.0933.253.2267.32.4l2.82 7.3zm10.938 7.16c.147 0 .274.06.38.18.107.12.16.2733.16.46 0 .3333-.233.64-.7.92-.48.28-.986.4933-1.52.64-.533.1333-1.053.2-1.56.2-1.506 0-2.7-.4467-3.58-1.34-.866-.8933-1.3-2.1267-1.3-3.7 0-1 .194-1.88.58-2.64.387-.7733.927-1.3733 1.62-1.8.707-.4267 1.507-.64 2.4-.64 1.267 0 2.274.4133 3.02 1.24.747.8267 1.12 1.9467 1.12 3.36 0 .2667-.053.46-.16.58-.106.12-.28.18-.52.18h-6.44c.12 2.2933 1.207 3.44 3.26 3.44.52 0 .967-.0667 1.34-.2.374-.1467.774-.34 1.2-.58.347-.2.58-.3.7-.3zm-3.5-6.46c-.853 0-1.54.2667-2.06.8-.506.5333-.806 1.2867-.9 2.26h5.66c-.026-.9867-.273-1.74-.74-2.26-.466-.5333-1.12-.8-1.96-.8zm11.407-1.26c.854 0 1.607.2067 2.26.62.654.4133 1.16 1 1.52 1.76s.54 1.64.54 2.64c0 1.0133-.18 1.9067-.54 2.68-.36.76-.866 1.3533-1.52 1.78-.653.4267-1.406.64-2.26.64-.76 0-1.426-.1667-2-.5-.56-.3333-.986-.8067-1.28-1.42v1.08c0 .24-.073.4333-.22.58-.133.1467-.326.22-.58.22-.253 0-.453-.0733-.6-.22-.146-.1467-.22-.34-.22-.58v-12.72c0-.2267.074-.4133.22-.56.147-.1467.347-.22.6-.22.254 0 .447.0733.58.22.147.1333.22.32.22.56v5.36c.294-.6133.72-1.0867 1.28-1.42.574-.3333 1.24-.5 2-.5zm-.32 8.78c.947 0 1.68-.3267 2.2-.98.52-.6667.78-1.5933.78-2.78 0-1.16-.26-2.06-.78-2.7s-1.253-.96-2.2-.96c-.946 0-1.68.32-2.2.96-.506.64-.76 1.5533-.76 2.74s.254 2.1067.76 2.76c.52.64 1.254.96 2.2.96zm10.341 1.34c-.613 0-1.2-.0733-1.76-.22-.547-.1467-1.033-.3533-1.46-.62-.24-.16-.413-.3067-.52-.44-.093-.1467-.14-.32-.14-.52 0-.1733.047-.3133.14-.42.107-.12.24-.18.4-.18s.393.1.7.3c.4.24.793.4333 1.18.58.4.1333.893.2 1.48.2.72 0 1.28-.1267 1.68-.38s.6-.62.6-1.1c0-.2933-.073-.5267-.22-.7-.147-.1867-.4-.3467-.76-.48-.36-.1467-.887-.2933-1.58-.44-1.173-.2533-2.013-.5933-2.52-1.02s-.76-1.0067-.76-1.74c0-.5733.16-1.08.48-1.52s.76-.7867 1.32-1.04c.573-.2533 1.22-.38 1.94-.38.52 0 1.02.0733 1.5.22.493.1333.927.3267 1.3.58.453.32.68.6533.68 1 0 .1733-.053.32-.16.44s-.233.18-.38.18c-.16 0-.4-.1133-.72-.34-.373-.24-.727-.4267-1.06-.56s-.747-.2-1.24-.2c-.627 0-1.133.14-1.52.42-.373.28-.56.6533-.56 1.12 0 .2933.067.5333.2.72.147.1733.38.3333.7.48.333.1333.807.2667 1.42.4.907.2 1.607.42 2.1.66.507.24.867.5333 1.08.88s.32.7867.32 1.32c0 .84-.353 1.52-1.06 2.04-.707.5067-1.64.76-2.8.76zm7.149-.04c-.24 0-.44-.0667-.6-.2-.146-.1467-.22-.3467-.22-.6v-8.44c0-.2533.074-.4467.22-.58.16-.1467.36-.22.6-.22s.434.0733.58.22c.147.1333.22.3267.22.58v8.44c0 .2667-.073.4667-.22.6-.146.1333-.34.2-.58.2zm0-12.14c-.32 0-.58-.0933-.78-.28s-.3-.4333-.3-.74c0-.2933.1-.5333.3-.72s.46-.28.78-.28.58.0933.78.28.3.4267.3.72c0 .3067-.1.5533-.3.74s-.46.28-.78.28zm8.485 10.86c.467.04.7.2533.7.64 0 .2267-.087.4-.26.52-.16.1067-.407.1467-.74.12l-.54-.04c-1.067-.08-1.853-.4-2.36-.96s-.76-1.4067-.76-2.54v-5.02h-1.34c-.227 0-.407-.0533-.54-.16-.12-.12-.18-.2733-.18-.46 0-.2.06-.36.18-.48.133-.12.313-.18.54-.18h1.34v-2.26c0-.2533.073-.4467.22-.58.147-.1467.347-.22.6-.22.24 0 .433.0733.58.22.147.1333.22.3267.22.58v2.26h2.22c.213 0 .38.06.5.18.133.12.2.28.2.48 0 .1867-.067.34-.2.46-.12.1067-.287.16-.5.16h-2.22v5.1c0 .7333.147 1.2667.44 1.6.307.32.76.5 1.36.54zm9.837-1.08c.147 0 .273.06.38.18s.16.2733.16.46c0 .3333-.233.64-.7.92-.48.28-.987.4933-1.52.64-.533.1333-1.053.2-1.56.2-1.507 0-2.7-.4467-3.58-1.34-.867-.8933-1.3-2.1267-1.3-3.7 0-1 .193-1.88.58-2.64.387-.7733.927-1.3733 1.62-1.8.707-.4267 1.507-.64 2.4-.64 1.267 0 2.273.4133 3.02 1.24s1.12 1.9467 1.12 3.36c0 .2667-.053.46-.16.58s-.28.18-.52.18h-6.44c.12 2.2933 1.207 3.44 3.26 3.44.52 0 .967-.0667 1.34-.2.373-.1467.773-.34 1.2-.58.347-.2.58-.3.7-.3zm-3.5-6.46c-.853 0-1.54.2667-2.06.8-.507.5333-.807 1.2867-.9 2.26h5.66c-.027-.9867-.273-1.74-.74-2.26-.467-.5333-1.12-.8-1.96-.8zm12.483 8.82c-.24 0-.44-.0667-.6-.2-.147-.1467-.22-.3467-.22-.6v-8.44c0-.2533.073-.4467.22-.58.16-.1467.36-.22.6-.22s.433.0733.58.22c.147.1333.22.3267.22.58v8.44c0 .2667-.073.4667-.22.6s-.34.2-.58.2zm0-12.14c-.32 0-.58-.0933-.78-.28s-.3-.4333-.3-.74c0-.2933.1-.5333.3-.72s.46-.28.78-.28.58.0933.78.28.3.4267.3.72c0 .3067-.1.5533-.3.74s-.46.28-.78.28zm7.108 12.18c-.613 0-1.2-.0733-1.76-.22-.546-.1467-1.033-.3533-1.46-.62-.24-.16-.413-.3067-.52-.44-.093-.1467-.14-.32-.14-.52 0-.1733.047-.3133.14-.42.107-.12.24-.18.4-.18s.394.1.7.3c.4.24.794.4333 1.18.58.4.1333.894.2 1.48.2.72 0 1.28-.1267 1.68-.38s.6-.62.6-1.1c0-.2933-.073-.5267-.22-.7-.146-.1867-.4-.3467-.76-.48-.36-.1467-.886-.2933-1.58-.44-1.173-.2533-2.013-.5933-2.52-1.02-.506-.4267-.76-1.0067-.76-1.74 0-.5733.16-1.08.48-1.52s.76-.7867 1.32-1.04c.574-.2533 1.22-.38 1.94-.38.52 0 1.02.0733 1.5.22.494.1333.927.3267 1.3.58.454.32.68.6533.68 1 0 .1733-.053.32-.16.44-.106.12-.233.18-.38.18-.16 0-.4-.1133-.72-.34-.373-.24-.726-.4267-1.06-.56-.333-.1333-.746-.2-1.24-.2-.626 0-1.133.14-1.52.42-.373.28-.56.6533-.56 1.12 0 .2933.067.5333.2.72.147.1733.38.3333.7.48.334.1333.807.2667 1.42.4.907.2 1.607.42 2.1.66.507.24.867.5333 1.08.88.214.3467.32.7867.32 1.32 0 .84-.353 1.52-1.06 2.04-.706.5067-1.64.76-2.8.76zm144.103-.04c-.32 0-.587-.1-.8-.3-.214-.2133-.32-.4867-.32-.82s.106-.6067.32-.82c.213-.2133.48-.32.8-.32.306 0 .56.1067.76.32.213.2133.32.4867.32.82s-.107.6067-.32.82c-.2.2-.454.3-.76.3zm9.986 0c-.253 0-.453-.0733-.6-.22-.147-.16-.22-.3667-.22-.62v-12.62c0-.2533.073-.4533.22-.6.147-.16.347-.24.6-.24s.453.08.6.24c.147.1467.22.3467.22.6v12.62c0 .2533-.073.46-.22.62-.147.1467-.347.22-.6.22zm4.777-8.56c-.146 0-.266-.0467-.36-.14-.093-.0933-.153-.2267-.18-.4l-.36-4.08-.02-.2c0-.2933.087-.52.26-.68.174-.16.394-.24.66-.24.307 0 .54.1.7.3.174.2.234.4733.18.82l-.34 4.08c-.04.36-.22.54-.54.54zm14.534-1.52c2.16 0 3.24 1.2867 3.24 3.86v5.42c0 .2533-.073.4533-.22.6-.146.1333-.34.2-.58.2s-.44-.0667-.6-.2c-.146-.1467-.22-.3467-.22-.6v-5.38c0-.8933-.16-1.54-.48-1.94s-.82-.6-1.5-.6c-.813 0-1.453.2733-1.92.82-.466.5467-.7 1.2867-.7 2.22v4.88c0 .2533-.08.4533-.24.6-.146.1333-.34.2-.58.2s-.433-.0667-.58-.2c-.146-.1467-.22-.3467-.22-.6v-5.38c0-.8933-.16-1.54-.48-1.94s-.826-.6-1.52-.6c-.8 0-1.44.2733-1.92.82-.466.5467-.7 1.2867-.7 2.22v4.88c0 .2533-.073.4533-.22.6-.146.1333-.34.2-.58.2s-.44-.0667-.6-.2c-.146-.1467-.22-.3467-.22-.6v-8.44c0-.24.074-.4333.22-.58.16-.1467.36-.22.6-.22.227 0 .414.0733.56.22.147.1333.22.32.22.56v.96c.294-.5733.7-1.0133 1.22-1.32s1.12-.46 1.8-.46c1.52 0 2.514.64 2.98 1.92.28-.5867.707-1.0533 1.28-1.4.574-.3467 1.227-.52 1.96-.52zm-485.51 27c2.33333 0 3.5 1.2867 3.5 3.86v5.42c0 .2533-.07333.4533-.22.6-.13333.1333-.32667.2-.58.2s-.45333-.0667-.6-.2c-.14667-.1467-.22-.3467-.22-.6v-5.32c0-.9067-.18-1.5667-.54-1.98-.34667-.4133-.90667-.62-1.68-.62-.89333 0-1.60667.2733-2.14.82s-.8 1.2867-.8 2.22v4.88c0 .2533-.07333.4533-.22.6-.13333.1333-.32667.2-.58.2s-.45333-.0667-.6-.2c-.14667-.1467-.22-.3467-.22-.6v-8.44c0-.24.07333-.4333.22-.58s.34667-.22.6-.22c.24 0 .42667.0733.56.22.14667.1467.22.3333.22.56v1.02c.32-.6.76667-1.0533 1.34-1.36.57333-.32 1.22667-.48 1.96-.48zm10.5072 10.12c-.92 0-1.7333-.2067-2.44-.62-.6933-.4133-1.2333-1-1.62-1.76-.3733-.7733-.56-1.6667-.56-2.68s.1867-1.9.56-2.66c.3867-.7733.9267-1.3667 1.62-1.78.7067-.4133 1.52-.62 2.44-.62s1.7333.2067 2.44.62 1.2467 1.0067 1.62 1.78c.3867.76.58 1.6467.58 2.66s-.1933 1.9067-.58 2.68c-.3733.76-.9133 1.3467-1.62 1.76s-1.52.62-2.44.62zm0-1.34c.96 0 1.6933-.3133 2.2-.94.52-.64.78-1.5667.78-2.78 0-1.1867-.26-2.1-.78-2.74-.52-.6533-1.2533-.98-2.2-.98s-1.68.3267-2.2.98c-.52.64-.78 1.5533-.78 2.74 0 1.2.2533 2.12.76 2.76.52.64 1.26.96 2.22.96zm11.5342.02c.4667.04.7.2533.7.64 0 .2267-.0867.4-.26.52-.16.1067-.4067.1467-.74.12l-.54-.04c-1.0667-.08-1.8533-.4-2.36-.96s-.76-1.4067-.76-2.54v-5.02h-1.34c-.2267 0-.4067-.0533-.54-.16-.12-.12-.18-.2733-.18-.46 0-.2.06-.36.18-.48.1333-.12.3133-.18.54-.18h1.34v-2.26c0-.2533.0733-.4467.22-.58.1467-.1467.3467-.22.6-.22.24 0 .4333.0733.58.22.1467.1333.22.3267.22.58v2.26h2.22c.2133 0 .38.06.5.18.1333.12.2.28.2.48 0 .1867-.0667.34-.2.46-.12.1067-.2867.16-.5.16h-2.22v5.1c0 .7333.1467 1.2667.44 1.6.3067.32.76.5 1.36.54zm10.7331 1.32c-.6133 0-1.2-.0733-1.76-.22-.5466-.1467-1.0333-.3533-1.46-.62-.24-.16-.4133-.3067-.52-.44-.0933-.1467-.14-.32-.14-.52 0-.1733.0467-.3133.14-.42.1067-.12.24-.18.4-.18s.3934.1.7.3c.4.24.7934.4333 1.18.58.4.1333.8934.2 1.48.2.72 0 1.28-.1267 1.68-.38s.6-.62.6-1.1c0-.2933-.0733-.5267-.22-.7-.1466-.1867-.4-.3467-.76-.48-.36-.1467-.8866-.2933-1.58-.44-1.1733-.2533-2.0133-.5933-2.52-1.02-.5066-.4267-.76-1.0067-.76-1.74 0-.5733.16-1.08.48-1.52s.76-.7867 1.32-1.04c.5734-.2533 1.22-.38 1.94-.38.52 0 1.02.0733 1.5.22.4934.1333.9267.3267 1.3.58.4534.32.68.6533.68 1 0 .1733-.0533.32-.16.44-.1066.12-.2333.18-.38.18-.16 0-.4-.1133-.72-.34-.3733-.24-.7266-.4267-1.06-.56-.3333-.1333-.7466-.2-1.24-.2-.6266 0-1.1333.14-1.52.42-.3733.28-.56.6533-.56 1.12 0 .2933.0667.5333.2.72.1467.1733.38.3333.7.48.3334.1333.8067.2667 1.42.4.9067.2 1.6067.42 2.1.66.5067.24.8667.5333 1.08.88.2134.3467.32.7867.32 1.32 0 .84-.3533 1.52-1.06 2.04-.7066.5067-1.64.76-2.8.76zm13.7294-10.08c.2533 0 .4467.0733.58.22.1467.1467.22.34.22.58v8.46c0 .2267-.0733.4133-.22.56-.1333.1467-.3267.22-.58.22-.24 0-.4333-.0667-.58-.2-.1333-.1467-.2-.3333-.2-.56v-1c-.3067.5867-.74 1.0333-1.3 1.34-.5467.3067-1.1667.46-1.86.46-1.16 0-2.0333-.32-2.62-.96-.5867-.6533-.88-1.6133-.88-2.88v-5.44c0-.24.0733-.4333.22-.58s.3467-.22.6-.22.4467.0733.58.22c.1467.1467.22.34.22.58v5.4c0 .8667.1733 1.5067.52 1.92.3467.4.8933.6 1.64.6.8533 0 1.54-.2733 2.06-.82.52-.56.78-1.2933.78-2.2v-4.9c0-.24.0733-.4333.22-.58s.3467-.22.6-.22zm8.6309 0c.56-.04.84.1867.84.68 0 .2133-.06.3867-.18.52-.12.12-.3266.1933-.62.22l-.6.06c-.8933.08-1.56.4-2 .96-.4266.5467-.64 1.1933-.64 1.94v4.86c0 .2667-.0733.4667-.22.6-.1466.1333-.34.2-.58.2s-.44-.0667-.6-.2c-.1466-.1467-.22-.3467-.22-.6v-8.44c0-.2533.08-.4467.24-.58.16-.1467.3534-.22.58-.22.2134 0 .3934.0733.54.22.1467.1333.22.32.22.56v1.12c.28-.5867.6734-1.0333 1.18-1.34.52-.3067 1.1134-.4867 1.78-.54zm9.5755 7.68c.1467 0 .2733.06.38.18s.16.2733.16.46c0 .3333-.2333.64-.7.92-.48.28-.9867.4933-1.52.64-.5333.1333-1.0533.2-1.56.2-1.5067 0-2.7-.4467-3.58-1.34-.8667-.8933-1.3-2.1267-1.3-3.7 0-1 .1933-1.88.58-2.64.3867-.7733.9267-1.3733 1.62-1.8.7067-.4267 1.5067-.64 2.4-.64 1.2667 0 2.2733.4133 3.02 1.24s1.12 1.9467 1.12 3.36c0 .2667-.0533.46-.16.58s-.28.18-.52.18h-6.44c.12 2.2933 1.2067 3.44 3.26 3.44.52 0 .9667-.0667 1.34-.2.3733-.1467.7733-.34 1.2-.58.3467-.2.58-.3.7-.3zm-3.5-6.46c-.8533 0-1.54.2667-2.06.8-.5067.5333-.8067 1.2867-.9 2.26h5.66c-.0267-.9867-.2733-1.74-.74-2.26-.4667-.5333-1.12-.8-1.96-.8zm24.9831-.7c.1334-.32.3534-.48.66-.48.2 0 .38.0667.54.2s.24.3.24.5c0 .0933-.02.1933-.06.3l-3.32 8.4c-.08.1733-.2.3133-.36.42-.1466.0933-.3133.14-.5.14-.1733 0-.34-.0467-.5-.14-.1466-.1067-.26-.2467-.34-.42l-2.76-7.02-2.74 7.02c-.0666.1733-.18.3133-.34.42-.16.0933-.3333.14-.52.14-.1733 0-.34-.0467-.5-.14-.16-.1067-.28-.2467-.36-.42l-3.32-8.38c-.04-.1067-.06-.2-.06-.28 0-.2133.0867-.3933.26-.54.1867-.1467.3867-.22.6-.22.32 0 .5467.16.68.48l2.74 7.38 2.82-7.32c.08-.1733.1867-.3067.32-.4.1467-.0933.3-.14.46-.14.1734 0 .3267.0467.46.14.1467.0933.2534.2267.32.4l2.82 7.3zm8.6896-.56c1.147 0 2.014.3267 2.6.98.587.64.88 1.6.88 2.88v5.42c0 .2533-.073.4533-.22.6-.146.1333-.34.2-.58.2-.253 0-.453-.0667-.6-.2-.146-.1467-.22-.3467-.22-.6v-5.38c0-.8667-.18-1.5067-.54-1.92-.346-.4133-.906-.62-1.68-.62-.893 0-1.6064.2733-2.1397.82-.5334.5467-.8 1.2867-.8 2.22v4.88c0 .2533-.0734.4533-.22.6-.1334.1333-.3267.2-.58.2-.2534 0-.4534-.0667-.6-.2-.1467-.1467-.22-.3467-.22-.6v-12.72c0-.2267.0733-.4133.22-.56.16-.1467.36-.22.6-.22.2533 0 .4466.0733.58.22.1466.1333.22.32.22.56v5.24c.32-.5867.7666-1.0333 1.34-1.34.5733-.3067 1.2267-.46 1.9597-.46zm10.427 0c2.44 0 3.66 1.28 3.66 3.84v5.44c0 .24-.073.4333-.22.58-.133.1467-.32.22-.56.22s-.433-.0733-.58-.22c-.146-.1467-.22-.34-.22-.58v-.96c-.253.5733-.64 1.02-1.16 1.34-.52.3067-1.12.46-1.8.46-.626 0-1.206-.1267-1.74-.38-.52-.2533-.933-.6067-1.24-1.06-.306-.4533-.46-.9533-.46-1.5 0-.7333.187-1.3.56-1.7.374-.4133.987-.7067 1.84-.88.854-.1867 2.04-.28 3.56-.28h.44v-.66c0-.8-.166-1.3867-.5-1.76-.32-.3733-.846-.56-1.58-.56-.906 0-1.826.2467-2.76.74-.36.2267-.613.34-.76.34-.16 0-.293-.06-.4-.18-.106-.12-.16-.2733-.16-.46s.054-.3467.16-.48c.12-.1467.307-.2933.56-.44.467-.2667.994-.4733 1.58-.62.6-.16 1.194-.24 1.78-.24zm-.66 8.84c.8 0 1.454-.2667 1.96-.8.52-.5467.78-1.2467.78-2.1v-.58h-.36c-1.173 0-2.066.0533-2.68.16-.613.0933-1.053.26-1.32.5-.253.2267-.38.5667-.38 1.02 0 .52.187.9533.56 1.3.387.3333.867.5 1.44.5zm11.786-.04c.467.04.7.2533.7.64 0 .2267-.087.4-.26.52-.16.1067-.407.1467-.74.12l-.54-.04c-1.067-.08-1.853-.4-2.36-.96s-.76-1.4067-.76-2.54v-5.02h-1.34c-.227 0-.407-.0533-.54-.16-.12-.12-.18-.2733-.18-.46 0-.2.06-.36.18-.48.133-.12.313-.18.54-.18h1.34v-2.26c0-.2533.073-.4467.22-.58.147-.1467.347-.22.6-.22.24 0 .433.0733.58.22.147.1333.22.3267.22.58v2.26h2.22c.213 0 .38.06.5.18.133.12.2.28.2.48 0 .1867-.067.34-.2.46-.12.1067-.287.16-.5.16h-2.22v5.1c0 .7333.147 1.2667.44 1.6.307.32.76.5 1.36.54zm11.953 0c.467.04.7.2533.7.64 0 .2267-.087.4-.26.52-.16.1067-.407.1467-.74.12l-.54-.04c-1.067-.08-1.853-.4-2.36-.96s-.76-1.4067-.76-2.54v-5.02h-1.34c-.227 0-.407-.0533-.54-.16-.12-.12-.18-.2733-.18-.46 0-.2.06-.36.18-.48.133-.12.313-.18.54-.18h1.34v-2.26c0-.2533.073-.4467.22-.58.147-.1467.347-.22.6-.22.24 0 .433.0733.58.22.147.1333.22.3267.22.58v2.26h2.22c.213 0 .38.06.5.18.133.12.2.28.2.48 0 .1867-.067.34-.2.46-.12.1067-.287.16-.5.16h-2.22v5.1c0 .7333.147 1.2667.44 1.6.307.32.76.5 1.36.54zm6.337 1.32c-.92 0-1.733-.2067-2.44-.62-.693-.4133-1.233-1-1.62-1.76-.373-.7733-.56-1.6667-.56-2.68s.187-1.9.56-2.66c.387-.7733.927-1.3667 1.62-1.78.707-.4133 1.52-.62 2.44-.62s1.733.2067 2.44.62 1.247 1.0067 1.62 1.78c.387.76.58 1.6467.58 2.66s-.193 1.9067-.58 2.68c-.373.76-.913 1.3467-1.62 1.76s-1.52.62-2.44.62zm0-1.34c.96 0 1.693-.3133 2.2-.94.52-.64.78-1.5667.78-2.78 0-1.1867-.26-2.1-.78-2.74-.52-.6533-1.253-.98-2.2-.98s-1.68.3267-2.2.98c-.52.64-.78 1.5533-.78 2.74 0 1.2.253 2.12.76 2.76.52.64 1.26.96 2.22.96zm20.11-8.74c.253 0 .453.0733.6.22s.22.34.22.58v8.48c0 1.4533-.373 2.5467-1.12 3.28-.747.7467-1.853 1.12-3.32 1.12-1.427 0-2.613-.28-3.56-.84-.48-.2667-.72-.5733-.72-.92 0-.1867.047-.34.14-.46.107-.12.24-.18.4-.18.133 0 .373.0933.72.28.467.24.927.4333 1.38.58s.993.22 1.62.22c.947 0 1.66-.2533 2.14-.76.48-.4933.72-1.22.72-2.18v-1.72c-.28.6267-.713 1.1067-1.3 1.44-.573.3333-1.253.5-2.04.5-.853 0-1.613-.2-2.28-.6-.653-.4-1.167-.9667-1.54-1.7-.36-.7333-.54-1.58-.54-2.54s.18-1.8067.54-2.54c.373-.7333.887-1.3 1.54-1.7.667-.4 1.427-.6 2.28-.6.773 0 1.447.1667 2.02.5s1.007.8067 1.3 1.42v-1.08c0-.24.067-.4333.2-.58.147-.1467.347-.22.6-.22zm-3.8 8.3c.933 0 1.667-.3067 2.2-.92.533-.6267.8-1.4867.8-2.58 0-1.08-.267-1.9267-.8-2.54-.52-.6267-1.253-.94-2.2-.94s-1.693.3133-2.24.94c-.533.6133-.8 1.46-.8 2.54 0 1.0933.267 1.9533.8 2.58.547.6133 1.293.92 2.24.92zm11.659 1.78c-.92 0-1.734-.2067-2.44-.62-.694-.4133-1.234-1-1.62-1.76-.374-.7733-.56-1.6667-.56-2.68s.186-1.9.56-2.66c.386-.7733.926-1.3667 1.62-1.78.706-.4133 1.52-.62 2.44-.62s1.733.2067 2.44.62c.706.4133 1.246 1.0067 1.62 1.78.386.76.58 1.6467.58 2.66s-.194 1.9067-.58 2.68c-.374.76-.914 1.3467-1.62 1.76-.707.4133-1.52.62-2.44.62zm0-1.34c.96 0 1.693-.3133 2.2-.94.52-.64.78-1.5667.78-2.78 0-1.1867-.26-2.1-.78-2.74-.52-.6533-1.254-.98-2.2-.98-.947 0-1.68.3267-2.2.98-.52.64-.78 1.5533-.78 2.74 0 1.2.253 2.12.76 2.76.52.64 1.26.96 2.22.96zm17.13-8.78c1.146 0 2.013.3267 2.6.98.586.64.88 1.6.88 2.88v5.42c0 .2533-.074.4533-.22.6-.147.1333-.34.2-.58.2-.254 0-.454-.0667-.6-.2-.147-.1467-.22-.3467-.22-.6v-5.38c0-.8667-.18-1.5067-.54-1.92-.347-.4133-.907-.62-1.68-.62-.894 0-1.607.2733-2.14.82-.534.5467-.8 1.2867-.8 2.22v4.88c0 .2533-.074.4533-.22.6-.134.1333-.327.2-.58.2-.254 0-.454-.0667-.6-.2-.147-.1467-.22-.3467-.22-.6v-12.72c0-.2267.073-.4133.22-.56.16-.1467.36-.22.6-.22.253 0 .446.0733.58.22.146.1333.22.32.22.56v5.24c.32-.5867.766-1.0333 1.34-1.34.573-.3067 1.226-.46 1.96-.46zm13.987 7.72c.147 0 .273.06.38.18s.16.2733.16.46c0 .3333-.233.64-.7.92-.48.28-.987.4933-1.52.64-.533.1333-1.053.2-1.56.2-1.507 0-2.7-.4467-3.58-1.34-.867-.8933-1.3-2.1267-1.3-3.7 0-1 .193-1.88.58-2.64.387-.7733.927-1.3733 1.62-1.8.707-.4267 1.507-.64 2.4-.64 1.267 0 2.273.4133 3.02 1.24s1.12 1.9467 1.12 3.36c0 .2667-.053.46-.16.58s-.28.18-.52.18h-6.44c.12 2.2933 1.207 3.44 3.26 3.44.52 0 .967-.0667 1.34-.2.373-.1467.773-.34 1.2-.58.347-.2.58-.3.7-.3zm-3.5-6.46c-.853 0-1.54.2667-2.06.8-.507.5333-.807 1.2867-.9 2.26h5.66c-.027-.9867-.273-1.74-.74-2.26-.467-.5333-1.12-.8-1.96-.8zm11.327-1.22c.56-.04.84.1867.84.68 0 .2133-.06.3867-.18.52-.12.12-.327.1933-.62.22l-.6.06c-.894.08-1.56.4-2 .96-.427.5467-.64 1.1933-.64 1.94v4.86c0 .2667-.074.4667-.22.6-.147.1333-.34.2-.58.2s-.44-.0667-.6-.2c-.147-.1467-.22-.3467-.22-.6v-8.44c0-.2533.08-.4467.24-.58.16-.1467.353-.22.58-.22.213 0 .393.0733.54.22.146.1333.22.32.22.56v1.12c.28-.5867.673-1.0333 1.18-1.34.52-.3067 1.113-.4867 1.78-.54zm9.575 7.68c.147 0 .274.06.38.18.107.12.16.2733.16.46 0 .3333-.233.64-.7.92-.48.28-.986.4933-1.52.64-.533.1333-1.053.2-1.56.2-1.506 0-2.7-.4467-3.58-1.34-.866-.8933-1.3-2.1267-1.3-3.7 0-1 .194-1.88.58-2.64.387-.7733.927-1.3733 1.62-1.8.707-.4267 1.507-.64 2.4-.64 1.267 0 2.274.4133 3.02 1.24.747.8267 1.12 1.9467 1.12 3.36 0 .2667-.053.46-.16.58-.106.12-.28.18-.52.18h-6.44c.12 2.2933 1.207 3.44 3.26 3.44.52 0 .967-.0667 1.34-.2.374-.1467.774-.34 1.2-.58.347-.2.58-.3.7-.3zm-3.5-6.46c-.853 0-1.54.2667-2.06.8-.506.5333-.806 1.2867-.9 2.26h5.66c-.026-.9867-.273-1.74-.74-2.26-.466-.5333-1.12-.8-1.96-.8zm15.963-4.1c-.706.0533-1.24.28-1.6.68-.36.3867-.54.9733-.54 1.76v.64h2.22c.227 0 .4.06.52.18s.18.28.18.48-.06.3533-.18.46-.293.16-.52.16h-2.22v7.76c0 .2533-.08.4533-.24.6-.146.1333-.333.2-.56.2-.24 0-.44-.0667-.6-.2-.146-.1467-.22-.3467-.22-.6v-7.76h-1.34c-.226 0-.406-.0533-.54-.16-.12-.12-.18-.2733-.18-.46 0-.2.06-.36.18-.48.134-.12.314-.18.54-.18h1.34v-.36c0-1.2.3-2.14.9-2.82.6-.6933 1.46-1.08 2.58-1.16l.52-.04c.347-.0267.594.0067.74.1.16.0933.24.26.24.5 0 .3867-.233.6067-.7.66zm6.205 12.96c-.92 0-1.733-.2067-2.44-.62-.693-.4133-1.233-1-1.62-1.76-.373-.7733-.56-1.6667-.56-2.68s.187-1.9.56-2.66c.387-.7733.927-1.3667 1.62-1.78.707-.4133 1.52-.62 2.44-.62s1.734.2067 2.44.62c.707.4133 1.247 1.0067 1.62 1.78.387.76.58 1.6467.58 2.66s-.193 1.9067-.58 2.68c-.373.76-.913 1.3467-1.62 1.76-.706.4133-1.52.62-2.44.62zm0-1.34c.96 0 1.694-.3133 2.2-.94.52-.64.78-1.5667.78-2.78 0-1.1867-.26-2.1-.78-2.74-.52-.6533-1.253-.98-2.2-.98-.946 0-1.68.3267-2.2.98-.52.64-.78 1.5533-.78 2.74 0 1.2.254 2.12.76 2.76.52.64 1.26.96 2.22.96zm11.874-8.74c.56-.04.84.1867.84.68 0 .2133-.06.3867-.18.52-.12.12-.327.1933-.62.22l-.6.06c-.893.08-1.56.4-2 .96-.427.5467-.64 1.1933-.64 1.94v4.86c0 .2667-.073.4667-.22.6s-.34.2-.58.2-.44-.0667-.6-.2c-.147-.1467-.22-.3467-.22-.6v-8.44c0-.2533.08-.4467.24-.58.16-.1467.353-.22.58-.22.213 0 .393.0733.54.22.147.1333.22.32.22.56v1.12c.28-.5867.673-1.0333 1.18-1.34.52-.3067 1.113-.4867 1.78-.54zm2.601 10.04c-.32 0-.587-.1-.8-.3-.213-.2133-.32-.4867-.32-.82s.107-.6067.32-.82.48-.32.8-.32c.307 0 .56.1067.76.32.213.2133.32.4867.32.82s-.107.6067-.32.82c-.2.2-.453.3-.76.3zm13.667.06c-1 0-1.96-.1467-2.88-.44-.907-.3067-1.634-.7133-2.18-1.22-.2-.1867-.3-.42-.3-.7 0-.1867.053-.3467.16-.48.106-.1467.233-.22.38-.22.173 0 .36.0733.56.22 1.24.96 2.653 1.44 4.24 1.44 1.146 0 2.026-.22 2.64-.66.613-.44.92-1.0667.92-1.88 0-.4667-.147-.84-.44-1.12-.294-.2933-.68-.5267-1.16-.7s-1.127-.3533-1.94-.54c-1.094-.2533-1.994-.52-2.7-.8-.694-.28-1.26-.68-1.7-1.2-.427-.52-.64-1.2-.64-2.04 0-.8.213-1.5067.64-2.12.44-.6267 1.046-1.1067 1.82-1.44.786-.3467 1.68-.52 2.68-.52.933 0 1.8.1467 2.6.44.813.28 1.493.6867 2.04 1.22.213.2133.32.4467.32.7 0 .1867-.054.3533-.16.5-.107.1333-.234.2-.38.2-.147 0-.34-.0733-.58-.22-.654-.5333-1.26-.9067-1.82-1.12s-1.234-.32-2.02-.32c-1.107 0-1.967.2333-2.58.7-.614.4533-.92 1.0933-.92 1.92 0 .7067.266 1.24.8 1.6.546.3467 1.38.6533 2.5.92 1.213.2933 2.166.5667 2.86.82.693.24 1.266.6067 1.72 1.1.466.4933.7 1.1533.7 1.98 0 .7867-.22 1.48-.66 2.08-.427.6-1.034 1.0667-1.82 1.4-.787.3333-1.687.5-2.7.5zm15.143-2.42c.147 0 .274.06.38.18.107.12.16.2733.16.46 0 .3333-.233.64-.7.92-.48.28-.986.4933-1.52.64-.533.1333-1.053.2-1.56.2-1.506 0-2.7-.4467-3.58-1.34-.866-.8933-1.3-2.1267-1.3-3.7 0-1 .194-1.88.58-2.64.387-.7733.927-1.3733 1.62-1.8.707-.4267 1.507-.64 2.4-.64 1.267 0 2.274.4133 3.02 1.24.747.8267 1.12 1.9467 1.12 3.36 0 .2667-.053.46-.16.58-.106.12-.28.18-.52.18h-6.44c.12 2.2933 1.207 3.44 3.26 3.44.52 0 .967-.0667 1.34-.2.374-.1467.774-.34 1.2-.58.347-.2.58-.3.7-.3zm-3.5-6.46c-.853 0-1.54.2667-2.06.8-.506.5333-.806 1.2867-.9 2.26h5.66c-.026-.9867-.273-1.74-.74-2.26-.466-.5333-1.12-.8-1.96-.8zm14.047 6.46c.147 0 .274.06.38.18.107.12.16.2733.16.46 0 .3333-.233.64-.7.92-.48.28-.986.4933-1.52.64-.533.1333-1.053.2-1.56.2-1.506 0-2.7-.4467-3.58-1.34-.866-.8933-1.3-2.1267-1.3-3.7 0-1 .194-1.88.58-2.64.387-.7733.927-1.3733 1.62-1.8.707-.4267 1.507-.64 2.4-.64 1.267 0 2.274.4133 3.02 1.24.747.8267 1.12 1.9467 1.12 3.36 0 .2667-.053.46-.16.58-.106.12-.28.18-.52.18h-6.44c.12 2.2933 1.207 3.44 3.26 3.44.52 0 .967-.0667 1.34-.2.374-.1467.774-.34 1.2-.58.347-.2.58-.3.7-.3zm-3.5-6.46c-.853 0-1.54.2667-2.06.8-.506.5333-.806 1.2867-.9 2.26h5.66c-.026-.9867-.273-1.74-.74-2.26-.466-.5333-1.12-.8-1.96-.8zm17.347-1.26c2.16 0 3.24 1.2867 3.24 3.86v5.42c0 .2533-.073.4533-.22.6-.147.1333-.34.2-.58.2s-.44-.0667-.6-.2c-.147-.1467-.22-.3467-.22-.6v-5.38c0-.8933-.16-1.54-.48-1.94s-.82-.6-1.5-.6c-.813 0-1.453.2733-1.92.82s-.7 1.2867-.7 2.22v4.88c0 .2533-.08.4533-.24.6-.147.1333-.34.2-.58.2s-.433-.0667-.58-.2c-.147-.1467-.22-.3467-.22-.6v-5.38c0-.8933-.16-1.54-.48-1.94s-.827-.6-1.52-.6c-.8 0-1.44.2733-1.92.82-.467.5467-.7 1.2867-.7 2.22v4.88c0 .2533-.073.4533-.22.6-.147.1333-.34.2-.58.2s-.44-.0667-.6-.2c-.147-.1467-.22-.3467-.22-.6v-8.44c0-.24.073-.4333.22-.58.16-.1467.36-.22.6-.22.227 0 .413.0733.56.22.147.1333.22.32.22.56v.96c.293-.5733.7-1.0133 1.22-1.32s1.12-.46 1.8-.46c1.52 0 2.513.64 2.98 1.92.28-.5867.707-1.0533 1.28-1.4s1.227-.52 1.96-.52zm9.471 10.12c-.613 0-1.2-.0733-1.76-.22-.546-.1467-1.033-.3533-1.46-.62-.24-.16-.413-.3067-.52-.44-.093-.1467-.14-.32-.14-.52 0-.1733.047-.3133.14-.42.107-.12.24-.18.4-.18s.394.1.7.3c.4.24.794.4333 1.18.58.4.1333.894.2 1.48.2.72 0 1.28-.1267 1.68-.38s.6-.62.6-1.1c0-.2933-.073-.5267-.22-.7-.146-.1867-.4-.3467-.76-.48-.36-.1467-.886-.2933-1.58-.44-1.173-.2533-2.013-.5933-2.52-1.02-.506-.4267-.76-1.0067-.76-1.74 0-.5733.16-1.08.48-1.52s.76-.7867 1.32-1.04c.574-.2533 1.22-.38 1.94-.38.52 0 1.02.0733 1.5.22.494.1333.927.3267 1.3.58.454.32.68.6533.68 1 0 .1733-.053.32-.16.44-.106.12-.233.18-.38.18-.16 0-.4-.1133-.72-.34-.373-.24-.726-.4267-1.06-.56-.333-.1333-.746-.2-1.24-.2-.626 0-1.133.14-1.52.42-.373.28-.56.6533-.56 1.12 0 .2933.067.5333.2.72.147.1733.38.3333.7.48.334.1333.807.2667 1.42.4.907.2 1.607.42 2.1.66.507.24.867.5333 1.08.88.214.3467.32.7867.32 1.32 0 .84-.353 1.52-1.06 2.04-.706.5067-1.64.76-2.8.76zm12.306-.04c-.24 0-.44-.0667-.6-.2-.147-.1467-.22-.3467-.22-.6v-12.7c0-.2533.073-.4467.22-.58.16-.1467.36-.22.6-.22.227 0 .413.0733.56.22.16.1333.24.3267.24.58v12.7c0 .2533-.08.4533-.24.6-.147.1333-.333.2-.56.2zm4.648 0c-.24 0-.44-.0667-.6-.2-.146-.1467-.22-.3467-.22-.6v-8.44c0-.2533.074-.4467.22-.58.16-.1467.36-.22.6-.22s.434.0733.58.22c.147.1333.22.3267.22.58v8.44c0 .2667-.073.4667-.22.6-.146.1333-.34.2-.58.2zm0-12.14c-.32 0-.58-.0933-.78-.28s-.3-.4333-.3-.74c0-.2933.1-.5333.3-.72s.46-.28.78-.28.58.0933.78.28.3.4267.3.72c0 .3067-.1.5533-.3.74s-.46.28-.78.28zm11.609 10.76c.213.2.32.4133.32.64 0 .2-.073.3733-.22.52-.133.1467-.3.22-.5.22-.173 0-.353-.08-.54-.24l-5.22-4.5v3.94c0 .2533-.08.4533-.24.6-.147.1333-.333.2-.56.2-.24 0-.44-.0667-.6-.2-.147-.1467-.22-.3467-.22-.6v-12.7c0-.2533.073-.4467.22-.58.16-.1467.36-.22.6-.22.227 0 .413.0733.56.22.16.1333.24.3267.24.58v8.12l4.78-4.38c.16-.16.34-.24.54-.24s.373.0733.52.22.22.32.22.52c0 .2267-.093.4267-.28.6l-3.94 3.52zm9.584-.98c.147 0 .273.06.38.18s.16.2733.16.46c0 .3333-.233.64-.7.92-.48.28-.987.4933-1.52.64-.533.1333-1.053.2-1.56.2-1.507 0-2.7-.4467-3.58-1.34-.867-.8933-1.3-2.1267-1.3-3.7 0-1 .193-1.88.58-2.64.387-.7733.927-1.3733 1.62-1.8.707-.4267 1.507-.64 2.4-.64 1.267 0 2.273.4133 3.02 1.24s1.12 1.9467 1.12 3.36c0 .2667-.053.46-.16.58s-.28.18-.52.18h-6.44c.12 2.2933 1.207 3.44 3.26 3.44.52 0 .967-.0667 1.34-.2.373-.1467.773-.34 1.2-.58.347-.2.58-.3.7-.3zm-3.5-6.46c-.853 0-1.54.2667-2.06.8-.507.5333-.807 1.2867-.9 2.26h5.66c-.027-.9867-.273-1.74-.74-2.26-.467-.5333-1.12-.8-1.96-.8zm15.643-1.26c2.44 0 3.66 1.28 3.66 3.84v5.44c0 .24-.073.4333-.22.58-.133.1467-.32.22-.56.22s-.433-.0733-.58-.22c-.146-.1467-.22-.34-.22-.58v-.96c-.253.5733-.64 1.02-1.16 1.34-.52.3067-1.12.46-1.8.46-.626 0-1.206-.1267-1.74-.38-.52-.2533-.933-.6067-1.24-1.06-.306-.4533-.46-.9533-.46-1.5 0-.7333.187-1.3.56-1.7.374-.4133.987-.7067 1.84-.88.854-.1867 2.04-.28 3.56-.28h.44v-.66c0-.8-.166-1.3867-.5-1.76-.32-.3733-.846-.56-1.58-.56-.906 0-1.826.2467-2.76.74-.36.2267-.613.34-.76.34-.16 0-.293-.06-.4-.18-.106-.12-.16-.2733-.16-.46s.054-.3467.16-.48c.12-.1467.307-.2933.56-.44.467-.2667.994-.4733 1.58-.62.6-.16 1.194-.24 1.78-.24zm-.66 8.84c.8 0 1.454-.2667 1.96-.8.52-.5467.78-1.2467.78-2.1v-.58h-.36c-1.173 0-2.066.0533-2.68.16-.613.0933-1.053.26-1.32.5-.253.2267-.38.5667-.38 1.02 0 .52.187.9533.56 1.3.387.3333.867.5 1.44.5zm13.262 1.24c-.24 0-.44-.0667-.6-.2-.147-.1467-.22-.3467-.22-.6v-12.7c0-.2533.073-.4467.22-.58.16-.1467.36-.22.6-.22.227 0 .413.0733.56.22.16.1333.24.3267.24.58v12.7c0 .2533-.08.4533-.24.6-.147.1333-.333.2-.56.2zm7.868.04c-.92 0-1.733-.2067-2.44-.62-.693-.4133-1.233-1-1.62-1.76-.373-.7733-.56-1.6667-.56-2.68s.187-1.9.56-2.66c.387-.7733.927-1.3667 1.62-1.78.707-.4133 1.52-.62 2.44-.62s1.734.2067 2.44.62c.707.4133 1.247 1.0067 1.62 1.78.387.76.58 1.6467.58 2.66s-.193 1.9067-.58 2.68c-.373.76-.913 1.3467-1.62 1.76-.706.4133-1.52.62-2.44.62zm0-1.34c.96 0 1.694-.3133 2.2-.94.52-.64.78-1.5667.78-2.78 0-1.1867-.26-2.1-.78-2.74-.52-.6533-1.253-.98-2.2-.98-.946 0-1.68.3267-2.2.98-.52.64-.78 1.5533-.78 2.74 0 1.2.254 2.12.76 2.76.52.64 1.26.96 2.22.96zm11.535.02c.466.04.7.2533.7.64 0 .2267-.087.4-.26.52-.16.1067-.407.1467-.74.12l-.54-.04c-1.067-.08-1.854-.4-2.36-.96-.507-.56-.76-1.4067-.76-2.54v-5.02h-1.34c-.227 0-.407-.0533-.54-.16-.12-.12-.18-.2733-.18-.46 0-.2.06-.36.18-.48.133-.12.313-.18.54-.18h1.34v-2.26c0-.2533.073-.4467.22-.58.146-.1467.346-.22.6-.22.24 0 .433.0733.58.22.146.1333.22.3267.22.58v2.26h2.22c.213 0 .38.06.5.18.133.12.2.28.2.48 0 .1867-.067.34-.2.46-.12.1067-.287.16-.5.16h-2.22v5.1c0 .7333.146 1.2667.44 1.6.306.32.76.5 1.36.54zm11.493 1.32c-.92 0-1.734-.2067-2.44-.62-.694-.4133-1.234-1-1.62-1.76-.374-.7733-.56-1.6667-.56-2.68s.186-1.9.56-2.66c.386-.7733.926-1.3667 1.62-1.78.706-.4133 1.52-.62 2.44-.62s1.733.2067 2.44.62c.706.4133 1.246 1.0067 1.62 1.78.386.76.58 1.6467.58 2.66s-.194 1.9067-.58 2.68c-.374.76-.914 1.3467-1.62 1.76-.707.4133-1.52.62-2.44.62zm0-1.34c.96 0 1.693-.3133 2.2-.94.52-.64.78-1.5667.78-2.78 0-1.1867-.26-2.1-.78-2.74-.52-.6533-1.254-.98-2.2-.98-.947 0-1.68.3267-2.2.98-.52.64-.78 1.5533-.78 2.74 0 1.2.253 2.12.76 2.76.52.64 1.26.96 2.22.96zm11.334-11.62c-.707.0533-1.24.28-1.6.68-.36.3867-.54.9733-.54 1.76v.64h2.22c.227 0 .4.06.52.18s.18.28.18.48-.06.3533-.18.46-.293.16-.52.16h-2.22v7.76c0 .2533-.08.4533-.24.6-.147.1333-.333.2-.56.2-.24 0-.44-.0667-.6-.2-.147-.1467-.22-.3467-.22-.6v-7.76h-1.34c-.227 0-.407-.0533-.54-.16-.12-.12-.18-.2733-.18-.46 0-.2.06-.36.18-.48.133-.12.313-.18.54-.18h1.34v-.36c0-1.2.3-2.14.9-2.82.6-.6933 1.46-1.08 2.58-1.16l.52-.04c.347-.0267.593.0067.74.1.16.0933.24.26.24.5 0 .3867-.233.6067-.7.66zm15.319 2.88c.253 0 .453.0733.6.22.146.1467.22.34.22.58v8.48c0 1.4533-.374 2.5467-1.12 3.28-.747.7467-1.854 1.12-3.32 1.12-1.427 0-2.614-.28-3.56-.84-.48-.2667-.72-.5733-.72-.92 0-.1867.046-.34.14-.46.106-.12.24-.18.4-.18.133 0 .373.0933.72.28.466.24.926.4333 1.38.58.453.1467.993.22 1.62.22.946 0 1.66-.2533 2.14-.76.48-.4933.72-1.22.72-2.18v-1.72c-.28.6267-.714 1.1067-1.3 1.44-.574.3333-1.254.5-2.04.5-.854 0-1.614-.2-2.28-.6-.654-.4-1.167-.9667-1.54-1.7-.36-.7333-.54-1.58-.54-2.54s.18-1.8067.54-2.54c.373-.7333.886-1.3 1.54-1.7.666-.4 1.426-.6 2.28-.6.773 0 1.446.1667 2.02.5.573.3333 1.006.8067 1.3 1.42v-1.08c0-.24.066-.4333.2-.58.146-.1467.346-.22.6-.22zm-3.8 8.3c.933 0 1.666-.3067 2.2-.92.533-.6267.8-1.4867.8-2.58 0-1.08-.267-1.9267-.8-2.54-.52-.6267-1.254-.94-2.2-.94-.947 0-1.694.3133-2.24.94-.534.6133-.8 1.46-.8 2.54 0 1.0933.266 1.9533.8 2.58.546.6133 1.293.92 2.24.92zm12.438-8.3c.56-.04.84.1867.84.68 0 .2133-.06.3867-.18.52-.12.12-.326.1933-.62.22l-.6.06c-.893.08-1.56.4-2 .96-.426.5467-.64 1.1933-.64 1.94v4.86c0 .2667-.073.4667-.22.6-.146.1333-.34.2-.58.2s-.44-.0667-.6-.2c-.146-.1467-.22-.3467-.22-.6v-8.44c0-.2533.08-.4467.24-.58.16-.1467.354-.22.58-.22.214 0 .394.0733.54.22.147.1333.22.32.22.56v1.12c.28-.5867.674-1.0333 1.18-1.34.52-.3067 1.114-.4867 1.78-.54zm9.576 7.68c.147 0 .273.06.38.18s.16.2733.16.46c0 .3333-.233.64-.7.92-.48.28-.987.4933-1.52.64-.533.1333-1.053.2-1.56.2-1.507 0-2.7-.4467-3.58-1.34-.867-.8933-1.3-2.1267-1.3-3.7 0-1 .193-1.88.58-2.64.387-.7733.927-1.3733 1.62-1.8.707-.4267 1.507-.64 2.4-.64 1.267 0 2.273.4133 3.02 1.24s1.12 1.9467 1.12 3.36c0 .2667-.053.46-.16.58s-.28.18-.52.18h-6.44c.12 2.2933 1.207 3.44 3.26 3.44.52 0 .967-.0667 1.34-.2.373-.1467.773-.34 1.2-.58.347-.2.58-.3.7-.3zm-3.5-6.46c-.853 0-1.54.2667-2.06.8-.507.5333-.807 1.2867-.9 2.26h5.66c-.027-.9867-.273-1.74-.74-2.26-.467-.5333-1.12-.8-1.96-.8zm10.487-1.26c2.44 0 3.66 1.28 3.66 3.84v5.44c0 .24-.074.4333-.22.58-.134.1467-.32.22-.56.22s-.434-.0733-.58-.22c-.147-.1467-.22-.34-.22-.58v-.96c-.254.5733-.64 1.02-1.16 1.34-.52.3067-1.12.46-1.8.46-.627 0-1.207-.1267-1.74-.38-.52-.2533-.934-.6067-1.24-1.06-.307-.4533-.46-.9533-.46-1.5 0-.7333.186-1.3.56-1.7.373-.4133.986-.7067 1.84-.88.853-.1867 2.04-.28 3.56-.28h.44v-.66c0-.8-.167-1.3867-.5-1.76-.32-.3733-.847-.56-1.58-.56-.907 0-1.827.2467-2.76.74-.36.2267-.614.34-.76.34-.16 0-.294-.06-.4-.18-.107-.12-.16-.2733-.16-.46s.053-.3467.16-.48c.12-.1467.306-.2933.56-.44.466-.2667.993-.4733 1.58-.62.6-.16 1.193-.24 1.78-.24zm-.66 8.84c.8 0 1.453-.2667 1.96-.8.52-.5467.78-1.2467.78-2.1v-.58h-.36c-1.174 0-2.067.0533-2.68.16-.614.0933-1.054.26-1.32.5-.254.2267-.38.5667-.38 1.02 0 .52.186.9533.56 1.3.386.3333.866.5 1.44.5zm11.785-.04c.467.04.7.2533.7.64 0 .2267-.086.4-.26.52-.16.1067-.406.1467-.74.12l-.54-.04c-1.066-.08-1.853-.4-2.36-.96-.506-.56-.76-1.4067-.76-2.54v-5.02h-1.34c-.226 0-.406-.0533-.54-.16-.12-.12-.18-.2733-.18-.46 0-.2.06-.36.18-.48.134-.12.314-.18.54-.18h1.34v-2.26c0-.2533.074-.4467.22-.58.147-.1467.347-.22.6-.22.24 0 .434.0733.58.22.147.1333.22.3267.22.58v2.26h2.22c.214 0 .38.06.5.18.134.12.2.28.2.48 0 .1867-.066.34-.2.46-.12.1067-.286.16-.5.16h-2.22v5.1c0 .7333.147 1.2667.44 1.6.307.32.76.5 1.36.54zm-230.204 28.28c-.32 0-.586-.1-.8-.3-.213-.2133-.32-.4867-.32-.82s.107-.6067.32-.82c.214-.2133.48-.32.8-.32.307 0 .56.1067.76.32.214.2133.32.4867.32.82s-.106.6067-.32.82c-.2.2-.453.3-.76.3zm4.491-8.56c-.147 0-.267-.0467-.36-.14-.094-.0933-.154-.2267-.18-.4l-.36-4.08-.02-.2c0-.2933.086-.52.26-.68.173-.16.393-.24.66-.24.306 0 .54.1.7.3.173.2.233.4733.18.82l-.34 4.08c-.04.36-.22.54-.54.54zm4 0c-.147 0-.267-.0467-.36-.14-.094-.0933-.154-.2267-.18-.4l-.36-4.08-.02-.2c0-.2933.086-.52.26-.68.173-.16.393-.24.66-.24.306 0 .54.1.7.3.173.2.233.4733.18.82l-.34 4.08c-.04.36-.22.54-.54.54z" fill="#000"/><g fill="#ab390a"><path d="m334.256 26.9852c-1 0-1.88-.2067-2.64-.62-.747-.4133-1.327-1.0067-1.74-1.78s-.62-1.6733-.62-2.7.207-1.92.62-2.68c.413-.7733.993-1.3667 1.74-1.78.76-.4133 1.64-.62 2.64-.62s1.873.2067 2.62.62c.76.4133 1.34 1.0067 1.74 1.78.413.76.62 1.6533.62 2.68s-.207 1.9267-.62 2.7c-.4.7733-.98 1.3667-1.74 1.78-.747.4133-1.62.62-2.62.62zm-.02-1.94c.813 0 1.433-.2667 1.86-.8s.64-1.32.64-2.36c0-1.0267-.213-1.8067-.64-2.34-.427-.5467-1.04-.82-1.84-.82s-1.42.2733-1.86.82c-.427.5333-.64 1.3133-.64 2.34 0 1.04.213 1.8267.64 2.36s1.04.8 1.84.8zm13.728-7.48c.106-.24.246-.42.42-.54.186-.12.386-.18.6-.18.306 0 .58.1067.82.32.253.2.38.4533.38.76 0 .16-.04.32-.12.48l-3.7 7.74c-.12.2533-.294.4467-.52.58-.214.1333-.454.2-.72.2-.254 0-.5-.0667-.74-.2-.227-.1333-.4-.3267-.52-.58l-3.72-7.74c-.067-.1333-.1-.2867-.1-.46 0-.3067.126-.5667.38-.78.266-.2133.566-.32.9-.32.48 0 .833.2333 1.06.7l2.8 6.18zm11.291 6.58c.227 0 .407.0867.54.26.147.1733.22.4067.22.7 0 .4133-.247.76-.74 1.04-.453.2533-.967.46-1.54.62-.573.1467-1.12.22-1.64.22-1.573 0-2.82-.4533-3.74-1.36s-1.38-2.1467-1.38-3.72c0-1 .2-1.8867.6-2.66s.96-1.3733 1.68-1.8c.733-.4267 1.56-.64 2.48-.64.88 0 1.647.1933 2.3.58s1.16.9333 1.52 1.64.54 1.54.54 2.5c0 .5733-.253.86-.76.86h-5.9c.08.92.34 1.6.78 2.04.44.4267 1.08.64 1.92.64.427 0 .8-.0533 1.12-.16.333-.1067.707-.2533 1.12-.44.4-.2133.693-.32.88-.32zm-3.46-5.58c-.68 0-1.227.2133-1.64.64-.4.4267-.64 1.04-.72 1.84h4.52c-.027-.8133-.227-1.4267-.6-1.84-.373-.4267-.893-.64-1.56-.64zm11.805-1.72c.347-.0267.62.0467.82.22s.3.4333.3.78c0 .36-.087.6267-.26.8s-.487.2867-.94.34l-.6.06c-.787.08-1.367.3467-1.74.8-.36.4533-.54 1.02-.54 1.7v4.2c0 .3867-.12.6867-.36.9-.24.2-.54.3-.9.3s-.66-.1-.9-.3c-.227-.2133-.34-.5133-.34-.9v-7.74c0-.3733.113-.66.34-.86.24-.2.533-.3.88-.3s.627.1.84.3c.213.1867.32.46.32.82v.8c.253-.5867.627-1.04 1.12-1.36.507-.32 1.067-.5 1.68-.54zm16.022.74c.093-.24.226-.42.4-.54.186-.12.386-.18.6-.18.306 0 .58.1067.82.32.253.2.38.4533.38.76 0 .1733-.034.3267-.1.46l-3.3 7.74c-.107.2533-.274.4467-.5.58-.214.1333-.454.2-.72.2-.254 0-.494-.0667-.72-.2-.214-.1333-.374-.3267-.48-.58l-2.38-5.72-2.3 5.72c-.107.2533-.274.4467-.5.58-.214.1333-.454.2-.72.2-.254 0-.494-.0667-.72-.2-.227-.1333-.394-.3267-.5-.58l-3.28-7.74c-.067-.1733-.1-.32-.1-.44 0-.3067.133-.5667.4-.78.266-.2267.56-.34.88-.34.226 0 .433.06.62.18.186.12.326.3.42.54l2.36 6.1 2.42-6.04c.106-.2533.26-.44.46-.56.2-.1333.42-.2.66-.2s.46.0667.66.2c.2.12.353.3067.46.56l2.44 6.06zm9.961-.78c2.293 0 3.44 1.34 3.44 4.02v4.92c0 .3733-.114.6667-.34.88-.214.2133-.514.32-.9.32-.387 0-.694-.1067-.92-.32-.227-.2133-.34-.5067-.34-.88v-4.92c0-.7067-.147-1.22-.44-1.54-.28-.3333-.727-.5-1.34-.5-.72 0-1.3.2267-1.74.68-.427.4533-.64 1.06-.64 1.82v4.46c0 .3733-.114.6667-.34.88-.227.2133-.534.32-.92.32-.387 0-.694-.1067-.92-.32-.214-.2133-.32-.5067-.32-.88v-11.96c0-.3467.113-.6267.34-.84.24-.2133.546-.32.92-.32.373 0 .673.1.9.3.226.2.34.4733.34.82v4.66c.333-.52.773-.9133 1.32-1.18.56-.28 1.193-.42 1.9-.42zm13.719 7.34c.226 0 .406.0867.54.26.146.1733.22.4067.22.7 0 .4133-.247.76-.74 1.04-.454.2533-.967.46-1.54.62-.574.1467-1.12.22-1.64.22-1.574 0-2.82-.4533-3.74-1.36s-1.38-2.1467-1.38-3.72c0-1 .2-1.8867.6-2.66s.96-1.3733 1.68-1.8c.733-.4267 1.56-.64 2.48-.64.88 0 1.646.1933 2.3.58.653.3867 1.16.9333 1.52 1.64s.54 1.54.54 2.5c0 .5733-.254.86-.76.86h-5.9c.08.92.34 1.6.78 2.04.44.4267 1.08.64 1.92.64.426 0 .8-.0533 1.12-.16.333-.1067.706-.2533 1.12-.44.4-.2133.693-.32.88-.32zm-3.46-5.58c-.68 0-1.227.2133-1.64.64-.4.4267-.64 1.04-.72 1.84h4.52c-.027-.8133-.227-1.4267-.6-1.84-.374-.4267-.894-.64-1.56-.64zm7.585 8.38c-.36 0-.66-.1-.9-.3-.227-.2133-.34-.5133-.34-.9v-11.94c0-.3867.113-.68.34-.88.24-.2.54-.3.9-.3s.66.1.9.3.36.4933.36.88v11.94c0 .3867-.12.6867-.36.9-.24.2-.54.3-.9.3zm15.458-10.14c1.067 0 1.88.32 2.44.96.573.6267.86 1.6467.86 3.06v4.92c0 .3867-.12.6867-.36.9-.227.2-.527.3-.9.3-.36 0-.66-.1-.9-.3-.227-.2133-.34-.5133-.34-.9v-4.92c0-.7333-.133-1.2533-.4-1.56-.253-.32-.647-.48-1.18-.48-.653 0-1.173.2267-1.56.68-.387.44-.58 1.0467-.58 1.82v4.46c0 .3867-.12.6867-.36.9-.227.2-.52.3-.88.3s-.66-.1-.9-.3c-.24-.2133-.36-.5133-.36-.9v-4.92c0-.7333-.133-1.2533-.4-1.56-.253-.32-.647-.48-1.18-.48-.653 0-1.173.2267-1.56.68-.373.44-.56 1.0467-.56 1.82v4.46c0 .3867-.12.6867-.36.9-.24.2-.54.3-.9.3s-.66-.1-.9-.3c-.227-.2133-.34-.5133-.34-.9v-7.74c0-.3733.12-.66.36-.86s.54-.3.9-.3c.347 0 .627.1.84.3.227.1867.34.46.34.82v.48c.307-.5333.713-.94 1.22-1.22.52-.28 1.113-.42 1.78-.42 1.467 0 2.447.6133 2.94 1.84.293-.56.727-1.0067 1.3-1.34s1.22-.5 1.94-.5zm7.081 10.14c-.36 0-.66-.1-.9-.3-.227-.2133-.34-.5133-.34-.9v-7.72c0-.3867.113-.68.34-.88.24-.2.54-.3.9-.3s.66.1.9.3.36.4933.36.88v7.72c0 .3867-.12.6867-.36.9-.24.2-.54.3-.9.3zm0-11.88c-.454 0-.814-.12-1.08-.36-.267-.2533-.4-.58-.4-.98s.133-.72.4-.96c.266-.24.626-.36 1.08-.36.44 0 .793.12 1.06.36.28.24.42.56.42.96s-.134.7267-.4.98c-.267.24-.627.36-1.08.36zm9.518 1.74c1.173 0 2.047.3333 2.62 1s.86 1.6733.86 3.02v4.92c0 .3733-.113.6667-.34.88-.213.2133-.513.32-.9.32s-.693-.1067-.92-.32-.34-.5067-.34-.88v-4.78c0-.76-.147-1.3133-.44-1.66-.28-.3467-.727-.52-1.34-.52-.72 0-1.3.2267-1.74.68-.427.4533-.64 1.06-.64 1.82v4.46c0 .3733-.113.6667-.34.88s-.533.32-.92.32-.693-.1067-.92-.32c-.213-.2133-.32-.5067-.32-.88v-7.74c0-.3467.113-.6267.34-.84s.533-.32.92-.32c.347 0 .627.1067.84.32.227.2.34.4667.34.8v.54c.333-.5467.78-.9667 1.34-1.26s1.193-.44 1.9-.44zm14.299.04c.373 0 .673.1067.9.32s.34.5.34.86v7.9c0 1.5333-.427 2.6933-1.28 3.48s-2.113 1.18-3.78 1.18c-1.453 0-2.667-.2733-3.64-.82-.493-.2933-.74-.6467-.74-1.06 0-.2933.067-.5267.2-.7.147-.1733.333-.26.56-.26.12 0 .267.0267.44.08.173.0667.353.14.54.22.48.2.907.3533 1.28.46.387.1067.827.16 1.32.16 1.747 0 2.62-.8533 2.62-2.56v-1.28c-.293.5467-.72.9733-1.28 1.28-.56.2933-1.2.44-1.92.44-.853 0-1.613-.2-2.28-.6-.653-.4133-1.167-.9867-1.54-1.72s-.56-1.58-.56-2.54.18-1.8067.54-2.54c.373-.7467.893-1.32 1.56-1.72.667-.4133 1.427-.62 2.28-.62.72 0 1.36.1533 1.92.46.56.2933.987.7133 1.28 1.26v-.52c0-.3467.113-.6267.34-.84s.527-.32.9-.32zm-3.78 7.76c.8 0 1.42-.26 1.86-.78.453-.52.68-1.2333.68-2.14 0-.92-.227-1.64-.68-2.16-.44-.52-1.06-.78-1.86-.78-.787 0-1.407.26-1.86.78s-.68 1.24-.68 2.16c0 .9067.227 1.62.68 2.14s1.073.78 1.86.78zm-451.463 56.34c-.36 0-.66-.1-.9-.3-.22667-.2133-.34-.5133-.34-.9v-7.72c0-.3867.11333-.68.34-.88.24-.2.54-.3.9-.3s.66.1.9.3.36.4933.36.88v7.72c0 .3867-.12.6867-.36.9-.24.2-.54.3-.9.3zm0-11.88c-.45333 0-.81333-.12-1.08-.36-.26667-.2533-.4-.58-.4-.98s.13333-.72.4-.96.62667-.36 1.08-.36c.44 0 .79333.12 1.06.36.28.24.42.56.42.96s-.13333.7267-.4.98c-.26667.24-.62667.36-1.08.36zm9.5181 1.74c1.1734 0 2.0467.3333 2.62 1 .5734.6667.86 1.6733.86 3.02v4.92c0 .3733-.1133.6667-.34.88-.2133.2133-.5133.32-.9.32-.3866 0-.6933-.1067-.92-.32-.2266-.2133-.34-.5067-.34-.88v-4.78c0-.76-.1466-1.3133-.44-1.66-.28-.3467-.7266-.52-1.34-.52-.72 0-1.29997.2267-1.73997.68-.42667.4533-.64 1.06-.64 1.82v4.46c0 .3733-.11334.6667-.34.88-.22667.2133-.53334.32-.92.32-.38667 0-.69334-.1067-.92-.32-.21334-.2133-.32-.5067-.32-.88v-7.74c0-.3467.11333-.6267.34-.84.22666-.2133.53333-.32.92-.32.34666 0 .62666.1067.84.32.22666.2.34.4667.34.8v.54c.33333-.5467.78-.9667 1.33997-1.26.56-.2933 1.1934-.44 1.9-.44zm10.9592-2.22c-.6133.04-1.06.2267-1.34.56s-.42.8133-.42 1.44v.46h1.7c.7467 0 1.12.3133 1.12.94s-.3733.94-1.12.94h-1.7v6.82c0 .3867-.12.68-.36.88-.2266.2-.52.3-.88.3s-.66-.1-.9-.3-.36-.4933-.36-.88v-6.82h-1c-.7466 0-1.12-.3133-1.12-.94s.3734-.94 1.12-.94h1v-.14c0-1.2533.3267-2.2333.98-2.94.6667-.72 1.6-1.1267 2.8-1.22l.52-.04c.5334-.04.9067.02 1.12.18.2267.1467.34.38.34.7 0 .5733-.3266.8933-.98.96zm6.5904 12.4c-1 0-1.88-.2067-2.64-.62-.7467-.4133-1.3267-1.0067-1.74-1.78-.4134-.7733-.62-1.6733-.62-2.7s.2066-1.92.62-2.68c.4133-.7733.9933-1.3667 1.74-1.78.76-.4133 1.64-.62 2.64-.62s1.8733.2067 2.62.62c.76.4133 1.34 1.0067 1.74 1.78.4133.76.62 1.6533.62 2.68s-.2067 1.9267-.62 2.7c-.4.7733-.98 1.3667-1.74 1.78-.7467.4133-1.62.62-2.62.62zm-.02-1.94c.8133 0 1.4333-.2667 1.86-.8.4266-.5333.64-1.32.64-2.36 0-1.0267-.2134-1.8067-.64-2.34-.4267-.5467-1.04-.82-1.84-.82s-1.42.2733-1.86.82c-.4267.5333-.64 1.3133-.64 2.34 0 1.04.2133 1.8267.64 2.36.4266.5333 1.04.8 1.84.8zm12.5239-8.2c.3466-.0267.62.0467.82.22s.3.4333.3.78c0 .36-.0867.6267-.26.8-.1734.1733-.4867.2867-.94.34l-.6.06c-.7867.08-1.3667.3467-1.74.8-.36.4533-.54 1.02-.54 1.7v4.2c0 .3867-.12.6867-.36.9-.24.2-.54.3-.9.3s-.66-.1-.9-.3c-.2267-.2133-.34-.5133-.34-.9v-7.74c0-.3733.1133-.66.34-.86.24-.2.5333-.3.88-.3.3466 0 .6266.1.84.3.2133.1867.32.46.32.82v.8c.2533-.5867.6266-1.04 1.12-1.36.5066-.32 1.0666-.5 1.68-.54zm13.8162-.04c1.0667 0 1.88.32 2.44.96.5733.6267.86 1.6467.86 3.06v4.92c0 .3867-.12.6867-.36.9-.2267.2-.5267.3-.9.3-.36 0-.66-.1-.9-.3-.2267-.2133-.34-.5133-.34-.9v-4.92c0-.7333-.1333-1.2533-.4-1.56-.2533-.32-.6467-.48-1.18-.48-.6533 0-1.1733.2267-1.56.68-.3867.44-.58 1.0467-.58 1.82v4.46c0 .3867-.12.6867-.36.9-.2267.2-.52.3-.88.3s-.66-.1-.9-.3c-.24-.2133-.36-.5133-.36-.9v-4.92c0-.7333-.1333-1.2533-.4-1.56-.2533-.32-.6467-.48-1.18-.48-.6533 0-1.1733.2267-1.56.68-.3733.44-.56 1.0467-.56 1.82v4.46c0 .3867-.12.6867-.36.9-.24.2-.54.3-.9.3s-.66-.1-.9-.3c-.2267-.2133-.34-.5133-.34-.9v-7.74c0-.3733.12-.66.36-.86s.54-.3.9-.3c.3467 0 .6267.1.84.3.2267.1867.34.46.34.82v.48c.3067-.5333.7133-.94 1.22-1.22.52-.28 1.1133-.42 1.78-.42 1.4667 0 2.4467.6133 2.94 1.84.2933-.56.7267-1.0067 1.3-1.34s1.22-.5 1.94-.5zm10.081 0c1.36 0 2.3666.34 3.02 1.02.6666.6667 1 1.6867 1 3.06v4.88c0 .36-.1067.6467-.32.86-.2134.2-.5067.3-.88.3-.3467 0-.6334-.1067-.86-.32-.2134-.2133-.32-.4933-.32-.84v-.44c-.2267.52-.5867.9267-1.08 1.22-.48.2933-1.04.44-1.68.44-.6534 0-1.2467-.1333-1.7801-.4-.5333-.2667-.9533-.6333-1.2599-1.1-.3067-.4667-.46-.9867-.46-1.56 0-.72.18-1.2867.54-1.7.3733-.4133.9733-.7133 1.8-.9.8266-.1867 1.9666-.28 3.42-.28h.5v-.46c0-.6533-.14-1.1267-.42-1.42-.28-.3067-.7334-.46-1.36-.46-.3867 0-.78.06-1.18.18-.4.1067-.8734.2667-1.42.48-.3467.1733-.6.26-.76.26-.24 0-.44-.0867-.6-.26-.1467-.1733-.22-.4-.22-.68 0-.2267.0533-.42.16-.58.12-.1733.3133-.3333.58-.48.4666-.2533 1.02-.4533 1.66-.6.6533-.1467 1.2933-.22 1.92-.22zm-.62 8.38c.6666 0 1.2066-.22 1.62-.66.4266-.4533.64-1.0333.64-1.74v-.42h-.36c-.8934 0-1.5867.04-2.08.12-.4934.08-.8467.22-1.06.42-.2134.2-.32.4733-.32.82 0 .4267.1466.78.44 1.06.3066.2667.68.4 1.12.4zm12.2607-.1c.6667.04 1 .34 1 .9 0 .32-.1333.5667-.4.74-.2533.16-.62.2267-1.1.2l-.54-.04c-2.24-.16-3.36-1.36-3.36-3.6v-4.36h-1c-.36 0-.64-.08-.84-.24-.1866-.16-.28-.3933-.28-.7s.0934-.54.28-.7c.2-.16.48-.24.84-.24h1v-1.84c0-.36.1134-.6467.34-.86.2267-.2133.5334-.32.92-.32.3734 0 .6734.1067.9.32.2267.2133.34.5.34.86v1.84h1.7c.36 0 .6334.08.82.24.2.16.3.3933.3.7s-.1.54-.3.7c-.1866.16-.46.24-.82.24h-1.7v4.54c0 .9867.4534 1.5133 1.36 1.58zm3.5428 1.86c-.36 0-.66-.1-.9-.3-.2266-.2133-.34-.5133-.34-.9v-7.72c0-.3867.1134-.68.34-.88.24-.2.54-.3.9-.3s.66.1.9.3.36.4933.36.88v7.72c0 .3867-.12.6867-.36.9-.24.2-.54.3-.9.3zm0-11.88c-.4533 0-.8133-.12-1.08-.36-.2666-.2533-.4-.58-.4-.98s.1334-.72.4-.96c.2667-.24.6267-.36 1.08-.36.44 0 .7934.12 1.06.36.28.24.42.56.42.96s-.1333.7267-.4.98c-.2666.24-.6266.36-1.08.36zm8.2982 11.92c-1 0-1.88-.2067-2.64-.62-.7467-.4133-1.3267-1.0067-1.74-1.78-.4134-.7733-.62-1.6733-.62-2.7s.2066-1.92.62-2.68c.4133-.7733.9933-1.3667 1.74-1.78.76-.4133 1.64-.62 2.64-.62s1.8733.2067 2.62.62c.76.4133 1.34 1.0067 1.74 1.78.4133.76.62 1.6533.62 2.68s-.2067 1.9267-.62 2.7c-.4.7733-.98 1.3667-1.74 1.78-.7467.4133-1.62.62-2.62.62zm-.02-1.94c.8133 0 1.4333-.2667 1.86-.8.4266-.5333.64-1.32.64-2.36 0-1.0267-.2134-1.8067-.64-2.34-.4267-.5467-1.04-.82-1.84-.82s-1.42.2733-1.86.82c-.4267.5333-.64 1.3133-.64 2.34 0 1.04.2133 1.8267.64 2.36.4266.5333 1.04.8 1.84.8zm12.7435-8.24c1.174 0 2.047.3333 2.62 1 .574.6667.86 1.6733.86 3.02v4.92c0 .3733-.113.6667-.34.88-.213.2133-.513.32-.9.32-.386 0-.693-.1067-.92-.32-.226-.2133-.34-.5067-.34-.88v-4.78c0-.76-.146-1.3133-.44-1.66-.28-.3467-.726-.52-1.34-.52-.72 0-1.3.2267-1.7396.68-.4267.4533-.64 1.06-.64 1.82v4.46c0 .3733-.1134.6667-.34.88-.2267.2133-.5334.32-.92.32-.3867 0-.6934-.1067-.92-.32-.2134-.2133-.32-.5067-.32-.88v-7.74c0-.3467.1133-.6267.34-.84.2266-.2133.5333-.32.92-.32.3466 0 .6266.1067.84.32.2266.2.34.4667.34.8v.54c.3333-.5467.78-.9667 1.3396-1.26.56-.2933 1.194-.44 1.9-.44zm12.689 10.14c-.36 0-.66-.1-.9-.3-.226-.2133-.34-.5133-.34-.9v-7.72c0-.3867.114-.68.34-.88.24-.2.54-.3.9-.3s.66.1.9.3.36.4933.36.88v7.72c0 .3867-.12.6867-.36.9-.24.2-.54.3-.9.3zm0-11.88c-.453 0-.813-.12-1.08-.36-.266-.2533-.4-.58-.4-.98s.134-.72.4-.96c.267-.24.627-.36 1.08-.36.44 0 .794.12 1.06.36.28.24.42.56.42.96s-.133.7267-.4.98c-.266.24-.626.36-1.08.36zm7.378 11.92c-1.453 0-2.626-.2867-3.52-.86-.426-.2533-.64-.6133-.64-1.08 0-.2667.074-.48.22-.64.147-.1733.327-.26.54-.26.227 0 .54.1067.94.32.427.2.814.3533 1.16.46.36.1067.814.16 1.36.16.56 0 .994-.0933 1.3-.28.32-.1867.48-.4467.48-.78 0-.2267-.066-.4067-.2-.54-.12-.1333-.346-.2533-.68-.36-.32-.12-.813-.2533-1.48-.4-1.186-.24-2.04-.58-2.56-1.02-.506-.44-.76-1.0467-.76-1.82 0-.5867.174-1.1133.52-1.58.347-.48.82-.8467 1.42-1.1.614-.2667 1.307-.4 2.08-.4.56 0 1.1.0733 1.62.22.52.1333.987.3333 1.4.6.427.2667.64.62.64 1.06 0 .2667-.073.4933-.22.68-.146.1733-.326.26-.54.26-.146 0-.293-.0267-.44-.08-.133-.0667-.306-.16-.52-.28-.386-.2-.72-.3467-1-.44-.28-.1067-.626-.16-1.04-.16-.493 0-.886.1-1.18.3-.28.2-.42.4733-.42.82 0 .3333.147.5867.44.76.294.1733.86.3467 1.7.52.894.1867 1.594.4 2.1.64.507.24.867.54 1.08.9.227.36.34.82.34 1.38 0 .9067-.38 1.6333-1.14 2.18-.746.5467-1.746.82-3 .82zm19.877-10.14c.373 0 .673.1067.9.32s.34.5.34.86v7.9c0 1.5333-.427 2.6933-1.28 3.48s-2.113 1.18-3.78 1.18c-1.453 0-2.667-.2733-3.64-.82-.493-.2933-.74-.6467-.74-1.06 0-.2933.067-.5267.2-.7.147-.1733.333-.26.56-.26.12 0 .267.0267.44.08.173.0667.353.14.54.22.48.2.907.3533 1.28.46.387.1067.827.16 1.32.16 1.747 0 2.62-.8533 2.62-2.56v-1.28c-.293.5467-.72.9733-1.28 1.28-.56.2933-1.2.44-1.92.44-.853 0-1.613-.2-2.28-.6-.653-.4133-1.167-.9867-1.54-1.72s-.56-1.58-.56-2.54.18-1.8067.54-2.54c.373-.7467.893-1.32 1.56-1.72.667-.4133 1.427-.62 2.28-.62.72 0 1.36.1533 1.92.46.56.2933.987.7133 1.28 1.26v-.52c0-.3467.113-.6267.34-.84s.527-.32.9-.32zm-3.78 7.76c.8 0 1.42-.26 1.86-.78.453-.52.68-1.2333.68-2.14 0-.92-.227-1.64-.68-2.16-.44-.52-1.06-.78-1.86-.78-.787 0-1.407.26-1.86.78s-.68 1.24-.68 2.16c0 .9067.227 1.62.68 2.14s1.073.78 1.86.78zm15.35-.46c.226 0 .406.0867.54.26.146.1733.22.4067.22.7 0 .4133-.247.76-.74 1.04-.454.2533-.967.46-1.54.62-.574.1467-1.12.22-1.641.22-1.573 0-2.819-.4533-3.739-1.36s-1.38-2.1467-1.38-3.72c0-1 .2-1.8867.6-2.66s.96-1.3733 1.68-1.8c.733-.4267 1.56-.64 2.48-.64.88 0 1.646.1933 2.3.58.653.3867 1.16.9333 1.52 1.64s.54 1.54.54 2.5c0 .5733-.254.86-.76.86h-5.9c.08.92.34 1.6.78 2.04.44.4267 1.08.64 1.92.64.426 0 .8-.0533 1.12-.16.333-.1067.706-.2533 1.12-.44.4-.2133.693-.32.88-.32zm-3.46-5.58c-.68 0-1.227.2133-1.64.64-.4.4267-.64 1.04-.72 1.84h4.52c-.027-.8133-.227-1.4267-.6-1.84-.374-.4267-.894-.64-1.56-.64zm11.288 6.52c.666.04 1 .34 1 .9 0 .32-.134.5667-.4.74-.254.16-.62.2267-1.1.2l-.54-.04c-2.24-.16-3.36-1.36-3.36-3.6v-4.36h-1c-.36 0-.64-.08-.84-.24-.187-.16-.28-.3933-.28-.7s.093-.54.28-.7c.2-.16.48-.24.84-.24h1v-1.84c0-.36.113-.6467.34-.86.226-.2133.533-.32.92-.32.373 0 .673.1067.9.32.226.2133.34.5.34.86v1.84h1.7c.36 0 .633.08.82.24.2.16.3.3933.3.7s-.1.54-.3.7c-.187.16-.46.24-.82.24h-1.7v4.54c0 .9867.453 1.5133 1.36 1.58zm7.246 0c.667.04 1 .34 1 .9 0 .32-.133.5667-.4.74-.253.16-.62.2267-1.1.2l-.54-.04c-2.24-.16-3.36-1.36-3.36-3.6v-4.36h-1c-.36 0-.64-.08-.84-.24-.187-.16-.28-.3933-.28-.7s.093-.54.28-.7c.2-.16.48-.24.84-.24h1v-1.84c0-.36.113-.6467.34-.86s.533-.32.92-.32c.373 0 .673.1067.9.32s.34.5.34.86v1.84h1.7c.36 0 .633.08.82.24.2.16.3.3933.3.7s-.1.54-.3.7c-.187.16-.46.24-.82.24h-1.7v4.54c0 .9867.453 1.5133 1.36 1.58zm3.543 1.86c-.36 0-.66-.1-.9-.3-.227-.2133-.34-.5133-.34-.9v-7.72c0-.3867.113-.68.34-.88.24-.2.54-.3.9-.3s.66.1.9.3.36.4933.36.88v7.72c0 .3867-.12.6867-.36.9-.24.2-.54.3-.9.3zm0-11.88c-.454 0-.814-.12-1.08-.36-.267-.2533-.4-.58-.4-.98s.133-.72.4-.96c.266-.24.626-.36 1.08-.36.44 0 .793.12 1.06.36.28.24.42.56.42.96s-.134.7267-.4.98c-.267.24-.627.36-1.08.36zm9.518 1.74c1.173 0 2.046.3333 2.62 1 .573.6667.86 1.6733.86 3.02v4.92c0 .3733-.114.6667-.34.88-.214.2133-.514.32-.9.32-.387 0-.694-.1067-.92-.32-.227-.2133-.34-.5067-.34-.88v-4.78c0-.76-.147-1.3133-.44-1.66-.28-.3467-.727-.52-1.34-.52-.72 0-1.3.2267-1.74.68-.427.4533-.64 1.06-.64 1.82v4.46c0 .3733-.114.6667-.34.88-.227.2133-.534.32-.92.32-.387 0-.694-.1067-.92-.32-.214-.2133-.32-.5067-.32-.88v-7.74c0-.3467.113-.6267.34-.84.226-.2133.533-.32.92-.32.346 0 .626.1067.84.32.226.2.34.4667.34.8v.54c.333-.5467.78-.9667 1.34-1.26s1.193-.44 1.9-.44zm14.299.04c.373 0 .673.1067.9.32s.34.5.34.86v7.9c0 1.5333-.427 2.6933-1.28 3.48s-2.113 1.18-3.78 1.18c-1.453 0-2.667-.2733-3.64-.82-.493-.2933-.74-.6467-.74-1.06 0-.2933.067-.5267.2-.7.147-.1733.333-.26.56-.26.12 0 .267.0267.44.08.173.0667.353.14.54.22.48.2.907.3533 1.28.46.387.1067.827.16 1.32.16 1.747 0 2.62-.8533 2.62-2.56v-1.28c-.293.5467-.72.9733-1.28 1.28-.56.2933-1.2.44-1.92.44-.853 0-1.613-.2-2.28-.6-.653-.4133-1.167-.9867-1.54-1.72s-.56-1.58-.56-2.54.18-1.8067.54-2.54c.373-.7467.893-1.32 1.56-1.72.667-.4133 1.427-.62 2.28-.62.72 0 1.36.1533 1.92.46.56.2933.987.7133 1.28 1.26v-.52c0-.3467.113-.6267.34-.84s.527-.32.9-.32zm-3.78 7.76c.8 0 1.42-.26 1.86-.78.453-.52.68-1.2333.68-2.14 0-.92-.227-1.64-.68-2.16-.44-.52-1.06-.78-1.86-.78-.787 0-1.407.26-1.86.78s-.68 1.24-.68 2.16c0 .9067.227 1.62.68 2.14s1.073.78 1.86.78zm14.279 2.34c-.36 0-.66-.1-.9-.3-.227-.2133-.34-.5133-.34-.9v-11.94c0-.3867.113-.68.34-.88.24-.2.54-.3.9-.3s.66.1.9.3.36.4933.36.88v11.94c0 .3867-.12.6867-.36.9-.24.2-.54.3-.9.3zm8.298.04c-1 0-1.88-.2067-2.64-.62-.746-.4133-1.326-1.0067-1.74-1.78-.413-.7733-.62-1.6733-.62-2.7s.207-1.92.62-2.68c.414-.7733.994-1.3667 1.74-1.78.76-.4133 1.64-.62 2.64-.62s1.874.2067 2.62.62c.76.4133 1.34 1.0067 1.74 1.78.414.76.62 1.6533.62 2.68s-.206 1.9267-.62 2.7c-.4.7733-.98 1.3667-1.74 1.78-.746.4133-1.62.62-2.62.62zm-.02-1.94c.814 0 1.434-.2667 1.86-.8.427-.5333.64-1.32.64-2.36 0-1.0267-.213-1.8067-.64-2.34-.426-.5467-1.04-.82-1.84-.82s-1.42.2733-1.86.82c-.426.5333-.64 1.3133-.64 2.34 0 1.04.214 1.8267.64 2.36.427.5333 1.04.8 1.84.8zm10.604 1.94c-1.453 0-2.627-.2867-3.52-.86-.427-.2533-.64-.6133-.64-1.08 0-.2667.073-.48.22-.64.147-.1733.327-.26.54-.26.227 0 .54.1067.94.32.427.2.813.3533 1.16.46.36.1067.813.16 1.36.16.56 0 .993-.0933 1.3-.28.32-.1867.48-.4467.48-.78 0-.2267-.067-.4067-.2-.54-.12-.1333-.347-.2533-.68-.36-.32-.12-.813-.2533-1.48-.4-1.187-.24-2.04-.58-2.56-1.02-.507-.44-.76-1.0467-.76-1.82 0-.5867.173-1.1133.52-1.58.347-.48.82-.8467 1.42-1.1.613-.2667 1.307-.4 2.08-.4.56 0 1.1.0733 1.62.22.52.1333.987.3333 1.4.6.427.2667.64.62.64 1.06 0 .2667-.073.4933-.22.68-.147.1733-.327.26-.54.26-.147 0-.293-.0267-.44-.08-.133-.0667-.307-.16-.52-.28-.387-.2-.72-.3467-1-.44-.28-.1067-.627-.16-1.04-.16-.493 0-.887.1-1.18.3-.28.2-.42.4733-.42.82 0 .3333.147.5867.44.76s.86.3467 1.7.52c.893.1867 1.593.4 2.1.64s.867.54 1.08.9c.227.36.34.82.34 1.38 0 .9067-.38 1.6333-1.14 2.18-.747.5467-1.747.82-3 .82zm11.15-1.9c.666.04 1 .34 1 .9 0 .32-.134.5667-.4.74-.254.16-.62.2267-1.101.2l-.539-.04c-2.24-.16-3.36-1.36-3.36-3.6v-4.36h-1c-.36 0-.64-.08-.84-.24-.187-.16-.281-.3933-.281-.7s.094-.54.281-.7c.2-.16.48-.24.84-.24h1v-1.84c0-.36.113-.6467.34-.86.226-.2133.533-.32.92-.32.373 0 .673.1067.9.32.226.2133.34.5.34.86v1.84h1.7c.36 0 .633.08.82.24.2.16.3.3933.3.7s-.1.54-.3.7c-.187.16-.46.24-.82.24h-1.7v4.54c0 .9867.453 1.5133 1.36 1.58z"/><path d="m550.5 7.0752c-16.941 0-31.25 14.3094-31.25 31.25s14.309 31.25 31.25 31.25 31.25-14.3094 31.25-31.25-14.309-31.25-31.25-31.25zm0 15.625c5.397 0 9.375 3.975 9.375 9.375s-3.978 9.375-9.375 9.375c-5.394 0-9.375-3.975-9.375-9.375s3.981-9.375 9.375-9.375zm-15.956 30.5375c2.803-4.125 7.478-6.875 12.831-6.875h6.25c5.356 0 10.028 2.75 12.831 6.875-3.993 4.275-9.659 6.9625-15.956 6.9625s-11.962-2.6875-15.956-6.9625z"/></g></svg>