<svg fill="none" height="45" viewBox="0 0 45 45" width="45" xmlns="http://www.w3.org/2000/svg"><circle cx="22.5" cy="22.5" fill="#ab390a" r="22.5"/><path d="m30.4 7.8c0 3.12.0533 5.36.16 6.72-.56-.1333-2.4133-.2-5.56-.2h-6.16l-.64 6.84c1.5467-1.0667 3.56-1.6 6.04-1.6 2.56 0 4.4933.5867 5.8 1.76 1.3333 1.1733 2 2.6933 2 4.56 0 1.9733-.7733 3.72-2.32 5.24-1.5467 1.5467-3.5467 2.7333-6 3.56-2.4267.8267-4.9333 1.24-7.52 1.24v-.72c1.68-.0267 3.28-.4 4.8-1.12 1.52-.6933 2.7467-1.7333 3.68-3.12.9333-1.36 1.4-2.9733 1.4-4.84 0-1.68-.4-2.96-1.2-3.84-.7733-.9067-1.9067-1.36-3.4-1.36-.72 0-1.36.0933-1.92.28s-1.12.48-1.68.88l-.56-.36 1.28-12.52c.5333.10667 1.2533.16 2.16.16h6.6c.7733 0 1.3067-.10667 1.6-.32.32-.24.52-.65333.6-1.24z" fill="#fff"/></svg>