<svg fill="none" height="45" viewBox="0 0 45 45" width="45" xmlns="http://www.w3.org/2000/svg"><circle cx="22.5" cy="22.5" fill="#ab390a" r="22.5"/><path d="m23.4 18.4c1.44 0 2.7467.3467 3.92 1.04 1.2.6933 2.1467 1.7067 2.84 3.04.72 1.3067 1.08 2.8267 1.08 4.56 0 1.9733-.4533 3.68-1.36 5.12-.88 1.44-2.08 2.5333-3.6 3.28s-3.1867 1.12-5 1.12c-2.9333 0-5.24-1-6.92-3-1.6533-2-2.48-4.8-2.48-8.4 0-3.7067.8267-6.8533 2.48-9.44 1.68-2.5867 3.7333-4.5733 6.16-5.96 2.4533-1.38667 4.8933-2.28 7.32-2.68l.16.8c-1.7067.53333-3.2133 1.22667-4.52 2.08-1.28.8533-2.4133 2.1733-3.4 3.96-.96 1.7867-1.6 4.16-1.92 7.12.56-.9067 1.2933-1.5733 2.2-2 .9333-.4267 1.9467-.64 3.04-.64zm-1.72 17.36c1.0133 0 1.8533-.68 2.52-2.04.6667-1.3867 1-3.4933 1-6.32 0-2.72-.32-4.7067-.96-5.96-.6133-1.2533-1.4267-1.88-2.44-1.88-.6933 0-1.4.2533-2.12.76s-1.28 1.2667-1.68 2.28c-.0533 1.1733-.08 2.1067-.08 2.8 0 3.6533.36 6.2933 1.08 7.92.7467 1.6267 1.64 2.44 2.68 2.44z" fill="#fff"/></svg>