<svg fill="none" height="45" viewBox="0 0 45 45" width="45" xmlns="http://www.w3.org/2000/svg"><circle cx="22.5" cy="22.5" fill="#ab390a" r="22.5"/><path d="m31.16 11.2c-.32.7467-.9733 2.0267-1.96 3.84-1.0667 1.92-1.9333 3.6-2.6 5.04s-1.2533 3.08-1.76 4.92c-.48 1.84-.72 3.76-.72 5.76l.08 1.36c.08.6933.12 1.32.12 1.88 0 .8267-.2533 1.52-.76 2.08s-1.2267.84-2.16.84c-.96 0-1.6933-.32-2.2-.96-.48-.64-.72-1.4933-.72-2.56 0-1.6533.36-3.3333 1.08-5.04.72-1.7333 1.5733-3.3333 2.56-4.8 1.0133-1.4933 2.32-3.2933 3.92-5.4.32-.4533.6667-.92 1.04-1.4s.76-1 1.16-1.56h-10.64c-.72 0-1.2667.0533-1.64.16-.3467.1067-.5867.28-.72.52s-.24.6133-.32 1.12h-.84c0-3.2-.0533-5.48-.16-6.84.5867.1333 2.5733.2 5.96.2h11.28z" fill="#fff"/></svg>