<svg fill="none" height="91" viewBox="0 0 495 91" width="495" xmlns="http://www.w3.org/2000/svg"><path d="m457.5 21.6442c-16.941 0-31.25 14.3093-31.25 31.25 0 16.9406 14.309 31.25 31.25 31.25s31.25-14.3094 31.25-31.25c0-16.9407-14.309-31.25-31.25-31.25zm0 15.625c5.397 0 9.375 3.975 9.375 9.375s-3.978 9.375-9.375 9.375c-5.394 0-9.375-3.975-9.375-9.375s3.981-9.375 9.375-9.375zm-15.956 30.5375c2.803-4.125 7.478-6.875 12.831-6.875h6.25c5.356 0 10.028 2.75 12.831 6.875-3.993 4.275-9.659 6.9625-15.956 6.9625s-11.962-2.6875-15.956-6.9625z" fill="#ab390a"/><g fill="#ab8602"><path d="m1 21.0468c0-10.8538 8.79878-19.65263 19.6526-19.65263v28.44463h-19.6526z" stroke="#ab8602" stroke-width=".805851"/><path d="m1 29.8389h19.6526v3.11081h-19.6526z" stroke="#ab8602" stroke-width=".805851"/><path d="m1 41.7415c0 10.8539 8.79878 19.6527 19.6526 19.6527v-28.4446h-19.6526z" stroke="#ab8602" stroke-width=".805851"/><path d="m20.6523 1.39417h368.42v60h-368.42z"/></g><path d="m23.0323 23.8995c.2934.0267.5334.14.72.34.1867.2.28.4534.28.76 0 .3334-.1.6067-.3.82-.2.2-.4533.3-.76.3-.3466 0-.6266-.1266-.84-.38-.2-.2533-.3-.6466-.3-1.18 0-1.0266.34-1.9133 1.02-2.66.1334-.1333.2867-.2.46-.2.1467 0 .2734.0534.38.16.1067.0934.16.2067.16.34 0 .1467-.0533.2734-.16.38-.3466.36-.5666.8-.66 1.32zm3.32 0c.2934.0267.5334.14.72.34.1867.2.28.4534.28.76 0 .3334-.1.6067-.3.82-.2.2-.4533.3-.76.3-.3466 0-.6266-.1266-.84-.38-.2-.2533-.3-.6466-.3-1.18 0-1.0266.34-1.9133 1.02-2.66.1334-.1333.2867-.2.46-.2.1467 0 .2734.0534.38.16.1067.0934.16.2067.16.34 0 .1467-.0533.2734-.16.38-.3466.36-.5666.8-.66 1.32zm4.7507 12.1c-.2534 0-.4534-.0733-.6-.22-.1467-.16-.22-.3666-.22-.62v-12.62c0-.2533.0733-.4533.22-.6.1466-.16.3466-.24.6-.24.2533 0 .4533.08.6.24.1466.1467.22.3467.22.6v12.62c0 .2534-.0734.46-.22.62-.1467.1467-.3467.22-.6.22zm8.5572-1.28c.4666.04.7.2534.7.64 0 .2267-.0867.4-.26.52-.16.1067-.4067.1467-.74.12l-.54-.04c-1.0667-.08-1.8534-.4-2.36-.96-.5067-.56-.76-1.4066-.76-2.54v-5.02h-1.34c-.2267 0-.4067-.0533-.54-.16-.12-.12-.18-.2733-.18-.46 0-.2.06-.36.18-.48.1333-.12.3133-.18.54-.18h1.34v-2.26c0-.2533.0733-.4466.22-.58.1466-.1466.3466-.22.6-.22.24 0 .4333.0734.58.22.1466.1334.22.3267.22.58v2.26h2.22c.2133 0 .38.06.5.18.1333.12.2.28.2.48 0 .1867-.0667.34-.2.46-.12.1067-.2867.16-.5.16h-2.22v5.1c0 .7334.1466 1.2667.44 1.6.3066.32.76.5 1.36.54zm11.4731 1.32c-.9067 0-1.7134-.2066-2.42-.62-.6934-.4133-1.2334-1-1.62-1.76-.3734-.76-.56-1.64-.56-2.64s.1933-1.8866.58-2.66c.4-.7733.9533-1.3733 1.66-1.8.7066-.4266 1.52-.64 2.44-.64.5066 0 1.0066.0734 1.5.22.5066.1334.9466.3334 1.32.6.24.16.4066.32.5.48.1066.1467.16.3134.16.5 0 .1867-.0534.34-.16.46-.0934.12-.22.18-.38.18-.0934 0-.1934-.0266-.3-.08-.1067-.0533-.2-.1066-.28-.16-.0667-.0533-.1134-.0866-.14-.1-.3467-.2266-.68-.4066-1-.54-.3067-.1333-.6867-.2-1.14-.2-.9734 0-1.7334.3334-2.28 1-.5334.6534-.8 1.5667-.8 2.74 0 1.1734.2666 2.08.8 2.72.5466.64 1.3066.96 2.28.96.4533 0 .84-.0666 1.16-.2.3333-.1333.6666-.3133 1-.54.1466-.0933.2866-.1733.42-.24.1333-.0666.2466-.1.34-.1.1466 0 .2666.06.36.18.1066.12.16.2734.16.46 0 .1734-.0467.3334-.14.48-.0934.1334-.2667.2867-.52.46-.3734.2534-.8267.46-1.36.62-.52.1467-1.0467.22-1.58.22zm9.5303-10.12c2.44 0 3.66 1.28 3.66 3.84v5.44c0 .24-.0733.4334-.22.58-.1333.1467-.32.22-.56.22s-.4333-.0733-.58-.22c-.1467-.1466-.22-.34-.22-.58v-.96c-.2533.5734-.64 1.02-1.16 1.34-.52.3067-1.12.46-1.8.46-.6267 0-1.2067-.1266-1.74-.38-.52-.2533-.9333-.6066-1.24-1.06-.3067-.4533-.46-.9533-.46-1.5 0-.7333.1867-1.3.56-1.7.3733-.4133.9867-.7066 1.84-.88.8533-.1866 2.04-.28 3.56-.28h.44v-.66c0-.8-.1667-1.3866-.5-1.76-.32-.3733-.8467-.56-1.58-.56-.9067 0-1.8267.2467-2.76.74-.36.2267-.6133.34-.76.34-.16 0-.2933-.06-.4-.18s-.16-.2733-.16-.46c0-.1866.0533-.3466.16-.48.12-.1466.3067-.2933.56-.44.4667-.2666.9933-.4733 1.58-.62.6-.16 1.1933-.24 1.78-.24zm-.66 8.84c.8 0 1.4533-.2666 1.96-.8.52-.5466.78-1.2466.78-2.1v-.58h-.36c-1.1733 0-2.0667.0534-2.68.16-.6133.0934-1.0533.26-1.32.5-.2533.2267-.38.5667-.38 1.02 0 .52.1867.9534.56 1.3.3867.3334.8667.5 1.44.5zm12.1855-8.84c2.3333 0 3.5 1.2867 3.5 3.86v5.42c0 .2534-.0734.4534-.22.6-.1334.1334-.3267.2-.58.2-.2534 0-.4534-.0666-.6-.2-.1467-.1466-.22-.3466-.22-.6v-5.32c0-.9066-.18-1.5666-.54-1.98-.3467-.4133-.9067-.62-1.68-.62-.8934 0-1.6067.2734-2.14.82-.5334.5467-.8 1.2867-.8 2.22v4.88c0 .2534-.0734.4534-.22.6-.1334.1334-.3267.2-.58.2-.2534 0-.4534-.0666-.6-.2-.1467-.1466-.22-.3466-.22-.6v-8.44c0-.24.0733-.4333.22-.58.1466-.1466.3466-.22.6-.22.24 0 .4266.0734.56.22.1466.1467.22.3334.22.56v1.02c.32-.6.7666-1.0533 1.34-1.36.5733-.32 1.2266-.48 1.96-.48zm19.5234.04c.2533 0 .4533.0734.6.22.1467.1467.22.34.22.58v8.48c0 1.4534-.3733 2.5467-1.12 3.28-.7467.7467-1.8533 1.12-3.32 1.12-1.4267 0-2.6133-.28-3.56-.84-.48-.2666-.72-.5733-.72-.92 0-.1866.0467-.34.14-.46.1067-.12.24-.18.4-.18.1333 0 .3733.0934.72.28.4667.24.9267.4334 1.38.58.4533.1467.9933.22 1.62.22.9467 0 1.66-.2533 2.14-.76.48-.4933.72-1.22.72-2.18v-1.72c-.28.6267-.7133 1.1067-1.3 1.44-.5733.3334-1.2533.5-2.04.5-.8533 0-1.6133-.2-2.28-.6-.6533-.4-1.1667-.9666-1.54-1.7-.36-.7333-.54-1.58-.54-2.54s.18-1.8066.54-2.54c.3733-.7333.8867-1.3 1.54-1.7.6667-.4 1.4267-.6 2.28-.6.7733 0 1.4467.1667 2.02.5.5733.3334 1.0067.8067 1.3 1.42v-1.08c0-.24.0667-.4333.2-.58.1467-.1466.3467-.22.6-.22zm-3.8 8.3c.9333 0 1.6667-.3066 2.2-.92.5333-.6266.8-1.4866.8-2.58 0-1.08-.2667-1.9266-.8-2.54-.52-.6266-1.2533-.94-2.2-.94s-1.6933.3134-2.24.94c-.5333.6134-.8 1.46-.8 2.54 0 1.0934.2667 1.9534.8 2.58.5467.6134 1.2933.92 2.24.92zm15.1585-.62c.147 0 .274.06.38.18.107.12.16.2734.16.46 0 .3334-.233.64-.7.92-.48.28-.986.4934-1.52.64-.533.1334-1.053.2-1.5597.2-1.5067 0-2.7-.4466-3.58-1.34-.8667-.8933-1.3-2.1266-1.3-3.7 0-1 .1933-1.88.58-2.64.3866-.7733.9266-1.3733 1.62-1.8.7066-.4266 1.5066-.64 2.4-.64 1.2667 0 2.2737.4134 3.0197 1.24.747.8267 1.12 1.9467 1.12 3.36 0 .2667-.053.46-.16.58-.106.12-.28.18-.52.18h-6.4397c.12 2.2934 1.2066 3.44 3.26 3.44.5197 0 .9667-.0666 1.3397-.2.374-.1466.774-.34 1.2-.58.347-.2.58-.3.7-.3zm-3.4997-6.46c-.8534 0-1.54.2667-2.06.8-.5067.5334-.8067 1.2867-.9 2.26h5.6597c-.026-.9866-.273-1.74-.74-2.26-.466-.5333-1.12-.8-1.9597-.8zm10.9487 7.54c.466.04.7.2534.7.64 0 .2267-.087.4-.26.52-.16.1067-.407.1467-.74.12l-.54-.04c-1.067-.08-1.854-.4-2.36-.96-.507-.56-.76-1.4066-.76-2.54v-5.02h-1.34c-.227 0-.407-.0533-.54-.16-.12-.12-.18-.2733-.18-.46 0-.2.06-.36.18-.48.133-.12.313-.18.54-.18h1.34v-2.26c0-.2533.073-.4466.22-.58.146-.1466.346-.22.6-.22.24 0 .433.0734.58.22.146.1334.22.3267.22.58v2.26h2.22c.213 0 .38.06.5.18.133.12.2.28.2.48 0 .1867-.067.34-.2.46-.12.1067-.287.16-.5.16h-2.22v5.1c0 .7334.146 1.2667.44 1.6.306.32.76.5 1.36.54zm15.233-.1c.213.2.32.4134.32.64 0 .2-.074.3734-.22.52-.134.1467-.3.22-.5.22-.174 0-.354-.08-.54-.24l-5.22-4.5v3.94c0 .2534-.08.4534-.24.6-.147.1334-.334.2-.56.2-.24 0-.44-.0666-.6-.2-.147-.1466-.22-.3466-.22-.6v-12.7c0-.2533.073-.4466.22-.58.16-.1466.36-.22.6-.22.226 0 .413.0734.56.22.16.1334.24.3267.24.58v8.12l4.78-4.38c.16-.16.34-.24.54-.24s.373.0734.52.22c.146.1467.22.32.22.52 0 .2267-.094.4267-.28.6l-3.94 3.52zm3.04 1.38c-.24 0-.44-.0666-.6-.2-.147-.1466-.22-.3466-.22-.6v-8.44c0-.2533.073-.4466.22-.58.16-.1466.36-.22.6-.22s.433.0734.58.22c.146.1334.22.3267.22.58v8.44c0 .2667-.074.4667-.22.6-.147.1334-.34.2-.58.2zm0-12.14c-.32 0-.58-.0933-.78-.28-.2-.1866-.3-.4333-.3-.74 0-.2933.1-.5333.3-.72.2-.1866.46-.28.78-.28s.58.0934.78.28c.2.1867.3.4267.3.72 0 .3067-.1.5534-.3.74-.2.1867-.46.28-.78.28zm8.728 2.06c2.333 0 3.5 1.2867 3.5 3.86v5.42c0 .2534-.073.4534-.22.6-.133.1334-.327.2-.58.2s-.453-.0666-.6-.2c-.147-.1466-.22-.3466-.22-.6v-5.32c0-.9066-.18-1.5666-.54-1.98-.347-.4133-.907-.62-1.68-.62-.893 0-1.607.2734-2.14.82-.533.5467-.8 1.2867-.8 2.22v4.88c0 .2534-.073.4534-.22.6-.133.1334-.327.2-.58.2s-.453-.0666-.6-.2c-.147-.1466-.22-.3466-.22-.6v-8.44c0-.24.073-.4333.22-.58.147-.1466.347-.22.6-.22.24 0 .427.0734.56.22.147.1467.22.3334.22.56v1.02c.32-.6.767-1.0533 1.34-1.36.573-.32 1.227-.48 1.96-.48zm14.287-4.22c.254 0 .454.0734.6.22.147.1467.22.3334.22.56v12.72c0 .24-.073.4334-.22.58-.146.1467-.346.22-.6.22-.253 0-.453-.0733-.6-.22-.133-.1466-.2-.34-.2-.58v-1.08c-.293.6134-.726 1.0867-1.3 1.42-.56.3334-1.22.5-1.98.5-.853 0-1.606-.2133-2.26-.64-.653-.4266-1.16-1.02-1.52-1.78-.36-.7733-.54-1.6666-.54-2.68 0-1 .18-1.88.54-2.64s.867-1.3466 1.52-1.76c.654-.4133 1.407-.62 2.26-.62.76 0 1.42.1667 1.98.5.574.3334 1.007.8067 1.3 1.42v-5.36c0-.24.067-.4266.2-.56.147-.1466.347-.22.6-.22zm-3.76 13c.947 0 1.674-.32 2.18-.96.52-.6533.78-1.5733.78-2.76 0-1.1866-.26-2.1-.78-2.74-.506-.64-1.233-.96-2.18-.96-.946 0-1.686.32-2.22.96-.52.64-.78 1.54-.78 2.7 0 1.1867.26 2.1134.78 2.78.534.6534 1.274.98 2.22.98zm16.777 1.34c-.92 0-1.733-.2066-2.44-.62-.693-.4133-1.233-1-1.62-1.76-.373-.7733-.56-1.6666-.56-2.68 0-1.0133.187-1.9.56-2.66.387-.7733.927-1.3666 1.62-1.78.707-.4133 1.52-.62 2.44-.62s1.733.2067 2.44.62c.707.4134 1.247 1.0067 1.62 1.78.387.76.58 1.6467.58 2.66 0 1.0134-.193 1.9067-.58 2.68-.373.76-.913 1.3467-1.62 1.76-.707.4134-1.52.62-2.44.62zm0-1.34c.96 0 1.693-.3133 2.2-.94.52-.64.78-1.5666.78-2.78 0-1.1866-.26-2.1-.78-2.74-.52-.6533-1.253-.98-2.2-.98s-1.68.3267-2.2.98c-.52.64-.78 1.5534-.78 2.74 0 1.2.253 2.12.76 2.76.52.64 1.26.96 2.22.96zm11.334-11.62c-.706.0534-1.24.28-1.6.68-.36.3867-.54.9734-.54 1.76v.64h2.22c.227 0 .4.06.52.18s.18.28.18.48-.06.3534-.18.46c-.12.1067-.293.16-.52.16h-2.22v7.76c0 .2534-.08.4534-.24.6-.146.1334-.333.2-.56.2-.24 0-.44-.0666-.6-.2-.146-.1466-.22-.3466-.22-.6v-7.76h-1.34c-.226 0-.406-.0533-.54-.16-.12-.12-.18-.2733-.18-.46 0-.2.06-.36.18-.48.134-.12.314-.18.54-.18h1.34v-.36c0-1.2.3-2.14.9-2.82.6-.6933 1.46-1.08 2.58-1.16l.52-.04c.347-.0266.594.0067.74.1.16.0934.24.26.24.5 0 .3867-.233.6067-.7.66zm11.399 2.84c2.44 0 3.66 1.28 3.66 3.84v5.44c0 .24-.073.4334-.22.58-.133.1467-.32.22-.56.22s-.433-.0733-.58-.22c-.147-.1466-.22-.34-.22-.58v-.96c-.253.5734-.64 1.02-1.16 1.34-.52.3067-1.12.46-1.8.46-.627 0-1.207-.1266-1.74-.38-.52-.2533-.933-.6066-1.24-1.06-.307-.4533-.46-.9533-.46-1.5 0-.7333.187-1.3.56-1.7.373-.4133.987-.7066 1.84-.88.853-.1866 2.04-.28 3.56-.28h.44v-.66c0-.8-.167-1.3866-.5-1.76-.32-.3733-.847-.56-1.58-.56-.907 0-1.827.2467-2.76.74-.36.2267-.613.34-.76.34-.16 0-.293-.06-.4-.18s-.16-.2733-.16-.46c0-.1866.053-.3466.16-.48.12-.1466.307-.2933.56-.44.467-.2666.993-.4733 1.58-.62.6-.16 1.193-.24 1.78-.24zm-.66 8.84c.8 0 1.453-.2666 1.96-.8.52-.5466.78-1.2466.78-2.1v-.58h-.36c-1.173 0-2.067.0534-2.68.16-.613.0934-1.053.26-1.32.5-.253.2267-.38.5667-.38 1.02 0 .52.187.9534.56 1.3.387.3334.867.5 1.44.5zm20.606-8.28c.133-.32.353-.48.66-.48.2 0 .38.0667.54.2.16.1334.24.3.24.5 0 .0934-.02.1934-.06.3l-3.32 8.4c-.08.1734-.2.3134-.36.42-.147.0934-.314.14-.5.14-.174 0-.34-.0466-.5-.14-.147-.1066-.26-.2466-.34-.42l-2.76-7.02-2.74 7.02c-.067.1734-.18.3134-.34.42-.16.0934-.334.14-.52.14-.174 0-.34-.0466-.5-.14-.16-.1066-.28-.2466-.36-.42l-3.32-8.38c-.04-.1066-.06-.2-.06-.28 0-.2133.086-.3933.26-.54.186-.1466.386-.22.6-.22.32 0 .546.16.68.48l2.74 7.38 2.82-7.32c.08-.1733.186-.3066.32-.4.146-.0933.3-.14.46-.14.173 0 .326.0467.46.14.146.0934.253.2267.32.4l2.82 7.3zm11.549 8.14c.214.2.32.4134.32.64 0 .2-.073.3734-.22.52-.133.1467-.3.22-.5.22-.173 0-.353-.08-.54-.24l-5.22-4.5v3.94c0 .2534-.08.4534-.24.6-.146.1334-.333.2-.56.2-.24 0-.44-.0666-.6-.2-.146-.1466-.22-.3466-.22-.6v-12.7c0-.2533.074-.4466.22-.58.16-.1466.36-.22.6-.22.227 0 .414.0734.56.22.16.1334.24.3267.24.58v8.12l4.78-4.38c.16-.16.34-.24.54-.24s.374.0734.52.22c.147.1467.22.32.22.52 0 .2267-.093.4267-.28.6l-3.94 3.52zm15.345-8.14c.133-.32.353-.48.66-.48.2 0 .38.0667.54.2.16.1334.24.3.24.5 0 .0934-.02.1934-.06.3l-3.32 8.4c-.08.1734-.2.3134-.36.42-.147.0934-.313.14-.5.14-.173 0-.34-.0466-.5-.14-.147-.1066-.26-.2466-.34-.42l-2.76-7.02-2.74 7.02c-.067.1734-.18.3134-.34.42-.16.0934-.333.14-.52.14-.173 0-.34-.0466-.5-.14-.16-.1066-.28-.2466-.36-.42l-3.32-8.38c-.04-.1066-.06-.2-.06-.28 0-.2133.087-.3933.26-.54.187-.1466.387-.22.6-.22.32 0 .547.16.68.48l2.74 7.38 2.82-7.32c.08-.1733.187-.3066.32-.4.147-.0933.3-.14.46-.14.173 0 .327.0467.46.14.147.0934.253.2267.32.4l2.82 7.3zm7.32-.56c2.44 0 3.66 1.28 3.66 3.84v5.44c0 .24-.073.4334-.22.58-.133.1467-.32.22-.56.22s-.433-.0733-.58-.22c-.146-.1466-.22-.34-.22-.58v-.96c-.253.5734-.64 1.02-1.16 1.34-.52.3067-1.12.46-1.8.46-.626 0-1.206-.1266-1.74-.38-.52-.2533-.933-.6066-1.24-1.06-.306-.4533-.46-.9533-.46-1.5 0-.7333.187-1.3.56-1.7.374-.4133.987-.7066 1.84-.88.854-.1866 2.04-.28 3.56-.28h.44v-.66c0-.8-.166-1.3866-.5-1.76-.32-.3733-.846-.56-1.58-.56-.906 0-1.826.2467-2.76.74-.36.2267-.613.34-.76.34-.16 0-.293-.06-.4-.18-.106-.12-.16-.2733-.16-.46 0-.1866.054-.3466.16-.48.12-.1466.307-.2933.56-.44.467-.2666.994-.4733 1.58-.62.6-.16 1.194-.24 1.78-.24zm-.66 8.84c.8 0 1.454-.2666 1.96-.8.52-.5466.78-1.2466.78-2.1v-.58h-.36c-1.173 0-2.066.0534-2.68.16-.613.0934-1.053.26-1.32.5-.253.2267-.38.5667-.38 1.02 0 .52.187.9534.56 1.3.387.3334.867.5 1.44.5zm12.106-8.8c.56-.04.84.1867.84.68 0 .2134-.06.3867-.18.52-.12.12-.327.1934-.62.22l-.6.06c-.894.08-1.56.4-2 .96-.427.5467-.64 1.1934-.64 1.94v4.86c0 .2667-.074.4667-.22.6-.147.1334-.34.2-.58.2s-.44-.0666-.6-.2c-.147-.1466-.22-.3466-.22-.6v-8.44c0-.2533.08-.4466.24-.58.16-.1466.353-.22.58-.22.213 0 .393.0734.54.22.146.1334.22.32.22.56v1.12c.28-.5866.673-1.0333 1.18-1.34.52-.3066 1.113-.4866 1.78-.54zm9.855-4.26c.254 0 .454.0734.6.22.147.1467.22.3334.22.56v12.72c0 .24-.073.4334-.22.58-.146.1467-.346.22-.6.22-.253 0-.453-.0733-.6-.22-.133-.1466-.2-.34-.2-.58v-1.08c-.293.6134-.726 1.0867-1.3 1.42-.56.3334-1.22.5-1.98.5-.853 0-1.606-.2133-2.26-.64-.653-.4266-1.16-1.02-1.52-1.78-.36-.7733-.54-1.6666-.54-2.68 0-1 .18-1.88.54-2.64s.867-1.3466 1.52-1.76c.654-.4133 1.407-.62 2.26-.62.76 0 1.42.1667 1.98.5.574.3334 1.007.8067 1.3 1.42v-5.36c0-.24.067-.4266.2-.56.147-.1466.347-.22.6-.22zm-3.76 13c.947 0 1.674-.32 2.18-.96.52-.6533.78-1.5733.78-2.76 0-1.1866-.26-2.1-.78-2.74-.506-.64-1.233-.96-2.18-.96-.946 0-1.686.32-2.22.96-.52.64-.78 1.54-.78 2.7 0 1.1867.26 2.1134.78 2.78.534.6534 1.274.98 2.22.98zm16.017 1.34c-.613 0-1.2-.0733-1.76-.22-.547-.1466-1.033-.3533-1.46-.62-.24-.16-.413-.3066-.52-.44-.093-.1466-.14-.32-.14-.52 0-.1733.047-.3133.14-.42.107-.12.24-.18.4-.18s.393.1.7.3c.4.24.793.4334 1.18.58.4.1334.893.2 1.48.2.72 0 1.28-.1266 1.68-.38.4-.2533.6-.62.6-1.1 0-.2933-.073-.5266-.22-.7-.147-.1866-.4-.3466-.76-.48-.36-.1466-.887-.2933-1.58-.44-1.173-.2533-2.013-.5933-2.52-1.02-.507-.4266-.76-1.0066-.76-1.74 0-.5733.16-1.08.48-1.52s.76-.7866 1.32-1.04c.573-.2533 1.22-.38 1.94-.38.52 0 1.02.0734 1.5.22.493.1334.927.3267 1.3.58.453.32.68.6534.68 1 0 .1734-.053.32-.16.44s-.233.18-.38.18c-.16 0-.4-.1133-.72-.34-.373-.24-.727-.4266-1.06-.56-.333-.1333-.747-.2-1.24-.2-.627 0-1.133.14-1.52.42-.373.28-.56.6534-.56 1.12 0 .2934.067.5334.2.72.147.1734.38.3334.7.48.333.1334.807.2667 1.42.4.907.2 1.607.42 2.1.66.507.24.867.5334 1.08.88.213.3467.32.7867.32 1.32 0 .84-.353 1.52-1.06 2.04-.707.5067-1.64.76-2.8.76zm10.369 0c-.92 0-1.733-.2066-2.44-.62-.693-.4133-1.233-1-1.62-1.76-.373-.7733-.56-1.6666-.56-2.68 0-1.0133.187-1.9.56-2.66.387-.7733.927-1.3666 1.62-1.78.707-.4133 1.52-.62 2.44-.62s1.734.2067 2.44.62c.707.4134 1.247 1.0067 1.62 1.78.387.76.58 1.6467.58 2.66 0 1.0134-.193 1.9067-.58 2.68-.373.76-.913 1.3467-1.62 1.76-.706.4134-1.52.62-2.44.62zm0-1.34c.96 0 1.694-.3133 2.2-.94.52-.64.78-1.5666.78-2.78 0-1.1866-.26-2.1-.78-2.74-.52-.6533-1.253-.98-2.2-.98-.946 0-1.68.3267-2.2.98-.52.64-.78 1.5534-.78 2.74 0 1.2.254 2.12.76 2.76.52.64 1.26.96 2.22.96zm17.894-8.78c2.16 0 3.24 1.2867 3.24 3.86v5.42c0 .2534-.073.4534-.22.6-.146.1334-.34.2-.58.2s-.44-.0666-.6-.2c-.146-.1466-.22-.3466-.22-.6v-5.38c0-.8933-.16-1.54-.48-1.94s-.82-.6-1.5-.6c-.813 0-1.453.2734-1.92.82-.466.5467-.7 1.2867-.7 2.22v4.88c0 .2534-.08.4534-.24.6-.146.1334-.34.2-.58.2s-.433-.0666-.58-.2c-.146-.1466-.22-.3466-.22-.6v-5.38c0-.8933-.16-1.54-.48-1.94s-.826-.6-1.52-.6c-.8 0-1.44.2734-1.92.82-.466.5467-.7 1.2867-.7 2.22v4.88c0 .2534-.073.4534-.22.6-.146.1334-.34.2-.58.2s-.44-.0666-.6-.2c-.146-.1466-.22-.3466-.22-.6v-8.44c0-.24.074-.4333.22-.58.16-.1466.36-.22.6-.22.227 0 .414.0734.56.22.147.1334.22.32.22.56v.96c.294-.5733.7-1.0133 1.22-1.32.52-.3066 1.12-.46 1.8-.46 1.52 0 2.514.64 2.98 1.92.28-.5866.707-1.0533 1.28-1.4.574-.3466 1.227-.52 1.96-.52zm13.731 7.72c.147 0 .274.06.38.18.107.12.16.2734.16.46 0 .3334-.233.64-.7.92-.48.28-.986.4934-1.52.64-.533.1334-1.053.2-1.56.2-1.506 0-2.7-.4466-3.58-1.34-.866-.8933-1.3-2.1266-1.3-3.7 0-1 .194-1.88.58-2.64.387-.7733.927-1.3733 1.62-1.8.707-.4266 1.507-.64 2.4-.64 1.267 0 2.274.4134 3.02 1.24.747.8267 1.12 1.9467 1.12 3.36 0 .2667-.053.46-.16.58-.106.12-.28.18-.52.18h-6.44c.12 2.2934 1.207 3.44 3.26 3.44.52 0 .967-.0666 1.34-.2.374-.1466.774-.34 1.2-.58.347-.2.58-.3.7-.3zm-3.5-6.46c-.853 0-1.54.2667-2.06.8-.506.5334-.806 1.2867-.9 2.26h5.66c-.026-.9866-.273-1.74-.74-2.26-.466-.5333-1.12-.8-1.96-.8zm10.949 7.54c.466.04.7.2534.7.64 0 .2267-.087.4-.26.52-.16.1067-.407.1467-.74.12l-.54-.04c-1.067-.08-1.854-.4-2.36-.96-.507-.56-.76-1.4066-.76-2.54v-5.02h-1.34c-.227 0-.407-.0533-.54-.16-.12-.12-.18-.2733-.18-.46 0-.2.06-.36.18-.48.133-.12.313-.18.54-.18h1.34v-2.26c0-.2533.073-.4466.22-.58.146-.1466.346-.22.6-.22.24 0 .433.0734.58.22.146.1334.22.3267.22.58v2.26h2.22c.213 0 .38.06.5.18.133.12.2.28.2.48 0 .1867-.067.34-.2.46-.12.1067-.287.16-.5.16h-2.22v5.1c0 .7334.146 1.2667.44 1.6.306.32.76.5 1.36.54zm3.117 1.28c-.24 0-.44-.0666-.6-.2-.147-.1466-.22-.3466-.22-.6v-8.44c0-.2533.073-.4466.22-.58.16-.1466.36-.22.6-.22s.433.0734.58.22c.146.1334.22.3267.22.58v8.44c0 .2667-.074.4667-.22.6-.147.1334-.34.2-.58.2zm0-12.14c-.32 0-.58-.0933-.78-.28-.2-.1866-.3-.4333-.3-.74 0-.2933.1-.5333.3-.72.2-.1866.46-.28.78-.28s.58.0934.78.28c.2.1867.3.4267.3.72 0 .3067-.1.5534-.3.74-.2.1867-.46.28-.78.28zm14.668 2.06c2.16 0 3.24 1.2867 3.24 3.86v5.42c0 .2534-.073.4534-.22.6-.147.1334-.34.2-.58.2s-.44-.0666-.6-.2c-.147-.1466-.22-.3466-.22-.6v-5.38c0-.8933-.16-1.54-.48-1.94s-.82-.6-1.5-.6c-.813 0-1.453.2734-1.92.82-.467.5467-.7 1.2867-.7 2.22v4.88c0 .2534-.08.4534-.24.6-.147.1334-.34.2-.58.2s-.433-.0666-.58-.2c-.147-.1466-.22-.3466-.22-.6v-5.38c0-.8933-.16-1.54-.48-1.94s-.827-.6-1.52-.6c-.8 0-1.44.2734-1.92.82-.467.5467-.7 1.2867-.7 2.22v4.88c0 .2534-.073.4534-.22.6-.147.1334-.34.2-.58.2s-.44-.0666-.6-.2c-.147-.1466-.22-.3466-.22-.6v-8.44c0-.24.073-.4333.22-.58.16-.1466.36-.22.6-.22.227 0 .413.0734.56.22.147.1334.22.32.22.56v.96c.293-.5733.7-1.0133 1.22-1.32.52-.3066 1.12-.46 1.8-.46 1.52 0 2.513.64 2.98 1.92.28-.5866.707-1.0533 1.28-1.4.573-.3466 1.227-.52 1.96-.52zm13.731 7.72c.147 0 .274.06.38.18.107.12.16.2734.16.46 0 .3334-.233.64-.7.92-.48.28-.986.4934-1.52.64-.533.1334-1.053.2-1.56.2-1.506 0-2.7-.4466-3.58-1.34-.866-.8933-1.3-2.1266-1.3-3.7 0-1 .194-1.88.58-2.64.387-.7733.927-1.3733 1.62-1.8.707-.4266 1.507-.64 2.4-.64 1.267 0 2.274.4134 3.02 1.24.747.8267 1.12 1.9467 1.12 3.36 0 .2667-.053.46-.16.58-.106.12-.28.18-.52.18h-6.44c.12 2.2934 1.207 3.44 3.26 3.44.52 0 .967-.0666 1.34-.2.374-.1466.774-.34 1.2-.58.347-.2.58-.3.7-.3zm-3.5-6.46c-.853 0-1.54.2667-2.06.8-.506.5334-.806 1.2867-.9 2.26h5.66c-.026-.9866-.273-1.74-.74-2.26-.466-.5333-1.12-.8-1.96-.8zm9.787 8.86c-.613 0-1.2-.0733-1.76-.22-.546-.1466-1.033-.3533-1.46-.62-.24-.16-.413-.3066-.52-.44-.093-.1466-.14-.32-.14-.52 0-.1733.047-.3133.14-.42.107-.12.24-.18.4-.18s.394.1.7.3c.4.24.794.4334 1.18.58.4.1334.894.2 1.48.2.72 0 1.28-.1266 1.68-.38.4-.2533.6-.62.6-1.1 0-.2933-.073-.5266-.22-.7-.146-.1866-.4-.3466-.76-.48-.36-.1466-.886-.2933-1.58-.44-1.173-.2533-2.013-.5933-2.52-1.02-.506-.4266-.76-1.0066-.76-1.74 0-.5733.16-1.08.48-1.52s.76-.7866 1.32-1.04c.574-.2533 1.22-.38 1.94-.38.52 0 1.02.0734 1.5.22.494.1334.927.3267 1.3.58.454.32.68.6534.68 1 0 .1734-.053.32-.16.44-.106.12-.233.18-.38.18-.16 0-.4-.1133-.72-.34-.373-.24-.726-.4266-1.06-.56-.333-.1333-.746-.2-1.24-.2-.626 0-1.133.14-1.52.42-.373.28-.56.6534-.56 1.12 0 .2934.067.5334.2.72.147.1734.38.3334.7.48.334.1334.807.2667 1.42.4.907.2 1.607.42 2.1.66.507.24.867.5334 1.08.88.214.3467.32.7867.32 1.32 0 .84-.353 1.52-1.06 2.04-.706.5067-1.64.76-2.8.76zm7.032-.04c-.32 0-.587-.1-.8-.3-.213-.2133-.32-.4866-.32-.82 0-.3333.107-.6066.32-.82.213-.2133.48-.32.8-.32.307 0 .56.1067.76.32.213.2134.32.4867.32.82 0 .3334-.107.6067-.32.82-.2.2-.453.3-.76.3zm3.476-14.3c.333 0 .6.1334.8.4.213.2534.32.64.32 1.16 0 1.0534-.34 1.94-1.02 2.66-.134.1334-.28.2-.44.2-.147 0-.274-.0466-.38-.14-.107-.1066-.16-.2266-.16-.36 0-.1466.053-.2733.16-.38.346-.3466.566-.7866.66-1.32-.294-.0266-.54-.14-.74-.34-.187-.2-.28-.4533-.28-.76 0-.3333.1-.6.3-.8.213-.2133.473-.32.78-.32zm3.32 0c.333 0 .6.1334.8.4.213.2534.32.64.32 1.16 0 1.0534-.34 1.94-1.02 2.66-.134.1334-.28.2-.44.2-.147 0-.274-.0466-.38-.14-.107-.1066-.16-.2266-.16-.36 0-.1466.053-.2733.16-.38.346-.3466.566-.7866.66-1.32-.294-.0266-.54-.14-.74-.34-.187-.2-.28-.4533-.28-.76 0-.3333.1-.6.3-.8.213-.2133.473-.32.78-.32z" fill="#fff"/><path d="m20.6523 1.39417h368.42v60h-368.42z" stroke="#ab8602" stroke-width=".805851"/><path d="m408.726 21.0468c0-10.8538-8.799-19.65263-19.653-19.65263v28.44463h19.653z" fill="#ab8602" stroke="#ab8602" stroke-width=".805851"/><path d="m0 0h19.6526v3.11081h-19.6526z" fill="#ab8602" stroke="#ab8602" stroke-width=".805851" transform="matrix(-1 0 0 1 408.726 29.8387)"/><path clip-rule="evenodd" d="m408.369 45.4881c.234-1.2128.356-2.4654.356-3.7466v-8.7919h-19.652v28.4446c4.759 0 9.123-1.6916 12.523-4.5063 3.392 2.26 8.832 4.4082 15.404 3.2133-1.81-.7758-8.792-5.4303-8.533-14.7395-.032.0431-.064.0852-.098.1264z" fill="#ab8602" fill-rule="evenodd"/><path d="m408.369 45.4881.31.2566-.706-.333zm.356-12.5385v-.4029h.403v.4029zm-19.652 0h-.403v-.4029h.403zm0 28.4446v.4029h-.403v-.4029zm12.523-4.5063-.257-.3104.231-.1911.249.1662zm15.404 3.2133.159-.3704 1.23.5273-1.317.2395zm-8.533-14.7395-.326-.237.764-1.0515-.036 1.2997zm.661-3.6202c0 1.307-.125 2.5851-.364 3.823l-.791-.1528c.229-1.1878.349-2.4147.349-3.6702zm0-8.7919v8.7919h-.806v-8.7919zm-20.055-.4029h19.652v.8058h-19.652zm-.403 28.8475v-28.4446h.806v28.4446zm13.183-4.1959c-3.47 2.8723-7.924 4.5988-12.78 4.5988v-.8058c4.661 0 8.935-1.6567 12.266-4.4138zm15.219 3.2993c-6.7 1.2182-12.245-.9728-15.699-3.2744l.446-.6706c3.33 2.2184 8.665 4.3237 15.109 3.1522zm-8.203-15.1247c-.126 4.5434 1.513 7.9436 3.403 10.3069 1.899 2.3731 4.043 3.6896 4.887 4.051l-.318.7407c-.966-.4143-3.218-1.813-5.198-4.2883-1.988-2.4853-3.712-6.0669-3.579-10.8327zm-.811-.1414c.029-.0349.056-.0705.083-.1068l.651.474c-.036.0499-.074.0986-.113.146z" fill="#ab8602"/></svg>