<svg fill="none" height="121" viewBox="0 0 558 121" width="558" xmlns="http://www.w3.org/2000/svg"><path d="m37.5 51.819c-16.9406 0-31.25 14.3093-31.25 31.25 0 16.941 14.3094 31.25 31.25 31.25s31.25-14.309 31.25-31.25c0-16.9407-14.3094-31.25-31.25-31.25zm0 15.625c5.3969 0 9.375 3.975 9.375 9.375s-3.9781 9.375-9.375 9.375c-5.3937 0-9.375-3.975-9.375-9.375s3.9813-9.375 9.375-9.375zm-15.9563 30.5375c2.8032-4.125 7.4782-6.875 12.8313-6.875h6.25c5.3563 0 10.0281 2.75 12.8313 6.875-3.9938 4.2745-9.6594 6.9625-15.9563 6.9625s-11.9625-2.688-15.9563-6.9625z" fill="#ab390a"/><g fill="#ab8602"><path d="m86.2744 21.0468c0-10.8538 8.7988-19.65263 19.6526-19.65263v28.44463h-19.6526z" stroke="#ab8602" stroke-width=".805851"/><path d="m86.2744 29.8387h19.6526v26.1214h-19.6526z" stroke="#ab8602" stroke-width=".805851"/><path clip-rule="evenodd" d="m86.6311 68.4986c-.2341-1.2128-.3567-2.4654-.3567-3.7466v-8.7919h19.6526v28.4446c-4.759 0-9.1229-1.6916-12.5233-4.5063-3.3924 2.26-8.832 4.4082-15.404 3.2133 1.8101-.7758 8.7919-5.4304 8.5334-14.7395.0313.0431.064.0852.098.1264z" fill-rule="evenodd"/><path d="m86.6311 68.4986-.3106.2566.7062-.333zm-.3567-12.5385v-.403h-.4029v.403zm19.6526 0h.403v-.403h-.403zm0 28.4446v.4029h.403v-.4029zm-12.5233-4.5063.2569-.3104-.2309-.1911-.2494.1662zm-15.404 3.2133-.1587-.3704-1.2304.5273 1.317.2395zm8.5334-14.7395.3258-.237-.7647-1.0515.0361 1.2997zm-.6616-3.6202c0 1.307.1251 2.5851.364 3.8229l.7912-.1527c-.2292-1.1878-.3494-2.4148-.3494-3.6702zm0-8.7919v8.7919h.8058v-8.7919zm20.0555-.403h-19.6526v.8059h19.6526zm.403 28.8476v-28.4446h-.806v28.4446zm-13.1832-4.1959c3.4699 2.8723 7.9242 4.5988 12.7802 4.5988v-.8059c-4.662 0-8.9356-1.6566-12.2664-4.4137zm-15.2192 3.2993c6.7003 1.2182 12.2447-.9728 15.6995-3.2744l-.4468-.6706c-3.33 2.2183-8.6649 4.3237-15.1085 3.1521zm8.2027-15.1247c.1262 4.5433-1.5122 7.9436-3.4028 10.3068-1.8985 2.3732-4.0432 3.6897-4.8865 4.0511l.3174.7407c.9668-.4143 3.2181-1.813 5.1984-4.2883 1.9882-2.4853 3.7114-6.0669 3.579-10.8327zm.8114-.1414c-.0288-.0349-.0564-.0705-.0828-.1068l-.6517.474c.0363.0499.0741.0986.1133.146z"/><path d="m105.928 1.39417h431.42v83.0106h-431.42z"/></g><path d="m108.308 23.8995c.293.0267.533.14.72.34.186.2.28.4534.28.76 0 .3334-.1.6067-.3.82-.2.2-.454.3-.76.3-.347 0-.627-.1266-.84-.38-.2-.2533-.3-.6466-.3-1.18 0-1.0266.34-1.9133 1.02-2.66.133-.1333.286-.2.46-.2.146 0 .273.0534.38.16.106.0934.16.2067.16.34 0 .1467-.054.2734-.16.38-.347.36-.567.8-.66 1.32zm3.32 0c.293.0267.533.14.72.34.186.2.28.4534.28.76 0 .3334-.1.6067-.3.82-.2.2-.454.3-.76.3-.347 0-.627-.1266-.84-.38-.2-.2533-.3-.6466-.3-1.18 0-1.0266.34-1.9133 1.02-2.66.133-.1333.286-.2.46-.2.146 0 .273.0534.38.16.106.0934.16.2067.16.34 0 .1467-.054.2734-.16.38-.347.36-.567.8-.66 1.32zm4.75 12.1c-.253 0-.453-.0733-.6-.22-.146-.16-.22-.3666-.22-.62v-12.62c0-.2533.074-.4533.22-.6.147-.16.347-.24.6-.24.254 0 .454.08.6.24.147.1467.22.3467.22.6v12.62c0 .2534-.073.46-.22.62-.146.1467-.346.22-.6.22zm4.778-8.56c-.147 0-.267-.0466-.36-.14-.094-.0933-.154-.2266-.18-.4l-.36-4.08-.02-.2c0-.2933.086-.52.26-.68.173-.16.393-.24.66-.24.306 0 .54.1.7.3.173.2.233.4734.18.82l-.34 4.08c-.04.36-.22.54-.54.54zm14.534-1.52c2.16 0 3.24 1.2867 3.24 3.86v5.42c0 .2534-.074.4534-.22.6-.147.1334-.34.2-.58.2s-.44-.0666-.6-.2c-.147-.1466-.22-.3466-.22-.6v-5.38c0-.8933-.16-1.54-.48-1.94s-.82-.6-1.5-.6c-.814 0-1.454.2734-1.92.82-.467.5467-.7 1.2867-.7 2.22v4.88c0 .2534-.08.4534-.24.6-.147.1334-.34.2-.58.2s-.434-.0666-.58-.2c-.147-.1466-.22-.3466-.22-.6v-5.38c0-.8933-.16-1.54-.48-1.94s-.827-.6-1.52-.6c-.8 0-1.44.2734-1.92.82-.467.5467-.7 1.2867-.7 2.22v4.88c0 .2534-.074.4534-.22.6-.147.1334-.34.2-.58.2s-.44-.0666-.6-.2c-.147-.1466-.22-.3466-.22-.6v-8.44c0-.24.073-.4333.22-.58.16-.1466.36-.22.6-.22.226 0 .413.0734.56.22.146.1334.22.32.22.56v.96c.293-.5733.7-1.0133 1.22-1.32.52-.3066 1.12-.46 1.8-.46 1.52 0 2.513.64 2.98 1.92.28-.5866.706-1.0533 1.28-1.4.573-.3466 1.226-.52 1.96-.52zm19.687 8.6c.24 0 .427.06.56.18s.2.2867.2.5c0 .2267-.067.4-.2.52-.12.12-.307.18-.56.18h-6.62c-.253 0-.447-.06-.58-.18-.12-.12-.18-.2933-.18-.52 0-.2133.067-.38.2-.5s.32-.18.56-.18h2.48v-10.72l-2.18 1.42c-.107.0667-.213.1-.32.1-.187 0-.353-.0866-.5-.26-.133-.1733-.2-.36-.2-.56 0-.28.107-.48.32-.6l3.04-1.98c.227-.1466.46-.22.7-.22.227 0 .413.0734.56.22.147.1467.22.3534.22.62v11.98zm8.152 1.54c-1.613 0-2.84-.6133-3.68-1.84-.84-1.2266-1.26-3.0133-1.26-5.36 0-2.36.42-4.1533 1.26-5.38.84-1.2266 2.067-1.84 3.68-1.84 1.614 0 2.84.6134 3.68 1.84.84 1.2134 1.26 3 1.26 5.36s-.42 4.1534-1.26 5.38c-.84 1.2267-2.066 1.84-3.68 1.84zm0-1.38c1.12 0 1.947-.4733 2.48-1.42.534-.9466.8-2.42.8-4.42 0-2.0133-.266-3.4866-.8-4.42-.52-.9333-1.346-1.4-2.48-1.4-1.12 0-1.946.4734-2.48 1.42-.533.9334-.8 2.4-.8 4.4s.267 3.4734.8 4.42c.534.9467 1.36 1.42 2.48 1.42zm11.992 1.38c-1.613 0-2.84-.6133-3.68-1.84-.84-1.2266-1.26-3.0133-1.26-5.36 0-2.36.42-4.1533 1.26-5.38.84-1.2266 2.067-1.84 3.68-1.84 1.614 0 2.84.6134 3.68 1.84.84 1.2134 1.26 3 1.26 5.36s-.42 4.1534-1.26 5.38c-.84 1.2267-2.066 1.84-3.68 1.84zm0-1.38c1.12 0 1.947-.4733 2.48-1.42.534-.9466.8-2.42.8-4.42 0-2.0133-.266-3.4866-.8-4.42-.52-.9333-1.346-1.4-2.48-1.4-1.12 0-1.946.4734-2.48 1.42-.533.9334-.8 2.4-.8 4.4s.267 3.4734.8 4.42c.534.9467 1.36 1.42 2.48 1.42zm12.053 1.12c-.174.2934-.394.44-.66.44-.174 0-.327-.06-.46-.18-.12-.12-.18-.28-.18-.48 0-.16.046-.3133.14-.46l7.64-13.22c.173-.2933.393-.44.66-.44.173 0 .32.0667.44.2.133.12.2.2734.2.46 0 .1467-.04.3-.12.46zm-1.56-5.54c-1.067 0-1.9-.36-2.5-1.08-.6-.7333-.9-1.8133-.9-3.24 0-1.4133.3-2.48.9-3.2.6-.7333 1.433-1.1 2.5-1.1 1.066 0 1.9.3667 2.5 1.1.6.72.9 1.7867.9 3.2 0 1.4267-.3 2.5067-.9 3.24-.6.72-1.434 1.08-2.5 1.08zm0-1.16c.653 0 1.133-.2533 1.44-.76.32-.5066.48-1.3066.48-2.4 0-1.08-.16-1.8733-.48-2.38-.307-.5066-.787-.76-1.44-.76-.654 0-1.14.2534-1.46.76-.32.5067-.48 1.3-.48 2.38 0 1.0934.16 1.8934.48 2.4.32.5067.806.76 1.46.76zm9.6 6.94c-1.067 0-1.9-.36-2.5-1.08-.6-.7333-.9-1.8133-.9-3.24 0-1.4133.3-2.48.9-3.2.6-.7333 1.433-1.1 2.5-1.1 1.08 0 1.913.36 2.5 1.08.6.72.9 1.7934.9 3.22 0 1.4267-.3 2.5067-.9 3.24-.587.72-1.42 1.08-2.5 1.08zm0-1.16c.666 0 1.153-.2466 1.46-.74.32-.5066.48-1.3133.48-2.42 0-1.08-.16-1.8733-.48-2.38-.32-.5066-.807-.76-1.46-.76-.654 0-1.14.2534-1.46.76-.307.5067-.46 1.3-.46 2.38 0 1.0934.153 1.8934.46 2.4.32.5067.806.76 1.46.76zm15.19 1.16c-.92 0-1.734-.2066-2.44-.62-.694-.4133-1.234-1-1.62-1.76-.374-.7733-.56-1.6666-.56-2.68 0-1.0133.186-1.9.56-2.66.386-.7733.926-1.3666 1.62-1.78.706-.4133 1.52-.62 2.44-.62s1.733.2067 2.44.62c.706.4134 1.246 1.0067 1.62 1.78.386.76.58 1.6467.58 2.66 0 1.0134-.194 1.9067-.58 2.68-.374.76-.914 1.3467-1.62 1.76-.707.4134-1.52.62-2.44.62zm0-1.34c.96 0 1.693-.3133 2.2-.94.52-.64.78-1.5666.78-2.78 0-1.1866-.26-2.1-.78-2.74-.52-.6533-1.254-.98-2.2-.98-.947 0-1.68.3267-2.2.98-.52.64-.78 1.5534-.78 2.74 0 1.2.253 2.12.76 2.76.52.64 1.26.96 2.22.96zm11.334-11.62c-.707.0534-1.24.28-1.6.68-.36.3867-.54.9734-.54 1.76v.64h2.22c.227 0 .4.06.52.18s.18.28.18.48-.06.3534-.18.46c-.12.1067-.293.16-.52.16h-2.22v7.76c0 .2534-.08.4534-.24.6-.147.1334-.333.2-.56.2-.24 0-.44-.0666-.6-.2-.147-.1466-.22-.3466-.22-.6v-7.76h-1.34c-.227 0-.407-.0533-.54-.16-.12-.12-.18-.2733-.18-.46 0-.2.06-.36.18-.48.133-.12.313-.18.54-.18h1.34v-.36c0-1.2.3-2.14.9-2.82.6-.6933 1.46-1.08 2.58-1.16l.52-.04c.347-.0266.593.0067.74.1.16.0934.24.26.24.5 0 .3867-.233.6067-.7.66zm11.919 11.64c.466.04.7.2534.7.64 0 .2267-.087.4-.26.52-.16.1067-.407.1467-.74.12l-.54-.04c-1.067-.08-1.854-.4-2.36-.96-.507-.56-.76-1.4066-.76-2.54v-5.02h-1.34c-.227 0-.407-.0533-.54-.16-.12-.12-.18-.2733-.18-.46 0-.2.06-.36.18-.48.133-.12.313-.18.54-.18h1.34v-2.26c0-.2533.073-.4466.22-.58.146-.1466.346-.22.6-.22.24 0 .433.0734.58.22.146.1334.22.3267.22.58v2.26h2.22c.213 0 .38.06.5.18.133.12.2.28.2.48 0 .1867-.067.34-.2.46-.12.1067-.287.16-.5.16h-2.22v5.1c0 .7334.146 1.2667.44 1.6.306.32.76.5 1.36.54zm7.217-8.8c1.146 0 2.013.3267 2.6.98.586.64.88 1.6.88 2.88v5.42c0 .2534-.074.4534-.22.6-.147.1334-.34.2-.58.2-.254 0-.454-.0666-.6-.2-.147-.1466-.22-.3466-.22-.6v-5.38c0-.8666-.18-1.5066-.54-1.92-.347-.4133-.907-.62-1.68-.62-.894 0-1.607.2734-2.14.82-.534.5467-.8 1.2867-.8 2.22v4.88c0 .2534-.074.4534-.22.6-.134.1334-.327.2-.58.2-.254 0-.454-.0666-.6-.2-.147-.1466-.22-.3466-.22-.6v-12.72c0-.2266.073-.4133.22-.56.16-.1466.36-.22.6-.22.253 0 .446.0734.58.22.146.1334.22.32.22.56v5.24c.32-.5866.766-1.0333 1.34-1.34.573-.3066 1.226-.46 1.96-.46zm13.987 7.72c.146 0 .273.06.38.18.106.12.16.2734.16.46 0 .3334-.234.64-.7.92-.48.28-.987.4934-1.52.64-.534.1334-1.054.2-1.56.2-1.507 0-2.7-.4466-3.58-1.34-.867-.8933-1.3-2.1266-1.3-3.7 0-1 .193-1.88.58-2.64.386-.7733.926-1.3733 1.62-1.8.706-.4266 1.506-.64 2.4-.64 1.266 0 2.273.4134 3.02 1.24.746.8267 1.12 1.9467 1.12 3.36 0 .2667-.054.46-.16.58-.107.12-.28.18-.52.18h-6.44c.12 2.2934 1.206 3.44 3.26 3.44.52 0 .966-.0666 1.34-.2.373-.1466.773-.34 1.2-.58.346-.2.58-.3.7-.3zm-3.5-6.46c-.854 0-1.54.2667-2.06.8-.507.5334-.807 1.2867-.9 2.26h5.66c-.027-.9866-.274-1.74-.74-2.26-.467-.5333-1.12-.8-1.96-.8zm16.563-1.26c.853 0 1.606.2134 2.26.64.653.4267 1.16 1.0267 1.52 1.8.36.76.54 1.6467.54 2.66 0 1.0134-.18 1.9-.54 2.66-.36.7467-.867 1.3267-1.52 1.74-.64.4134-1.394.62-2.26.62-.76 0-1.427-.1666-2-.5-.56-.3333-.987-.8066-1.28-1.42v4.7c0 .24-.074.4267-.22.56-.134.1467-.327.22-.58.22-.254 0-.454-.0733-.6-.22-.147-.1466-.22-.3333-.22-.56v-12.06c0-.24.073-.4333.22-.58.146-.1466.346-.22.6-.22.253 0 .446.0734.58.22.146.1467.22.34.22.58v1.08c.293-.6133.72-1.0866 1.28-1.42.573-.3333 1.24-.5 2-.5zm-.32 8.78c.946 0 1.68-.32 2.2-.96s.78-1.5466.78-2.72c0-1.1733-.26-2.0866-.78-2.74-.52-.6666-1.254-1-2.2-1-.947 0-1.68.32-2.2.96-.507.64-.76 1.5534-.76 2.74 0 1.1867.253 2.1067.76 2.76.52.64 1.253.96 2.2.96zm14.6-1.06c.147 0 .274.06.38.18.107.12.16.2734.16.46 0 .3334-.233.64-.7.92-.48.28-.986.4934-1.52.64-.533.1334-1.053.2-1.56.2-1.506 0-2.7-.4466-3.58-1.34-.866-.8933-1.3-2.1266-1.3-3.7 0-1 .194-1.88.58-2.64.387-.7733.927-1.3733 1.62-1.8.707-.4266 1.507-.64 2.4-.64 1.267 0 2.274.4134 3.02 1.24.747.8267 1.12 1.9467 1.12 3.36 0 .2667-.053.46-.16.58-.106.12-.28.18-.52.18h-6.44c.12 2.2934 1.207 3.44 3.26 3.44.52 0 .967-.0666 1.34-.2.374-.1466.774-.34 1.2-.58.347-.2.58-.3.7-.3zm-3.5-6.46c-.853 0-1.54.2667-2.06.8-.506.5334-.806 1.2867-.9 2.26h5.66c-.026-.9866-.273-1.74-.74-2.26-.466-.5333-1.12-.8-1.96-.8zm11.327-1.22c.56-.04.84.1867.84.68 0 .2134-.06.3867-.18.52-.12.12-.326.1934-.62.22l-.6.06c-.893.08-1.56.4-2 .96-.426.5467-.64 1.1934-.64 1.94v4.86c0 .2667-.073.4667-.22.6-.146.1334-.34.2-.58.2s-.44-.0666-.6-.2c-.146-.1466-.22-.3466-.22-.6v-8.44c0-.2533.08-.4466.24-.58.16-.1466.354-.22.58-.22.214 0 .394.0734.54.22.147.1334.22.32.22.56v1.12c.28-.5866.674-1.0333 1.18-1.34.52-.3066 1.114-.4866 1.78-.54zm5.413 10.08c-.613 0-1.2-.0733-1.76-.22-.546-.1466-1.033-.3533-1.46-.62-.24-.16-.413-.3066-.52-.44-.093-.1466-.14-.32-.14-.52 0-.1733.047-.3133.14-.42.107-.12.24-.18.4-.18s.394.1.7.3c.4.24.794.4334 1.18.58.4.1334.894.2 1.48.2.72 0 1.28-.1266 1.68-.38.4-.2533.6-.62.6-1.1 0-.2933-.073-.5266-.22-.7-.146-.1866-.4-.3466-.76-.48-.36-.1466-.886-.2933-1.58-.44-1.173-.2533-2.013-.5933-2.52-1.02-.506-.4266-.76-1.0066-.76-1.74 0-.5733.16-1.08.48-1.52s.76-.7866 1.32-1.04c.574-.2533 1.22-.38 1.94-.38.52 0 1.02.0734 1.5.22.494.1334.927.3267 1.3.58.454.32.68.6534.68 1 0 .1734-.053.32-.16.44-.106.12-.233.18-.38.18-.16 0-.4-.1133-.72-.34-.373-.24-.726-.4266-1.06-.56-.333-.1333-.746-.2-1.24-.2-.626 0-1.133.14-1.52.42-.373.28-.56.6534-.56 1.12 0 .2934.067.5334.2.72.147.1734.38.3334.7.48.334.1334.807.2667 1.42.4.907.2 1.607.42 2.1.66.507.24.867.5334 1.08.88.214.3467.32.7867.32 1.32 0 .84-.353 1.52-1.06 2.04-.706.5067-1.64.76-2.8.76zm10.37 0c-.92 0-1.734-.2066-2.44-.62-.694-.4133-1.234-1-1.62-1.76-.374-.7733-.56-1.6666-.56-2.68 0-1.0133.186-1.9.56-2.66.386-.7733.926-1.3666 1.62-1.78.706-.4133 1.52-.62 2.44-.62s1.733.2067 2.44.62c.706.4134 1.246 1.0067 1.62 1.78.386.76.58 1.6467.58 2.66 0 1.0134-.194 1.9067-.58 2.68-.374.76-.914 1.3467-1.62 1.76-.707.4134-1.52.62-2.44.62zm0-1.34c.96 0 1.693-.3133 2.2-.94.52-.64.78-1.5666.78-2.78 0-1.1866-.26-2.1-.78-2.74-.52-.6533-1.254-.98-2.2-.98-.947 0-1.68.3267-2.2.98-.52.64-.78 1.5534-.78 2.74 0 1.2.253 2.12.76 2.76.52.64 1.26.96 2.22.96zm11.954-8.78c2.333 0 3.5 1.2867 3.5 3.86v5.42c0 .2534-.074.4534-.22.6-.134.1334-.327.2-.58.2-.254 0-.454-.0666-.6-.2-.147-.1466-.22-.3466-.22-.6v-5.32c0-.9066-.18-1.5666-.54-1.98-.347-.4133-.907-.62-1.68-.62-.894 0-1.607.2734-2.14.82-.534.5467-.8 1.2867-.8 2.22v4.88c0 .2534-.074.4534-.22.6-.134.1334-.327.2-.58.2-.254 0-.454-.0666-.6-.2-.147-.1466-.22-.3466-.22-.6v-8.44c0-.24.073-.4333.22-.58.146-.1466.346-.22.6-.22.24 0 .426.0734.56.22.146.1467.22.3334.22.56v1.02c.32-.6.766-1.0533 1.34-1.36.573-.32 1.226-.48 1.96-.48zm24.943.56c.133-.32.353-.48.66-.48.2 0 .38.0667.54.2.16.1334.24.3.24.5 0 .0934-.02.1934-.06.3l-3.32 8.4c-.08.1734-.2.3134-.36.42-.147.0934-.313.14-.5.14-.173 0-.34-.0466-.5-.14-.147-.1066-.26-.2466-.34-.42l-2.76-7.02-2.74 7.02c-.067.1734-.18.3134-.34.42-.16.0934-.333.14-.52.14-.173 0-.34-.0466-.5-.14-.16-.1066-.28-.2466-.36-.42l-3.32-8.38c-.04-.1066-.06-.2-.06-.28 0-.2133.087-.3933.26-.54.187-.1466.387-.22.6-.22.32 0 .547.16.68.48l2.74 7.38 2.82-7.32c.08-.1733.187-.3066.32-.4.147-.0933.3-.14.46-.14.173 0 .327.0467.46.14.147.0934.253.2267.32.4l2.82 7.3zm8.69-.56c1.147 0 2.013.3267 2.6.98.587.64.88 1.6.88 2.88v5.42c0 .2534-.073.4534-.22.6-.147.1334-.34.2-.58.2-.253 0-.453-.0666-.6-.2-.147-.1466-.22-.3466-.22-.6v-5.38c0-.8666-.18-1.5066-.54-1.92-.347-.4133-.907-.62-1.68-.62-.893 0-1.607.2734-2.14.82-.533.5467-.8 1.2867-.8 2.22v4.88c0 .2534-.073.4534-.22.6-.133.1334-.327.2-.58.2s-.453-.0666-.6-.2c-.147-.1466-.22-.3466-.22-.6v-12.72c0-.2266.073-.4133.22-.56.16-.1466.36-.22.6-.22.253 0 .447.0734.58.22.147.1334.22.32.22.56v5.24c.32-.5866.767-1.0333 1.34-1.34.573-.3066 1.227-.46 1.96-.46zm10.487 10.12c-.92 0-1.733-.2066-2.44-.62-.693-.4133-1.233-1-1.62-1.76-.373-.7733-.56-1.6666-.56-2.68 0-1.0133.187-1.9.56-2.66.387-.7733.927-1.3666 1.62-1.78.707-.4133 1.52-.62 2.44-.62s1.733.2067 2.44.62c.707.4134 1.247 1.0067 1.62 1.78.387.76.58 1.6467.58 2.66 0 1.0134-.193 1.9067-.58 2.68-.373.76-.913 1.3467-1.62 1.76-.707.4134-1.52.62-2.44.62zm0-1.34c.96 0 1.693-.3133 2.2-.94.52-.64.78-1.5666.78-2.78 0-1.1866-.26-2.1-.78-2.74-.52-.6533-1.253-.98-2.2-.98s-1.68.3267-2.2.98c-.52.64-.78 1.5534-.78 2.74 0 1.2.253 2.12.76 2.76.52.64 1.26.96 2.22.96zm16.51-11.62c-.707.0534-1.24.28-1.6.68-.36.3867-.54.9734-.54 1.76v.64h2.22c.227 0 .4.06.52.18s.18.28.18.48-.06.3534-.18.46c-.12.1067-.293.16-.52.16h-2.22v7.76c0 .2534-.08.4534-.24.6-.147.1334-.333.2-.56.2-.24 0-.44-.0666-.6-.2-.147-.1466-.22-.3466-.22-.6v-7.76h-1.34c-.227 0-.407-.0533-.54-.16-.12-.12-.18-.2733-.18-.46 0-.2.06-.36.18-.48.133-.12.313-.18.54-.18h1.34v-.36c0-1.2.3-2.14.9-2.82.6-.6933 1.46-1.08 2.58-1.16l.52-.04c.347-.0266.593.0067.74.1.16.0934.24.26.24.5 0 .3867-.233.6067-.7.66zm6.205 12.96c-.92 0-1.733-.2066-2.44-.62-.693-.4133-1.233-1-1.62-1.76-.373-.7733-.56-1.6666-.56-2.68 0-1.0133.187-1.9.56-2.66.387-.7733.927-1.3666 1.62-1.78.707-.4133 1.52-.62 2.44-.62s1.733.2067 2.44.62c.707.4134 1.247 1.0067 1.62 1.78.387.76.58 1.6467.58 2.66 0 1.0134-.193 1.9067-.58 2.68-.373.76-.913 1.3467-1.62 1.76-.707.4134-1.52.62-2.44.62zm0-1.34c.96 0 1.693-.3133 2.2-.94.52-.64.78-1.5666.78-2.78 0-1.1866-.26-2.1-.78-2.74-.52-.6533-1.253-.98-2.2-.98s-1.68.3267-2.2.98c-.52.64-.78 1.5534-.78 2.74 0 1.2.253 2.12.76 2.76.52.64 1.26.96 2.22.96zm11.874-8.74c.56-.04.84.1867.84.68 0 .2134-.06.3867-.18.52-.12.12-.327.1934-.62.22l-.6.06c-.894.08-1.56.4-2 .96-.427.5467-.64 1.1934-.64 1.94v4.86c0 .2667-.074.4667-.22.6-.147.1334-.34.2-.58.2s-.44-.0666-.6-.2c-.147-.1466-.22-.3466-.22-.6v-8.44c0-.2533.08-.4466.24-.58.16-.1466.353-.22.58-.22.213 0 .393.0734.54.22.146.1334.22.32.22.56v1.12c.28-.5866.673-1.0333 1.18-1.34.52-.3066 1.113-.4866 1.78-.54zm9.935 0c.253 0 .453.0734.6.22.147.1467.22.34.22.58v8.48c0 1.4534-.373 2.5467-1.12 3.28-.747.7467-1.853 1.12-3.32 1.12-1.427 0-2.613-.28-3.56-.84-.48-.2666-.72-.5733-.72-.92 0-.1866.047-.34.14-.46.107-.12.24-.18.4-.18.133 0 .373.0934.72.28.467.24.927.4334 1.38.58.453.1467.993.22 1.62.22.947 0 1.66-.2533 2.14-.76.48-.4933.72-1.22.72-2.18v-1.72c-.28.6267-.713 1.1067-1.3 1.44-.573.3334-1.253.5-2.04.5-.853 0-1.613-.2-2.28-.6-.653-.4-1.167-.9666-1.54-1.7-.36-.7333-.54-1.58-.54-2.54s.18-1.8066.54-2.54c.373-.7333.887-1.3 1.54-1.7.667-.4 1.427-.6 2.28-.6.773 0 1.447.1667 2.02.5.573.3334 1.007.8067 1.3 1.42v-1.08c0-.24.067-.4333.2-.58.147-.1466.347-.22.6-.22zm-3.8 8.3c.933 0 1.667-.3066 2.2-.92.533-.6266.8-1.4866.8-2.58 0-1.08-.267-1.9266-.8-2.54-.52-.6266-1.253-.94-2.2-.94s-1.693.3134-2.24.94c-.533.6134-.8 1.46-.8 2.54 0 1.0934.267 1.9534.8 2.58.547.6134 1.293.92 2.24.92zm15.159-.62c.147 0 .273.06.38.18s.16.2734.16.46c0 .3334-.233.64-.7.92-.48.28-.987.4934-1.52.64-.533.1334-1.053.2-1.56.2-1.507 0-2.7-.4466-3.58-1.34-.867-.8933-1.3-2.1266-1.3-3.7 0-1 .193-1.88.58-2.64.387-.7733.927-1.3733 1.62-1.8.707-.4266 1.507-.64 2.4-.64 1.267 0 2.273.4134 3.02 1.24.747.8267 1.12 1.9467 1.12 3.36 0 .2667-.053.46-.16.58s-.28.18-.52.18h-6.44c.12 2.2934 1.207 3.44 3.26 3.44.52 0 .967-.0666 1.34-.2.373-.1466.773-.34 1.2-.58.347-.2.58-.3.7-.3zm-3.5-6.46c-.853 0-1.54.2667-2.06.8-.507.5334-.807 1.2867-.9 2.26h5.66c-.027-.9866-.273-1.74-.74-2.26-.467-.5333-1.12-.8-1.96-.8zm10.948 7.54c.467.04.7.2534.7.64 0 .2267-.087.4-.26.52-.16.1067-.407.1467-.74.12l-.54-.04c-1.067-.08-1.853-.4-2.36-.96s-.76-1.4066-.76-2.54v-5.02h-1.34c-.227 0-.407-.0533-.54-.16-.12-.12-.18-.2733-.18-.46 0-.2.06-.36.18-.48.133-.12.313-.18.54-.18h1.34v-2.26c0-.2533.073-.4466.22-.58.147-.1466.347-.22.6-.22.24 0 .433.0734.58.22.147.1334.22.3267.22.58v2.26h2.22c.213 0 .38.06.5.18.133.12.2.28.2.48 0 .1867-.067.34-.2.46-.12.1067-.287.16-.5.16h-2.22v5.1c0 .7334.147 1.2667.44 1.6.307.32.76.5 1.36.54zm5.577 1.32c-.613 0-1.2-.0733-1.76-.22-.547-.1466-1.033-.3533-1.46-.62-.24-.16-.413-.3066-.52-.44-.093-.1466-.14-.32-.14-.52 0-.1733.047-.3133.14-.42.107-.12.24-.18.4-.18s.393.1.7.3c.4.24.793.4334 1.18.58.4.1334.893.2 1.48.2.72 0 1.28-.1266 1.68-.38.4-.2533.6-.62.6-1.1 0-.2933-.073-.5266-.22-.7-.147-.1866-.4-.3466-.76-.48-.36-.1466-.887-.2933-1.58-.44-1.173-.2533-2.013-.5933-2.52-1.02-.507-.4266-.76-1.0066-.76-1.74 0-.5733.16-1.08.48-1.52s.76-.7866 1.32-1.04c.573-.2533 1.22-.38 1.94-.38.52 0 1.02.0734 1.5.22.493.1334.927.3267 1.3.58.453.32.68.6534.68 1 0 .1734-.053.32-.16.44s-.233.18-.38.18c-.16 0-.4-.1133-.72-.34-.373-.24-.727-.4266-1.06-.56-.333-.1333-.747-.2-1.24-.2-.627 0-1.133.14-1.52.42-.373.28-.56.6534-.56 1.12 0 .2934.067.5334.2.72.147.1734.38.3334.7.48.333.1334.807.2667 1.42.4.907.2 1.607.42 2.1.66.507.24.867.5334 1.08.88.213.3467.32.7867.32 1.32 0 .84-.353 1.52-1.06 2.04-.707.5067-1.64.76-2.8.76zm15.986-1.32c.466.04.7.2534.7.64 0 .2267-.087.4-.26.52-.16.1067-.407.1467-.74.12l-.54-.04c-1.067-.08-1.854-.4-2.36-.96-.507-.56-.76-1.4066-.76-2.54v-5.02h-1.34c-.227 0-.407-.0533-.54-.16-.12-.12-.18-.2733-.18-.46 0-.2.06-.36.18-.48.133-.12.313-.18.54-.18h1.34v-2.26c0-.2533.073-.4466.22-.58.146-.1466.346-.22.6-.22.24 0 .433.0734.58.22.146.1334.22.3267.22.58v2.26h2.22c.213 0 .38.06.5.18.133.12.2.28.2.48 0 .1867-.067.34-.2.46-.12.1067-.287.16-.5.16h-2.22v5.1c0 .7334.146 1.2667.44 1.6.306.32.76.5 1.36.54zm6.337 1.32c-.92 0-1.734-.2066-2.44-.62-.694-.4133-1.234-1-1.62-1.76-.374-.7733-.56-1.6666-.56-2.68 0-1.0133.186-1.9.56-2.66.386-.7733.926-1.3666 1.62-1.78.706-.4133 1.52-.62 2.44-.62s1.733.2067 2.44.62c.706.4134 1.246 1.0067 1.62 1.78.386.76.58 1.6467.58 2.66 0 1.0134-.194 1.9067-.58 2.68-.374.76-.914 1.3467-1.62 1.76-.707.4134-1.52.62-2.44.62zm0-1.34c.96 0 1.693-.3133 2.2-.94.52-.64.78-1.5666.78-2.78 0-1.1866-.26-2.1-.78-2.74-.52-.6533-1.254-.98-2.2-.98-.947 0-1.68.3267-2.2.98-.52.64-.78 1.5534-.78 2.74 0 1.2.253 2.12.76 2.76.52.64 1.26.96 2.22.96zm22.79-12.58c.066-.1466.16-.26.28-.34.133-.08.273-.12.42-.12.213 0 .4.0734.56.22.173.1334.26.3.26.5 0 .1067-.027.2134-.08.32l-5.74 12.76c-.08.1734-.2.3067-.36.4-.16.0934-.334.14-.52.14-.187 0-.36-.0466-.52-.14-.16-.0933-.28-.2266-.36-.4l-5.72-12.76c-.04-.1066-.06-.2066-.06-.3 0-.2133.086-.3866.26-.52.173-.1466.366-.22.58-.22.32 0 .553.1534.7.46l5.16 11.66zm9.674 11.52c.147 0 .274.06.38.18.107.12.16.2734.16.46 0 .3334-.233.64-.7.92-.48.28-.986.4934-1.52.64-.533.1334-1.053.2-1.56.2-1.506 0-2.7-.4466-3.58-1.34-.866-.8933-1.3-2.1266-1.3-3.7 0-1 .194-1.88.58-2.64.387-.7733.927-1.3733 1.62-1.8.707-.4266 1.507-.64 2.4-.64 1.267 0 2.274.4134 3.02 1.24.747.8267 1.12 1.9467 1.12 3.36 0 .2667-.053.46-.16.58-.106.12-.28.18-.52.18h-6.44c.12 2.2934 1.207 3.44 3.26 3.44.52 0 .967-.0666 1.34-.2.374-.1466.774-.34 1.2-.58.347-.2.58-.3.7-.3zm-3.5-6.46c-.853 0-1.54.2667-2.06.8-.506.5334-.806 1.2867-.9 2.26h5.66c-.026-.9866-.273-1.74-.74-2.26-.466-.5333-1.12-.8-1.96-.8zm11.407-1.26c2.334 0 3.5 1.2867 3.5 3.86v5.42c0 .2534-.073.4534-.22.6-.133.1334-.326.2-.58.2-.253 0-.453-.0666-.6-.2-.146-.1466-.22-.3466-.22-.6v-5.32c0-.9066-.18-1.5666-.54-1.98-.346-.4133-.906-.62-1.68-.62-.893 0-1.606.2734-2.14.82-.533.5467-.8 1.2867-.8 2.22v4.88c0 .2534-.073.4534-.22.6-.133.1334-.326.2-.58.2-.253 0-.453-.0666-.6-.2-.146-.1466-.22-.3466-.22-.6v-8.44c0-.24.074-.4333.22-.58.147-.1466.347-.22.6-.22.24 0 .427.0734.56.22.147.1467.22.3334.22.56v1.02c.32-.6.767-1.0533 1.34-1.36.574-.32 1.227-.48 1.96-.48zm17.307 0c2.16 0 3.24 1.2867 3.24 3.86v5.42c0 .2534-.073.4534-.22.6-.146.1334-.34.2-.58.2s-.44-.0666-.6-.2c-.146-.1466-.22-.3466-.22-.6v-5.38c0-.8933-.16-1.54-.48-1.94s-.82-.6-1.5-.6c-.813 0-1.453.2734-1.92.82-.466.5467-.7 1.2867-.7 2.22v4.88c0 .2534-.08.4534-.24.6-.146.1334-.34.2-.58.2s-.433-.0666-.58-.2c-.146-.1466-.22-.3466-.22-.6v-5.38c0-.8933-.16-1.54-.48-1.94s-.826-.6-1.52-.6c-.8 0-1.44.2734-1.92.82-.466.5467-.7 1.2867-.7 2.22v4.88c0 .2534-.073.4534-.22.6-.146.1334-.34.2-.58.2s-.44-.0666-.6-.2c-.146-.1466-.22-.3466-.22-.6v-8.44c0-.24.074-.4333.22-.58.16-.1466.36-.22.6-.22.227 0 .414.0734.56.22.147.1334.22.32.22.56v.96c.294-.5733.7-1.0133 1.22-1.32.52-.3066 1.12-.46 1.8-.46 1.52 0 2.514.64 2.98 1.92.28-.5866.707-1.0533 1.28-1.4.574-.3466 1.227-.52 1.96-.52zm10.232 10.12c-.92 0-1.734-.2066-2.44-.62-.694-.4133-1.234-1-1.62-1.76-.374-.7733-.56-1.6666-.56-2.68 0-1.0133.186-1.9.56-2.66.386-.7733.926-1.3666 1.62-1.78.706-.4133 1.52-.62 2.44-.62s1.733.2067 2.44.62c.706.4134 1.246 1.0067 1.62 1.78.386.76.58 1.6467.58 2.66 0 1.0134-.194 1.9067-.58 2.68-.374.76-.914 1.3467-1.62 1.76-.707.4134-1.52.62-2.44.62zm0-1.34c.96 0 1.693-.3133 2.2-.94.52-.64.78-1.5666.78-2.78 0-1.1866-.26-2.1-.78-2.74-.52-.6533-1.254-.98-2.2-.98-.947 0-1.68.3267-2.2.98-.52.64-.78 1.5534-.78 2.74 0 1.2.253 2.12.76 2.76.52.64 1.26.96 2.22.96zm-409.101 18.22c.853 0 1.606.2134 2.26.64.653.4267 1.16 1.0267 1.52 1.8.36.76.54 1.6467.54 2.66 0 1.0134-.18 1.9-.54 2.66-.36.7467-.867 1.3267-1.52 1.74-.64.4134-1.394.62-2.26.62-.76 0-1.427-.1666-2-.5-.56-.3333-.987-.8066-1.28-1.42v4.7c0 .24-.074.4267-.22.56-.134.1467-.327.22-.58.22-.254 0-.454-.0733-.6-.22-.147-.1466-.22-.3333-.22-.56v-12.06c0-.24.073-.4333.22-.58.146-.1466.346-.22.6-.22.253 0 .446.0734.58.22.146.1467.22.34.22.58v1.08c.293-.6133.72-1.0866 1.28-1.42.573-.3333 1.24-.5 2-.5zm-.32 8.78c.946 0 1.68-.32 2.2-.96s.78-1.5466.78-2.72c0-1.1733-.26-2.0866-.78-2.74-.52-.6666-1.254-1-2.2-1-.947 0-1.68.32-2.2.96-.507.64-.76 1.5534-.76 2.74 0 1.1867.253 2.1067.76 2.76.52.64 1.253.96 2.2.96zm14.6-1.06c.147 0 .274.06.38.18.107.12.16.2734.16.46 0 .3334-.233.64-.7.92-.48.28-.986.4934-1.52.64-.533.1334-1.053.2-1.56.2-1.506 0-2.7-.4466-3.58-1.34-.866-.8933-1.3-2.1266-1.3-3.7 0-1 .194-1.88.58-2.64.387-.7733.927-1.3733 1.62-1.8.707-.4266 1.507-.64 2.4-.64 1.267 0 2.274.4134 3.02 1.24.747.8267 1.12 1.9467 1.12 3.36 0 .2667-.053.46-.16.58-.106.12-.28.18-.52.18h-6.44c.12 2.2934 1.207 3.44 3.26 3.44.52 0 .967-.0666 1.34-.2.374-.1466.774-.34 1.2-.58.347-.2.58-.3.7-.3zm-3.5-6.46c-.853 0-1.54.2667-2.06.8-.506.5334-.806 1.2867-.9 2.26h5.66c-.026-.9866-.273-1.74-.74-2.26-.466-.5333-1.12-.8-1.96-.8zm10.547 8.86c-.92 0-1.733-.2066-2.44-.62-.693-.4133-1.233-1-1.62-1.76-.373-.7733-.56-1.6666-.56-2.68 0-1.0133.187-1.9.56-2.66.387-.7733.927-1.3666 1.62-1.78.707-.4133 1.52-.62 2.44-.62s1.734.2067 2.44.62c.707.4134 1.247 1.0067 1.62 1.78.387.76.58 1.6467.58 2.66 0 1.0134-.193 1.9067-.58 2.68-.373.76-.913 1.3467-1.62 1.76-.706.4134-1.52.62-2.44.62zm0-1.34c.96 0 1.694-.3133 2.2-.94.52-.64.78-1.5666.78-2.78 0-1.1866-.26-2.1-.78-2.74-.52-.6533-1.253-.98-2.2-.98-.946 0-1.68.3267-2.2.98-.52.64-.78 1.5534-.78 2.74 0 1.2.254 2.12.76 2.76.52.64 1.26.96 2.22.96zm11.954-8.78c.853 0 1.607.2134 2.26.64.653.4267 1.16 1.0267 1.52 1.8.36.76.54 1.6467.54 2.66 0 1.0134-.18 1.9-.54 2.66-.36.7467-.867 1.3267-1.52 1.74-.64.4134-1.393.62-2.26.62-.76 0-1.427-.1666-2-.5-.56-.3333-.987-.8066-1.28-1.42v4.7c0 .24-.073.4267-.22.56-.133.1467-.327.22-.58.22s-.453-.0733-.6-.22c-.147-.1466-.22-.3333-.22-.56v-12.06c0-.24.073-.4333.22-.58.147-.1466.347-.22.6-.22s.447.0734.58.22c.147.1467.22.34.22.58v1.08c.293-.6133.72-1.0866 1.28-1.42.573-.3333 1.24-.5 2-.5zm-.32 8.78c.947 0 1.68-.32 2.2-.96s.78-1.5466.78-2.72c0-1.1733-.26-2.0866-.78-2.74-.52-.6666-1.253-1-2.2-1s-1.68.32-2.2.96c-.507.64-.76 1.5534-.76 2.74 0 1.1867.253 2.1067.76 2.76.52.64 1.253.96 2.2.96zm7.881 1.3c-.24 0-.44-.0666-.6-.2-.147-.1466-.22-.3466-.22-.6v-12.7c0-.2533.073-.4466.22-.58.16-.1466.36-.22.6-.22.226 0 .413.0734.56.22.16.1334.24.3267.24.58v12.7c0 .2534-.08.4534-.24.6-.147.1334-.334.2-.56.2zm11.368-2.36c.147 0 .273.06.38.18s.16.2734.16.46c0 .3334-.233.64-.7.92-.48.28-.987.4934-1.52.64-.533.1334-1.053.2-1.56.2-1.507 0-2.7-.4466-3.58-1.34-.867-.8933-1.3-2.1266-1.3-3.7 0-1 .193-1.88.58-2.64.387-.7733.927-1.3733 1.62-1.8.707-.4266 1.507-.64 2.4-.64 1.267 0 2.273.4134 3.02 1.24.747.8267 1.12 1.9467 1.12 3.36 0 .2667-.053.46-.16.58s-.28.18-.52.18h-6.44c.12 2.2934 1.207 3.44 3.26 3.44.52 0 .967-.0666 1.34-.2.373-.1466.773-.34 1.2-.58.347-.2.58-.3.7-.3zm-3.5-6.46c-.853 0-1.54.2667-2.06.8-.507.5334-.807 1.2867-.9 2.26h5.66c-.027-.9866-.273-1.74-.74-2.26-.467-.5333-1.12-.8-1.96-.8zm6.681-5.48c.333 0 .6.1334.8.4.213.2534.32.64.32 1.16 0 1.0534-.34 1.94-1.02 2.66-.133.1334-.28.2-.44.2-.147 0-.273-.0466-.38-.14-.107-.1066-.16-.2266-.16-.36 0-.1466.053-.2733.16-.38.347-.3466.567-.7866.66-1.32-.293-.0266-.54-.14-.74-.34-.187-.2-.28-.4533-.28-.76 0-.3333.1-.6.3-.8.213-.2133.473-.32.78-.32zm3.32 0c.333 0 .6.1334.8.4.213.2534.32.64.32 1.16 0 1.0534-.34 1.94-1.02 2.66-.133.1334-.28.2-.44.2-.147 0-.273-.0466-.38-.14-.107-.1066-.16-.2266-.16-.36 0-.1466.053-.2733.16-.38.347-.3466.567-.7866.66-1.32-.293-.0266-.54-.14-.74-.34-.187-.2-.28-.4533-.28-.76 0-.3333.1-.6.3-.8.213-.2133.473-.32.78-.32z" fill="#fff"/><path d="m105.928 1.39417h431.42v83.0106h-431.42z" stroke="#ab8602" stroke-width=".805851"/><path d="m557 21.0468c0-10.8538-8.799-19.65263-19.653-19.65263v28.44463h19.653z" fill="#ab8602" stroke="#ab8602" stroke-width=".805851"/><path d="m0 0h19.6526v26.1214h-19.6526z" fill="#ab8602" stroke="#ab8602" stroke-width=".805851" transform="matrix(-1 0 0 1 557 29.8387)"/><path d="m557 64.7523c0 10.8538-8.799 19.6526-19.653 19.6526v-28.4446h19.653z" fill="#ab8602" stroke="#ab8602" stroke-width=".805851"/></svg>