<svg fill="none" height="232" viewBox="0 0 2333 232" width="2333" xmlns="http://www.w3.org/2000/svg"><rect fill="#00d563" height="50" rx="25" width="150" x="1838" y="68"/><path d="m1899.05 88.796h3c.53 0 1 .0477 1.43.143.42.0953.79.2513 1.09.468s.54.494.7.832c.17.338.25.7453.25 1.222 0 .5113-.1.9403-.29 1.287s-.45.6283-.78.845c-.32.208-.69.3597-1.13.455-.43.0953-.89.143-1.37.143h-1.27v3.809h-1.63zm2.78 4.017c.27 0 .52-.0173.77-.052.24-.0433.45-.1127.65-.208.19-.104.34-.2427.45-.416s.17-.3987.17-.676c0-.2687-.06-.4853-.17-.65-.11-.1733-.26-.3077-.45-.403s-.4-.156-.64-.182c-.24-.0347-.48-.052-.73-.052h-1.2v2.639zm7.26-4.017h1.42l3.96 9.204h-1.87l-.86-2.106h-3.99l-.83 2.106h-1.83zm2.08 5.694-1.41-3.744-1.45 3.744zm4.22-5.694h1.63v9.204h-1.63zm3.66 0h3.27c.6 0 1.2.078 1.8.234.61.156 1.16.416 1.64.78.49.3553.88.8277 1.19 1.417.3.5807.45 1.3043.45 2.171 0 .806-.15 1.4993-.45 2.08-.31.5807-.7 1.0573-1.19 1.43-.48.3727-1.03.65-1.64.832-.6.1733-1.2.26-1.8.26h-3.27zm3.01 7.774c.42 0 .85-.0477 1.27-.143.43-.104.81-.273 1.15-.507.34-.2427.62-.5677.84-.975s.33-.923.33-1.547c0-.6587-.11-1.196-.33-1.612s-.5-.741-.84-.975-.72-.3943-1.15-.481c-.42-.0867-.85-.13-1.27-.13h-1.37v6.37z" fill="#fff"/><path d="m573.881 31.0116-47.675 121.7604c-.776 2.041.732 4.228 2.917 4.228h178.08c1.295 0 2.456-.801 2.916-2.012l47.675-121.7596c.776-2.0418-.732-4.2284-2.917-4.2284h-178.08c-1.295 0-2.456.8006-2.916 2.0116z" fill="#cecccc"/><path d="m600.962 51.3636h-1.755v11.6364h1.755zm3.944 6.4546c0-1.3921.852-2.1875 2.034-2.1875 1.153 0 1.852.7557 1.852 2.0227v5.3466h1.699v-5.5511c0-2.1591-1.188-3.2898-2.972-3.2898-1.312 0-2.17.6079-2.574 1.5341h-.107v-1.4205h-1.631v8.7273h1.699zm7.687 8.4545h1.699v-4.6307h.102c.307.5569.932 1.5285 2.523 1.5285 2.114 0 3.648-1.6932 3.648-4.5171 0-2.8295-1.557-4.4943-3.665-4.4943-1.619 0-2.204.9886-2.506 1.5284h-.142v-1.4148h-1.659zm1.665-7.6363c0-1.8239.796-3.0341 2.279-3.0341 1.539 0 2.312 1.3011 2.312 3.0341 0 1.75-.795 3.0852-2.312 3.0852-1.461 0-2.279-1.25-2.279-3.0852zm13.563.7443c.005 1.4829-1.097 2.1875-2.051 2.1875-1.052 0-1.779-.7614-1.779-1.9489v-5.3466h-1.699v5.5512c0 2.1647 1.188 3.2897 2.864 3.2897 1.312 0 2.205-.6931 2.608-1.625h.091v1.5114h1.67v-8.7273h-1.704zm7.885-5.108h-1.79v-2.0909h-1.699v2.0909h-1.278v1.3637h1.278v5.1534c-.005 1.5852 1.205 2.3522 2.546 2.3238.539-.0056.903-.1079 1.102-.1818l-.307-1.4034c-.114.0227-.324.0739-.596.0739-.552 0-1.046-.1818-1.046-1.1648v-4.8011h1.79zm7.46 3.5455c0-1.3921.853-2.1875 2.034-2.1875 1.154 0 1.853.7557 1.853 2.0227v5.3466h1.699v-5.5511c0-2.1591-1.188-3.2898-2.972-3.2898-1.313 0-2.17.6079-2.574 1.5341h-.108v-1.4205h-1.631v8.7273h1.699zm10.228 5.375c1.443 0 2.255-.733 2.579-1.3864h.068v1.1932h1.66v-5.7955c0-2.5397-2-3.0454-3.387-3.0454-1.579 0-3.034.6364-3.602 2.2273l1.597.3636c.25-.6193.886-1.2159 2.028-1.2159 1.097 0 1.659.5739 1.659 1.5625v.0398c0 .6193-.636.6079-2.205.7897-1.653.1932-3.346.625-3.346 2.608 0 1.7159 1.29 2.6591 2.949 2.6591zm.369-1.3637c-.96 0-1.653-.4318-1.653-1.2727 0-.9091.806-1.2329 1.789-1.3636.552-.0739 1.858-.2216 2.103-.4659v1.125c0 1.0341-.824 1.9772-2.239 1.9772zm6.024 1.1705h1.699v-5.3807c0-1.1761.824-1.9943 1.79-1.9943.943 0 1.597.625 1.597 1.5739v5.8011h1.693v-5.5625c0-1.0511.642-1.8125 1.75-1.8125.897 0 1.636.5 1.636 1.6818v5.6932h1.699v-5.8523c0-1.9943-1.114-2.9886-2.693-2.9886-1.256 0-2.199.6023-2.62 1.5341h-.09c-.381-.9546-1.182-1.5341-2.347-1.5341-1.153 0-2.011.5739-2.375 1.5341h-.108v-1.4205h-1.631zm17.726.1761c1.904 0 3.25-.9375 3.637-2.3579l-1.608-.2898c-.307.8239-1.046 1.2443-2.012 1.2443-1.454 0-2.431-.9432-2.477-2.625h6.205v-.6022c0-3.1535-1.887-4.3864-3.864-4.3864-2.432 0-4.034 1.8523-4.034 4.5341 0 2.7102 1.579 4.4829 4.153 4.4829zm-2.454-5.3011c.068-1.2386.966-2.3125 2.346-2.3125 1.319 0 2.182.9773 2.188 2.3125zm10.118 3.5341h-1.637l-.056.6364c-.131 1.5397-.495 3.0909-.648 3.7954h1.204c.273-.7443.875-2.4489 1.052-3.8125zm-70.052 25.7841c1.443 0 2.256-.733 2.58-1.3864h.068v1.1932h1.659v-5.7955c0-2.5397-2-3.0454-3.386-3.0454-1.58 0-3.034.6364-3.603 2.2273l1.597.3636c.25-.6193.886-1.2159 2.028-1.2159 1.097 0 1.66.5739 1.66 1.5625v.0398c0 .6193-.637.6079-2.205.7897-1.653.1932-3.347.625-3.347 2.608 0 1.7159 1.29 2.6591 2.949 2.6591zm.37-1.3637c-.961 0-1.654-.4318-1.654-1.2727 0-.9091.807-1.2329 1.79-1.3636.551-.0739 1.858-.2216 2.102-.4659v1.125c0 1.0341-.824 1.9772-2.238 1.9772zm6.024 1.1705h1.699v-5.3807c0-1.1761.824-1.9943 1.79-1.9943.943 0 1.596.625 1.596 1.5739v5.8011h1.693v-5.5625c0-1.0511.642-1.8125 1.75-1.8125.898 0 1.637.5 1.637 1.6818v5.6932h1.699v-5.8523c0-1.9943-1.114-2.9886-2.694-2.9886-1.255 0-2.198.6023-2.619 1.5341h-.091c-.381-.9546-1.182-1.5341-2.346-1.5341-1.154 0-2.012.5739-2.375 1.5341h-.108v-1.4205h-1.631zm17.641.1761c2.46 0 4.068-1.8011 4.068-4.5 0-2.7159-1.608-4.517-4.068-4.517-2.461 0-4.069 1.8011-4.069 4.517 0 2.6989 1.608 4.5 4.069 4.5zm.005-1.4261c-1.608 0-2.358-1.4034-2.358-3.0795 0-1.6705.75-3.091 2.358-3.091 1.597 0 2.347 1.4205 2.347 3.091 0 1.6761-.75 3.0795-2.347 3.0795zm11.312-2.3693c.005 1.4829-1.097 2.1875-2.052 2.1875-1.051 0-1.778-.7614-1.778-1.9489v-5.3466h-1.699v5.5512c0 2.1647 1.188 3.2897 2.864 3.2897 1.312 0 2.204-.6931 2.608-1.625h.091v1.5114h1.67v-8.7273h-1.704zm5.51-1.5625c0-1.3921.852-2.1875 2.034-2.1875 1.153 0 1.852.7557 1.852 2.0227v5.3466h1.699v-5.5511c0-2.1591-1.188-3.2898-2.972-3.2898-1.312 0-2.17.6079-2.574 1.5341h-.108v-1.4205h-1.63v8.7273h1.699zm11.761-3.5455h-1.79v-2.0909h-1.698v2.0909h-1.279v1.3637h1.279v5.1534c-.006 1.5852 1.204 2.3522 2.545 2.3238.54-.0056.903-.1079 1.102-.1818l-.307-1.4034c-.113.0227-.323.0739-.596.0739-.551 0-1.046-.1818-1.046-1.1648v-4.8011h1.79zm3.914 7.1364h-1.637l-.057.6364c-.13 1.5397-.494 3.0909-.647 3.7954h1.204c.273-.7443.875-2.4489 1.051-3.8125zm-57.299 20.4089c0-1.392.852-2.187 2.034-2.187 1.153 0 1.852.755 1.852 2.022v5.347h1.699v-5.551c0-2.159-1.188-3.29-2.972-3.29-1.312 0-2.17.608-2.574 1.534h-.108v-1.42h-1.63v8.727h1.699zm13.216 1.563c.005 1.483-1.097 2.187-2.052 2.187-1.051 0-1.778-.761-1.778-1.949v-5.346h-1.699v5.551c0 2.165 1.188 3.29 2.864 3.29 1.312 0 2.204-.694 2.608-1.625h.091v1.511h1.67v-8.727h-1.704zm3.811 3.619h1.699v-5.381c0-1.176.824-1.994 1.789-1.994.944 0 1.597.625 1.597 1.574v5.801h1.693v-5.562c0-1.052.642-1.813 1.75-1.813.898 0 1.637.5 1.637 1.682v5.693h1.698v-5.852c0-1.995-1.113-2.989-2.693-2.989-1.255 0-2.199.602-2.619 1.534h-.091c-.381-.954-1.182-1.534-2.347-1.534-1.153 0-2.011.574-2.375 1.534h-.108v-1.42h-1.63zm14.101 0h1.659v-1.358h.142c.307.557.932 1.528 2.523 1.528 2.113 0 3.647-1.693 3.647-4.517 0-2.829-1.556-4.494-3.664-4.494-1.62 0-2.205.989-2.506 1.529h-.102v-4.3244h-1.699zm1.665-4.364c0-1.824.795-3.034 2.278-3.034 1.54 0 2.312 1.301 2.312 3.034 0 1.75-.795 3.086-2.312 3.086-1.46 0-2.278-1.25-2.278-3.086zm11.799 4.54c1.904 0 3.25-.937 3.637-2.358l-1.608-.29c-.307.824-1.046 1.245-2.012 1.245-1.454 0-2.431-.943-2.477-2.625h6.205v-.603c0-3.153-1.887-4.386-3.864-4.386-2.432 0-4.034 1.852-4.034 4.534 0 2.71 1.58 4.483 4.153 4.483zm-2.454-5.301c.068-1.239.966-2.313 2.346-2.313 1.319 0 2.182.978 2.188 2.313zm7.908 5.125h1.699v-5.33c0-1.142.88-1.965 2.085-1.965.352 0 .75.062.886.102v-1.625c-.17-.023-.506-.04-.721-.04-1.023 0-1.898.58-2.216 1.517h-.091v-1.386h-1.642zm7.175-1.591h-1.637l-.057.636c-.13 1.54-.494 3.091-.647 3.796h1.204c.273-.744.875-2.449 1.051-3.813zm-77.365 28.864h1.699v-4.631h.102c.307.557.932 1.528 2.523 1.528 2.113 0 3.647-1.693 3.647-4.517 0-2.829-1.556-4.494-3.664-4.494-1.62 0-2.205.989-2.506 1.529h-.142v-1.415h-1.659zm1.665-7.637c0-1.824.795-3.034 2.278-3.034 1.54 0 2.312 1.301 2.312 3.034 0 1.75-.795 3.086-2.312 3.086-1.46 0-2.278-1.25-2.278-3.086zm10.574 4.557c1.443 0 2.255-.733 2.579-1.386h.068v1.193h1.659v-5.795c0-2.54-2-3.046-3.386-3.046-1.58 0-3.034.636-3.602 2.227l1.596.364c.25-.619.887-1.216 2.029-1.216 1.096 0 1.659.574 1.659 1.563v.039c0 .62-.637.608-2.205.79-1.653.193-3.346.625-3.346 2.608 0 1.716 1.289 2.659 2.949 2.659zm.369-1.363c-.96 0-1.654-.432-1.654-1.273 0-.909.807-1.233 1.79-1.364.551-.074 1.858-.221 2.103-.466v1.125c0 1.034-.824 1.978-2.239 1.978zm6.786 4.443c1.403 0 2.289-.733 2.795-2.108l3.608-9.875-1.835-.017-2.211 6.772h-.09l-2.211-6.772h-1.818l3.193 8.841-.21.579c-.432 1.159-1.04 1.256-1.971 1l-.41 1.392c.205.091.648.188 1.16.188zm7.828-3.273h1.699v-5.381c0-1.176.824-1.994 1.789-1.994.944 0 1.597.625 1.597 1.574v5.801h1.693v-5.562c0-1.052.642-1.813 1.75-1.813.898 0 1.637.5 1.637 1.682v5.693h1.698v-5.852c0-1.995-1.113-2.989-2.693-2.989-1.255 0-2.199.602-2.619 1.534h-.091c-.381-.954-1.182-1.534-2.347-1.534-1.153 0-2.011.574-2.375 1.534h-.108v-1.42h-1.63zm17.726.176c1.903 0 3.25-.937 3.636-2.358l-1.608-.29c-.307.824-1.045 1.245-2.011 1.245-1.455 0-2.432-.943-2.477-2.625h6.204v-.603c0-3.153-1.886-4.386-3.864-4.386-2.431 0-4.034 1.852-4.034 4.534 0 2.71 1.58 4.483 4.154 4.483zm-2.455-5.301c.068-1.239.966-2.313 2.347-2.313 1.318 0 2.182.978 2.187 2.313zm9.607-.057c0-1.392.852-2.187 2.034-2.187 1.153 0 1.852.755 1.852 2.022v5.347h1.699v-5.551c0-2.159-1.187-3.29-2.971-3.29-1.313 0-2.171.608-2.574 1.534h-.108v-1.42h-1.631v8.727h1.699zm11.761-3.545h-1.789v-2.091h-1.699v2.091h-1.279v1.363h1.279v5.154c-.006 1.585 1.204 2.352 2.545 2.324.54-.006.904-.108 1.103-.182l-.307-1.404c-.114.023-.324.074-.597.074-.551 0-1.045-.182-1.045-1.164v-4.802h1.789zm5.762 8.727h1.699v-8.727h-1.699zm.858-10.074c.585 0 1.074-.454 1.074-1.011s-.489-1.017-1.074-1.017c-.591 0-1.074.46-1.074 1.017s.483 1.011 1.074 1.011zm4.649 4.892c0-1.392.853-2.187 2.034-2.187 1.154 0 1.853.755 1.853 2.022v5.347h1.699v-5.551c0-2.159-1.188-3.29-2.972-3.29-1.313 0-2.171.608-2.574 1.534h-.108v-1.42h-1.631v8.727h1.699zm11.841-3.545h-1.88v-.784c0-.773.318-1.194 1.147-1.194.353 0 .603.08.762.131l.397-1.375c-.238-.091-.732-.233-1.42-.233-1.381 0-2.591.807-2.591 2.443v1.012h-1.346v1.363h1.346v7.364h1.705v-7.364h1.88zm4.91 8.903c2.46 0 4.068-1.801 4.068-4.5 0-2.716-1.608-4.517-4.068-4.517-2.461 0-4.069 1.801-4.069 4.517 0 2.699 1.608 4.5 4.069 4.5zm.005-1.426c-1.608 0-2.358-1.403-2.358-3.08 0-1.67.75-3.09 2.358-3.09 1.597 0 2.347 1.42 2.347 3.09 0 1.677-.75 3.08-2.347 3.08z" fill="#333"/><rect fill="#00d563" height="50" rx="25" width="150" x="62" y="68"/><path d="m123.474 90.72c-.174-.2253-.421-.4117-.741-.559-.312-.156-.629-.234-.949-.234-.191 0-.382.026-.572.078-.191.0433-.364.117-.52.221-.156.0953-.286.2253-.39.39-.096.156-.143.3467-.143.572 0 .208.043.3857.13.533.086.1473.203.273.351.377.156.104.342.195.559.273.216.078.455.156.715.234.294.0953.598.2037.91.325.32.1213.611.2817.871.481.268.1993.485.4507.65.754.173.3033.26.6803.26 1.131 0 .494-.091.9273-.273 1.3-.182.364-.425.6673-.728.91-.304.2427-.659.4247-1.066.546-.408.1213-.837.182-1.287.182-.598 0-1.183-.1083-1.755-.325-.572-.2253-1.04-.5547-1.404-.988l1.17-1.092c.225.312.524.559.897.741.381.182.754.273 1.118.273.19 0 .385-.0217.585-.065.199-.052.377-.1343.533-.247.164-.1127.294-.2513.39-.416.104-.1733.156-.3857.156-.637 0-.2427-.057-.442-.169-.598-.113-.1647-.265-.3033-.455-.416-.191-.1213-.416-.2253-.676-.312s-.533-.1777-.819-.273c-.278-.0867-.555-.1907-.832-.312-.278-.1213-.529-.2817-.754-.481-.217-.1993-.395-.442-.533-.728-.139-.2947-.208-.6587-.208-1.092 0-.468.095-.871.286-1.209.199-.338.455-.6153.767-.832.32-.2253.68-.39 1.079-.494.407-.1127.819-.169 1.235-.169.468 0 .94.0823 1.417.247.485.1647.905.4117 1.261.741zm4.427-.494h-2.821v-1.43h7.28v1.43h-2.821v7.774h-1.638zm7.642-1.43h1.417l3.965 9.204h-1.872l-.858-2.106h-3.991l-.832 2.106h-1.833zm2.08 5.694-1.417-3.744-1.443 3.744zm4.212-5.694h3.198c.434 0 .854.0477 1.261.143.408.0867.767.234 1.079.442.321.208.577.481.767.819.191.338.286.7497.286 1.235 0 .6673-.19 1.2133-.572 1.638-.372.416-.884.6977-1.534.845l2.457 4.082h-1.976l-2.132-3.9h-1.196v3.9h-1.638zm2.977 3.965c.234 0 .468-.0173.702-.052s.442-.0997.624-.195c.191-.0953.347-.2297.468-.403.122-.182.182-.4117.182-.689 0-.2513-.056-.455-.169-.611-.112-.1647-.255-.2947-.429-.39-.173-.0953-.372-.1603-.598-.195-.216-.0347-.429-.052-.637-.052h-1.482v2.587zm6.906-2.535h-2.821v-1.43h7.28v1.43h-2.821v7.774h-1.638z" fill="#fff"/><rect fill="#f2f2f2" height="100" rx="20" width="200" x="286" y="43"/><path d="m330.29 82.4062h2.719v7.5938h1.312v-7.5938h2.723v-1.1335h-6.754zm15.465 3.2302c0-2.7912-1.671-4.483-3.929-4.483-2.267 0-3.934 1.6918-3.934 4.483 0 2.7869 1.667 4.4829 3.934 4.4829 2.258 0 3.929-1.6917 3.929-4.4829zm-1.304 0c0 2.1264-1.125 3.2812-2.625 3.2812-1.505 0-2.625-1.1548-2.625-3.2812 0-2.1265 1.12-3.2813 2.625-3.2813 1.5 0 2.625 1.1548 2.625 3.2813zm2.152-3.2302h2.718v7.5938h1.313v-7.5938h2.723v-1.1335h-6.754zm7.941 7.5938.801-2.3097h3.409l.797 2.3097h1.398l-3.141-8.7273h-1.521l-3.141 8.7273zm1.184-3.4176 1.287-3.7244h.068l1.287 3.7244zm6.481 3.4176h5.271v-1.1335h-3.954v-7.5938h-1.317zm17.198-5.8892c-.299-1.8665-1.76-2.9574-3.606-2.9574-2.258 0-3.924 1.6918-3.924 4.483s1.657 4.4829 3.924 4.4829c1.918 0 3.32-1.2017 3.606-2.9275l-1.33-.0043c-.226 1.1165-1.163 1.7301-2.267 1.7301-1.496 0-2.625-1.1463-2.625-3.2812 0-2.1179 1.125-3.2813 2.629-3.2813 1.112 0 2.046.6264 2.263 1.7557zm9.156 1.5256c0-2.7912-1.67-4.483-3.929-4.483-2.267 0-3.933 1.6918-3.933 4.483 0 2.7869 1.666 4.4829 3.933 4.4829 2.259 0 3.929-1.6917 3.929-4.4829zm-1.304 0c0 2.1264-1.125 3.2812-2.625 3.2812-1.504 0-2.625-1.1548-2.625-3.2812 0-2.1265 1.121-3.2813 2.625-3.2813 1.5 0 2.625 1.1548 2.625 3.2813zm7.706-2.0711h1.27c-.039-1.3977-1.274-2.4119-3.047-2.4119-1.752 0-3.094 1.0014-3.094 2.5057 0 1.2145.869 1.9261 2.271 2.3054l1.032.2812c.933.2472 1.653.554 1.653 1.3296 0 .8523-.814 1.4148-1.935 1.4148-1.014 0-1.858-.4517-1.934-1.402h-1.321c.085 1.5809 1.308 2.5568 3.264 2.5568 2.05 0 3.23-1.0781 3.23-2.5568 0-1.5725-1.402-2.1819-2.51-2.4546l-.852-.2216c-.682-.1747-1.59-.4943-1.585-1.3295 0-.7415.677-1.2912 1.751-1.2912 1.001 0 1.713.4687 1.807 1.2741zm2.532-1.1591h2.719v7.5938h1.312v-7.5938h2.723v-1.1335h-6.754zm11.423 7.5938h1.317v-3.0682h1.789c2.024 0 3.026-1.223 3.026-2.8338 0-1.6065-.993-2.8253-3.021-2.8253h-3.111zm1.317-4.1847v-3.4133h1.653c1.304 0 1.837.7074 1.837 1.696s-.533 1.7173-1.82 1.7173zm6.17 4.1847.801-2.3097h3.409l.797 2.3097h1.398l-3.141-8.7273h-1.521l-3.141 8.7273zm1.185-3.4176 1.287-3.7244h.068l1.287 3.7244zm11.976-2.5526h1.351c-.294-1.7003-1.747-2.8764-3.631-2.8764-2.258 0-3.907 1.7003-3.907 4.4872 0 2.7614 1.602 4.4787 3.967 4.4787 2.118 0 3.631-1.3892 3.631-3.5923v-.9929h-3.431v1.0866h2.157c-.03 1.4063-.959 2.2969-2.357 2.2969-1.538 0-2.659-1.1633-2.659-3.2855 0-2.1136 1.129-3.277 2.608-3.277 1.159 0 1.943.6392 2.271 1.6747zm3.082 5.9702h5.523v-1.1335h-4.206v-2.6719h3.869v-1.1293h-3.869v-2.6591h4.155v-1.1335h-5.472zm8.786-1.1932h-1.227l-.043.4773c-.098 1.1548-.371 2.3182-.486 2.8466h.904c.204-.5583.656-1.8367.788-2.8594zm-100.174 16.1932h1.316v-3.068h1.79c2.024 0 3.026-1.223 3.026-2.834 0-1.6065-.993-2.8253-3.022-2.8253h-3.11zm1.316-4.185v-3.413h1.654c1.304 0 1.836.7074 1.836 1.696 0 .989-.532 1.717-1.819 1.717zm6.171 4.185.801-2.31h3.409l.797 2.31h1.398l-3.141-8.7273h-1.521l-3.141 8.7273zm1.184-3.418 1.287-3.724h.069l1.286 3.724zm4.917-5.3093 3.166 5.3013v3.426h1.313v-3.426l3.166-5.3013h-1.496l-2.28 3.9673h-.093l-2.28-3.9673zm8.888 0v8.7273h1.253v-6.3196h.081l2.574 6.3066h1.04l2.573-6.3023h.081v6.3153h1.253v-8.7273h-1.598l-2.778 6.7843h-.102l-2.779-6.7843zm10.77 8.7273h5.522v-1.134h-4.206v-2.671h3.87v-1.13h-3.87v-2.6588h4.155v-1.1335h-5.471zm14.274-8.7273h-1.304v6.4093h-.081l-4.44-6.4093h-1.219v8.7273h1.317v-6.4006h.081l4.436 6.4006h1.21zm1.491 1.1335h2.718v7.5938h1.313v-7.5938h2.723v-1.1335h-6.754zm11.422 7.5938h1.317v-3.068h1.79c2.024 0 3.025-1.223 3.025-2.834 0-1.6065-.993-2.8253-3.021-2.8253h-3.111zm1.317-4.185v-3.413h1.653c1.304 0 1.837.7074 1.837 1.696 0 .989-.533 1.717-1.82 1.717zm6.17 4.185.801-2.31h3.41l.796 2.31h1.398l-3.14-8.7273h-1.522l-3.14 8.7273zm1.185-3.418 1.287-3.724h.068l1.287 3.724zm11.977-2.5522h1.35c-.294-1.7003-1.747-2.8764-3.63-2.8764-2.259 0-3.908 1.7003-3.908 4.4876 0 2.761 1.602 4.478 3.967 4.478 2.118 0 3.631-1.389 3.631-3.592v-.993h-3.43v1.087h2.156c-.03 1.406-.959 2.297-2.357 2.297-1.538 0-2.659-1.164-2.659-3.286 0-2.1135 1.13-3.2769 2.608-3.2769 1.159 0 1.943.6392 2.272 1.6747zm3.082 5.9702h5.522v-1.134h-4.206v-2.671h3.87v-1.13h-3.87v-2.6588h4.155v-1.1335h-5.471z" fill="#000"/><rect fill="#f2f2f2" height="100" rx="20" width="200" x="782" y="43"/><path d="m818.401 92.1108c-.299-1.8665-1.76-2.9574-3.605-2.9574-2.259 0-3.925 1.6918-3.925 4.483s1.658 4.4829 3.925 4.4829c1.917 0 3.319-1.2017 3.605-2.9275l-1.33-.0043c-.226 1.1165-1.163 1.7301-2.267 1.7301-1.496 0-2.625-1.1463-2.625-3.2812 0-2.1179 1.125-3.2813 2.629-3.2813 1.113 0 2.046.6264 2.263 1.7557zm1.575 5.8892h1.317v-3.8054h4.351v3.8054h1.321v-8.7273h-1.321v3.7926h-4.351v-3.7926h-1.317zm16.488-4.3636c0-2.7912-1.671-4.483-3.929-4.483-2.267 0-3.934 1.6918-3.934 4.483 0 2.7869 1.667 4.4829 3.934 4.4829 2.258 0 3.929-1.6917 3.929-4.4829zm-1.304 0c0 2.1264-1.125 3.2812-2.625 3.2812-1.505 0-2.625-1.1548-2.625-3.2812 0-2.1265 1.12-3.2813 2.625-3.2813 1.5 0 2.625 1.1548 2.625 3.2813zm10.526 0c0-2.7912-1.67-4.483-3.929-4.483-2.267 0-3.933 1.6918-3.933 4.483 0 2.7869 1.666 4.4829 3.933 4.4829 2.259 0 3.929-1.6917 3.929-4.4829zm-1.304 0c0 2.1264-1.125 3.2812-2.625 3.2812-1.504 0-2.625-1.1548-2.625-3.2812 0-2.1265 1.121-3.2813 2.625-3.2813 1.5 0 2.625 1.1548 2.625 3.2813zm7.706-2.0711h1.27c-.039-1.3977-1.274-2.4119-3.047-2.4119-1.752 0-3.094 1.0014-3.094 2.5057 0 1.2145.869 1.9261 2.271 2.3054l1.032.2812c.933.2472 1.653.554 1.653 1.3296 0 .8523-.814 1.4148-1.935 1.4148-1.014 0-1.857-.4517-1.934-1.402h-1.321c.085 1.5809 1.308 2.5568 3.264 2.5568 2.05 0 3.23-1.0781 3.23-2.5568 0-1.5725-1.402-2.1819-2.51-2.4546l-.852-.2216c-.682-.1747-1.59-.4943-1.585-1.3295 0-.7415.677-1.2912 1.751-1.2912 1.001 0 1.713.4687 1.807 1.2741zm2.963 6.4347h5.522v-1.1335h-4.206v-2.6719h3.87v-1.1293h-3.87v-2.6591h4.155v-1.1335h-5.471zm15.166-6.4347h1.27c-.039-1.3977-1.274-2.4119-3.047-2.4119-1.752 0-3.094 1.0014-3.094 2.5057 0 1.2145.869 1.9261 2.271 2.3054l1.032.2812c.933.2472 1.653.554 1.653 1.3296 0 .8523-.814 1.4148-1.935 1.4148-1.014 0-1.858-.4517-1.934-1.402h-1.321c.085 1.5809 1.308 2.5568 3.264 2.5568 2.05 0 3.23-1.0781 3.23-2.5568 0-1.5725-1.402-2.1819-2.51-2.4546l-.852-.2216c-.682-.1747-1.59-.4943-1.585-1.3295 0-.7415.677-1.2912 1.751-1.2912 1.001 0 1.713.4687 1.807 1.2741zm2.963 6.4347h1.316v-3.8054h4.351v3.8054h1.321v-8.7273h-1.321v3.7926h-4.351v-3.7926h-1.316zm9.643 0 .801-2.3097h3.409l.797 2.3097h1.398l-3.141-8.7273h-1.521l-3.141 8.7273zm1.185-3.4176 1.287-3.7244h.068l1.287 3.7244zm6.48 3.4176h1.317v-3.3026h1.79.085l1.773 3.3026h1.5l-1.935-3.5327c1.07-.3963 1.602-1.2869 1.602-2.4588 0-1.6065-.997-2.7358-3.021-2.7358h-3.111zm1.317-4.4361v-3.1619h1.653c1.3 0 1.837.6179 1.837 1.6065 0 .9844-.537 1.5554-1.82 1.5554zm6.417 4.4361h5.523v-1.1335h-4.206v-2.6719h3.87v-1.1293h-3.87v-2.6591h4.155v-1.1335h-5.472zm17.988-4.3636c0-2.7912-1.671-4.483-3.929-4.483-2.267 0-3.934 1.6918-3.934 4.483 0 2.7869 1.667 4.4829 3.934 4.4829 2.258 0 3.929-1.6917 3.929-4.4829zm-1.304 0c0 2.1264-1.125 3.2812-2.625 3.2812-1.505 0-2.625-1.1548-2.625-3.2812 0-2.1265 1.12-3.2813 2.625-3.2813 1.5 0 2.625 1.1548 2.625 3.2813zm2.945 4.3636h1.317v-3.0682h1.79c2.024 0 3.025-1.223 3.025-2.8338 0-1.6065-.992-2.8253-3.021-2.8253h-3.111zm1.317-4.1847v-3.4133h1.654c1.304 0 1.836.7074 1.836 1.696s-.532 1.7173-1.819 1.7173zm5.929-3.4091h2.719v7.5938h1.312v-7.5938h2.723v-1.1335h-6.754zm9.563-1.1335h-1.316v8.7273h1.316zm9.499 4.3637c0-2.7912-1.671-4.483-3.929-4.483-2.267 0-3.933 1.6918-3.933 4.483 0 2.7869 1.666 4.4829 3.933 4.4829 2.258 0 3.929-1.6917 3.929-4.4829zm-1.304 0c0 2.1264-1.125 3.2812-2.625 3.2812-1.504 0-2.625-1.1548-2.625-3.2812 0-2.1265 1.121-3.2813 2.625-3.2813 1.5 0 2.625 1.1548 2.625 3.2813zm9.99-4.3637h-1.304v6.4091h-.081l-4.441-6.4091h-1.218v8.7273h1.316v-6.4006h.081l4.436 6.4006h1.211z" fill="#000"/><rect fill="#f2f2f2" height="100" rx="20" width="200" x="1358" y="43"/><path d="m1403.95 90.4062h2.72v7.5938h1.31v-7.5938h2.72v-1.1335h-6.75zm15.46 3.2302c0-2.7912-1.67-4.483-3.93-4.483s-3.93 1.6918-3.93 4.483c0 2.7869 1.67 4.4829 3.93 4.4829s3.93-1.6917 3.93-4.4829zm-1.3 0c0 2.1264-1.13 3.2812-2.63 3.2812s-2.62-1.1548-2.62-3.2812c0-2.1265 1.12-3.2813 2.62-3.2813s2.63 1.1548 2.63 3.2813zm2.15-3.2302h2.72v7.5938h1.31v-7.5938h2.73v-1.1335h-6.76zm7.94 7.5938.8-2.3097h3.41l.8 2.3097h1.4l-3.14-8.7273h-1.53l-3.14 8.7273zm1.19-3.4176 1.28-3.7244h.07l1.29 3.7244zm6.48 3.4176h5.27v-1.1335h-3.96v-7.5938h-1.31zm17.19-5.8892c-.29-1.8665-1.76-2.9574-3.6-2.9574-2.26 0-3.93 1.6918-3.93 4.483s1.66 4.4829 3.93 4.4829c1.92 0 3.32-1.2017 3.6-2.9275l-1.32-.0043c-.23 1.1165-1.17 1.7301-2.27 1.7301-1.5 0-2.63-1.1463-2.63-3.2812 0-2.1179 1.13-3.2813 2.63-3.2813 1.11 0 2.05.6264 2.27 1.7557zm9.16 1.5256c0-2.7912-1.67-4.483-3.93-4.483s-3.93 1.6918-3.93 4.483c0 2.7869 1.67 4.4829 3.93 4.4829s3.93-1.6917 3.93-4.4829zm-1.3 0c0 2.1264-1.13 3.2812-2.63 3.2812s-2.62-1.1548-2.62-3.2812c0-2.1265 1.12-3.2813 2.62-3.2813s2.63 1.1548 2.63 3.2813zm7.7-2.0711h1.27c-.04-1.3977-1.27-2.4119-3.04-2.4119-1.76 0-3.1 1.0014-3.1 2.5057 0 1.2145.87 1.9261 2.27 2.3054l1.03.2812c.94.2472 1.66.554 1.66 1.3296 0 .8523-.82 1.4148-1.94 1.4148-1.01 0-1.85-.4517-1.93-1.402h-1.32c.08 1.5809 1.31 2.5568 3.26 2.5568 2.05 0 3.23-1.0781 3.23-2.5568 0-1.5725-1.4-2.1819-2.51-2.4546l-.85-.2216c-.68-.1747-1.59-.4943-1.59-1.3295 0-.7415.68-1.2912 1.76-1.2912 1 0 1.71.4687 1.8 1.2741zm2.54-1.1591h2.71v7.5938h1.32v-7.5938h2.72v-1.1335h-6.75zm11.42 7.5938h1.31v-3.0682h1.79c2.03 0 3.03-1.223 3.03-2.8338 0-1.6065-.99-2.8253-3.02-2.8253h-3.11zm1.31-4.1847v-3.4133h1.66c1.3 0 1.83.7074 1.83 1.696s-.53 1.7173-1.81 1.7173zm6.18 4.1847.8-2.3097h3.41l.79 2.3097h1.4l-3.14-8.7273h-1.52l-3.14 8.7273zm1.18-3.4176 1.29-3.7244h.06l1.29 3.7244zm11.98-2.5526h1.35c-.3-1.7003-1.75-2.8764-3.63-2.8764-2.26 0-3.91 1.7003-3.91 4.4872 0 2.7614 1.6 4.4787 3.97 4.4787 2.11 0 3.63-1.3892 3.63-3.5923v-.9929h-3.43v1.0866h2.15c-.03 1.4063-.96 2.2969-2.35 2.2969-1.54 0-2.66-1.1633-2.66-3.2855 0-2.1136 1.13-3.277 2.61-3.277 1.15 0 1.94.6392 2.27 1.6747zm3.08 5.9702h5.52v-1.1335h-4.2v-2.6719h3.86v-1.1293h-3.86v-2.6591h4.15v-1.1335h-5.47z" fill="#000"/><rect fill="#f2f2f2" height="100" rx="20" width="200" x="1598" y="43"/><path d="m1639.41 92.1108c-.3-1.8665-1.76-2.9574-3.6-2.9574-2.26 0-3.93 1.6918-3.93 4.483s1.66 4.4829 3.93 4.4829c1.91 0 3.31-1.2017 3.6-2.9275l-1.33-.0043c-.22 1.1165-1.16 1.7301-2.27 1.7301-1.49 0-2.62-1.1463-2.62-3.2812 0-2.1179 1.12-3.2813 2.63-3.2813 1.11 0 2.04.6264 2.26 1.7557zm9.16 1.5256c0-2.7912-1.67-4.483-3.93-4.483-2.27 0-3.94 1.6918-3.94 4.483 0 2.7869 1.67 4.4829 3.94 4.4829 2.26 0 3.93-1.6917 3.93-4.4829zm-1.31 0c0 2.1264-1.12 3.2812-2.62 3.2812-1.51 0-2.63-1.1548-2.63-3.2812 0-2.1265 1.12-3.2813 2.63-3.2813 1.5 0 2.62 1.1548 2.62 3.2813zm9.99-4.3637h-1.3v6.4091h-.08l-4.44-6.4091h-1.22v8.7273h1.32v-6.4006h.08l4.43 6.4006h1.21zm1.49 1.1335h2.72v7.5938h1.31v-7.5938h2.73v-1.1335h-6.76zm8.25 7.5938h1.32v-3.3026h1.79.08l1.77 3.3026h1.5l-1.93-3.5327c1.07-.3963 1.6-1.2869 1.6-2.4588 0-1.6065-1-2.7358-3.02-2.7358h-3.11zm1.32-4.4361v-3.1619h1.65c1.3 0 1.84.6179 1.84 1.6065 0 .9844-.54 1.5554-1.82 1.5554zm7.73-4.2912h-1.32v8.7273h1.32zm1.92 8.7273h3.34c2.03 0 2.95-1.0099 2.95-2.348 0-1.3509-.95-2.1136-1.81-2.1605v-.0853c.8-.2045 1.47-.75 1.47-1.8409 0-1.2912-.9-2.2926-2.76-2.2926h-3.19zm1.32-1.1293v-2.7954h1.94c1.06 0 1.72.6818 1.72 1.5128 0 .7329-.5 1.2826-1.76 1.2826zm0-3.8224v-2.6548h1.79c1.05 0 1.55.5497 1.55 1.2741 0 .8438-.69 1.3807-1.58 1.3807zm12.14-3.7756v5.6335c0 1.1847-.82 2.037-2.15 2.037-1.32 0-2.14-.8523-2.14-2.037v-5.6335h-1.32v5.7401c0 1.8324 1.37 3.1321 3.46 3.1321 2.1 0 3.47-1.2997 3.47-3.1321v-5.7401zm2.81 1.1335h2.72v7.5938h1.31v-7.5938h2.72v-1.1335h-6.75zm9.56-1.1335h-1.32v8.7273h1.32zm9.5 4.3637c0-2.7912-1.67-4.483-3.93-4.483-2.27 0-3.93 1.6918-3.93 4.483 0 2.7869 1.66 4.4829 3.93 4.4829 2.26 0 3.93-1.6917 3.93-4.4829zm-1.3 0c0 2.1264-1.13 3.2812-2.63 3.2812s-2.62-1.1548-2.62-3.2812c0-2.1265 1.12-3.2813 2.62-3.2813s2.63 1.1548 2.63 3.2813zm9.99-4.3637h-1.31v6.4091h-.08l-4.44-6.4091h-1.22v8.7273h1.32v-6.4006h.08l4.44 6.4006h1.21zm6.68 2.2926h1.27c-.04-1.3977-1.28-2.4119-3.05-2.4119-1.75 0-3.09 1.0014-3.09 2.5057 0 1.2145.86 1.9261 2.27 2.3054l1.03.2812c.93.2472 1.65.554 1.65 1.3296 0 .8523-.81 1.4148-1.93 1.4148-1.02 0-1.86-.4517-1.94-1.402h-1.32c.09 1.5809 1.31 2.5568 3.27 2.5568 2.05 0 3.23-1.0781 3.23-2.5568 0-1.5725-1.41-2.1819-2.51-2.4546l-.86-.2216c-.68-.1747-1.59-.4943-1.58-1.3295 0-.7415.68-1.2912 1.75-1.2912 1 0 1.71.4687 1.81 1.2741zm6.13 6.4347h1.32v-3.0682h1.79c2.03 0 3.03-1.223 3.03-2.8338 0-1.6065-1-2.8253-3.02-2.8253h-3.12zm1.32-4.1847v-3.4133h1.65c1.31 0 1.84.7074 1.84 1.696s-.53 1.7173-1.82 1.7173zm6.17 4.1847.8-2.3097h3.41l.8 2.3097h1.4l-3.14-8.7273h-1.53l-3.14 8.7273zm1.19-3.4176 1.28-3.7244h.07l1.29 3.7244zm11.97-2.5526h1.35c-.29-1.7003-1.74-2.8764-3.63-2.8764-2.26 0-3.9 1.7003-3.9 4.4872 0 2.7614 1.6 4.4787 3.96 4.4787 2.12 0 3.63-1.3892 3.63-3.5923v-.9929h-3.43v1.0866h2.16c-.03 1.4063-.96 2.2969-2.36 2.2969-1.54 0-2.66-1.1633-2.66-3.2855 0-2.1136 1.13-3.277 2.61-3.277 1.16 0 1.95.6392 2.27 1.6747zm3.09 5.9702h5.52v-1.1335h-4.21v-2.6719h3.87v-1.1293h-3.87v-2.6591h4.16v-1.1335h-5.47z" fill="#000"/><rect fill="#f2f2f2" height="100" rx="20" width="200" x="1070" y="43"/><path d="m1114.16 89.2727v8.7273h1.25v-6.3196h.08l2.58 6.3068h1.04l2.57-6.3025h.08v6.3153h1.25v-8.7273h-1.59l-2.78 6.7841h-.11l-2.77-6.7841zm10.77 8.7273h5.52v-1.1335h-4.21v-2.6719h3.87v-1.1293h-3.87v-2.6591h4.16v-1.1335h-5.47zm11.99-6.4347h1.27c-.04-1.3977-1.28-2.4119-3.05-2.4119-1.75 0-3.09 1.0014-3.09 2.5057 0 1.2145.87 1.9261 2.27 2.3054l1.03.2812c.93.2472 1.65.554 1.65 1.3296 0 .8523-.81 1.4148-1.93 1.4148-1.02 0-1.86-.4517-1.94-1.402h-1.32c.09 1.5809 1.31 2.5568 3.27 2.5568 2.05 0 3.23-1.0781 3.23-2.5568 0-1.5725-1.4-2.1819-2.51-2.4546l-.86-.2216c-.68-.1747-1.58-.4943-1.58-1.3295 0-.7415.68-1.2912 1.75-1.2912 1 0 1.71.4687 1.81 1.2741zm7.72 0h1.27c-.04-1.3977-1.27-2.4119-3.05-2.4119-1.75 0-3.09 1.0014-3.09 2.5057 0 1.2145.87 1.9261 2.27 2.3054l1.03.2812c.94.2472 1.66.554 1.66 1.3296 0 .8523-.82 1.4148-1.94 1.4148-1.01 0-1.86-.4517-1.93-1.402h-1.32c.08 1.5809 1.3 2.5568 3.26 2.5568 2.05 0 3.23-1.0781 3.23-2.5568 0-1.5725-1.4-2.1819-2.51-2.4546l-.85-.2216c-.68-.1747-1.59-.4943-1.59-1.3295 0-.7415.68-1.2912 1.75-1.2912 1.01 0 1.72.4687 1.81 1.2741zm3.63 6.4347.8-2.3097h3.41l.8 2.3097h1.4l-3.15-8.7273h-1.52l-3.14 8.7273zm1.18-3.4176 1.29-3.7244h.07l1.29 3.7244zm11.98-2.5526h1.35c-.29-1.7003-1.74-2.8764-3.63-2.8764-2.26 0-3.91 1.7003-3.91 4.4872 0 2.7614 1.61 4.4787 3.97 4.4787 2.12 0 3.63-1.3892 3.63-3.5923v-.9929h-3.43v1.0866h2.16c-.03 1.4063-.96 2.2969-2.36 2.2969-1.54 0-2.66-1.1633-2.66-3.2855 0-2.1136 1.13-3.277 2.61-3.277 1.16 0 1.94.6392 2.27 1.6747zm4.4-2.7571h-1.32v8.7273h1.32zm8.96 0h-1.3v6.4091h-.08l-4.44-6.4091h-1.22v8.7273h1.31v-6.4006h.09l4.43 6.4006h1.21zm7.83 2.7571h1.35c-.29-1.7003-1.75-2.8764-3.63-2.8764-2.26 0-3.91 1.7003-3.91 4.4872 0 2.7614 1.6 4.4787 3.97 4.4787 2.12 0 3.63-1.3892 3.63-3.5923v-.9929h-3.43v1.0866h2.16c-.03 1.4063-.96 2.2969-2.36 2.2969-1.54 0-2.66-1.1633-2.66-3.2855 0-2.1136 1.13-3.277 2.61-3.277 1.16 0 1.94.6392 2.27 1.6747zm7.57-2.7571h-1.31v8.7273h1.31zm8.97 0h-1.31v6.4091h-.08l-4.44-6.4091h-1.22v8.7273h1.32v-6.4006h.08l4.43 6.4006h1.22zm2.68 0h-1.42l3.14 8.7273h1.52l3.14-8.7273h-1.43l-2.42 7.108h-.1zm8.96 0h-1.32v8.7273h1.32zm1.48 1.1335h2.72v7.5938h1.31v-7.5938h2.73v-1.1335h-6.76zm8.25 7.5938h5.52v-1.1335h-4.2v-2.6719h3.87v-1.1293h-3.87v-2.6591h4.15v-1.1335h-5.47z" fill="#000"/><g fill="#cecccc"><path d="m216 91.5c-.828 0-1.5.6716-1.5 1.5s.672 1.5 1.5 1.5zm67.061 2.5607c.585-.5858.585-1.5356 0-2.1214l-9.546-9.5459c-.586-.5858-1.536-.5858-2.122 0-.585.5858-.585 1.5355 0 2.1213l8.486 8.4853-8.486 8.485c-.585.586-.585 1.536 0 2.122.586.585 1.536.585 2.122 0zm-67.061.4393h66v-3h-66z"/><path d="m1023.5 20c0-.8284-.67-1.5-1.5-1.5s-1.5.6716-1.5 1.5zm-3 208c0 .828.67 1.5 1.5 1.5s1.5-.672 1.5-1.5zm0-208v2.9714h3v-2.9714zm0 6.9333v5.9429h3v-5.9429zm0 9.9048v5.9429h3v-5.9429zm0 9.9048v5.9428h3v-5.9428zm0 9.9047v5.9429h3v-5.9429zm0 9.9048v5.9428h3v-5.9428zm0 9.9047v5.9429h3v-5.9429zm0 9.9048v5.9429h3v-5.9429zm0 9.9048v5.9433h3v-5.9433zm0 9.9043v5.943h3v-5.943zm0 9.905v5.943h3v-5.943zm0 9.905v5.943h3v-5.943zm0 9.905v5.943h3v-5.943zm0 9.904v5.943h3v-5.943zm0 9.905v5.943h3v-5.943zm0 9.905v5.943h3v-5.943zm0 9.905v5.943h3v-5.943zm0 9.905v5.942h3v-5.942zm0 9.904v5.943h3v-5.943zm0 9.905v5.943h3v-5.943zm0 9.905v5.943h3v-5.943zm0 9.905v2.971h3v-2.971z"/><path d="m1295.5 20c0-.8284-.67-1.5-1.5-1.5s-1.5.6716-1.5 1.5zm-3 208c0 .828.67 1.5 1.5 1.5s1.5-.672 1.5-1.5zm0-208v2.9714h3v-2.9714zm0 6.9333v5.9429h3v-5.9429zm0 9.9048v5.9429h3v-5.9429zm0 9.9048v5.9428h3v-5.9428zm0 9.9047v5.9429h3v-5.9429zm0 9.9048v5.9428h3v-5.9428zm0 9.9047v5.9429h3v-5.9429zm0 9.9048v5.9429h3v-5.9429zm0 9.9048v5.9433h3v-5.9433zm0 9.9043v5.943h3v-5.943zm0 9.905v5.943h3v-5.943zm0 9.905v5.943h3v-5.943zm0 9.905v5.943h3v-5.943zm0 9.904v5.943h3v-5.943zm0 9.905v5.943h3v-5.943zm0 9.905v5.943h3v-5.943zm0 9.905v5.943h3v-5.943zm0 9.905v5.942h3v-5.942zm0 9.904v5.943h3v-5.943zm0 9.905v5.943h3v-5.943zm0 9.905v5.943h3v-5.943zm0 9.905v2.971h3v-2.971z"/><path d="m490 91.5c-.828 0-1.5.6716-1.5 1.5s.672 1.5 1.5 1.5zm57.383 2.5607c.586-.5858.586-1.5356 0-2.1214l-9.546-9.5459c-.585-.5858-1.535-.5858-2.121 0s-.586 1.5355 0 2.1213l8.485 8.4853-8.485 8.485c-.586.586-.586 1.536 0 2.122.586.585 1.536.585 2.121 0zm-57.383.4393h56.323v-3h-56.323z"/><path d="m737.68 91.5c-.829 0-1.5.6716-1.5 1.5s.671 1.5 1.5 1.5zm41.383 2.5607c.586-.5858.586-1.5356 0-2.1214l-9.546-9.5459c-.586-.5858-1.536-.5858-2.121 0-.586.5858-.586 1.5355 0 2.1213l8.485 8.4853-8.485 8.485c-.586.586-.586 1.536 0 2.122.585.585 1.535.585 2.121 0zm-41.383.4393h40.322v-3h-40.322z"/><path d="m986 91.5c-.828 0-1.5.6716-1.5 1.5s.672 1.5 1.5 1.5zm81.06 2.5607c.59-.5858.59-1.5356 0-2.1214l-9.55-9.5459c-.58-.5858-1.53-.5858-2.12 0-.58.5858-.58 1.5355 0 2.1213l8.49 8.4853-8.49 8.485c-.58.586-.58 1.536 0 2.122.59.585 1.54.585 2.12 0zm-81.06.4393h3v-3h-3zm7 0h6v-3h-6zm10 0h6v-3h-6zm10 0h6v-3h-6zm10 0h6v-3h-6zm10 0h6v-3h-6zm10 0h6v-3h-6zm10 0h6v-3h-6zm10 0h3v-3h-3z"/><path d="m1278 91.5c-.83 0-1.5.6716-1.5 1.5s.67 1.5 1.5 1.5zm77.06 2.5607c.59-.5858.59-1.5356 0-2.1214l-9.55-9.5459c-.58-.5858-1.53-.5858-2.12 0-.58.5858-.58 1.5355 0 2.1213l8.49 8.4853-8.49 8.485c-.58.586-.58 1.536 0 2.122.59.585 1.54.585 2.12 0zm-77.06.4393h2.85v-3h-2.85zm6.65 0h5.7v-3h-5.7zm9.5 0h5.7v-3h-5.7zm9.5 0h5.7v-3h-5.7zm9.5 0h5.7v-3h-5.7zm9.5 0h5.7v-3h-5.7zm9.5 0h5.7v-3h-5.7zm9.5 0h5.7v-3h-5.7zm9.5 0h2.85v-3h-2.85z"/><path d="m1562 91.5c-.83 0-1.5.6716-1.5 1.5s.67 1.5 1.5 1.5zm33.06 2.5607c.59-.5858.59-1.5356 0-2.1214l-9.55-9.5459c-.58-.5858-1.53-.5858-2.12 0-.58.5858-.58 1.5355 0 2.1213l8.49 8.4853-8.49 8.485c-.58.586-.58 1.536 0 2.122.59.585 1.54.585 2.12 0zm-33.06.4393h32v-3h-32z"/><path d="m1802 91.5c-.83 0-1.5.6716-1.5 1.5s.67 1.5 1.5 1.5zm33.06 2.5607c.59-.5858.59-1.5356 0-2.1214l-9.55-9.5459c-.58-.5858-1.53-.5858-2.12 0-.58.5858-.58 1.5355 0 2.1213l8.49 8.4853-8.49 8.485c-.58.586-.58 1.536 0 2.122.59.585 1.54.585 2.12 0zm-33.06.4393h32v-3h-32z"/></g></svg>