<svg fill="none" height="248" viewBox="0 0 2333 248" width="2333" xmlns="http://www.w3.org/2000/svg"><rect fill="#00d563" height="50" rx="25" width="150" x="2183" y="79"/><path d="m2243.84 90.519c-.47.2253-.99.3987-1.55.52-.56.13-1.2.195-1.93.195-.74 0-1.42-.117-2.04-.351-.61-.2427-1.14-.5763-1.58-1.001-.44-.4333-.79-.9447-1.04-1.534-.25-.598-.37-1.2567-.37-1.976 0-.7367.13-1.3997.38-1.989.26-.598.61-1.105 1.05-1.521.45-.416.98-.7367 1.59-.962s1.26-.338 1.98-.338c.73 0 1.4.1083 2.01.325.62.208 1.11.4853 1.48.832l-1.13 1.222c-.23-.26-.56-.481-.99-.663-.41-.182-.87-.273-1.36-.273s-.93.0867-1.33.26c-.39.1733-.72.4117-1 .715s-.49.6587-.65 1.066c-.15.4073-.22.8493-.22 1.326 0 .494.07.949.22 1.365.16.4073.37.7627.65 1.066.29.3033.63.5417 1.03.715.41.1647.86.247 1.38.247.7 0 1.31-.1083 1.83-.325v-2.34h-1.94v-1.352h3.53zm1.99-8.723h3.2c.43 0 .85.0477 1.26.143.41.0867.77.234 1.08.442.32.208.57.481.76.819.2.338.29.7497.29 1.235 0 .6673-.19 1.2133-.57 1.638-.37.416-.89.6977-1.54.845l2.46 4.082h-1.97l-2.14-3.9h-1.19v3.9h-1.64zm2.98 3.965c.23 0 .46-.0173.7-.052.23-.0347.44-.0997.62-.195.19-.0953.35-.2297.47-.403.12-.182.18-.4117.18-.689 0-.2513-.05-.455-.17-.611-.11-.1647-.25-.2947-.43-.39-.17-.0953-.37-.1603-.59-.195s-.43-.052-.64-.052h-1.48v2.587zm4.75.611c0-.7367.13-1.3997.37-1.989.25-.598.59-1.105 1.02-1.521.45-.416.97-.7367 1.56-.962.61-.2253 1.27-.338 1.98-.338.72 0 1.38.1127 1.99.338s1.13.546 1.57.962.79.923 1.03 1.521c.25.5893.38 1.2523.38 1.989 0 .7193-.13 1.378-.38 1.976-.24.5893-.59 1.1007-1.03 1.534-.44.4247-.96.7583-1.57 1.001-.61.234-1.27.351-1.99.351-.71 0-1.37-.117-1.98-.351-.59-.2427-1.11-.5763-1.56-1.001-.43-.4333-.77-.9447-1.02-1.534-.24-.598-.37-1.2567-.37-1.976zm1.78 0c0 .494.08.949.23 1.365.15.4073.37.7627.65 1.066s.62.5417 1 .715c.39.1647.82.247 1.28.247.47 0 .9-.0823 1.29-.247.39-.1733.72-.4117 1-.715.29-.3033.5-.6587.65-1.066.16-.416.24-.871.24-1.365 0-.4767-.08-.9187-.24-1.326-.15-.4073-.36-.7627-.64-1.066-.27-.3033-.61-.5417-1-.715s-.82-.26-1.3-.26c-.47 0-.91.0867-1.3.26-.38.1733-.71.4117-.98.715-.28.3033-.5.6587-.65 1.066s-.23.8493-.23 1.326zm17.03 1.248c0 .5547-.1 1.0573-.29 1.508-.19.442-.45.819-.78 1.131s-.72.5547-1.17.728c-.45.1647-.94.247-1.47.247-.52 0-1.01-.0823-1.46-.247-.45-.1733-.85-.416-1.19-.728-.33-.312-.59-.689-.78-1.131-.18-.4507-.27-.9533-.27-1.508v-5.824h1.64v5.759c0 .2687.03.5373.1.806.07.26.18.494.34.702s.38.377.64.507c.27.13.59.195.98.195s.72-.065.98-.195c.27-.13.48-.299.64-.507s.28-.442.35-.702c.07-.2687.1-.5373.1-.806v-5.759h1.64zm1.95-5.824h3c.53 0 1.01.0477 1.43.143.43.0953.79.2513 1.09.468.31.2167.54.494.71.832.16.338.24.7453.24 1.222 0 .5113-.09.9403-.28 1.287s-.45.6283-.78.845c-.32.208-.7.3597-1.13.455-.44.0953-.9.143-1.38.143h-1.26v3.809h-1.64zm2.78 4.017c.27 0 .52-.0173.77-.052.24-.0433.46-.1127.65-.208.19-.104.34-.2427.45-.416s.17-.3987.17-.676c0-.2687-.06-.4853-.17-.65-.11-.1733-.26-.3077-.45-.403-.18-.0953-.4-.156-.64-.182-.23-.0347-.48-.052-.73-.052h-1.19v2.639zm-64.8 16.141c-.24-.329-.55-.568-.94-.715-.39-.156-.78-.234-1.15-.234-.47 0-.91.087-1.3.26s-.73.412-1.01.715-.5.659-.65 1.066-.22.849-.22 1.326c0 .503.07.962.22 1.378s.35.776.62 1.079c.28.295.61.524.99.689s.81.247 1.29.247c.49 0 .93-.095 1.31-.286.38-.199.69-.459.92-.78l1.32.923c-.41.511-.91.91-1.5 1.196-.59.277-1.28.416-2.07.416-.72 0-1.38-.117-1.99-.351-.59-.243-1.11-.576-1.54-1.001-.44-.433-.77-.945-1.02-1.534-.24-.598-.36-1.257-.36-1.976 0-.737.13-1.4.38-1.989.26-.598.61-1.105 1.05-1.521.45-.416.98-.737 1.59-.962.6-.2253 1.26-.338 1.97-.338.3 0 .6.0303.92.091.33.052.63.1387.93.26.29.113.57.256.83.429s.48.381.66.624zm1.82 2.418c0-.737.12-1.4.36-1.989.25-.598.6-1.105 1.03-1.521.44-.416.96-.737 1.56-.962.61-.2253 1.27-.338 1.98-.338.72 0 1.38.1127 1.99.338.6.225 1.13.546 1.57.962s.78.923 1.03 1.521c.25.589.37 1.252.37 1.989 0 .719-.12 1.378-.37 1.976-.25.589-.59 1.101-1.03 1.534-.44.425-.97.758-1.57 1.001-.61.234-1.27.351-1.99.351-.71 0-1.37-.117-1.98-.351-.6-.243-1.12-.576-1.56-1.001-.43-.433-.78-.945-1.03-1.534-.24-.598-.36-1.257-.36-1.976zm1.78 0c0 .494.07.949.22 1.365.16.407.37.763.65 1.066.29.303.62.542 1 .715.39.165.82.247 1.29.247s.9-.082 1.29-.247c.39-.173.72-.412 1-.715s.5-.659.65-1.066c.15-.416.23-.871.23-1.365 0-.477-.08-.919-.23-1.326s-.36-.763-.64-1.066-.61-.542-1-.715-.82-.26-1.3-.26-.91.087-1.3.26c-.38.173-.71.412-.99.715s-.49.659-.65 1.066c-.15.407-.22.849-.22 1.326zm9.69-4.576h2.17l4.28 6.89h.03v-6.89h1.64v9.204h-2.08l-4.37-7.111h-.03v7.111h-1.64zm12.01 1.43h-2.82v-1.43h7.28v1.43h-2.83v7.774h-1.63zm5.53-1.43h3.19c.44 0 .86.0477 1.26.143.41.087.77.234 1.08.442.32.208.58.481.77.819s.29.75.29 1.235c0 .667-.19 1.213-.58 1.638-.37.416-.88.698-1.53.845l2.46 4.082h-1.98l-2.13-3.9h-1.2v3.9h-1.63zm2.97 3.965c.24 0 .47-.017.7-.052.24-.035.45-.1.63-.195.19-.095.35-.23.47-.403.12-.182.18-.412.18-.689 0-.251-.06-.455-.17-.611-.11-.165-.26-.295-.43-.39s-.37-.16-.6-.195c-.21-.035-.43-.052-.63-.052h-1.49v2.587zm5.2-3.965h1.64v9.204h-1.64zm3.67 0h3.59c.35 0 .69.0433 1.03.13.33.078.63.212.89.403.27.182.49.42.65.715.17.295.25.65.25 1.066 0 .52-.15.949-.44 1.287-.3.338-.68.581-1.16.728v.026c.58.078 1.06.303 1.43.676s.56.871.56 1.495c0 .503-.1.927-.3 1.274-.2.338-.46.611-.79.819-.32.208-.7.36-1.12.455-.42.087-.84.13-1.27.13h-3.32zm1.64 3.744h1.45c.55 0 .97-.108 1.25-.325.29-.217.43-.524.43-.923 0-.416-.15-.711-.44-.884-.3-.173-.75-.26-1.38-.26h-1.31zm0 4.082h1.47c.21 0 .43-.013.67-.039.25-.035.47-.1.67-.195s.37-.234.5-.416c.14-.182.21-.425.21-.728 0-.485-.16-.823-.49-1.014s-.83-.286-1.5-.286h-1.53zm14.11-2.002c0 .555-.1 1.057-.29 1.508-.19.442-.45.819-.78 1.131s-.72.555-1.17.728c-.45.165-.94.247-1.47.247-.52 0-1.01-.082-1.46-.247-.46-.173-.85-.416-1.19-.728-.33-.312-.59-.689-.78-1.131-.18-.451-.27-.953-.27-1.508v-5.824h1.64v5.759c0 .269.03.537.1.806.07.26.18.494.34.702s.38.377.64.507c.27.13.59.195.98.195s.72-.065.98-.195c.27-.13.48-.299.64-.507s.28-.442.35-.702c.07-.269.1-.537.1-.806v-5.759h1.64zm3.81-4.394h-2.82v-1.43h7.28v1.43h-2.83v7.774h-1.63zm5.53-1.43h1.63v9.204h-1.63zm3.22 4.576c0-.737.12-1.4.37-1.989.25-.598.59-1.105 1.02-1.521.45-.416.97-.737 1.56-.962.61-.2253 1.27-.338 1.98-.338.72 0 1.38.1127 1.99.338.61.225 1.13.546 1.57.962s.79.923 1.03 1.521c.25.589.38 1.252.38 1.989 0 .719-.13 1.378-.38 1.976-.24.589-.59 1.101-1.03 1.534-.44.425-.96.758-1.57 1.001-.61.234-1.27.351-1.99.351-.71 0-1.37-.117-1.98-.351-.59-.243-1.11-.576-1.56-1.001-.43-.433-.77-.945-1.02-1.534-.25-.598-.37-1.257-.37-1.976zm1.78 0c0 .494.08.949.23 1.365.15.407.37.763.65 1.066s.62.542 1 .715c.39.165.82.247 1.28.247.47 0 .9-.082 1.29-.247.39-.173.72-.412 1-.715.29-.303.5-.659.65-1.066.16-.416.24-.871.24-1.365 0-.477-.08-.919-.24-1.326-.15-.407-.36-.763-.64-1.066-.27-.303-.61-.542-1-.715s-.82-.26-1.3-.26c-.47 0-.91.087-1.3.26-.38.173-.71.412-.98.715-.28.303-.5.659-.65 1.066s-.23.849-.23 1.326zm9.7-4.576h2.17l4.28 6.89h.02v-6.89h1.64v9.204h-2.08l-4.37-7.111h-.02v7.111h-1.64zm14.83 1.924c-.17-.225-.42-.412-.74-.559-.31-.156-.63-.234-.95-.234-.19 0-.38.026-.57.078-.19.043-.36.117-.52.221-.15.095-.28.225-.39.39-.09.156-.14.347-.14.572 0 .208.04.386.13.533s.2.273.35.377c.16.104.34.195.56.273s.45.156.71.234c.3.095.6.204.91.325.32.121.62.282.88.481s.48.451.65.754.26.68.26 1.131c0 .494-.1.927-.28 1.3-.18.364-.42.667-.73.91-.3.243-.65.425-1.06.546s-.84.182-1.29.182c-.6 0-1.18-.108-1.75-.325-.58-.225-1.04-.555-1.41-.988l1.17-1.092c.23.312.53.559.9.741.38.182.75.273 1.12.273.19 0 .38-.022.58-.065.2-.052.38-.134.54-.247s.29-.251.39-.416c.1-.173.15-.386.15-.637 0-.243-.06-.442-.17-.598-.11-.165-.26-.303-.45-.416-.19-.121-.42-.225-.68-.312s-.53-.178-.82-.273c-.28-.087-.55-.191-.83-.312s-.53-.282-.75-.481-.4-.442-.54-.728c-.14-.295-.2-.659-.2-1.092 0-.468.09-.871.28-1.209.2-.338.46-.615.77-.832.32-.2253.68-.39 1.08-.494.4-.1127.82-.169 1.23-.169.47 0 .94.0823 1.42.247s.9.412 1.26.741zm-103.16 16.076h3.2c.43 0 .85.048 1.26.143.41.087.77.234 1.08.442.32.208.57.481.77.819.19.338.28.75.28 1.235 0 .667-.19 1.213-.57 1.638-.37.416-.88.698-1.53.845l2.45 4.082h-1.97l-2.14-3.9h-1.19v3.9h-1.64zm2.98 3.965c.23 0 .47-.017.7-.052s.44-.1.62-.195c.19-.095.35-.23.47-.403.12-.182.18-.412.18-.689 0-.251-.05-.455-.17-.611-.11-.165-.25-.295-.42-.39-.18-.095-.38-.16-.6-.195s-.43-.052-.64-.052h-1.48v2.587zm5.2-3.965h6.09v1.43h-4.46v2.34h4.23v1.378h-4.23v2.6h4.7v1.456h-6.33zm10.82 0h1.41l3.97 9.204h-1.87l-.86-2.106h-3.99l-.83 2.106h-1.84zm2.08 5.694-1.42-3.744-1.44 3.744zm10.62-3.536c-.24-.329-.56-.568-.95-.715-.39-.156-.77-.234-1.14-.234-.48 0-.91.087-1.3.26s-.73.412-1.01.715-.5.659-.65 1.066-.22.849-.22 1.326c0 .503.07.962.22 1.378.14.416.35.776.62 1.079.28.295.61.524.99.689s.81.247 1.29.247c.49 0 .93-.095 1.31-.286.38-.199.69-.459.92-.78l1.31.923c-.4.511-.9.91-1.49 1.196-.59.277-1.28.416-2.07.416-.72 0-1.38-.117-1.99-.351-.59-.243-1.11-.576-1.54-1.001-.44-.433-.77-.945-1.02-1.534-.24-.598-.36-1.257-.36-1.976 0-.737.12-1.4.38-1.989.26-.598.61-1.105 1.05-1.521.45-.416.98-.737 1.58-.962.61-.225 1.27-.338 1.98-.338.3 0 .6.03.92.091.32.052.63.139.93.26.29.113.57.256.83.429s.48.381.66.624zm2.41-2.158h1.64v3.718h4.3v-3.718h1.64v9.204h-1.64v-4.082h-4.3v4.082h-1.64zm9.61 0h6.1v1.43h-4.46v2.34h4.23v1.378h-4.23v2.6h4.69v1.456h-6.33zm7.94 0h3.26c.6 0 1.2.078 1.81.234.6.156 1.15.416 1.64.78.48.355.87.828 1.18 1.417.3.581.45 1.304.45 2.171 0 .806-.15 1.499-.45 2.08-.31.581-.7 1.057-1.18 1.43-.49.373-1.04.65-1.64.832-.61.173-1.21.26-1.81.26h-3.26zm3 7.774c.42 0 .85-.048 1.27-.143.43-.104.81-.273 1.15-.507.34-.243.63-.568.84-.975.22-.407.33-.923.33-1.547 0-.659-.11-1.196-.33-1.612-.21-.416-.5-.741-.84-.975s-.72-.394-1.15-.481c-.42-.087-.85-.13-1.27-.13h-1.36v6.37zm10.17-7.774h2.57l2.39 6.539h.04l2.36-6.539h2.58v9.204h-1.63v-7.397h-.02l-2.8 7.397h-1.14l-2.76-7.397h-.03v7.397h-1.56zm11.96 0h2.17l4.28 6.89h.03v-6.89h1.64v9.204h-2.08l-4.37-7.111h-.03v7.111h-1.64zm18.21 8.723c-.47.225-.99.399-1.55.52-.55.13-1.2.195-1.92.195-.75 0-1.43-.117-2.04-.351-.62-.243-1.15-.576-1.59-1.001-.44-.433-.79-.945-1.04-1.534-.24-.598-.36-1.257-.36-1.976 0-.737.12-1.4.37-1.989.26-.598.61-1.105 1.06-1.521s.97-.737 1.58-.962 1.27-.338 1.98-.338c.73 0 1.41.108 2.01.325.62.208 1.11.485 1.48.832l-1.13 1.222c-.23-.26-.56-.481-.98-.663s-.88-.273-1.37-.273c-.48 0-.93.087-1.33.26-.39.173-.72.412-1 .715-.27.303-.49.659-.65 1.066-.14.407-.22.849-.22 1.326 0 .494.08.949.22 1.365.16.407.38.763.65 1.066.29.303.63.542 1.03.715.41.165.87.247 1.38.247.7 0 1.31-.108 1.83-.325v-2.34h-1.94v-1.352h3.53zm1.99-8.723h3.2c.43 0 .85.048 1.26.143.41.087.77.234 1.08.442.32.208.58.481.77.819s.28.75.28 1.235c0 .667-.19 1.213-.57 1.638-.37.416-.88.698-1.53.845l2.45 4.082h-1.97l-2.13-3.9h-1.2v3.9h-1.64zm2.98 3.965c.23 0 .47-.017.7-.052.24-.035.44-.1.63-.195s.34-.23.46-.403c.12-.182.19-.412.19-.689 0-.251-.06-.455-.17-.611-.12-.165-.26-.295-.43-.39-.18-.095-.38-.16-.6-.195s-.43-.052-.64-.052h-1.48v2.587z" fill="#fff"/><rect fill="#fff" height="112.309" rx="11" stroke="#00d563" stroke-width="2" transform="matrix(.70710678 -.70710678 .70710678 .70710678 91.236907 429.687377)" width="112.309" x="564.297" y="104.711"/><path d="m621.614 102.454h1.551l2.142-7.6263h.08l2.143 7.6263h1.546l2.829-10.1817h-1.621l-1.979 7.8897h-.094l-2.063-7.8897h-1.601l-2.063 7.8847h-.095l-1.984-7.8847h-1.615zm13.043.169c1.262 0 1.973-.641 2.257-1.213h.059v1.044h1.452v-5.0709c0-2.2223-1.75-2.6648-2.963-2.6648-1.382 0-2.655.5568-3.152 1.9489l1.397.3182c.219-.542.776-1.064 1.775-1.064.959 0 1.452.5022 1.452 1.3672v.0348c0 .5419-.557.532-1.929.6911-1.447.169-2.929.5468-2.929 2.2815 0 1.502 1.129 2.327 2.581 2.327zm.323-1.193c-.841 0-1.447-.378-1.447-1.114 0-.7951.706-1.0785 1.566-1.1929.482-.0646 1.626-.1939 1.839-.4076v.9843c0 .9052-.72 1.7302-1.958 1.7302zm6.911-3.51c0-1.218.746-1.9141 1.78-1.9141 1.01 0 1.621.6613 1.621 1.7699v4.6782h1.487v-4.8571c0-1.8892-1.04-2.8786-2.601-2.8786-1.148 0-1.899.532-2.252 1.3423h-.094v-1.2429h-1.427v7.6363h1.486zm10.446-3.1023h-1.566v-1.8295h-1.487v1.8295h-1.118v1.1932h1.118v4.5091c-.005 1.387 1.054 2.058 2.227 2.034.473-.005.791-.095.965-.16l-.269-1.228c-.099.02-.283.065-.522.065-.482 0-.914-.159-.914-1.019v-4.2011h1.566zm8.914 0h-1.566v-1.8295h-1.487v1.8295h-1.118v1.1932h1.118v4.5091c-.005 1.387 1.054 2.058 2.228 2.034.472-.005.79-.095.964-.16l-.268-1.228c-.1.02-.284.065-.522.065-.483 0-.915-.159-.915-1.019v-4.2011h1.566zm4.779 7.7903c2.152 0 3.559-1.576 3.559-3.9373 0-2.3764-1.407-3.9524-3.559-3.9524-2.153 0-3.56 1.576-3.56 3.9524 0 2.3613 1.407 3.9373 3.56 3.9373zm.005-1.248c-1.407 0-2.063-1.228-2.063-2.6943 0-1.4616.656-2.7045 2.063-2.7045 1.397 0 2.053 1.2429 2.053 2.7045 0 1.4663-.656 2.6943-2.053 2.6943zm-52.068 18.248c1.805 0 2.973-1.084 3.137-2.57h-1.446c-.189.825-.831 1.312-1.681 1.312-1.258 0-2.068-1.049-2.068-2.714 0-1.636.825-2.665 2.068-2.665.945 0 1.522.597 1.681 1.313h1.446c-.159-1.542-1.417-2.566-3.152-2.566-2.152 0-3.544 1.621-3.544 3.953 0 2.302 1.342 3.937 3.559 3.937zm7.944 0c2.152 0 3.559-1.576 3.559-3.937 0-2.377-1.407-3.953-3.559-3.953-2.153 0-3.56 1.576-3.56 3.953 0 2.361 1.407 3.937 3.56 3.937zm.005-1.248c-1.407 0-2.064-1.228-2.064-2.694 0-1.462.657-2.705 2.064-2.705 1.397 0 2.053 1.243 2.053 2.705 0 1.466-.656 2.694-2.053 2.694zm6.7-3.44c0-1.218.746-1.914 1.78-1.914 1.009 0 1.621.661 1.621 1.77v4.678h1.486v-4.857c0-1.889-1.039-2.879-2.6-2.879-1.148 0-1.899.532-2.252 1.343h-.095v-1.243h-1.426v7.636h1.486zm10.445-3.102h-1.566v-1.83h-1.486v1.83h-1.119v1.193h1.119v4.509c-.005 1.387 1.054 2.058 2.227 2.034.472-.005.791-.095.965-.16l-.269-1.228c-.099.02-.283.065-.522.065-.482 0-.915-.159-.915-1.019v-4.201h1.566zm1.645 7.636h1.486v-4.663c0-1 .771-1.72 1.825-1.72.308 0 .656.054.775.089v-1.422c-.149-.02-.442-.035-.631-.035-.895 0-1.661.507-1.939 1.328h-.079v-1.213h-1.437zm5.373 0h1.486v-7.636h-1.486zm.75-8.815c.513 0 .94-.397.94-.884 0-.488-.427-.89-.94-.89-.517 0-.939.402-.939.89 0 .487.422.884.939.884zm2.855 8.815h1.452v-1.188h.124c.269.487.816 1.337 2.208 1.337 1.849 0 3.192-1.481 3.192-3.952 0-2.476-1.363-3.933-3.207-3.933-1.417 0-1.929.865-2.193 1.338h-.089v-3.784h-1.487zm1.457-3.818c0-1.596.696-2.655 1.994-2.655 1.347 0 2.023 1.139 2.023 2.655 0 1.531-.696 2.699-2.023 2.699-1.278 0-1.994-1.093-1.994-2.699zm12.025.651c.005 1.298-.959 1.914-1.795 1.914-.919 0-1.556-.666-1.556-1.705v-4.678h-1.486v4.857c0 1.894 1.039 2.879 2.505 2.879 1.149 0 1.929-.607 2.282-1.422h.08v1.322h1.462v-7.636h-1.492zm7.054-4.469h-1.566v-1.83h-1.487v1.83h-1.119v1.193h1.119v4.509c-.005 1.387 1.054 2.058 2.227 2.034.473-.005.791-.095.965-.16l-.269-1.228c-.099.02-.283.065-.522.065-.482 0-.914-.159-.914-1.019v-4.201h1.566zm4.853 7.79c1.666 0 2.844-.82 3.182-2.063l-1.407-.254c-.269.721-.915 1.089-1.76 1.089-1.273 0-2.128-.825-2.168-2.297h5.429v-.527c0-2.759-1.65-3.838-3.38-3.838-2.128 0-3.53 1.621-3.53 3.968 0 2.371 1.382 3.922 3.634 3.922zm-2.148-4.638c.06-1.084.846-2.024 2.054-2.024 1.153 0 1.909.855 1.914 2.024z" fill="#00d563"/><path d="m1078.8 54.7981-47.5 97.7599c-.97 2.069.54 4.442 2.82 4.442h178.25c1.21 0 2.31-.701 2.83-1.798l47.5-97.7601c.97-2.0687-.54-4.4419-2.82-4.4419h-178.25c-1.21 0-2.31.701-2.83 1.7981z" fill="#cecccc"/><path d="m1101.02 75.3636h-1.74v8.5455h-.11l-5.92-8.5455h-1.63v11.6364h1.76v-8.5341h.11l5.91 8.5341h1.62zm4.79 11.8296c1.44 0 2.25-.733 2.57-1.3864h.07v1.1932h1.66v-5.7955c0-2.5397-2-3.0454-3.38-3.0454-1.58 0-3.04.6364-3.61 2.2273l1.6.3636c.25-.6193.89-1.2159 2.03-1.2159 1.1 0 1.66.5739 1.66 1.5625v.0398c0 .6193-.64.6079-2.21.7897-1.65.1932-3.34.625-3.34 2.608 0 1.7159 1.29 2.6591 2.95 2.6591zm.36-1.3637c-.96 0-1.65-.4318-1.65-1.2727 0-.9091.81-1.2329 1.79-1.3636.55-.0739 1.86-.2216 2.1-.4659v1.125c0 1.0341-.82 1.9772-2.24 1.9772zm6.03 1.1705h1.7v-5.3807c0-1.1761.82-1.9943 1.79-1.9943.94 0 1.59.625 1.59 1.5739v5.8011h1.7v-5.5625c0-1.0511.64-1.8125 1.75-1.8125.9 0 1.63.5 1.63 1.6818v5.6932h1.7v-5.8523c0-1.9943-1.11-2.9886-2.69-2.9886-1.26 0-2.2.6023-2.62 1.5341h-.09c-.38-.9546-1.18-1.5341-2.35-1.5341-1.15 0-2.01.5739-2.37 1.5341h-.11v-1.4205h-1.63zm17.73.1761c1.9 0 3.25-.9375 3.63-2.3579l-1.61-.2898c-.3.8239-1.04 1.2443-2.01 1.2443-1.45 0-2.43-.9432-2.48-2.625h6.21v-.6022c0-3.1535-1.89-4.3864-3.86-4.3864-2.44 0-4.04 1.8523-4.04 4.5341 0 2.7102 1.58 4.4829 4.16 4.4829zm-2.46-5.3011c.07-1.2386.97-2.3125 2.35-2.3125 1.32 0 2.18.9773 2.18 2.3125zm10.12 3.5341h-1.64l-.05.6364c-.14 1.5397-.5 3.0909-.65 3.7954h1.2c.27-.7443.88-2.4489 1.05-3.8125zm8.63 1.7841c1.45 0 2.26-.733 2.58-1.3864h.07v1.1932h1.66v-5.7955c0-2.5397-2-3.0454-3.39-3.0454-1.58 0-3.03.6364-3.6 2.2273l1.6.3636c.25-.6193.88-1.2159 2.03-1.2159 1.09 0 1.65.5739 1.65 1.5625v.0398c0 .6193-.63.6079-2.2.7897-1.65.1932-3.35.625-3.35 2.608 0 1.7159 1.29 2.6591 2.95 2.6591zm.37-1.3637c-.96 0-1.65-.4318-1.65-1.2727 0-.9091.81-1.2329 1.79-1.3636.55-.0739 1.86-.2216 2.1-.4659v1.125c0 1.0341-.82 1.9772-2.24 1.9772zm6.03 1.1705h1.69v-5.3807c0-1.1761.83-1.9943 1.79-1.9943.95 0 1.6.625 1.6 1.5739v5.8011h1.69v-5.5625c0-1.0511.65-1.8125 1.75-1.8125.9 0 1.64.5 1.64 1.6818v5.6932h1.7v-5.8523c0-1.9943-1.11-2.9886-2.69-2.9886-1.26 0-2.2.6023-2.62 1.5341h-.09c-.38-.9546-1.19-1.5341-2.35-1.5341-1.15 0-2.01.5739-2.38 1.5341h-.1v-1.4205h-1.63zm17.64.1761c2.46 0 4.06-1.8011 4.06-4.5 0-2.7159-1.6-4.517-4.06-4.517s-4.07 1.8011-4.07 4.517c0 2.6989 1.61 4.5 4.07 4.5zm0-1.4261c-1.61 0-2.36-1.4034-2.36-3.0795 0-1.6705.75-3.091 2.36-3.091 1.6 0 2.35 1.4205 2.35 3.091 0 1.6761-.75 3.0795-2.35 3.0795zm11.31-2.3693c.01 1.4829-1.09 2.1875-2.05 2.1875-1.05 0-1.78-.7614-1.78-1.9489v-5.3466h-1.69v5.5512c0 2.1647 1.18 3.2897 2.86 3.2897 1.31 0 2.2-.6931 2.61-1.625h.09v1.5114h1.67v-8.7273h-1.71zm5.51-1.5625c0-1.3921.86-2.1875 2.04-2.1875 1.15 0 1.85.7557 1.85 2.0227v5.3466h1.7v-5.5511c0-2.1591-1.19-3.2898-2.97-3.2898-1.32 0-2.17.6079-2.58 1.5341h-.1v-1.4205h-1.64v8.7273h1.7zm11.77-3.5455h-1.79v-2.0909h-1.7v2.0909h-1.28v1.3637h1.28v5.1534c-.01 1.5852 1.2 2.3522 2.54 2.3238.54-.0056.91-.1079 1.1-.1818l-.3-1.4034c-.12.0227-.33.0739-.6.0739-.55 0-1.04-.1818-1.04-1.1648v-4.8011h1.79zm3.91 7.1364h-1.64l-.05.6364c-.14 1.5397-.5 3.0909-.65 3.7954h1.2c.28-.7443.88-2.4489 1.05-3.8125zm-110.73 28.8639h1.7v-4.631h.1c.31.557.93 1.528 2.52 1.528 2.12 0 3.65-1.693 3.65-4.517 0-2.829-1.56-4.494-3.67-4.494-1.61 0-2.2.989-2.5 1.529h-.14v-1.415h-1.66zm1.66-7.637c0-1.824.8-3.034 2.28-3.034 1.54 0 2.31 1.301 2.31 3.034 0 1.75-.79 3.086-2.31 3.086-1.46 0-2.28-1.25-2.28-3.086zm9.74-.818c0-1.392.88-2.187 2.09-2.187 1.17 0 1.87.744 1.87 2.022v5.347h1.69v-5.551c0-2.176-1.19-3.29-2.98-3.29-1.36 0-2.18.591-2.59 1.534h-.11v-4.3294h-1.67v11.6364h1.7zm11.42 5.358c2.46 0 4.07-1.801 4.07-4.5 0-2.716-1.61-4.517-4.07-4.517s-4.07 1.801-4.07 4.517c0 2.699 1.61 4.5 4.07 4.5zm.01-1.426c-1.61 0-2.36-1.403-2.36-3.08 0-1.67.75-3.09 2.36-3.09 1.59 0 2.34 1.42 2.34 3.09 0 1.677-.75 3.08-2.34 3.08zm7.48-3.932c0-1.392.85-2.187 2.03-2.187 1.16 0 1.86.755 1.86 2.022v5.347h1.69v-5.551c0-2.159-1.18-3.29-2.97-3.29-1.31 0-2.17.608-2.57 1.534h-.11v-1.42h-1.63v8.727h1.7zm11.45 5.358c1.9 0 3.25-.937 3.63-2.358l-1.6-.29c-.31.824-1.05 1.245-2.01 1.245-1.46 0-2.44-.943-2.48-2.625h6.2v-.603c0-3.153-1.88-4.386-3.86-4.386-2.43 0-4.04 1.852-4.04 4.534 0 2.71 1.58 4.483 4.16 4.483zm-2.46-5.301c.07-1.239.97-2.313 2.35-2.313 1.32 0 2.18.978 2.19 2.313zm13.67-.057c0-1.392.85-2.187 2.03-2.187 1.16 0 1.85.755 1.85 2.022v5.347h1.7v-5.551c0-2.159-1.18-3.29-2.97-3.29-1.31 0-2.17.608-2.57 1.534h-.11v-1.42h-1.63v8.727h1.7zm13.21 1.563c.01 1.483-1.09 2.187-2.05 2.187-1.05 0-1.77-.761-1.77-1.949v-5.346h-1.7v5.551c0 2.165 1.18 3.29 2.86 3.29 1.31 0 2.2-.694 2.61-1.625h.09v1.511h1.67v-8.727h-1.71zm3.82 3.619h1.69v-5.381c0-1.176.83-1.994 1.79-1.994.95 0 1.6.625 1.6 1.574v5.801h1.69v-5.562c0-1.052.65-1.813 1.75-1.813.9 0 1.64.5 1.64 1.682v5.693h1.7v-5.852c0-1.995-1.11-2.989-2.69-2.989-1.26 0-2.2.602-2.62 1.534h-.09c-.38-.954-1.19-1.534-2.35-1.534-1.15 0-2.01.574-2.38 1.534h-.1v-1.42h-1.63zm14.1 0h1.66v-1.358h.14c.3.557.93 1.528 2.52 1.528 2.11 0 3.65-1.693 3.65-4.517 0-2.829-1.56-4.494-3.67-4.494-1.62 0-2.2.989-2.5 1.529h-.1v-4.3244h-1.7zm1.66-4.364c0-1.824.8-3.034 2.28-3.034 1.54 0 2.31 1.301 2.31 3.034 0 1.75-.79 3.086-2.31 3.086-1.46 0-2.28-1.25-2.28-3.086zm11.8 4.54c1.9 0 3.25-.937 3.64-2.358l-1.61-.29c-.31.824-1.05 1.245-2.01 1.245-1.46 0-2.43-.943-2.48-2.625h6.21v-.603c0-3.153-1.89-4.386-3.87-4.386-2.43 0-4.03 1.852-4.03 4.534 0 2.71 1.58 4.483 4.15 4.483zm-2.45-5.301c.07-1.239.96-2.313 2.34-2.313 1.32 0 2.19.978 2.19 2.313zm7.9 5.125h1.7v-5.33c0-1.142.88-1.965 2.09-1.965.35 0 .75.062.89.102v-1.625c-.18-.023-.51-.04-.73-.04-1.02 0-1.89.58-2.21 1.517h-.09v-1.386h-1.65zm7.18-1.591h-1.64l-.05.636c-.13 1.54-.5 3.091-.65 3.796h1.2c.28-.744.88-2.449 1.05-3.813zm-83.21 25.767c2.07 0 3.4-1.238 3.59-2.937h-1.65c-.22.943-.95 1.5-1.92 1.5-1.44 0-2.37-1.199-2.37-3.103 0-1.869.94-3.045 2.37-3.045 1.07 0 1.73.682 1.92 1.5h1.65c-.18-1.761-1.62-2.932-3.6-2.932-2.46 0-4.05 1.852-4.05 4.517 0 2.631 1.53 4.5 4.06 4.5zm7.77.017c1.44 0 2.26-.733 2.58-1.386h.07v1.193h1.66v-5.795c0-2.54-2-3.046-3.39-3.046-1.58 0-3.03.636-3.6 2.227l1.59.364c.25-.619.89-1.216 2.03-1.216 1.1 0 1.66.574 1.66 1.563v.039c0 .62-.63.608-2.2.79-1.66.193-3.35.625-3.35 2.608 0 1.716 1.29 2.659 2.95 2.659zm.37-1.363c-.96 0-1.65-.432-1.65-1.273 0-.909.8-1.233 1.79-1.364.55-.074 1.85-.221 2.1-.466v1.125c0 1.034-.83 1.978-2.24 1.978zm6.02 1.17h1.7v-5.33c0-1.142.88-1.965 2.09-1.965.35 0 .75.062.88.102v-1.625c-.17-.023-.5-.04-.72-.04-1.02 0-1.9.58-2.21 1.517h-.09v-1.386h-1.65zm8.92.17c1.59 0 2.22-.971 2.53-1.528h.14v1.358h1.66v-11.636h-1.7v4.324h-.1c-.31-.54-.89-1.529-2.52-1.529-2.1 0-3.66 1.665-3.66 4.494 0 2.824 1.53 4.517 3.65 4.517zm.38-1.448c-1.52 0-2.31-1.336-2.31-3.086 0-1.733.77-3.034 2.31-3.034 1.48 0 2.28 1.21 2.28 3.034 0 1.836-.82 3.086-2.28 3.086zm10.25 1.278h1.7v-8.727h-1.7zm.86-10.074c.59 0 1.08-.454 1.08-1.011s-.49-1.017-1.08-1.017-1.07.46-1.07 1.017.48 1.011 1.07 1.011zm4.65 4.892c0-1.392.85-2.187 2.03-2.187 1.16 0 1.86.755 1.86 2.022v5.347h1.7v-5.551c0-2.159-1.19-3.29-2.98-3.29-1.31 0-2.17.608-2.57 1.534h-.11v-1.42h-1.63v8.727h1.7zm11.84-3.545h-1.88v-.784c0-.773.32-1.194 1.15-1.194.35 0 .6.08.76.131l.4-1.375c-.24-.091-.74-.233-1.42-.233-1.38 0-2.59.807-2.59 2.443v1.012h-1.35v1.363h1.35v7.364h1.7v-7.364h1.88zm4.91 8.903c2.46 0 4.07-1.801 4.07-4.5 0-2.716-1.61-4.517-4.07-4.517s-4.07 1.801-4.07 4.517c0 2.699 1.61 4.5 4.07 4.5zm.01-1.426c-1.61 0-2.36-1.403-2.36-3.08 0-1.67.75-3.09 2.36-3.09 1.59 0 2.34 1.42 2.34 3.09 0 1.677-.75 3.08-2.34 3.08z" fill="#333"/><rect fill="#00d563" height="50" rx="25" width="150" x="71" y="80"/><path d="m132.474 102.72c-.174-.225-.421-.412-.741-.559-.312-.156-.629-.234-.949-.234-.191 0-.382.026-.572.078-.191.043-.364.117-.52.221-.156.095-.286.225-.39.39-.096.156-.143.347-.143.572 0 .208.043.386.13.533.086.147.203.273.351.377.156.104.342.195.559.273.216.078.455.156.715.234.294.095.598.204.91.325.32.121.611.282.871.481.268.199.485.451.65.754.173.303.26.68.26 1.131 0 .494-.091.927-.273 1.3-.182.364-.425.667-.728.91-.304.243-.659.425-1.066.546-.408.121-.837.182-1.287.182-.598 0-1.183-.108-1.755-.325-.572-.225-1.04-.555-1.404-.988l1.17-1.092c.225.312.524.559.897.741.381.182.754.273 1.118.273.19 0 .385-.022.585-.065.199-.052.377-.134.533-.247.164-.113.294-.251.39-.416.104-.173.156-.386.156-.637 0-.243-.057-.442-.169-.598-.113-.165-.265-.303-.455-.416-.191-.121-.416-.225-.676-.312s-.533-.178-.819-.273c-.278-.087-.555-.191-.832-.312-.278-.121-.529-.282-.754-.481-.217-.199-.395-.442-.533-.728-.139-.295-.208-.659-.208-1.092 0-.468.095-.871.286-1.209.199-.338.455-.615.767-.832.32-.225.68-.39 1.079-.494.407-.113.819-.169 1.235-.169.468 0 .94.082 1.417.247.485.165.905.412 1.261.741zm4.427-.494h-2.821v-1.43h7.28v1.43h-2.821v7.774h-1.638zm7.642-1.43h1.417l3.965 9.204h-1.872l-.858-2.106h-3.991l-.832 2.106h-1.833zm2.08 5.694-1.417-3.744-1.443 3.744zm4.212-5.694h3.198c.434 0 .854.048 1.261.143.408.087.767.234 1.079.442.321.208.577.481.767.819.191.338.286.75.286 1.235 0 .667-.19 1.213-.572 1.638-.372.416-.884.698-1.534.845l2.457 4.082h-1.976l-2.132-3.9h-1.196v3.9h-1.638zm2.977 3.965c.234 0 .468-.017.702-.052s.442-.1.624-.195c.191-.095.347-.23.468-.403.122-.182.182-.412.182-.689 0-.251-.056-.455-.169-.611-.112-.165-.255-.295-.429-.39-.173-.095-.372-.16-.598-.195-.216-.035-.429-.052-.637-.052h-1.482v2.587zm6.906-2.535h-2.821v-1.43h7.28v1.43h-2.821v7.774h-1.638z" fill="#fff"/><rect fill="#f2f2f2" height="100" rx="20" width="200" x="295" y="55"/><path d="m332.648 89.0298h1.351c-.294-1.7003-1.747-2.8764-3.631-2.8764-2.258 0-3.907 1.7003-3.907 4.4872 0 2.7614 1.602 4.4787 3.967 4.4787 2.118 0 3.631-1.3892 3.631-3.5923v-.9929h-3.431v1.0866h2.157c-.03 1.4063-.959 2.2969-2.357 2.2969-1.538 0-2.659-1.1633-2.659-3.2855 0-2.1136 1.129-3.277 2.608-3.277 1.159 0 1.943.6392 2.271 1.6747zm3.082 5.9702h1.317v-3.3026h1.79.085l1.773 3.3026h1.5l-1.935-3.5327c1.07-.3963 1.602-1.2869 1.602-2.4588 0-1.6065-.997-2.7358-3.021-2.7358h-3.111zm1.317-4.4361v-3.1619h1.653c1.3 0 1.837.6179 1.837 1.6065 0 .9844-.537 1.5554-1.819 1.5554zm13.999.0725c0-2.7912-1.671-4.483-3.929-4.483-2.267 0-3.934 1.6918-3.934 4.483 0 2.7869 1.667 4.4829 3.934 4.4829 2.258 0 3.929-1.6917 3.929-4.4829zm-1.304 0c0 2.1264-1.125 3.2812-2.625 3.2812-1.505 0-2.625-1.1548-2.625-3.2812 0-2.1265 1.12-3.2813 2.625-3.2813 1.5 0 2.625 1.1548 2.625 3.2813zm8.558-4.3637v5.6335c0 1.1847-.819 2.037-2.148 2.037-1.325 0-2.148-.8523-2.148-2.037v-5.6335h-1.317v5.7401c0 1.8324 1.372 3.1321 3.465 3.1321 2.092 0 3.469-1.2997 3.469-3.1321v-5.7401zm3.235 8.7273h1.317v-3.0682h1.79c2.024 0 3.025-1.223 3.025-2.8338 0-1.6065-.993-2.8253-3.021-2.8253h-3.111zm1.317-4.1847v-3.4133h1.653c1.304 0 1.837.7074 1.837 1.696s-.533 1.7173-1.82 1.7173zm9.535 4.1847h1.316v-3.0682h1.79c2.024 0 3.026-1.223 3.026-2.8338 0-1.6065-.993-2.8253-3.022-2.8253h-3.11zm1.316-4.1847v-3.4133h1.654c1.304 0 1.836.7074 1.836 1.696s-.532 1.7173-1.819 1.7173zm6.171 4.1847.801-2.3097h3.409l.797 2.3097h1.398l-3.141-8.7273h-1.521l-3.141 8.7273zm1.184-3.4176 1.287-3.7244h.069l1.286 3.7244zm11.977-2.5526h1.351c-.294-1.7003-1.747-2.8764-3.631-2.8764-2.258 0-3.908 1.7003-3.908 4.4872 0 2.7614 1.603 4.4787 3.968 4.4787 2.118 0 3.63-1.3892 3.63-3.5923v-.9929h-3.43v1.0866h2.156c-.029 1.4063-.958 2.2969-2.356 2.2969-1.539 0-2.659-1.1633-2.659-3.2855 0-2.1136 1.129-3.277 2.608-3.277 1.159 0 1.943.6392 2.271 1.6747zm3.082 5.9702h5.523v-1.1335h-4.206v-2.6719h3.869v-1.1293h-3.869v-2.6591h4.155v-1.1335h-5.472zm11.143 0 .802-2.3097h3.409l.797 2.3097h1.397l-3.14-8.7273h-1.522l-3.14 8.7273zm1.185-3.4176 1.287-3.7244h.068l1.287 3.7244zm11.17-3.0171h1.27c-.038-1.3977-1.274-2.4119-3.047-2.4119-1.751 0-3.094 1.0014-3.094 2.5057 0 1.2145.87 1.9261 2.272 2.3054l1.031.2812c.933.2472 1.653.554 1.653 1.3296 0 .8523-.813 1.4148-1.934 1.4148-1.014 0-1.858-.4517-1.935-1.402h-1.321c.085 1.5809 1.308 2.5568 3.264 2.5568 2.05 0 3.23-1.0781 3.23-2.5568 0-1.5725-1.402-2.1819-2.51-2.4546l-.852-.2216c-.682-.1747-1.589-.4943-1.585-1.3295 0-.7415.678-1.2912 1.751-1.2912 1.002 0 1.713.4687 1.807 1.2741zm2.963 6.4347h1.317v-2.7145l1.031-1.1846 2.821 3.8991h1.585l-3.532-4.7983 3.519-3.929h-1.657l-3.661 4.1676h-.106v-4.1676h-1.317zm9.285-8.7273h-1.316v8.7273h1.316zm8.962 0h-1.304v6.4091h-.081l-4.44-6.4091h-1.219v8.7273h1.317v-6.4006h.081l4.436 6.4006h1.21zm7.827 2.7571h1.351c-.294-1.7003-1.747-2.8764-3.631-2.8764-2.258 0-3.907 1.7003-3.907 4.4872 0 2.7614 1.602 4.4787 3.967 4.4787 2.118 0 3.631-1.3892 3.631-3.5923v-.9929h-3.431v1.0866h2.157c-.03 1.4063-.959 2.2969-2.357 2.2969-1.538 0-2.659-1.1633-2.659-3.2855 0-2.1136 1.129-3.277 2.608-3.277 1.159 0 1.943.6392 2.271 1.6747zm7.575-2.7571h-1.317v8.7273h1.317zm1.917 8.7273h1.317v-3.8054h3.708v-1.1293h-3.708v-2.6591h4.095v-1.1335h-5.412zm-108.295 7.406h2.718v7.594h1.313v-7.594h2.723v-1.133h-6.754zm8.247 7.594h1.316v-3.805h4.351v3.805h1.321v-8.727h-1.321v3.792h-4.351v-3.792h-1.316zm8.906 0h5.523v-1.134h-4.206v-2.671h3.869v-1.13h-3.869v-2.659h4.154v-1.133h-5.471zm6.557-8.727 3.166 5.301v3.426h1.313v-3.426l3.166-5.301h-1.496l-2.28 3.967h-.093l-2.28-3.967zm13.773 8.727h1.329l1.837-6.537h.068l1.837 6.537h1.325l2.425-8.727h-1.39l-1.696 6.763h-.08l-1.769-6.763h-1.372l-1.769 6.758h-.081l-1.7-6.758h-1.385zm10.009 0 .801-2.31h3.409l.797 2.31h1.397l-3.14-8.727h-1.522l-3.14 8.727zm1.184-3.418 1.287-3.724h.068l1.287 3.724zm13.525-5.309h-1.304v6.409h-.081l-4.441-6.409h-1.218v8.727h1.316v-6.401h.081l4.436 6.401h1.211zm1.49 1.133h2.719v7.594h1.312v-7.594h2.723v-1.133h-6.754zm10.992 0h2.719v7.594h1.313v-7.594h2.723v-1.133h-6.755zm15.465 3.23c0-2.791-1.671-4.483-3.929-4.483-2.267 0-3.933 1.692-3.933 4.483 0 2.787 1.666 4.483 3.933 4.483 2.258 0 3.929-1.691 3.929-4.483zm-1.304 0c0 2.127-1.125 3.282-2.625 3.282-1.504 0-2.625-1.155-2.625-3.282 0-2.126 1.121-3.281 2.625-3.281 1.5 0 2.625 1.155 2.625 3.281zm-74.257 13.475c-.298-1.867-1.76-2.958-3.605-2.958-2.259 0-3.925 1.692-3.925 4.483 0 2.792 1.658 4.483 3.925 4.483 1.917 0 3.319-1.201 3.605-2.927l-1.33-.004c-.225 1.116-1.163 1.73-2.267 1.73-1.495 0-2.625-1.147-2.625-3.282 0-2.118 1.125-3.281 2.63-3.281 1.112 0 2.045.627 2.262 1.756zm9.157 1.525c0-2.791-1.671-4.483-3.929-4.483-2.268 0-3.934 1.692-3.934 4.483 0 2.787 1.666 4.483 3.934 4.483 2.258 0 3.929-1.691 3.929-4.483zm-1.304 0c0 2.127-1.125 3.282-2.625 3.282-1.505 0-2.625-1.155-2.625-3.282 0-2.126 1.12-3.281 2.625-3.281 1.5 0 2.625 1.155 2.625 3.281zm9.989-4.363h-1.304v6.409h-.081l-4.44-6.409h-1.219v8.727h1.317v-6.401h.081l4.436 6.401h1.21zm1.491 1.133h2.718v7.594h1.313v-7.594h2.723v-1.133h-6.754zm8.246 7.594h1.317v-3.303h1.79.085l1.773 3.303h1.5l-1.935-3.533c1.07-.396 1.603-1.287 1.603-2.458 0-1.607-.998-2.736-3.022-2.736h-3.111zm1.317-4.436v-3.162h1.654c1.299 0 1.836.618 1.836 1.607 0 .984-.537 1.555-1.819 1.555zm7.735-4.291h-1.317v8.727h1.317zm1.917 8.727h3.345c2.029 0 2.945-1.01 2.945-2.348 0-1.351-.946-2.114-1.811-2.161v-.085c.801-.204 1.47-.75 1.47-1.841 0-1.291-.895-2.292-2.753-2.292h-3.196zm1.317-1.129v-2.796h1.947c1.057 0 1.718.682 1.718 1.513 0 .733-.499 1.283-1.764 1.283zm0-3.823v-2.655h1.798c1.044 0 1.543.55 1.543 1.275 0 .843-.69 1.38-1.577 1.38zm12.147-3.775v5.633c0 1.185-.818 2.037-2.148 2.037-1.325 0-2.147-.852-2.147-2.037v-5.633h-1.317v5.74c0 1.832 1.372 3.132 3.464 3.132 2.093 0 3.469-1.3 3.469-3.132v-5.74zm2.805 1.133h2.719v7.594h1.312v-7.594h2.723v-1.133h-6.754zm8.247 7.594h5.523v-1.134h-4.206v-2.671h3.869v-1.13h-3.869v-2.659h4.154v-1.133h-5.471z" fill="#000"/><rect fill="#f2f2f2" height="100" rx="20" width="200" x="775" y="55"/><path d="m830.262 110h1.316v-3.068h1.79c2.024 0 3.026-1.223 3.026-2.834 0-1.607-.993-2.825-3.022-2.825h-3.11zm1.316-4.185v-3.413h1.654c1.304 0 1.836.707 1.836 1.696s-.532 1.717-1.819 1.717zm6.171 4.185.801-2.31h3.409l.797 2.31h1.398l-3.141-8.727h-1.521l-3.141 8.727zm1.184-3.418 1.287-3.724h.069l1.286 3.724zm4.917-5.309 3.166 5.301v3.426h1.313v-3.426l3.166-5.301h-1.496l-2.28 3.967h-.093l-2.28-3.967zm8.888 0v8.727h1.253v-6.32h.081l2.574 6.307h1.04l2.573-6.302h.081v6.315h1.253v-8.727h-1.598l-2.778 6.784h-.102l-2.779-6.784zm10.77 8.727h5.522v-1.134h-4.206v-2.671h3.87v-1.13h-3.87v-2.659h4.155v-1.133h-5.471zm14.274-8.727h-1.304v6.409h-.081l-4.44-6.409h-1.219v8.727h1.317v-6.401h.081l4.436 6.401h1.21zm1.491 1.133h2.718v7.594h1.313v-7.594h2.723v-1.133h-6.754zm11.422 7.594h1.317v-3.068h1.79c2.024 0 3.025-1.223 3.025-2.834 0-1.607-.993-2.825-3.021-2.825h-3.111zm1.317-4.185v-3.413h1.653c1.304 0 1.837.707 1.837 1.696s-.533 1.717-1.82 1.717zm6.17 4.185.801-2.31h3.41l.796 2.31h1.398l-3.14-8.727h-1.522l-3.14 8.727zm1.185-3.418 1.287-3.724h.068l1.287 3.724zm11.977-2.552h1.35c-.294-1.7-1.747-2.877-3.63-2.877-2.259 0-3.908 1.701-3.908 4.488 0 2.761 1.602 4.478 3.967 4.478 2.118 0 3.631-1.389 3.631-3.592v-.993h-3.43v1.087h2.156c-.03 1.406-.959 2.297-2.357 2.297-1.538 0-2.659-1.164-2.659-3.286 0-2.114 1.13-3.277 2.608-3.277 1.159 0 1.943.639 2.272 1.675zm3.082 5.97h5.522v-1.134h-4.206v-2.671h3.87v-1.13h-3.87v-2.659h4.155v-1.133h-5.471z" fill="#000"/><rect fill="#f2f2f2" height="100" rx="20" width="200" x="1303" y="55"/><path d="m1371.56 96.0298h1.35c-.29-1.7003-1.74-2.8764-3.63-2.8764-2.26 0-3.91 1.7003-3.91 4.4872 0 2.7614 1.61 4.4784 3.97 4.4784 2.12 0 3.63-1.389 3.63-3.592v-.9929h-3.43v1.0866h2.16c-.03 1.4063-.96 2.2973-2.36 2.2973-1.54 0-2.66-1.1637-2.66-3.2859 0-2.1136 1.13-3.277 2.61-3.277 1.16 0 1.94.6392 2.27 1.6747zm3.08 5.9702h1.32v-3.3026h1.79.09l1.77 3.3026h1.5l-1.94-3.5327c1.07-.3963 1.61-1.2869 1.61-2.4588 0-1.6065-1-2.7358-3.02-2.7358h-3.12zm1.32-4.4361v-3.1619h1.65c1.3 0 1.84.6179 1.84 1.6065 0 .9844-.54 1.5554-1.82 1.5554zm14 .0725c0-2.7912-1.67-4.483-3.93-4.483-2.27 0-3.93 1.6918-3.93 4.483 0 2.7866 1.66 4.4826 3.93 4.4826 2.26 0 3.93-1.691 3.93-4.4826zm-1.3 0c0 2.1264-1.13 3.2816-2.63 3.2816s-2.62-1.1552-2.62-3.2816c0-2.1265 1.12-3.2813 2.62-3.2813s2.63 1.1548 2.63 3.2813zm8.55-4.3637v5.6335c0 1.1848-.81 2.0368-2.14 2.0368s-2.15-.852-2.15-2.0368v-5.6335h-1.32v5.7401c0 1.8322 1.37 3.1322 3.47 3.1322 2.09 0 3.46-1.3 3.46-3.1322v-5.7401zm3.24 8.7273h1.32v-3.0682h1.79c2.02 0 3.02-1.223 3.02-2.8338 0-1.6065-.99-2.8253-3.02-2.8253h-3.11zm1.32-4.1847v-3.4133h1.65c1.3 0 1.84.7074 1.84 1.696s-.54 1.7173-1.82 1.7173zm9.53 4.1847h1.32v-3.0682h1.79c2.02 0 3.02-1.223 3.02-2.8338 0-1.6065-.99-2.8253-3.02-2.8253h-3.11zm1.32-4.1847v-3.4133h1.65c1.3 0 1.84.7074 1.84 1.696s-.54 1.7173-1.82 1.7173zm6.17 4.1847.8-2.3097h3.41l.79 2.3097h1.4l-3.14-8.7273h-1.52l-3.14 8.7273zm1.18-3.4176 1.29-3.7244h.07l1.28 3.7244zm11.98-2.5526h1.35c-.29-1.7003-1.75-2.8764-3.63-2.8764-2.26 0-3.91 1.7003-3.91 4.4872 0 2.7614 1.6 4.4784 3.97 4.4784 2.12 0 3.63-1.389 3.63-3.592v-.9929h-3.43v1.0866h2.16c-.03 1.4063-.96 2.2973-2.36 2.2973-1.54 0-2.66-1.1637-2.66-3.2859 0-2.1136 1.13-3.277 2.61-3.277 1.16 0 1.94.6392 2.27 1.6747zm3.08 5.9702h5.52v-1.134h-4.2v-2.6714h3.87v-1.1293h-3.87v-2.6591h4.15v-1.1335h-5.47zm-85.07 10.636c0 2.14.57 3.921 1.66 5.438h1.16c-.83-1.125-1.5-3.409-1.5-5.438 0-2.024.67-4.308 1.5-5.433h-1.16c-1.09 1.517-1.66 3.298-1.66 5.433zm11.52-1.525c-.3-1.867-1.76-2.958-3.61-2.958-2.25 0-3.92 1.692-3.92 4.483 0 2.792 1.66 4.483 3.92 4.483 1.92 0 3.32-1.201 3.61-2.927l-1.33-.004c-.23 1.116-1.16 1.73-2.27 1.73-1.49 0-2.62-1.147-2.62-3.282 0-2.118 1.12-3.281 2.63-3.281 1.11 0 2.04.627 2.26 1.756zm9.16 1.525c0-2.791-1.67-4.483-3.93-4.483-2.27 0-3.94 1.692-3.94 4.483 0 2.787 1.67 4.483 3.94 4.483 2.26 0 3.93-1.691 3.93-4.483zm-1.31 0c0 2.127-1.12 3.282-2.62 3.282-1.51 0-2.63-1.155-2.63-3.282 0-2.126 1.12-3.281 2.63-3.281 1.5 0 2.62 1.155 2.62 3.281zm9.99-4.363h-1.3v6.409h-.08l-4.44-6.409h-1.22v8.727h1.31v-6.401h.08l4.44 6.401h1.21zm1.49 1.133h2.72v7.594h1.31v-7.594h2.73v-1.133h-6.76zm8.25 7.594h1.32v-3.303h1.78.09l1.77 3.303h1.5l-1.93-3.533c1.07-.396 1.6-1.287 1.6-2.458 0-1.607-1-2.736-3.02-2.736h-3.11zm1.32-4.436v-3.162h1.65c1.3 0 1.84.618 1.84 1.607 0 .984-.54 1.555-1.82 1.555zm7.73-4.291h-1.32v8.727h1.32zm1.92 8.727h3.34c2.03 0 2.95-1.01 2.95-2.348 0-1.351-.95-2.114-1.81-2.161v-.085c.8-.204 1.47-.75 1.47-1.841 0-1.291-.9-2.292-2.76-2.292h-3.19zm1.31-1.129v-2.796h1.95c1.06 0 1.72.682 1.72 1.513 0 .733-.5 1.283-1.77 1.283zm0-3.823v-2.655h1.8c1.05 0 1.54.55 1.54 1.275 0 .843-.69 1.38-1.57 1.38zm12.15-3.775v5.633c0 1.185-.82 2.037-2.15 2.037-1.32 0-2.14-.852-2.14-2.037v-5.633h-1.32v5.74c0 1.832 1.37 3.132 3.46 3.132 2.1 0 3.47-1.3 3.47-3.132v-5.74zm2.81 1.133h2.71v7.594h1.32v-7.594h2.72v-1.133h-6.75zm9.56-1.133h-1.32v8.727h1.32zm9.5 4.363c0-2.791-1.67-4.483-3.93-4.483-2.27 0-3.93 1.692-3.93 4.483 0 2.787 1.66 4.483 3.93 4.483 2.26 0 3.93-1.691 3.93-4.483zm-1.31 0c0 2.127-1.12 3.282-2.62 3.282-1.51 0-2.63-1.155-2.63-3.282 0-2.126 1.12-3.281 2.63-3.281 1.5 0 2.62 1.155 2.62 3.281zm9.99-4.363h-1.3v6.409h-.08l-4.44-6.409h-1.22v8.727h1.32v-6.401h.08l4.43 6.401h1.21zm6.68 2.292h1.27c-.03-1.397-1.27-2.412-3.04-2.412-1.75 0-3.1 1.002-3.1 2.506 0 1.215.87 1.926 2.28 2.305l1.03.282c.93.247 1.65.554 1.65 1.329 0 .853-.81 1.415-1.93 1.415-1.02 0-1.86-.452-1.94-1.402h-1.32c.08 1.581 1.31 2.557 3.26 2.557 2.05 0 3.23-1.078 3.23-2.557 0-1.572-1.4-2.182-2.51-2.454l-.85-.222c-.68-.175-1.59-.494-1.58-1.33 0-.741.67-1.291 1.75-1.291 1 0 1.71.469 1.8 1.274zm5.32 2.076c0-2.14-.58-3.921-1.66-5.438h-1.17c.84 1.125 1.5 3.409 1.5 5.438 0 2.024-.66 4.308-1.5 5.433h1.17c1.08-1.517 1.66-3.298 1.66-5.433z" fill="#000"/><rect fill="#f2f2f2" height="102" rx="20.4" width="204" x="1911" y="53"/><path d="m1955.34 94.6103h1.38c-.3-1.7343-1.78-2.934-3.71-2.934-2.3 0-3.98 1.7343-3.98 4.577 0 2.8166 1.63 4.5687 4.05 4.5687 2.16 0 3.7-1.4175 3.7-3.6646v-1.0128h-3.5v1.1084h2.2c-.03 1.4344-.98 2.3428-2.4 2.3428-1.57 0-2.72-1.1866-2.72-3.3512 0-2.1559 1.16-3.3426 2.66-3.3426 1.19 0 1.99.652 2.32 1.7083zm3.14 6.0897h1.35v-3.3688h1.82.09l1.81 3.3688h1.53l-1.98-3.6035c1.1-.4042 1.64-1.3127 1.64-2.508 0-1.6386-1.02-2.7905-3.08-2.7905h-3.18zm1.35-4.525v-3.2251h1.68c1.33 0 1.88.6302 1.88 1.6386 0 1.0041-.55 1.5865-1.86 1.5865zm14.28.0739c0-2.847-1.71-4.5726-4.01-4.5726-2.31 0-4.01 1.7256-4.01 4.5726 0 2.8427 1.7 4.5731 4.01 4.5731 2.3 0 4.01-1.7261 4.01-4.5731zm-1.33 0c0 2.169-1.15 3.3469-2.68 3.3469-1.54 0-2.68-1.1779-2.68-3.3469 0-2.1689 1.14-3.3469 2.68-3.3469 1.53 0 2.68 1.178 2.68 3.3469zm8.72-4.4509v5.7462c0 1.2084-.83 2.0777-2.19 2.0777-1.35 0-2.19-.8693-2.19-2.0777v-5.7462h-1.34v5.8549c0 1.869 1.4 3.1951 3.53 3.1951 2.14 0 3.54-1.3261 3.54-3.1951v-5.8549zm3.3 8.902h1.35v-3.1297h1.82c2.07 0 3.09-1.2475 3.09-2.8905 0-1.6387-1.01-2.8818-3.08-2.8818h-3.18zm1.35-4.2685v-3.4816h1.68c1.33 0 1.88.7215 1.88 1.7299s-.55 1.7517-1.86 1.7517zm9.72 4.2685h1.35v-3.1297h1.82c2.07 0 3.09-1.2475 3.09-2.8905 0-1.6387-1.01-2.8818-3.08-2.8818h-3.18zm1.35-4.2685v-3.4816h1.68c1.33 0 1.88.7215 1.88 1.7299s-.55 1.7517-1.86 1.7517zm6.29 4.2685.82-2.356h3.47l.82 2.356h1.42l-3.2-8.902h-1.55l-3.21 8.902zm1.21-3.4861 1.31-3.799h.07l1.31 3.799zm12.21-2.6036h1.38c-.3-1.7343-1.78-2.934-3.7-2.934-2.3 0-3.99 1.7343-3.99 4.577 0 2.8166 1.64 4.5687 4.05 4.5687 2.16 0 3.7-1.4175 3.7-3.6646v-1.0128h-3.5v1.1084h2.2c-.03 1.4344-.97 2.3428-2.4 2.3428-1.57 0-2.71-1.1866-2.71-3.3512 0-2.1559 1.15-3.3426 2.66-3.3426 1.18 0 1.98.652 2.31 1.7083zm3.15 6.0897h5.63v-1.1564h-4.29v-2.7253h3.95v-1.1518h-3.95v-2.7123h4.24v-1.1562h-5.58zm10.89-4.4511c0 2.182.58 3.9991 1.68 5.5461h1.19c-.85-1.147-1.53-3.4771-1.53-5.5461 0-2.0646.68-4.3944 1.53-5.5419h-1.19c-1.1 1.5474-1.68 3.3643-1.68 5.5419zm10.37-1.6386h1.38c-.3-1.7343-1.78-2.934-3.7-2.934-2.31 0-3.99 1.7343-3.99 4.577 0 2.8166 1.64 4.5687 4.05 4.5687 2.16 0 3.7-1.4175 3.7-3.6646v-1.0128h-3.5v1.1084h2.2c-.03 1.4344-.98 2.3428-2.4 2.3428-1.57 0-2.71-1.1866-2.71-3.3512 0-2.1559 1.15-3.3426 2.66-3.3426 1.18 0 1.98.652 2.31 1.7083zm3.15 6.0897h1.34v-3.3688h1.83.08l1.81 3.3688h1.53l-1.97-3.6035c1.09-.4042 1.63-1.3127 1.63-2.508 0-1.6386-1.02-2.7905-3.08-2.7905h-3.17zm1.34-4.525v-3.2251h1.69c1.32 0 1.87.6302 1.87 1.6386 0 1.0041-.55 1.5865-1.86 1.5865zm14.28.0739c0-2.847-1.71-4.5726-4.01-4.5726-2.31 0-4.01 1.7256-4.01 4.5726 0 2.8427 1.7 4.5731 4.01 4.5731 2.3 0 4.01-1.7261 4.01-4.5731zm-1.33 0c0 2.169-1.15 3.3469-2.68 3.3469s-2.68-1.1779-2.68-3.3469c0-2.1689 1.15-3.3469 2.68-3.3469s2.68 1.178 2.68 3.3469zm8.73-4.4509v5.7462c0 1.2084-.84 2.0777-2.19 2.0777-1.36 0-2.19-.8693-2.19-2.0777v-5.7462h-1.35v5.8549c0 1.869 1.4 3.1951 3.54 3.1951 2.13 0 3.53-1.3261 3.53-3.1951v-5.8549zm3.3 8.902h1.34v-3.1297h1.83c2.06 0 3.08-1.2475 3.08-2.8905 0-1.6387-1.01-2.8818-3.08-2.8818h-3.17zm1.34-4.2685v-3.4816h1.69c1.33 0 1.87.7215 1.87 1.7299s-.54 1.7517-1.86 1.7517zm-77.62 13.2615c-.31-1.904-1.8-3.017-3.68-3.017-2.3 0-4 1.726-4 4.573s1.69 4.573 4 4.573c1.96 0 3.39-1.226 3.68-2.987l-1.36-.004c-.23 1.139-1.18 1.765-2.31 1.765-1.52 0-2.68-1.169-2.68-3.347 0-2.16 1.15-3.347 2.69-3.347 1.13 0 2.08.639 2.3 1.791zm1.61 6.007h5.37v-1.156h-4.03v-7.746h-1.34zm14.29-4.451c0-2.847-1.7-4.573-4.01-4.573s-4.01 1.726-4.01 4.573c0 2.843 1.7 4.573 4.01 4.573s4.01-1.726 4.01-4.573zm-1.33 0c0 2.169-1.15 3.347-2.68 3.347s-2.67-1.178-2.67-3.347 1.14-3.347 2.67-3.347 2.68 1.178 2.68 3.347zm7.86-2.113h1.3c-.04-1.425-1.3-2.46-3.11-2.46-1.79 0-3.16 1.022-3.16 2.556 0 1.239.89 1.965 2.32 2.352l1.05.286c.95.253 1.69.566 1.69 1.357 0 .869-.83 1.443-1.98 1.443-1.03 0-1.89-.461-1.97-1.43h-1.35c.09 1.612 1.34 2.608 3.33 2.608 2.09 0 3.3-1.1 3.3-2.608 0-1.604-1.43-2.226-2.56-2.504l-.87-.226c-.7-.178-1.62-.504-1.62-1.356 0-.756.69-1.317 1.79-1.317 1.02 0 1.75.478 1.84 1.299zm3.02 6.564h5.64v-1.156h-4.29v-2.726h3.94v-1.152h-3.94v-2.712h4.23v-1.156h-5.58zm10.26 0c2.71 0 4.28-1.682 4.28-4.464 0-2.769-1.57-4.438-4.19-4.438h-2.97v8.902zm-1.54-1.174v-6.554h1.55c1.95 0 2.95 1.164 2.95 3.264 0 2.108-1 3.29-3.03 3.29zm9.89-3.273c0-2.182-.59-3.999-1.69-5.546h-1.19c.86 1.148 1.53 3.477 1.53 5.546 0 2.065-.67 4.395-1.53 5.542h1.19c1.1-1.547 1.69-3.364 1.69-5.542z" fill="#000"/><rect fill="#f2f2f2" height="102" rx="20.4" width="204" x="1605" y="53"/><path d="m1638.88 91.7981h-1.33v6.5373h-.09l-4.53-6.5373h-1.24v8.9019h1.34v-6.5286h.09l4.52 6.5286h1.24zm9.69 4.4509c0-2.847-1.71-4.5726-4.01-4.5726-2.31 0-4.01 1.7256-4.01 4.5726 0 2.8427 1.7 4.573 4.01 4.573 2.3 0 4.01-1.7259 4.01-4.573zm-1.33 0c0 2.169-1.15 3.3469-2.68 3.3469s-2.68-1.1779-2.68-3.3469c0-2.1689 1.15-3.3468 2.68-3.3468s2.68 1.1779 2.68 3.3468zm2.19-3.2947h2.78v7.7457h1.34v-7.7457h2.77v-1.1562h-6.89zm9.76-1.1562h-1.34v8.9019h1.34zm1.95 8.9019h1.35v-3.8816h3.78v-1.1518h-3.78v-2.7123h4.17v-1.1562h-5.52zm8.52-8.9019h-1.34v8.9019h1.34zm9.35 2.8949c-.31-1.9038-1.8-3.0166-3.68-3.0166-2.3 0-4 1.7256-4 4.5726 0 2.8471 1.69 4.573 4 4.573 1.96 0 3.39-1.2261 3.68-2.9865l-1.36-.0043c-.23 1.1388-1.18 1.7647-2.31 1.7647-1.53 0-2.68-1.1692-2.68-3.3469 0-2.1602 1.15-3.3468 2.68-3.3468 1.14 0 2.09.6389 2.31 1.7908zm2.3 6.007.82-2.3559h3.47l.82 2.3559h1.42l-3.2-8.9019h-1.55l-3.21 8.9019zm1.21-3.486 1.31-3.7989h.07l1.31 3.7989zm5.1-4.2597h2.78v7.7457h1.34v-7.7457h2.77v-1.1562h-6.89zm9.76-1.1562h-1.34v8.9019h1.34zm9.69 4.4509c0-2.847-1.71-4.5726-4.01-4.5726-2.31 0-4.01 1.7256-4.01 4.5726 0 2.8427 1.7 4.573 4.01 4.573 2.3 0 4.01-1.7259 4.01-4.573zm-1.33 0c0 2.169-1.15 3.3469-2.68 3.3469-1.54 0-2.68-1.1779-2.68-3.3469 0-2.1689 1.14-3.3468 2.68-3.3468 1.53 0 2.68 1.1779 2.68 3.3468zm10.19-4.4509h-1.33v6.5373h-.09l-4.53-6.5373h-1.24v8.9019h1.34v-6.5286h.09l4.52 6.5286h1.24zm12.93 4.4509c0-2.847-1.71-4.5726-4.01-4.5726-2.31 0-4.01 1.7256-4.01 4.5726 0 2.8427 1.7 4.573 4.01 4.573 2.3 0 4.01-1.7259 4.01-4.573zm-1.33 0c0 2.169-1.15 3.3469-2.68 3.3469s-2.68-1.1779-2.68-3.3469c0-2.1689 1.15-3.3468 2.68-3.3468s2.68 1.1779 2.68 3.3468zm3 4.451h1.35v-3.8816h3.78v-1.1518h-3.78v-2.7123h4.17v-1.1562h-5.52zm16.44-6.0896h1.38c-.3-1.7343-1.79-2.934-3.71-2.934-2.3 0-3.98 1.7343-3.98 4.577 0 2.8166 1.63 4.5686 4.04 4.5686 2.16 0 3.71-1.4173 3.71-3.6645v-1.0128h-3.5v1.1084h2.2c-.03 1.4344-.98 2.3428-2.41 2.3428-1.57 0-2.71-1.1866-2.71-3.3512 0-2.1559 1.15-3.3425 2.66-3.3425 1.18 0 1.98.652 2.32 1.7082zm3.14 6.0896h1.34v-3.3687h1.83.09l1.8 3.3687h1.53l-1.97-3.6034c1.09-.4042 1.64-1.3126 1.64-2.508 0-1.6386-1.02-2.7905-3.09-2.7905h-3.17zm1.34-4.5249v-3.2251h1.69c1.33 0 1.87.6302 1.87 1.6386 0 1.0041-.54 1.5865-1.85 1.5865zm14.28.0739c0-2.847-1.7-4.5726-4-4.5726-2.32 0-4.02 1.7256-4.02 4.5726 0 2.8427 1.7 4.573 4.02 4.573 2.3 0 4-1.7259 4-4.573zm-1.33 0c0 2.169-1.14 3.3469-2.67 3.3469-1.54 0-2.68-1.1779-2.68-3.3469 0-2.1689 1.14-3.3468 2.68-3.3468 1.53 0 2.67 1.1779 2.67 3.3468zm8.73-4.4509v5.7462c0 1.2084-.83 2.0777-2.19 2.0777-1.35 0-2.19-.8693-2.19-2.0777v-5.7462h-1.34v5.8549c0 1.869 1.4 3.195 3.53 3.195 2.14 0 3.54-1.326 3.54-3.195v-5.8549zm3.3 8.9019h1.35v-3.1296h1.82c2.07 0 3.09-1.2475 3.09-2.8905 0-1.6386-1.02-2.8818-3.09-2.8818h-3.17zm1.35-4.2684v-3.4816h1.68c1.33 0 1.87.7215 1.87 1.7299s-.54 1.7517-1.85 1.7517zm-86.94 13.2614c-.3-1.904-1.79-3.017-3.68-3.017-2.3 0-4 1.726-4 4.573s1.69 4.573 4 4.573c1.96 0 3.39-1.226 3.68-2.986l-1.35-.005c-.23 1.139-1.19 1.765-2.32 1.765-1.52 0-2.67-1.169-2.67-3.347 0-2.16 1.14-3.347 2.68-3.347 1.13 0 2.08.639 2.31 1.791zm1.61 6.007h5.38v-1.156h-4.04v-7.746h-1.34zm14.29-4.451c0-2.847-1.7-4.573-4-4.573-2.32 0-4.02 1.726-4.02 4.573 0 2.843 1.7 4.573 4.02 4.573 2.3 0 4-1.726 4-4.573zm-1.33 0c0 2.169-1.14 3.347-2.67 3.347-1.54 0-2.68-1.178-2.68-3.347s1.14-3.347 2.68-3.347c1.53 0 2.67 1.178 2.67 3.347zm7.86-2.112h1.3c-.04-1.426-1.3-2.461-3.11-2.461-1.79 0-3.15 1.022-3.15 2.556 0 1.239.88 1.965 2.31 2.352l1.05.287c.96.252 1.69.565 1.69 1.356 0 .869-.83 1.443-1.97 1.443-1.04 0-1.9-.461-1.98-1.43h-1.34c.08 1.612 1.33 2.608 3.33 2.608 2.09 0 3.29-1.1 3.29-2.608 0-1.604-1.43-2.226-2.56-2.504l-.87-.226c-.69-.178-1.62-.504-1.62-1.356 0-.756.7-1.317 1.79-1.317 1.02 0 1.75.478 1.84 1.3zm3.03 6.563h5.63v-1.156h-4.29v-2.726h3.95v-1.151h-3.95v-2.713h4.24v-1.156h-5.58zm10.25 0c2.71 0 4.28-1.682 4.28-4.464 0-2.769-1.57-4.438-4.19-4.438h-2.97v8.902zm-1.54-1.174v-6.554h1.55c1.95 0 2.95 1.165 2.95 3.264 0 2.108-1 3.29-3.03 3.29z" fill="#000"/><g fill="#cecccc"><path d="m225 103.5c-.828 0-1.5.672-1.5 1.5s.672 1.5 1.5 1.5zm67.061 2.561c.585-.586.585-1.536 0-2.122l-9.546-9.5456c-.586-.5858-1.536-.5858-2.122 0-.585.5858-.585 1.5355 0 2.1213l8.486 8.4853-8.486 8.485c-.585.586-.585 1.536 0 2.122.586.585 1.536.585 2.122 0zm-67.061.439h66v-3h-66z"/><path d="m499 103.5c-.828 0-1.5.672-1.5 1.5s.672 1.5 1.5 1.5zm67.061 2.561c.585-.586.585-1.536 0-2.122l-9.546-9.5456c-.586-.5858-1.536-.5858-2.122 0-.585.5858-.585 1.5355 0 2.1213l8.486 8.4853-8.486 8.485c-.585.586-.585 1.536 0 2.122.586.585 1.536.585 2.122 0zm-67.061.439h66v-3h-66z"/><path d="m723 103.5c-.828 0-1.5.672-1.5 1.5s.672 1.5 1.5 1.5zm49.061 2.561c.585-.586.585-1.536 0-2.122l-9.546-9.5456c-.586-.5858-1.536-.5858-2.122 0-.585.5858-.585 1.5355 0 2.1213l8.486 8.4853-8.486 8.485c-.585.586-.585 1.536 0 2.122.586.585 1.536.585 2.122 0zm-49.061.439h48v-3h-48z"/><path d="m979 103.5c-.828 0-1.5.672-1.5 1.5s.672 1.5 1.5 1.5zm73.38 2.561c.59-.586.59-1.536 0-2.122l-9.54-9.5456c-.59-.5858-1.54-.5858-2.12 0-.59.5858-.59 1.5355 0 2.1213l8.48 8.4853-8.48 8.485c-.59.586-.59 1.536 0 2.122.58.585 1.53.585 2.12 0zm-73.38.439h72.32v-3h-72.32z"/><path d="m1242.68 103.5c-.83 0-1.5.672-1.5 1.5s.67 1.5 1.5 1.5zm57.38 2.561c.58-.586.58-1.536 0-2.122l-9.55-9.5456c-.58-.5858-1.53-.5858-2.12 0-.58.5858-.58 1.5355 0 2.1213l8.49 8.4853-8.49 8.485c-.58.586-.58 1.536 0 2.122.59.585 1.54.585 2.12 0zm-57.38.439h56.32v-3h-56.32z"/><path d="m1568.5 7c0-.82843-.67-1.5-1.5-1.5s-1.5.67157-1.5 1.5zm-3 208c0 .828.67 1.5 1.5 1.5s1.5-.672 1.5-1.5zm0-208v2.97143h3v-2.97143zm0 6.9333v5.9429h3v-5.9429zm0 9.9048v5.9429h3v-5.9429zm0 9.9048v5.9428h3v-5.9428zm0 9.9047v5.9429h3v-5.9429zm0 9.9048v5.9428h3v-5.9428zm0 9.9047v5.9429h3v-5.9429zm0 9.9048v5.9429h3v-5.9429zm0 9.9048v5.9428h3v-5.9428zm0 9.9047v5.9429h3v-5.9429zm0 9.9046v5.943h3v-5.943zm0 9.905v5.943h3v-5.943zm0 9.905v5.943h3v-5.943zm0 9.904v5.943h3v-5.943zm0 9.905v5.943h3v-5.943zm0 9.905v5.943h3v-5.943zm0 9.905v5.943h3v-5.943zm0 9.905v5.942h3v-5.942zm0 9.904v5.943h3v-5.943zm0 9.905v5.943h3v-5.943zm0 9.905v5.943h3v-5.943zm0 9.905v2.971h3v-2.971z"/><path d="m1840.5 7c0-.82843-.67-1.5-1.5-1.5s-1.5.67157-1.5 1.5zm-3 208c0 .828.67 1.5 1.5 1.5s1.5-.672 1.5-1.5zm0-208v2.97143h3v-2.97143zm0 6.9333v5.9429h3v-5.9429zm0 9.9048v5.9429h3v-5.9429zm0 9.9048v5.9428h3v-5.9428zm0 9.9047v5.9429h3v-5.9429zm0 9.9048v5.9428h3v-5.9428zm0 9.9047v5.9429h3v-5.9429zm0 9.9048v5.9429h3v-5.9429zm0 9.9048v5.9428h3v-5.9428zm0 9.9047v5.9429h3v-5.9429zm0 9.9046v5.943h3v-5.943zm0 9.905v5.943h3v-5.943zm0 9.905v5.943h3v-5.943zm0 9.904v5.943h3v-5.943zm0 9.905v5.943h3v-5.943zm0 9.905v5.943h3v-5.943zm0 9.905v5.943h3v-5.943zm0 9.905v5.942h3v-5.942zm0 9.904v5.943h3v-5.943zm0 9.905v5.943h3v-5.943zm0 9.905v5.943h3v-5.943zm0 9.905v2.971h3v-2.971z"/><path d="m1507 103.5c-.83 0-1.5.672-1.5 1.5s.67 1.5 1.5 1.5zm85.06 2.561c.59-.586.59-1.536 0-2.122l-9.55-9.5456c-.58-.5858-1.53-.5858-2.12 0-.58.5858-.58 1.5355 0 2.1213l8.49 8.4853-8.49 8.485c-.58.586-.58 1.536 0 2.122.59.585 1.54.585 2.12 0zm-85.06.439h3.15v-3h-3.15zm7.35 0h6.3v-3h-6.3zm10.5 0h6.3v-3h-6.3zm10.5 0h6.3v-3h-6.3zm10.5 0h6.3v-3h-6.3zm10.5 0h6.3v-3h-6.3zm10.5 0h6.3v-3h-6.3zm10.5 0h6.3v-3h-6.3zm10.5 0h3.15v-3h-3.15z"/><path d="m1813 102.5c-.83 0-1.5.672-1.5 1.5s.67 1.5 1.5 1.5zm95.06 2.561c.59-.586.59-1.536 0-2.122l-9.55-9.5456c-.58-.5858-1.53-.5858-2.12 0-.58.5858-.58 1.5355 0 2.1213l8.49 8.4853-8.49 8.485c-.58.586-.58 1.536 0 2.122.59.585 1.54.585 2.12 0zm-95.06.439h3.13v-3h-3.13zm7.31 0h6.27v-3h-6.27zm10.45 0h6.26v-3h-6.26zm10.44 0h6.27v-3h-6.27zm10.44 0h6.27v-3h-6.27zm10.45 0h6.27v-3h-6.27zm10.44 0h6.27v-3h-6.27zm10.45 0h6.26v-3h-6.26zm10.44 0h6.27v-3h-6.27zm10.45 0h3.13v-3h-3.13z"/><path d="m2119 102.5c-.83 0-1.5.672-1.5 1.5s.67 1.5 1.5 1.5zm61.06 2.561c.59-.586.59-1.536 0-2.122l-9.55-9.5456c-.58-.5858-1.53-.5858-2.12 0-.58.5858-.58 1.5355 0 2.1213l8.49 8.4853-8.49 8.485c-.58.586-.58 1.536 0 2.122.59.585 1.54.585 2.12 0zm-61.06.439h60v-3h-60z"/><path d="m645.5 184c0-.828-.672-1.5-1.5-1.5s-1.5.672-1.5 1.5zm-639.56066 45.939c-.58579.586-.58579 1.536 0 2.122l9.54596 9.546c.5858.585 1.5355.585 2.1213 0 .5858-.586.5858-1.536 0-2.122l-8.48528-8.485 8.48528-8.485c.5858-.586.5858-1.536 0-2.122-.5858-.585-1.5355-.585-2.1213 0zm1.06066 2.561h3.0148v-3h-3.0148zm7.0344 0h6.0295v-3h-6.0295zm10.0492 0h6.0295v-3h-6.0295zm10.0492 0h6.0295v-3h-6.0295zm10.0492 0h6.0295v-3h-6.0295zm10.0491 0h6.0296v-3h-6.0296zm10.0492 0h6.0295v-3h-6.0295zm10.0492 0h6.0295v-3h-6.0295zm10.0492 0h6.0295v-3h-6.0295zm10.0492 0h6.0291v-3h-6.0291zm10.0491 0h6.03v-3h-6.03zm10.049 0h6.03v-3h-6.03zm10.049 0h6.03v-3h-6.03zm10.05 0h6.029v-3h-6.029zm10.049 0h6.029v-3h-6.029zm10.049 0h6.029v-3h-6.029zm10.049 0h6.03v-3h-6.03zm10.049 0h6.03v-3h-6.03zm10.049 0h6.03v-3h-6.03zm10.05 0h6.029v-3h-6.029zm10.049 0h6.029v-3h-6.029zm10.049 0h6.03v-3h-6.03zm10.049 0h6.03v-3h-6.03zm10.049 0h6.03v-3h-6.03zm10.05 0h6.029v-3h-6.029zm10.049 0h6.029v-3h-6.029zm10.049 0h6.029v-3h-6.029zm10.049 0h6.03v-3h-6.03zm10.049 0h6.03v-3h-6.03zm10.049 0h6.03v-3h-6.03zm10.05 0h6.029v-3h-6.029zm10.049 0h6.029v-3h-6.029zm10.049 0h6.03v-3h-6.03zm10.049 0h6.03v-3h-6.03zm10.049 0h6.03v-3h-6.03zm10.05 0h6.029v-3h-6.029zm10.049 0h6.029v-3h-6.029zm10.049 0h6.03v-3h-6.03zm10.049 0h6.03v-3h-6.03zm10.049 0h6.03v-3h-6.03zm10.05 0h6.029v-3h-6.029zm10.049 0h6.029v-3h-6.029zm10.049 0h6.03v-3h-6.03zm10.049 0h6.03v-3h-6.03zm10.049 0h6.03v-3h-6.03zm10.05 0h6.029v-3h-6.029zm10.049 0h6.029v-3h-6.029zm10.049 0h6.03v-3h-6.03zm10.049 0h6.03v-3h-6.03zm10.049 0h6.03v-3h-6.03zm10.05 0h6.029v-3h-6.029zm10.049 0h6.029v-3h-6.029zm10.049 0h6.029v-3h-6.029zm10.049 0h6.03v-3h-6.03zm10.049 0h6.03v-3h-6.03zm10.049 0h6.03v-3h-6.03zm10.049 0h6.03v-3h-6.03zm10.05 0h6.029v-3h-6.029zm10.049 0h6.029v-3h-6.029zm10.049 0h6.029v-3h-6.029zm10.049 0h6.029v-3h-6.029zm10.049 0h3.015v-3h-3.015zm3.015 0c1.013 0 2.014-.059 2.997-.174l-.349-2.98c-.868.102-1.752.154-2.648.154zm6.924-.952c1.951-.549 3.808-1.325 5.539-2.296l-1.468-2.616c-1.527.857-3.164 1.54-4.884 2.025zm8.864-4.522c1.573-1.242 2.996-2.665 4.238-4.238l-2.355-1.859c-1.096 1.389-2.353 2.646-3.742 3.742zm6.464-7.563c.971-1.731 1.747-3.588 2.296-5.539l-2.887-.813c-.485 1.72-1.168 3.357-2.025 4.884zm3.074-9.466c.115-.983.174-1.984.174-2.997h-3c0 .896-.052 1.78-.154 2.648zm.174-2.997v-3.45h-3v3.45zm0-8.05v-6.9h-3v6.9zm0-11.5v-3.45h-3v3.45z"/></g></svg>